<?xml version="1.0" encoding="utf-8" standalone="no"?>
<!DOCTYPE svg PUBLIC "-//W3C//DTD SVG 1.1//EN"
  "http://www.w3.org/Graphics/SVG/1.1/DTD/svg11.dtd">
<!-- Created with matplotlib (https://matplotlib.org/) -->
<svg height="720pt" version="1.1" viewBox="0 0 720 720" width="720pt" xmlns="http://www.w3.org/2000/svg" xmlns:xlink="http://www.w3.org/1999/xlink">
 <defs>
  <style type="text/css">
*{stroke-linecap:butt;stroke-linejoin:round;}
  </style>
 </defs>
 <g id="figure_1">
  <g id="patch_1">
   <path d="M 0 720 
L 720 720 
L 720 0 
L 0 0 
z
" style="fill:#ffffff;"/>
  </g>
  <g id="axes_1">
   <g id="patch_2">
    <path d="M 90 630 
L 648 630 
L 648 86.4 
L 90 86.4 
z
" style="fill:#ffffff;"/>
   </g>
   <g id="patch_3">
    <path clip-path="url(#pa99fc91138)" d="M 234.15 297.8604 
L 324.0438 297.8604 
L 324.0438 177.07248 
L 234.15 177.07248 
z
" style="fill:#f2cbb7;opacity:0.5;stroke:#000000;stroke-linejoin:miter;"/>
   </g>
   <g id="patch_4">
    <path clip-path="url(#pa99fc91138)" d="M 324.049938 297.8604 
L 413.943738 297.8604 
L 413.943738 177.07248 
L 324.049938 177.07248 
z
" style="fill:#f6a586;opacity:0.5;stroke:#000000;stroke-linejoin:miter;"/>
   </g>
   <g id="patch_5">
    <path clip-path="url(#pa99fc91138)" d="M 413.950062 297.8604 
L 503.843862 297.8604 
L 503.843862 177.07248 
L 413.950062 177.07248 
z
" style="fill:#d5dbe5;opacity:0.5;stroke:#000000;stroke-linejoin:miter;"/>
   </g>
   <g id="patch_6">
    <path clip-path="url(#pa99fc91138)" d="M 234.15 418.7208 
L 324.0438 418.7208 
L 324.0438 297.93288 
L 234.15 297.93288 
z
" style="fill:#bd1f2d;opacity:0.5;stroke:#000000;stroke-linejoin:miter;"/>
   </g>
   <g id="patch_7">
    <path clip-path="url(#pa99fc91138)" d="M 324.049938 418.7208 
L 413.943738 418.7208 
L 413.943738 297.93288 
L 324.049938 297.93288 
z
" style="fill:#b50927;opacity:0.5;stroke:#000000;stroke-linejoin:miter;"/>
   </g>
   <g id="patch_8">
    <path clip-path="url(#pa99fc91138)" d="M 413.950062 418.7208 
L 503.843862 418.7208 
L 503.843862 297.93288 
L 413.950062 297.93288 
z
" style="fill:#d24b40;opacity:0.5;stroke:#000000;stroke-linejoin:miter;"/>
   </g>
   <g id="patch_9">
    <path clip-path="url(#pa99fc91138)" d="M 234.15 539.4 
L 324.0438 539.4 
L 324.0438 418.61208 
L 234.15 418.61208 
z
" style="fill:#d3dbe7;opacity:0.5;stroke:#000000;stroke-linejoin:miter;"/>
   </g>
   <g id="patch_10">
    <path clip-path="url(#pa99fc91138)" d="M 324.049938 539.4 
L 413.943738 539.4 
L 413.943738 418.61208 
L 324.049938 418.61208 
z
" style="fill:#dddcdc;opacity:0.5;stroke:#000000;stroke-linejoin:miter;"/>
   </g>
   <g id="patch_11">
    <path clip-path="url(#pa99fc91138)" d="M 413.950062 539.4 
L 503.843862 539.4 
L 503.843862 418.61208 
L 413.950062 418.61208 
z
" style="fill:#afcafc;opacity:0.5;stroke:#000000;stroke-linejoin:miter;"/>
   </g>
   <g id="matplotlib.axis_1"/>
   <g id="matplotlib.axis_2"/>
   <g id="LineCollection_1">
    <path clip-path="url(#pa99fc91138)" d="M 292.909091 528.212809 
L 298.545455 528.976353 
L 304.181818 529.619032 
L 315.454545 530.572148 
L 326.727273 531.11954 
L 338 531.302566 
L 349.272727 531.163388 
L 360.545455 530.745391 
L 371.818182 530.09268 
L 383.090909 529.247498 
L 400 527.706474 
L 416.909091 525.925485 
L 428.181818 524.540798 
L 433.818182 523.725262 
L 439.454545 522.804299 
L 445.090909 521.765691 
L 450.884325 520.550336 
L 456.363636 519.223943 
L 464.530255 516.902013 
L 467.636364 515.918442 
L 474.933399 513.253691 
L 478.909091 511.626527 
L 484.545455 509.036366 
L 490.416375 505.957047 
L 496.461452 502.308725 
L 501.782031 498.660403 
L 507.090909 494.511865 
L 512.727273 489.431282 
L 514.429562 487.715436 
L 518.363636 483.518562 
L 520.940047 480.418792 
L 524 476.503663 
L 526.343023 473.122148 
L 529.636364 467.959616 
L 530.87042 465.825503 
L 532.832138 462.177181 
L 535.272727 457.240541 
L 536.329642 454.880537 
L 539.234817 447.583893 
L 540.909091 442.772347 
L 542.73537 436.638926 
L 544.553318 429.342282 
L 546.049025 422.045638 
L 547.230903 414.748993 
L 548.136399 407.452349 
L 548.819235 400.155705 
L 549.313564 392.85906 
L 549.773636 381.914094 
L 549.992071 370.969128 
L 550.08798 352.727517 
L 549.985649 341.78255 
L 549.660023 330.837584 
L 549.274608 323.54094 
L 548.72319 316.244295 
L 547.978128 308.947651 
L 547.009628 301.651007 
L 545.761552 294.354362 
L 544.221817 287.057718 
L 542.374211 279.761074 
L 540.909091 274.805555 
L 538.858066 268.816107 
L 535.992192 261.519463 
L 534.348291 257.871141 
L 530.654589 250.574497 
L 528.561051 246.926174 
L 524 239.83167 
L 521.141345 235.981208 
L 518.282949 232.332886 
L 512.727273 226.149638 
L 507.79315 221.387919 
L 507.090909 220.741999 
L 501.454545 216.061368 
L 495.818182 211.975993 
L 490.181818 208.403625 
L 484.545455 205.257187 
L 478.909091 202.49366 
L 471.776695 199.497987 
L 467.636364 197.951576 
L 461.217641 195.849664 
L 456.363636 194.456685 
L 447.041542 192.201342 
L 445.090909 191.774127 
L 439.454545 190.685914 
L 428.181818 188.863741 
L 416.909091 187.408868 
L 400 185.550929 
L 388.727273 184.436578 
L 377.454545 183.473098 
L 366.181818 182.68818 
L 354.909091 182.125991 
L 343.636364 181.830822 
L 332.363636 181.848036 
L 321.090909 182.222159 
L 309.818182 182.997278 
L 304.181818 183.548301 
L 293.677067 184.904698 
L 292.909091 185.015673 
L 287.272727 185.964706 
L 281.636364 187.057434 
L 275.000199 188.55302 
L 270.363636 189.742268 
L 262.092917 192.201342 
L 259.090909 193.183952 
L 251.883857 195.849664 
L 247.818182 197.514768 
L 242.181818 200.06064 
L 236.082116 203.146309 
L 229.696831 206.794631 
L 223.989392 210.442953 
L 218.839017 214.091275 
L 214 217.868379 
L 208.363636 222.807635 
L 202.727273 228.373027 
L 202.436045 228.684564 
L 197.090909 234.77592 
L 196.120765 235.981208 
L 191.454545 242.226133 
L 190.729303 243.277852 
L 188.362813 246.926174 
L 185.818182 251.122888 
L 184.11524 254.222819 
L 180.489052 261.519463 
L 178.897481 265.167785 
L 176.075825 272.46443 
L 174.545455 276.95172 
L 172.640725 283.409396 
L 170.833741 290.70604 
L 169.338644 298.002685 
L 168.147195 305.299329 
L 167.224943 312.595973 
L 166.527776 319.892617 
L 166.024909 327.189262 
L 165.570832 338.134228 
L 165.390506 349.079195 
L 165.408117 363.672483 
L 165.612339 378.265772 
L 166.009715 389.210738 
L 166.455739 396.507383 
L 167.087847 403.804027 
L 167.941634 411.100671 
L 169.06049 418.397315 
L 170.500667 425.69396 
L 172.267134 432.990604 
L 174.409052 440.287248 
L 175.669369 443.93557 
L 178.514156 451.232215 
L 180.181818 455.012594 
L 183.831865 462.177181 
L 185.900607 465.825503 
L 188.20915 469.473826 
L 191.454545 474.215446 
L 193.393015 476.77047 
L 197.090909 481.310094 
L 199.594881 484.067114 
L 203.10558 487.715436 
L 208.363636 492.573017 
L 214 497.186274 
L 219.636364 501.298067 
L 225.272727 504.974931 
L 230.909091 508.274815 
L 236.545455 511.247365 
L 242.181818 513.928835 
L 249.269954 516.902013 
L 253.454545 518.494633 
L 259.438393 520.550336 
L 264.727273 522.164843 
L 272.363964 524.198658 
L 276 525.070483 
L 281.636364 526.262908 
L 290.601165 527.84698 
L 292.909091 528.212809 
L 292.909091 528.212809 
" style="fill:none;stroke:#000000;stroke-width:3;"/>
   </g>
   <g id="LineCollection_2">
    <path clip-path="url(#pa99fc91138)" d="M 315.454545 484.552437 
L 321.090909 485.007075 
L 326.727273 485.329237 
L 332.363636 485.522632 
L 338 485.592741 
L 349.272727 485.392383 
L 360.545455 484.795258 
L 371.818182 483.853153 
L 383.090909 482.517993 
L 398.52044 480.418792 
L 411.272727 478.282989 
L 419.942782 476.77047 
L 428.181818 474.982917 
L 435.7845 473.122148 
L 439.454545 472.033711 
L 447.091723 469.473826 
L 450.727273 468.018482 
L 456.363636 465.508099 
L 462.480817 462.177181 
L 468.025843 458.528859 
L 473.272727 454.358676 
L 478.909091 448.821981 
L 479.968989 447.583893 
L 484.545455 441.76748 
L 485.503814 440.287248 
L 489.810968 432.990604 
L 490.181818 432.289201 
L 492.968395 425.69396 
L 495.636822 418.397315 
L 495.818182 417.823164 
L 497.446824 411.100671 
L 498.865242 403.804027 
L 499.952394 396.507383 
L 500.736835 389.210738 
L 501.263712 381.914094 
L 501.558878 374.61745 
L 501.740083 363.672483 
L 501.765279 349.079195 
L 501.507919 338.134228 
L 501.313349 334.485906 
L 500.709713 327.189262 
L 499.827685 319.892617 
L 498.634668 312.595973 
L 497.115721 305.299329 
L 495.818182 300.133995 
L 495.115248 298.002685 
L 492.370424 290.70604 
L 490.181818 285.550257 
L 489.024921 283.409396 
L 484.545455 275.788714 
L 478.909091 268.53837 
L 473.272727 262.884844 
L 471.672923 261.519463 
L 467.107318 257.871141 
L 461.620073 254.222819 
L 454.866464 250.574497 
L 450.727273 248.685157 
L 445.090909 246.40281 
L 439.454545 244.503403 
L 433.818182 242.822354 
L 422.545455 240.108579 
L 416.909091 238.981559 
L 400 235.953615 
L 383.090909 233.481117 
L 371.818182 232.080163 
L 360.545455 231.093048 
L 349.272727 230.450851 
L 343.636364 230.276783 
L 338 230.226538 
L 332.363636 230.309429 
L 326.727273 230.512521 
L 321.090909 230.862645 
L 315.454545 231.356808 
L 307.455019 232.332886 
L 304.181818 232.856336 
L 298.545455 233.929732 
L 289.667932 235.981208 
L 287.272727 236.653013 
L 281.636364 238.423235 
L 276 240.471328 
L 269.45428 243.277852 
L 262.511144 246.926174 
L 259.090909 248.978484 
L 253.454545 252.817695 
L 251.651365 254.222819 
L 247.25475 257.871141 
L 242.181818 262.865281 
L 237.132142 268.816107 
L 236.545455 269.562726 
L 232.181688 276.112752 
L 230.909091 278.159913 
L 230.055994 279.761074 
L 226.502277 287.057718 
L 224.930615 290.70604 
L 222.514367 298.002685 
L 220.457056 305.299329 
L 219.582343 308.947651 
L 218.367116 316.244295 
L 217.441835 323.54094 
L 216.782055 330.837584 
L 216.354017 338.134228 
L 216.11967 345.430872 
L 216.035502 356.375839 
L 216.137704 367.320805 
L 216.585422 381.914094 
L 217.056797 389.210738 
L 217.758103 396.507383 
L 218.73042 403.804027 
L 219.636364 409.119588 
L 221.019705 414.748993 
L 223.185676 422.045638 
L 225.272727 428.060463 
L 225.832145 429.342282 
L 229.383928 436.638926 
L 231.384267 440.287248 
L 236.545455 447.886427 
L 242.670589 454.880537 
L 247.818182 459.65686 
L 253.454545 464.041569 
L 259.090909 467.745846 
L 264.727273 470.893133 
L 270.363636 473.613933 
L 278.390206 476.77047 
L 281.636364 477.842757 
L 290.663069 480.418792 
L 292.909091 480.947432 
L 298.545455 482.098487 
L 304.181818 483.098534 
L 310.824663 484.067114 
L 315.454545 484.552437 
L 315.454545 484.552437 
" style="fill:none;stroke:#0000ff;stroke-width:3;"/>
   </g>
   <g id="line2d_1">
    <path clip-path="url(#pa99fc91138)" d="M 234.15 539.4 
L 234.15 177 
" style="fill:none;stroke:#ff0000;stroke-linecap:square;stroke-width:1.5;"/>
   </g>
   <g id="line2d_2">
    <path clip-path="url(#pa99fc91138)" d="M 503.85 539.4 
L 503.85 177 
" style="fill:none;stroke:#ff0000;stroke-linecap:square;stroke-width:1.5;"/>
   </g>
   <g id="line2d_3">
    <path clip-path="url(#pa99fc91138)" d="M 234.15 539.4 
L 503.85 539.4 
" style="fill:none;stroke:#ff0000;stroke-linecap:square;stroke-width:1.5;"/>
   </g>
   <g id="line2d_4">
    <path clip-path="url(#pa99fc91138)" d="M 234.15 177 
L 503.85 177 
" style="fill:none;stroke:#ff0000;stroke-linecap:square;stroke-width:1.5;"/>
   </g>
   <g id="text_1">
    <!-- Less Than 2 Strikes -->
    <defs>
     <path d="M 9.8125 72.90625 
L 19.671875 72.90625 
L 19.671875 8.296875 
L 55.171875 8.296875 
L 55.171875 0 
L 9.8125 0 
z
" id="DejaVuSans-76"/>
     <path d="M 56.203125 29.59375 
L 56.203125 25.203125 
L 14.890625 25.203125 
Q 15.484375 15.921875 20.484375 11.0625 
Q 25.484375 6.203125 34.421875 6.203125 
Q 39.59375 6.203125 44.453125 7.46875 
Q 49.3125 8.734375 54.109375 11.28125 
L 54.109375 2.78125 
Q 49.265625 0.734375 44.1875 -0.34375 
Q 39.109375 -1.421875 33.890625 -1.421875 
Q 20.796875 -1.421875 13.15625 6.1875 
Q 5.515625 13.8125 5.515625 26.8125 
Q 5.515625 40.234375 12.765625 48.109375 
Q 20.015625 56 32.328125 56 
Q 43.359375 56 49.78125 48.890625 
Q 56.203125 41.796875 56.203125 29.59375 
z
M 47.21875 32.234375 
Q 47.125 39.59375 43.09375 43.984375 
Q 39.0625 48.390625 32.421875 48.390625 
Q 24.90625 48.390625 20.390625 44.140625 
Q 15.875 39.890625 15.1875 32.171875 
z
" id="DejaVuSans-101"/>
     <path d="M 44.28125 53.078125 
L 44.28125 44.578125 
Q 40.484375 46.53125 36.375 47.5 
Q 32.28125 48.484375 27.875 48.484375 
Q 21.1875 48.484375 17.84375 46.4375 
Q 14.5 44.390625 14.5 40.28125 
Q 14.5 37.15625 16.890625 35.375 
Q 19.28125 33.59375 26.515625 31.984375 
L 29.59375 31.296875 
Q 39.15625 29.25 43.1875 25.515625 
Q 47.21875 21.78125 47.21875 15.09375 
Q 47.21875 7.46875 41.1875 3.015625 
Q 35.15625 -1.421875 24.609375 -1.421875 
Q 20.21875 -1.421875 15.453125 -0.5625 
Q 10.6875 0.296875 5.421875 2 
L 5.421875 11.28125 
Q 10.40625 8.6875 15.234375 7.390625 
Q 20.0625 6.109375 24.8125 6.109375 
Q 31.15625 6.109375 34.5625 8.28125 
Q 37.984375 10.453125 37.984375 14.40625 
Q 37.984375 18.0625 35.515625 20.015625 
Q 33.0625 21.96875 24.703125 23.78125 
L 21.578125 24.515625 
Q 13.234375 26.265625 9.515625 29.90625 
Q 5.8125 33.546875 5.8125 39.890625 
Q 5.8125 47.609375 11.28125 51.796875 
Q 16.75 56 26.8125 56 
Q 31.78125 56 36.171875 55.265625 
Q 40.578125 54.546875 44.28125 53.078125 
z
" id="DejaVuSans-115"/>
     <path id="DejaVuSans-32"/>
     <path d="M -0.296875 72.90625 
L 61.375 72.90625 
L 61.375 64.59375 
L 35.5 64.59375 
L 35.5 0 
L 25.59375 0 
L 25.59375 64.59375 
L -0.296875 64.59375 
z
" id="DejaVuSans-84"/>
     <path d="M 54.890625 33.015625 
L 54.890625 0 
L 45.90625 0 
L 45.90625 32.71875 
Q 45.90625 40.484375 42.875 44.328125 
Q 39.84375 48.1875 33.796875 48.1875 
Q 26.515625 48.1875 22.3125 43.546875 
Q 18.109375 38.921875 18.109375 30.90625 
L 18.109375 0 
L 9.078125 0 
L 9.078125 75.984375 
L 18.109375 75.984375 
L 18.109375 46.1875 
Q 21.34375 51.125 25.703125 53.5625 
Q 30.078125 56 35.796875 56 
Q 45.21875 56 50.046875 50.171875 
Q 54.890625 44.34375 54.890625 33.015625 
z
" id="DejaVuSans-104"/>
     <path d="M 34.28125 27.484375 
Q 23.390625 27.484375 19.1875 25 
Q 14.984375 22.515625 14.984375 16.5 
Q 14.984375 11.71875 18.140625 8.90625 
Q 21.296875 6.109375 26.703125 6.109375 
Q 34.1875 6.109375 38.703125 11.40625 
Q 43.21875 16.703125 43.21875 25.484375 
L 43.21875 27.484375 
z
M 52.203125 31.203125 
L 52.203125 0 
L 43.21875 0 
L 43.21875 8.296875 
Q 40.140625 3.328125 35.546875 0.953125 
Q 30.953125 -1.421875 24.3125 -1.421875 
Q 15.921875 -1.421875 10.953125 3.296875 
Q 6 8.015625 6 15.921875 
Q 6 25.140625 12.171875 29.828125 
Q 18.359375 34.515625 30.609375 34.515625 
L 43.21875 34.515625 
L 43.21875 35.40625 
Q 43.21875 41.609375 39.140625 45 
Q 35.0625 48.390625 27.6875 48.390625 
Q 23 48.390625 18.546875 47.265625 
Q 14.109375 46.140625 10.015625 43.890625 
L 10.015625 52.203125 
Q 14.9375 54.109375 19.578125 55.046875 
Q 24.21875 56 28.609375 56 
Q 40.484375 56 46.34375 49.84375 
Q 52.203125 43.703125 52.203125 31.203125 
z
" id="DejaVuSans-97"/>
     <path d="M 54.890625 33.015625 
L 54.890625 0 
L 45.90625 0 
L 45.90625 32.71875 
Q 45.90625 40.484375 42.875 44.328125 
Q 39.84375 48.1875 33.796875 48.1875 
Q 26.515625 48.1875 22.3125 43.546875 
Q 18.109375 38.921875 18.109375 30.90625 
L 18.109375 0 
L 9.078125 0 
L 9.078125 54.6875 
L 18.109375 54.6875 
L 18.109375 46.1875 
Q 21.34375 51.125 25.703125 53.5625 
Q 30.078125 56 35.796875 56 
Q 45.21875 56 50.046875 50.171875 
Q 54.890625 44.34375 54.890625 33.015625 
z
" id="DejaVuSans-110"/>
     <path d="M 19.1875 8.296875 
L 53.609375 8.296875 
L 53.609375 0 
L 7.328125 0 
L 7.328125 8.296875 
Q 12.9375 14.109375 22.625 23.890625 
Q 32.328125 33.6875 34.8125 36.53125 
Q 39.546875 41.84375 41.421875 45.53125 
Q 43.3125 49.21875 43.3125 52.78125 
Q 43.3125 58.59375 39.234375 62.25 
Q 35.15625 65.921875 28.609375 65.921875 
Q 23.96875 65.921875 18.8125 64.3125 
Q 13.671875 62.703125 7.8125 59.421875 
L 7.8125 69.390625 
Q 13.765625 71.78125 18.9375 73 
Q 24.125 74.21875 28.421875 74.21875 
Q 39.75 74.21875 46.484375 68.546875 
Q 53.21875 62.890625 53.21875 53.421875 
Q 53.21875 48.921875 51.53125 44.890625 
Q 49.859375 40.875 45.40625 35.40625 
Q 44.1875 33.984375 37.640625 27.21875 
Q 31.109375 20.453125 19.1875 8.296875 
z
" id="DejaVuSans-50"/>
     <path d="M 53.515625 70.515625 
L 53.515625 60.890625 
Q 47.90625 63.578125 42.921875 64.890625 
Q 37.9375 66.21875 33.296875 66.21875 
Q 25.25 66.21875 20.875 63.09375 
Q 16.5 59.96875 16.5 54.203125 
Q 16.5 49.359375 19.40625 46.890625 
Q 22.3125 44.4375 30.421875 42.921875 
L 36.375 41.703125 
Q 47.40625 39.59375 52.65625 34.296875 
Q 57.90625 29 57.90625 20.125 
Q 57.90625 9.515625 50.796875 4.046875 
Q 43.703125 -1.421875 29.984375 -1.421875 
Q 24.8125 -1.421875 18.96875 -0.25 
Q 13.140625 0.921875 6.890625 3.21875 
L 6.890625 13.375 
Q 12.890625 10.015625 18.65625 8.296875 
Q 24.421875 6.59375 29.984375 6.59375 
Q 38.421875 6.59375 43.015625 9.90625 
Q 47.609375 13.234375 47.609375 19.390625 
Q 47.609375 24.75 44.3125 27.78125 
Q 41.015625 30.8125 33.5 32.328125 
L 27.484375 33.5 
Q 16.453125 35.6875 11.515625 40.375 
Q 6.59375 45.0625 6.59375 53.421875 
Q 6.59375 63.09375 13.40625 68.65625 
Q 20.21875 74.21875 32.171875 74.21875 
Q 37.3125 74.21875 42.625 73.28125 
Q 47.953125 72.359375 53.515625 70.515625 
z
" id="DejaVuSans-83"/>
     <path d="M 18.3125 70.21875 
L 18.3125 54.6875 
L 36.8125 54.6875 
L 36.8125 47.703125 
L 18.3125 47.703125 
L 18.3125 18.015625 
Q 18.3125 11.328125 20.140625 9.421875 
Q 21.96875 7.515625 27.59375 7.515625 
L 36.8125 7.515625 
L 36.8125 0 
L 27.59375 0 
Q 17.1875 0 13.234375 3.875 
Q 9.28125 7.765625 9.28125 18.015625 
L 9.28125 47.703125 
L 2.6875 47.703125 
L 2.6875 54.6875 
L 9.28125 54.6875 
L 9.28125 70.21875 
z
" id="DejaVuSans-116"/>
     <path d="M 41.109375 46.296875 
Q 39.59375 47.171875 37.8125 47.578125 
Q 36.03125 48 33.890625 48 
Q 26.265625 48 22.1875 43.046875 
Q 18.109375 38.09375 18.109375 28.8125 
L 18.109375 0 
L 9.078125 0 
L 9.078125 54.6875 
L 18.109375 54.6875 
L 18.109375 46.1875 
Q 20.953125 51.171875 25.484375 53.578125 
Q 30.03125 56 36.53125 56 
Q 37.453125 56 38.578125 55.875 
Q 39.703125 55.765625 41.0625 55.515625 
z
" id="DejaVuSans-114"/>
     <path d="M 9.421875 54.6875 
L 18.40625 54.6875 
L 18.40625 0 
L 9.421875 0 
z
M 9.421875 75.984375 
L 18.40625 75.984375 
L 18.40625 64.59375 
L 9.421875 64.59375 
z
" id="DejaVuSans-105"/>
     <path d="M 9.078125 75.984375 
L 18.109375 75.984375 
L 18.109375 31.109375 
L 44.921875 54.6875 
L 56.390625 54.6875 
L 27.390625 29.109375 
L 57.625 0 
L 45.90625 0 
L 18.109375 26.703125 
L 18.109375 0 
L 9.078125 0 
z
" id="DejaVuSans-107"/>
    </defs>
    <g transform="translate(252.2925 80.4)scale(0.24 -0.24)">
     <use xlink:href="#DejaVuSans-76"/>
     <use x="55.697266" xlink:href="#DejaVuSans-101"/>
     <use x="117.220703" xlink:href="#DejaVuSans-115"/>
     <use x="169.320312" xlink:href="#DejaVuSans-115"/>
     <use x="221.419922" xlink:href="#DejaVuSans-32"/>
     <use x="253.207031" xlink:href="#DejaVuSans-84"/>
     <use x="314.291016" xlink:href="#DejaVuSans-104"/>
     <use x="377.669922" xlink:href="#DejaVuSans-97"/>
     <use x="438.949219" xlink:href="#DejaVuSans-110"/>
     <use x="502.328125" xlink:href="#DejaVuSans-32"/>
     <use x="534.115234" xlink:href="#DejaVuSans-50"/>
     <use x="597.738281" xlink:href="#DejaVuSans-32"/>
     <use x="629.525391" xlink:href="#DejaVuSans-83"/>
     <use x="693.001953" xlink:href="#DejaVuSans-116"/>
     <use x="732.210938" xlink:href="#DejaVuSans-114"/>
     <use x="773.324219" xlink:href="#DejaVuSans-105"/>
     <use x="801.107422" xlink:href="#DejaVuSans-107"/>
     <use x="858.970703" xlink:href="#DejaVuSans-101"/>
     <use x="920.494141" xlink:href="#DejaVuSans-115"/>
    </g>
   </g>
  </g>
 </g>
 <defs>
  <clipPath id="pa99fc91138">
   <rect height="543.6" width="558" x="90" y="86.4"/>
  </clipPath>
 </defs>
</svg>
