<?xml version="1.0" encoding="utf-8" standalone="no"?>
<!DOCTYPE svg PUBLIC "-//W3C//DTD SVG 1.1//EN"
  "http://www.w3.org/Graphics/SVG/1.1/DTD/svg11.dtd">
<!-- Created with matplotlib (https://matplotlib.org/) -->
<svg height="720pt" version="1.1" viewBox="0 0 720 720" width="720pt" xmlns="http://www.w3.org/2000/svg" xmlns:xlink="http://www.w3.org/1999/xlink">
 <defs>
  <style type="text/css">
*{stroke-linecap:butt;stroke-linejoin:round;}
  </style>
 </defs>
 <g id="figure_1">
  <g id="patch_1">
   <path d="M 0 720 
L 720 720 
L 720 0 
L 0 0 
z
" style="fill:#ffffff;"/>
  </g>
  <g id="axes_1">
   <g id="patch_2">
    <path d="M 90 630 
L 648 630 
L 648 86.4 
L 90 86.4 
z
" style="fill:#ffffff;"/>
   </g>
   <g id="matplotlib.axis_1"/>
   <g id="matplotlib.axis_2"/>
   <g id="LineCollection_1">
    <path clip-path="url(#p31d1e13c23)" d="M 309.818182 529.363884 
L 321.090909 530.449426 
L 332.363636 531.138915 
L 343.636364 531.450952 
L 354.909091 531.409401 
L 366.181818 531.02923 
L 377.454545 530.332512 
L 388.727273 529.338405 
L 400 528.050943 
L 413.208202 526.196985 
L 422.545455 524.673114 
L 433.818182 522.584205 
L 445.090909 520.129518 
L 453.376059 518.00201 
L 456.363636 517.170518 
L 462.569717 515.270352 
L 470.371315 512.538693 
L 473.272727 511.436034 
L 478.909091 509.080775 
L 484.545455 506.450522 
L 490.181818 503.499128 
L 495.818182 500.179122 
L 501.840576 496.148744 
L 507.090909 492.12624 
L 511.872578 487.953769 
L 514.690433 485.222111 
L 518.363636 481.366345 
L 521.992164 477.027136 
L 524.138441 474.295477 
L 527.878199 468.832161 
L 529.636364 466.074841 
L 532.64606 460.637186 
L 535.377335 455.173869 
L 537.680104 449.710553 
L 539.735345 444.247236 
L 541.534764 438.78392 
L 543.054154 433.320603 
L 544.386558 427.857286 
L 545.553799 422.39397 
L 546.568999 416.930653 
L 547.754827 408.735678 
L 548.678807 400.540704 
L 549.392872 392.345729 
L 550.094456 381.419095 
L 550.707246 367.760804 
L 551.00045 356.834171 
L 551.050638 345.907538 
L 550.889318 337.712563 
L 550.52823 329.517588 
L 549.93937 321.322613 
L 549.097299 313.127638 
L 547.970044 304.932663 
L 546.545455 296.83198 
L 545.93209 294.00603 
L 544.627226 288.542714 
L 543.153158 283.079397 
L 541.495226 277.61608 
L 540.569972 274.884422 
L 538.486425 269.421106 
L 536.192843 263.957789 
L 534.928084 261.226131 
L 532.100386 255.762814 
L 528.967046 250.299497 
L 525.391604 244.836181 
L 523.450681 242.104523 
L 518.363636 235.664504 
L 514.297407 231.177889 
L 511.623158 228.446231 
L 507.090909 224.186268 
L 501.454545 219.501379 
L 494.952701 214.78794 
L 490.181818 211.703025 
L 484.545455 208.431952 
L 478.909091 205.51625 
L 473.272727 202.904859 
L 467.636364 200.562844 
L 461.798995 198.39799 
L 453.410295 195.666332 
L 450.727273 194.862454 
L 443.590845 192.934673 
L 433.818182 190.625578 
L 428.181818 189.44499 
L 416.909091 187.318509 
L 405.636364 185.491803 
L 394.363636 183.950556 
L 383.090909 182.718065 
L 371.818182 181.800657 
L 360.545455 181.225139 
L 349.272727 180.997645 
L 338 181.139814 
L 326.727273 181.669543 
L 321.090909 182.08989 
L 309.818182 183.27067 
L 299.574646 184.739698 
L 298.545455 184.902567 
L 292.909091 185.914949 
L 285.432 187.471357 
L 281.636364 188.348939 
L 274.552793 190.203015 
L 270.363636 191.415787 
L 264.727273 193.211141 
L 257.923617 195.666332 
L 251.188029 198.39799 
L 245.177201 201.129648 
L 239.732908 203.861307 
L 234.766425 206.592965 
L 230.183611 209.324623 
L 225.272727 212.521398 
L 218.42086 217.519598 
L 214 221.079508 
L 208.363636 226.112685 
L 202.727273 231.787462 
L 198.437652 236.641206 
L 196.187836 239.372864 
L 191.454545 245.680722 
L 188.39673 250.299497 
L 185.083203 255.762814 
L 182.171951 261.226131 
L 179.539923 266.689447 
L 177.249513 272.152764 
L 175.180991 277.61608 
L 173.377022 283.079397 
L 171.805858 288.542714 
L 170.41942 294.00603 
L 168.909091 300.932854 
L 168.181758 304.932663 
L 167.327252 310.39598 
L 166.309527 318.590955 
L 165.581303 326.78593 
L 165.109057 334.980905 
L 164.8651 343.175879 
L 164.818814 351.370854 
L 165.014131 362.297487 
L 165.437776 373.224121 
L 166.035384 384.150754 
L 166.868458 395.077387 
L 167.716212 403.272362 
L 168.909091 412.069532 
L 170.260827 419.662312 
L 171.417864 425.125628 
L 172.746387 430.588945 
L 174.545455 436.954235 
L 176.067028 441.515578 
L 178.09959 446.978894 
L 180.394764 452.442211 
L 183.073977 457.905528 
L 186.050568 463.368844 
L 189.500673 468.832161 
L 191.454545 471.698267 
L 195.545612 477.027136 
L 197.828737 479.758794 
L 202.898829 485.222111 
L 208.753524 490.685427 
L 214 494.979912 
L 219.636364 499.092928 
L 225.272727 502.754229 
L 230.909091 506.053023 
L 236.545455 509.032506 
L 242.181818 511.729988 
L 247.818182 514.174676 
L 253.454545 516.392582 
L 259.090909 518.40716 
L 266.45291 520.733668 
L 270.363636 521.865905 
L 276.477471 523.465327 
L 281.636364 524.673797 
L 289.044416 526.196985 
L 292.909091 526.914828 
L 304.181818 528.660722 
L 309.818182 529.363884 
L 309.818182 529.363884 
" style="fill:none;stroke:#000000;stroke-width:3;"/>
   </g>
   <g id="LineCollection_2">
    <path clip-path="url(#p31d1e13c23)" d="M 338 485.376236 
L 343.636364 485.543317 
L 349.272727 485.576052 
L 354.909091 485.477996 
L 361.067076 485.222111 
L 366.181818 484.868601 
L 371.818182 484.351478 
L 383.090909 482.970636 
L 388.727273 482.09422 
L 400.879583 479.758794 
L 412.062603 477.027136 
L 422.545455 473.96398 
L 429.610957 471.563819 
L 436.754088 468.832161 
L 442.930039 466.100503 
L 445.090909 465.075298 
L 450.727273 462.096058 
L 456.363636 458.660414 
L 461.264003 455.173869 
L 462 454.627337 
L 467.767152 449.710553 
L 473.272727 443.994229 
L 477.326951 438.78392 
L 479.297407 436.052261 
L 482.532068 430.588945 
L 484.545455 426.937339 
L 486.513087 422.39397 
L 488.664508 416.930653 
L 490.181818 412.65397 
L 491.23661 408.735678 
L 492.539499 403.272362 
L 493.668172 397.809045 
L 495.066734 389.61407 
L 495.829263 384.150754 
L 496.60242 375.955779 
L 497.399675 365.029146 
L 497.773312 356.834171 
L 497.893193 348.639196 
L 497.70573 340.444221 
L 497.385664 334.980905 
L 496.897949 329.517588 
L 496.229415 324.054271 
L 495.818182 321.270295 
L 494.668409 315.859296 
L 493.279492 310.39598 
L 491.670151 304.932663 
L 490.181818 300.467854 
L 488.569699 296.737688 
L 485.992697 291.274372 
L 484.545455 288.405746 
L 481.162624 283.079397 
L 478.909091 279.699 
L 473.272727 272.888769 
L 469.801765 269.421106 
L 466.882578 266.689447 
L 462 262.691546 
L 456.015467 258.494472 
L 450.727273 255.327151 
L 445.090909 252.389997 
L 439.454545 249.735525 
L 433.818182 247.374082 
L 426.846983 244.836181 
L 418.590297 242.104523 
L 411.272727 239.988556 
L 405.636364 238.518193 
L 397.58501 236.641206 
L 394.363636 235.972812 
L 382.782315 233.909548 
L 371.818182 232.522574 
L 360.545455 231.581872 
L 354.909091 231.318166 
L 349.272727 231.202976 
L 343.636364 231.241782 
L 338 231.43818 
L 332.363636 231.794726 
L 326.727273 232.311687 
L 321.090909 232.983191 
L 314.903127 233.909548 
L 309.818182 234.872691 
L 301.960145 236.641206 
L 298.545455 237.54736 
L 292.423861 239.372864 
L 284.787852 242.104523 
L 281.636364 243.376667 
L 276 245.916138 
L 270.363636 248.827104 
L 263.421251 253.031156 
L 259.090909 256.009779 
L 252.663729 261.226131 
L 247.818182 265.780429 
L 244.526093 269.421106 
L 242.12686 272.152764 
L 236.545455 279.845385 
L 234.664107 283.079397 
L 230.909091 289.868273 
L 229.129774 294.00603 
L 226.96672 299.469347 
L 225.272727 304.149177 
L 224.304124 307.664322 
L 222.975703 313.127638 
L 221.84989 318.590955 
L 220.924607 324.054271 
L 220.198597 329.517588 
L 219.636364 335.387067 
L 219.287113 343.175879 
L 219.215293 351.370854 
L 219.403694 359.565829 
L 219.838025 367.760804 
L 220.781312 378.687437 
L 221.684259 386.882412 
L 222.830048 395.077387 
L 224.271829 403.272362 
L 225.458766 408.735678 
L 227.052592 414.198995 
L 228.844697 419.662312 
L 230.909091 425.304432 
L 233.454375 430.588945 
L 236.545455 436.49787 
L 239.870159 441.515578 
L 242.181818 444.823105 
L 246.306125 449.710553 
L 248.821839 452.442211 
L 253.454545 456.857606 
L 258.110105 460.637186 
L 259.090909 461.403148 
L 264.727273 465.272421 
L 270.757592 468.832161 
L 276.173909 471.563819 
L 282.465509 474.295477 
L 290.023331 477.027136 
L 292.909091 477.953531 
L 299.177678 479.758794 
L 304.181818 480.943342 
L 311.759628 482.490452 
L 315.454545 483.108938 
L 321.090909 483.907103 
L 326.727273 484.556134 
L 335.143082 485.222111 
L 338 485.376236 
L 338 485.376236 
" style="fill:none;stroke:#0000ff;stroke-width:3;"/>
   </g>
   <g id="line2d_1">
    <path clip-path="url(#p31d1e13c23)" d="M 234.15 539.4 
L 234.15 177 
" style="fill:none;stroke:#ff0000;stroke-linecap:square;stroke-opacity:0.5;stroke-width:1.5;"/>
   </g>
   <g id="line2d_2">
    <path clip-path="url(#p31d1e13c23)" d="M 503.85 539.4 
L 503.85 177 
" style="fill:none;stroke:#ff0000;stroke-linecap:square;stroke-opacity:0.5;stroke-width:1.5;"/>
   </g>
   <g id="line2d_3">
    <path clip-path="url(#p31d1e13c23)" d="M 234.15 539.4 
L 503.85 539.4 
" style="fill:none;stroke:#ff0000;stroke-linecap:square;stroke-opacity:0.5;stroke-width:1.5;"/>
   </g>
   <g id="line2d_4">
    <path clip-path="url(#p31d1e13c23)" d="M 234.15 177 
L 503.85 177 
" style="fill:none;stroke:#ff0000;stroke-linecap:square;stroke-opacity:0.5;stroke-width:1.5;"/>
   </g>
   <g id="text_1">
    <!-- Non-Swing Pitches, 2008-2021 -->
    <defs>
     <path d="M 9.8125 72.90625 
L 23.09375 72.90625 
L 55.421875 11.921875 
L 55.421875 72.90625 
L 64.984375 72.90625 
L 64.984375 0 
L 51.703125 0 
L 19.390625 60.984375 
L 19.390625 0 
L 9.8125 0 
z
" id="DejaVuSans-78"/>
     <path d="M 30.609375 48.390625 
Q 23.390625 48.390625 19.1875 42.75 
Q 14.984375 37.109375 14.984375 27.296875 
Q 14.984375 17.484375 19.15625 11.84375 
Q 23.34375 6.203125 30.609375 6.203125 
Q 37.796875 6.203125 41.984375 11.859375 
Q 46.1875 17.53125 46.1875 27.296875 
Q 46.1875 37.015625 41.984375 42.703125 
Q 37.796875 48.390625 30.609375 48.390625 
z
M 30.609375 56 
Q 42.328125 56 49.015625 48.375 
Q 55.71875 40.765625 55.71875 27.296875 
Q 55.71875 13.875 49.015625 6.21875 
Q 42.328125 -1.421875 30.609375 -1.421875 
Q 18.84375 -1.421875 12.171875 6.21875 
Q 5.515625 13.875 5.515625 27.296875 
Q 5.515625 40.765625 12.171875 48.375 
Q 18.84375 56 30.609375 56 
z
" id="DejaVuSans-111"/>
     <path d="M 54.890625 33.015625 
L 54.890625 0 
L 45.90625 0 
L 45.90625 32.71875 
Q 45.90625 40.484375 42.875 44.328125 
Q 39.84375 48.1875 33.796875 48.1875 
Q 26.515625 48.1875 22.3125 43.546875 
Q 18.109375 38.921875 18.109375 30.90625 
L 18.109375 0 
L 9.078125 0 
L 9.078125 54.6875 
L 18.109375 54.6875 
L 18.109375 46.1875 
Q 21.34375 51.125 25.703125 53.5625 
Q 30.078125 56 35.796875 56 
Q 45.21875 56 50.046875 50.171875 
Q 54.890625 44.34375 54.890625 33.015625 
z
" id="DejaVuSans-110"/>
     <path d="M 4.890625 31.390625 
L 31.203125 31.390625 
L 31.203125 23.390625 
L 4.890625 23.390625 
z
" id="DejaVuSans-45"/>
     <path d="M 53.515625 70.515625 
L 53.515625 60.890625 
Q 47.90625 63.578125 42.921875 64.890625 
Q 37.9375 66.21875 33.296875 66.21875 
Q 25.25 66.21875 20.875 63.09375 
Q 16.5 59.96875 16.5 54.203125 
Q 16.5 49.359375 19.40625 46.890625 
Q 22.3125 44.4375 30.421875 42.921875 
L 36.375 41.703125 
Q 47.40625 39.59375 52.65625 34.296875 
Q 57.90625 29 57.90625 20.125 
Q 57.90625 9.515625 50.796875 4.046875 
Q 43.703125 -1.421875 29.984375 -1.421875 
Q 24.8125 -1.421875 18.96875 -0.25 
Q 13.140625 0.921875 6.890625 3.21875 
L 6.890625 13.375 
Q 12.890625 10.015625 18.65625 8.296875 
Q 24.421875 6.59375 29.984375 6.59375 
Q 38.421875 6.59375 43.015625 9.90625 
Q 47.609375 13.234375 47.609375 19.390625 
Q 47.609375 24.75 44.3125 27.78125 
Q 41.015625 30.8125 33.5 32.328125 
L 27.484375 33.5 
Q 16.453125 35.6875 11.515625 40.375 
Q 6.59375 45.0625 6.59375 53.421875 
Q 6.59375 63.09375 13.40625 68.65625 
Q 20.21875 74.21875 32.171875 74.21875 
Q 37.3125 74.21875 42.625 73.28125 
Q 47.953125 72.359375 53.515625 70.515625 
z
" id="DejaVuSans-83"/>
     <path d="M 4.203125 54.6875 
L 13.1875 54.6875 
L 24.421875 12.015625 
L 35.59375 54.6875 
L 46.1875 54.6875 
L 57.421875 12.015625 
L 68.609375 54.6875 
L 77.59375 54.6875 
L 63.28125 0 
L 52.6875 0 
L 40.921875 44.828125 
L 29.109375 0 
L 18.5 0 
z
" id="DejaVuSans-119"/>
     <path d="M 9.421875 54.6875 
L 18.40625 54.6875 
L 18.40625 0 
L 9.421875 0 
z
M 9.421875 75.984375 
L 18.40625 75.984375 
L 18.40625 64.59375 
L 9.421875 64.59375 
z
" id="DejaVuSans-105"/>
     <path d="M 45.40625 27.984375 
Q 45.40625 37.75 41.375 43.109375 
Q 37.359375 48.484375 30.078125 48.484375 
Q 22.859375 48.484375 18.828125 43.109375 
Q 14.796875 37.75 14.796875 27.984375 
Q 14.796875 18.265625 18.828125 12.890625 
Q 22.859375 7.515625 30.078125 7.515625 
Q 37.359375 7.515625 41.375 12.890625 
Q 45.40625 18.265625 45.40625 27.984375 
z
M 54.390625 6.78125 
Q 54.390625 -7.171875 48.1875 -13.984375 
Q 42 -20.796875 29.203125 -20.796875 
Q 24.46875 -20.796875 20.265625 -20.09375 
Q 16.0625 -19.390625 12.109375 -17.921875 
L 12.109375 -9.1875 
Q 16.0625 -11.328125 19.921875 -12.34375 
Q 23.78125 -13.375 27.78125 -13.375 
Q 36.625 -13.375 41.015625 -8.765625 
Q 45.40625 -4.15625 45.40625 5.171875 
L 45.40625 9.625 
Q 42.625 4.78125 38.28125 2.390625 
Q 33.9375 0 27.875 0 
Q 17.828125 0 11.671875 7.65625 
Q 5.515625 15.328125 5.515625 27.984375 
Q 5.515625 40.671875 11.671875 48.328125 
Q 17.828125 56 27.875 56 
Q 33.9375 56 38.28125 53.609375 
Q 42.625 51.21875 45.40625 46.390625 
L 45.40625 54.6875 
L 54.390625 54.6875 
z
" id="DejaVuSans-103"/>
     <path id="DejaVuSans-32"/>
     <path d="M 19.671875 64.796875 
L 19.671875 37.40625 
L 32.078125 37.40625 
Q 38.96875 37.40625 42.71875 40.96875 
Q 46.484375 44.53125 46.484375 51.125 
Q 46.484375 57.671875 42.71875 61.234375 
Q 38.96875 64.796875 32.078125 64.796875 
z
M 9.8125 72.90625 
L 32.078125 72.90625 
Q 44.34375 72.90625 50.609375 67.359375 
Q 56.890625 61.8125 56.890625 51.125 
Q 56.890625 40.328125 50.609375 34.8125 
Q 44.34375 29.296875 32.078125 29.296875 
L 19.671875 29.296875 
L 19.671875 0 
L 9.8125 0 
z
" id="DejaVuSans-80"/>
     <path d="M 18.3125 70.21875 
L 18.3125 54.6875 
L 36.8125 54.6875 
L 36.8125 47.703125 
L 18.3125 47.703125 
L 18.3125 18.015625 
Q 18.3125 11.328125 20.140625 9.421875 
Q 21.96875 7.515625 27.59375 7.515625 
L 36.8125 7.515625 
L 36.8125 0 
L 27.59375 0 
Q 17.1875 0 13.234375 3.875 
Q 9.28125 7.765625 9.28125 18.015625 
L 9.28125 47.703125 
L 2.6875 47.703125 
L 2.6875 54.6875 
L 9.28125 54.6875 
L 9.28125 70.21875 
z
" id="DejaVuSans-116"/>
     <path d="M 48.78125 52.59375 
L 48.78125 44.1875 
Q 44.96875 46.296875 41.140625 47.34375 
Q 37.3125 48.390625 33.40625 48.390625 
Q 24.65625 48.390625 19.8125 42.84375 
Q 14.984375 37.3125 14.984375 27.296875 
Q 14.984375 17.28125 19.8125 11.734375 
Q 24.65625 6.203125 33.40625 6.203125 
Q 37.3125 6.203125 41.140625 7.25 
Q 44.96875 8.296875 48.78125 10.40625 
L 48.78125 2.09375 
Q 45.015625 0.34375 40.984375 -0.53125 
Q 36.96875 -1.421875 32.421875 -1.421875 
Q 20.0625 -1.421875 12.78125 6.34375 
Q 5.515625 14.109375 5.515625 27.296875 
Q 5.515625 40.671875 12.859375 48.328125 
Q 20.21875 56 33.015625 56 
Q 37.15625 56 41.109375 55.140625 
Q 45.0625 54.296875 48.78125 52.59375 
z
" id="DejaVuSans-99"/>
     <path d="M 54.890625 33.015625 
L 54.890625 0 
L 45.90625 0 
L 45.90625 32.71875 
Q 45.90625 40.484375 42.875 44.328125 
Q 39.84375 48.1875 33.796875 48.1875 
Q 26.515625 48.1875 22.3125 43.546875 
Q 18.109375 38.921875 18.109375 30.90625 
L 18.109375 0 
L 9.078125 0 
L 9.078125 75.984375 
L 18.109375 75.984375 
L 18.109375 46.1875 
Q 21.34375 51.125 25.703125 53.5625 
Q 30.078125 56 35.796875 56 
Q 45.21875 56 50.046875 50.171875 
Q 54.890625 44.34375 54.890625 33.015625 
z
" id="DejaVuSans-104"/>
     <path d="M 56.203125 29.59375 
L 56.203125 25.203125 
L 14.890625 25.203125 
Q 15.484375 15.921875 20.484375 11.0625 
Q 25.484375 6.203125 34.421875 6.203125 
Q 39.59375 6.203125 44.453125 7.46875 
Q 49.3125 8.734375 54.109375 11.28125 
L 54.109375 2.78125 
Q 49.265625 0.734375 44.1875 -0.34375 
Q 39.109375 -1.421875 33.890625 -1.421875 
Q 20.796875 -1.421875 13.15625 6.1875 
Q 5.515625 13.8125 5.515625 26.8125 
Q 5.515625 40.234375 12.765625 48.109375 
Q 20.015625 56 32.328125 56 
Q 43.359375 56 49.78125 48.890625 
Q 56.203125 41.796875 56.203125 29.59375 
z
M 47.21875 32.234375 
Q 47.125 39.59375 43.09375 43.984375 
Q 39.0625 48.390625 32.421875 48.390625 
Q 24.90625 48.390625 20.390625 44.140625 
Q 15.875 39.890625 15.1875 32.171875 
z
" id="DejaVuSans-101"/>
     <path d="M 44.28125 53.078125 
L 44.28125 44.578125 
Q 40.484375 46.53125 36.375 47.5 
Q 32.28125 48.484375 27.875 48.484375 
Q 21.1875 48.484375 17.84375 46.4375 
Q 14.5 44.390625 14.5 40.28125 
Q 14.5 37.15625 16.890625 35.375 
Q 19.28125 33.59375 26.515625 31.984375 
L 29.59375 31.296875 
Q 39.15625 29.25 43.1875 25.515625 
Q 47.21875 21.78125 47.21875 15.09375 
Q 47.21875 7.46875 41.1875 3.015625 
Q 35.15625 -1.421875 24.609375 -1.421875 
Q 20.21875 -1.421875 15.453125 -0.5625 
Q 10.6875 0.296875 5.421875 2 
L 5.421875 11.28125 
Q 10.40625 8.6875 15.234375 7.390625 
Q 20.0625 6.109375 24.8125 6.109375 
Q 31.15625 6.109375 34.5625 8.28125 
Q 37.984375 10.453125 37.984375 14.40625 
Q 37.984375 18.0625 35.515625 20.015625 
Q 33.0625 21.96875 24.703125 23.78125 
L 21.578125 24.515625 
Q 13.234375 26.265625 9.515625 29.90625 
Q 5.8125 33.546875 5.8125 39.890625 
Q 5.8125 47.609375 11.28125 51.796875 
Q 16.75 56 26.8125 56 
Q 31.78125 56 36.171875 55.265625 
Q 40.578125 54.546875 44.28125 53.078125 
z
" id="DejaVuSans-115"/>
     <path d="M 11.71875 12.40625 
L 22.015625 12.40625 
L 22.015625 4 
L 14.015625 -11.625 
L 7.71875 -11.625 
L 11.71875 4 
z
" id="DejaVuSans-44"/>
     <path d="M 19.1875 8.296875 
L 53.609375 8.296875 
L 53.609375 0 
L 7.328125 0 
L 7.328125 8.296875 
Q 12.9375 14.109375 22.625 23.890625 
Q 32.328125 33.6875 34.8125 36.53125 
Q 39.546875 41.84375 41.421875 45.53125 
Q 43.3125 49.21875 43.3125 52.78125 
Q 43.3125 58.59375 39.234375 62.25 
Q 35.15625 65.921875 28.609375 65.921875 
Q 23.96875 65.921875 18.8125 64.3125 
Q 13.671875 62.703125 7.8125 59.421875 
L 7.8125 69.390625 
Q 13.765625 71.78125 18.9375 73 
Q 24.125 74.21875 28.421875 74.21875 
Q 39.75 74.21875 46.484375 68.546875 
Q 53.21875 62.890625 53.21875 53.421875 
Q 53.21875 48.921875 51.53125 44.890625 
Q 49.859375 40.875 45.40625 35.40625 
Q 44.1875 33.984375 37.640625 27.21875 
Q 31.109375 20.453125 19.1875 8.296875 
z
" id="DejaVuSans-50"/>
     <path d="M 31.78125 66.40625 
Q 24.171875 66.40625 20.328125 58.90625 
Q 16.5 51.421875 16.5 36.375 
Q 16.5 21.390625 20.328125 13.890625 
Q 24.171875 6.390625 31.78125 6.390625 
Q 39.453125 6.390625 43.28125 13.890625 
Q 47.125 21.390625 47.125 36.375 
Q 47.125 51.421875 43.28125 58.90625 
Q 39.453125 66.40625 31.78125 66.40625 
z
M 31.78125 74.21875 
Q 44.046875 74.21875 50.515625 64.515625 
Q 56.984375 54.828125 56.984375 36.375 
Q 56.984375 17.96875 50.515625 8.265625 
Q 44.046875 -1.421875 31.78125 -1.421875 
Q 19.53125 -1.421875 13.0625 8.265625 
Q 6.59375 17.96875 6.59375 36.375 
Q 6.59375 54.828125 13.0625 64.515625 
Q 19.53125 74.21875 31.78125 74.21875 
z
" id="DejaVuSans-48"/>
     <path d="M 31.78125 34.625 
Q 24.75 34.625 20.71875 30.859375 
Q 16.703125 27.09375 16.703125 20.515625 
Q 16.703125 13.921875 20.71875 10.15625 
Q 24.75 6.390625 31.78125 6.390625 
Q 38.8125 6.390625 42.859375 10.171875 
Q 46.921875 13.96875 46.921875 20.515625 
Q 46.921875 27.09375 42.890625 30.859375 
Q 38.875 34.625 31.78125 34.625 
z
M 21.921875 38.8125 
Q 15.578125 40.375 12.03125 44.71875 
Q 8.5 49.078125 8.5 55.328125 
Q 8.5 64.0625 14.71875 69.140625 
Q 20.953125 74.21875 31.78125 74.21875 
Q 42.671875 74.21875 48.875 69.140625 
Q 55.078125 64.0625 55.078125 55.328125 
Q 55.078125 49.078125 51.53125 44.71875 
Q 48 40.375 41.703125 38.8125 
Q 48.828125 37.15625 52.796875 32.3125 
Q 56.78125 27.484375 56.78125 20.515625 
Q 56.78125 9.90625 50.3125 4.234375 
Q 43.84375 -1.421875 31.78125 -1.421875 
Q 19.734375 -1.421875 13.25 4.234375 
Q 6.78125 9.90625 6.78125 20.515625 
Q 6.78125 27.484375 10.78125 32.3125 
Q 14.796875 37.15625 21.921875 38.8125 
z
M 18.3125 54.390625 
Q 18.3125 48.734375 21.84375 45.5625 
Q 25.390625 42.390625 31.78125 42.390625 
Q 38.140625 42.390625 41.71875 45.5625 
Q 45.3125 48.734375 45.3125 54.390625 
Q 45.3125 60.0625 41.71875 63.234375 
Q 38.140625 66.40625 31.78125 66.40625 
Q 25.390625 66.40625 21.84375 63.234375 
Q 18.3125 60.0625 18.3125 54.390625 
z
" id="DejaVuSans-56"/>
     <path d="M 12.40625 8.296875 
L 28.515625 8.296875 
L 28.515625 63.921875 
L 10.984375 60.40625 
L 10.984375 69.390625 
L 28.421875 72.90625 
L 38.28125 72.90625 
L 38.28125 8.296875 
L 54.390625 8.296875 
L 54.390625 0 
L 12.40625 0 
z
" id="DejaVuSans-49"/>
    </defs>
    <g transform="translate(184.798125 80.4)scale(0.24 -0.24)">
     <use xlink:href="#DejaVuSans-78"/>
     <use x="74.804688" xlink:href="#DejaVuSans-111"/>
     <use x="135.986328" xlink:href="#DejaVuSans-110"/>
     <use x="199.365234" xlink:href="#DejaVuSans-45"/>
     <use x="235.449219" xlink:href="#DejaVuSans-83"/>
     <use x="298.925781" xlink:href="#DejaVuSans-119"/>
     <use x="380.712891" xlink:href="#DejaVuSans-105"/>
     <use x="408.496094" xlink:href="#DejaVuSans-110"/>
     <use x="471.875" xlink:href="#DejaVuSans-103"/>
     <use x="535.351562" xlink:href="#DejaVuSans-32"/>
     <use x="567.138672" xlink:href="#DejaVuSans-80"/>
     <use x="627.410156" xlink:href="#DejaVuSans-105"/>
     <use x="655.193359" xlink:href="#DejaVuSans-116"/>
     <use x="694.402344" xlink:href="#DejaVuSans-99"/>
     <use x="749.382812" xlink:href="#DejaVuSans-104"/>
     <use x="812.761719" xlink:href="#DejaVuSans-101"/>
     <use x="874.285156" xlink:href="#DejaVuSans-115"/>
     <use x="926.384766" xlink:href="#DejaVuSans-44"/>
     <use x="958.171875" xlink:href="#DejaVuSans-32"/>
     <use x="989.958984" xlink:href="#DejaVuSans-50"/>
     <use x="1053.582031" xlink:href="#DejaVuSans-48"/>
     <use x="1117.205078" xlink:href="#DejaVuSans-48"/>
     <use x="1180.828125" xlink:href="#DejaVuSans-56"/>
     <use x="1244.451172" xlink:href="#DejaVuSans-45"/>
     <use x="1280.535156" xlink:href="#DejaVuSans-50"/>
     <use x="1344.158203" xlink:href="#DejaVuSans-48"/>
     <use x="1407.78125" xlink:href="#DejaVuSans-50"/>
     <use x="1471.404297" xlink:href="#DejaVuSans-49"/>
    </g>
   </g>
  </g>
 </g>
 <defs>
  <clipPath id="p31d1e13c23">
   <rect height="543.6" width="558" x="90" y="86.4"/>
  </clipPath>
 </defs>
</svg>
