<?xml version="1.0" encoding="utf-8" standalone="no"?>
<!DOCTYPE svg PUBLIC "-//W3C//DTD SVG 1.1//EN"
  "http://www.w3.org/Graphics/SVG/1.1/DTD/svg11.dtd">
<!-- Created with matplotlib (https://matplotlib.org/) -->
<svg height="720pt" version="1.1" viewBox="0 0 720 720" width="720pt" xmlns="http://www.w3.org/2000/svg" xmlns:xlink="http://www.w3.org/1999/xlink">
 <defs>
  <style type="text/css">
*{stroke-linecap:butt;stroke-linejoin:round;}
  </style>
 </defs>
 <g id="figure_1">
  <g id="patch_1">
   <path d="M 0 720 
L 720 720 
L 720 0 
L 0 0 
z
" style="fill:#ffffff;"/>
  </g>
  <g id="axes_1">
   <g id="patch_2">
    <path d="M 90 630 
L 648 630 
L 648 86.4 
L 90 86.4 
z
" style="fill:#ffffff;"/>
   </g>
   <g id="patch_3">
    <path clip-path="url(#pa22c4eeb86)" d="M 234.15 297.8604 
L 324.0438 297.8604 
L 324.0438 177.07248 
L 234.15 177.07248 
z
" style="fill:#f2cbb7;opacity:0.5;stroke:#000000;stroke-linejoin:miter;"/>
   </g>
   <g id="patch_4">
    <path clip-path="url(#pa22c4eeb86)" d="M 324.049938 297.8604 
L 413.943738 297.8604 
L 413.943738 177.07248 
L 324.049938 177.07248 
z
" style="fill:#f7a688;opacity:0.5;stroke:#000000;stroke-linejoin:miter;"/>
   </g>
   <g id="patch_5">
    <path clip-path="url(#pa22c4eeb86)" d="M 413.950062 297.8604 
L 503.843862 297.8604 
L 503.843862 177.07248 
L 413.950062 177.07248 
z
" style="fill:#cedaeb;opacity:0.5;stroke:#000000;stroke-linejoin:miter;"/>
   </g>
   <g id="patch_6">
    <path clip-path="url(#pa22c4eeb86)" d="M 234.15 418.7208 
L 324.0438 418.7208 
L 324.0438 297.93288 
L 234.15 297.93288 
z
" style="fill:#bd1f2d;opacity:0.5;stroke:#000000;stroke-linejoin:miter;"/>
   </g>
   <g id="patch_7">
    <path clip-path="url(#pa22c4eeb86)" d="M 324.049938 418.7208 
L 413.943738 418.7208 
L 413.943738 297.93288 
L 324.049938 297.93288 
z
" style="fill:#b70d28;opacity:0.5;stroke:#000000;stroke-linejoin:miter;"/>
   </g>
   <g id="patch_8">
    <path clip-path="url(#pa22c4eeb86)" d="M 413.950062 418.7208 
L 503.843862 418.7208 
L 503.843862 297.93288 
L 413.950062 297.93288 
z
" style="fill:#d24b40;opacity:0.5;stroke:#000000;stroke-linejoin:miter;"/>
   </g>
   <g id="patch_9">
    <path clip-path="url(#pa22c4eeb86)" d="M 234.15 539.4 
L 324.0438 539.4 
L 324.0438 418.61208 
L 234.15 418.61208 
z
" style="fill:#cad8ef;opacity:0.5;stroke:#000000;stroke-linejoin:miter;"/>
   </g>
   <g id="patch_10">
    <path clip-path="url(#pa22c4eeb86)" d="M 324.049938 539.4 
L 413.943738 539.4 
L 413.943738 418.61208 
L 324.049938 418.61208 
z
" style="fill:#d7dce3;opacity:0.5;stroke:#000000;stroke-linejoin:miter;"/>
   </g>
   <g id="patch_11">
    <path clip-path="url(#pa22c4eeb86)" d="M 413.950062 539.4 
L 503.843862 539.4 
L 503.843862 418.61208 
L 413.950062 418.61208 
z
" style="fill:#a6c4fe;opacity:0.5;stroke:#000000;stroke-linejoin:miter;"/>
   </g>
   <g id="matplotlib.axis_1"/>
   <g id="matplotlib.axis_2"/>
   <g id="LineCollection_1">
    <path clip-path="url(#pa22c4eeb86)" d="M 349.272727 531.554261 
L 360.545455 531.712744 
L 371.818182 531.582245 
L 383.090909 531.132763 
L 394.363636 530.344759 
L 405.636364 529.204243 
L 416.909091 527.678928 
L 428.181818 525.714539 
L 435.496867 524.198658 
L 439.454545 523.295639 
L 450.038114 520.550336 
L 450.727273 520.357169 
L 456.363636 518.640668 
L 462 516.768117 
L 471.152883 513.253691 
L 473.272727 512.366893 
L 479.335826 509.605369 
L 486.382582 505.957047 
L 492.580446 502.308725 
L 498.074884 498.660403 
L 502.987207 495.012081 
L 507.424372 491.363758 
L 512.727273 486.416755 
L 514.998417 484.067114 
L 518.363636 480.390923 
L 521.309628 476.77047 
L 524.114341 473.122148 
L 526.608157 469.473826 
L 529.636364 464.712148 
L 531.08796 462.177181 
L 534.886789 454.880537 
L 536.540169 451.232215 
L 539.477101 443.93557 
L 540.909091 439.978874 
L 543.05802 432.990604 
L 544.978756 425.69396 
L 546.621386 418.397315 
L 547.934016 411.100671 
L 549.028801 403.804027 
L 549.939832 396.507383 
L 551.029579 385.562416 
L 551.833292 374.61745 
L 552.189428 367.320805 
L 552.395972 360.024161 
L 552.441334 352.727517 
L 552.321969 345.430872 
L 552.018693 338.134228 
L 551.512966 330.837584 
L 550.800393 323.54094 
L 549.880461 316.244295 
L 548.732271 308.947651 
L 547.343926 301.651007 
L 545.649714 294.354362 
L 543.641048 287.057718 
L 541.352473 279.761074 
L 540.040451 276.112752 
L 537.136269 268.816107 
L 535.272727 264.560622 
L 531.941872 257.871141 
L 529.636364 253.610522 
L 525.526875 246.926174 
L 523.061613 243.277852 
L 518.363636 236.99243 
L 514.420874 232.332886 
L 511.060131 228.684564 
L 507.090909 224.699188 
L 501.454545 219.671679 
L 495.818182 215.210851 
L 490.181818 211.236504 
L 484.545455 207.674225 
L 478.909091 204.489766 
L 473.272727 201.626973 
L 467.636364 199.042895 
L 459.670107 195.849664 
L 456.363636 194.639508 
L 448.947233 192.201342 
L 445.090909 191.046871 
L 435.645948 188.55302 
L 433.818182 188.109503 
L 422.545455 185.736168 
L 416.909091 184.725369 
L 405.636364 183.082302 
L 394.363636 181.847689 
L 383.090909 180.998633 
L 371.818182 180.52628 
L 360.545455 180.388686 
L 349.272727 180.556164 
L 338 181.016335 
L 326.727273 181.76197 
L 315.454545 182.768917 
L 304.181818 184.028223 
L 297.696293 184.904698 
L 287.272727 186.614018 
L 277.774435 188.55302 
L 276 188.951671 
L 270.363636 190.370585 
L 263.855509 192.201342 
L 259.090909 193.723481 
L 253.094786 195.849664 
L 247.818182 197.973412 
L 242.181818 200.495939 
L 236.545455 203.315763 
L 230.433982 206.794631 
L 224.756513 210.442953 
L 219.636364 214.119997 
L 214 218.702845 
L 208.363636 223.895668 
L 203.777763 228.684564 
L 202.727273 229.838088 
L 197.648566 235.981208 
L 197.090909 236.696173 
L 192.426803 243.277852 
L 190.090082 246.926174 
L 185.818182 254.286664 
L 182.216966 261.519463 
L 180.181818 265.972352 
L 177.554515 272.46443 
L 174.917779 279.761074 
L 173.732666 283.409396 
L 171.631305 290.70604 
L 169.803103 298.002685 
L 168.252026 305.299329 
L 166.982277 312.595973 
L 165.947904 319.892617 
L 165.134534 327.189262 
L 164.530613 334.485906 
L 164.125036 341.78255 
L 163.90851 349.079195 
L 163.874399 356.375839 
L 164.00122 363.672483 
L 164.289188 370.969128 
L 164.989165 381.914094 
L 165.980936 392.85906 
L 167.289639 403.804027 
L 168.388123 411.100671 
L 169.732619 418.397315 
L 171.339005 425.69396 
L 173.220248 432.990604 
L 174.545455 437.481802 
L 176.736745 443.93557 
L 179.568748 451.232215 
L 181.185775 454.880537 
L 184.797339 462.177181 
L 186.843434 465.825503 
L 189.066113 469.473826 
L 191.454545 473.164695 
L 194.085138 476.77047 
L 197.090909 480.657305 
L 202.727273 486.966344 
L 203.467167 487.715436 
L 208.363636 492.381433 
L 214 497.072643 
L 219.636364 501.185235 
L 225.272727 504.799143 
L 230.909091 507.996493 
L 236.545455 510.843479 
L 242.181818 513.387679 
L 247.818182 515.644694 
L 253.454545 517.673872 
L 262.792427 520.550336 
L 264.727273 521.095585 
L 270.363636 522.521016 
L 277.898754 524.198658 
L 281.636364 524.943213 
L 292.909091 526.835726 
L 304.181818 528.32803 
L 315.454545 529.490433 
L 326.727273 530.421084 
L 338 531.115868 
L 349.272727 531.554261 
L 349.272727 531.554261 
" style="fill:none;stroke:#000000;stroke-width:3;"/>
   </g>
   <g id="LineCollection_2">
    <path clip-path="url(#pa22c4eeb86)" d="M 343.636364 484.290035 
L 354.909091 484.759948 
L 366.181818 484.785922 
L 371.818182 484.620983 
L 381.142096 484.067114 
L 383.090909 483.902956 
L 388.727273 483.289637 
L 394.363636 482.52367 
L 400 481.639893 
L 406.601108 480.418792 
L 411.272727 479.330121 
L 420.849216 476.77047 
L 422.545455 476.2421 
L 431.409213 473.122148 
L 433.818182 472.150614 
L 439.987998 469.473826 
L 447.032932 465.825503 
L 453.084461 462.177181 
L 458.324937 458.528859 
L 462.935147 454.880537 
L 467.636364 450.604992 
L 473.272727 444.499239 
L 473.726263 443.93557 
L 479.129602 436.638926 
L 483.41139 429.342282 
L 485.282161 425.69396 
L 488.403145 418.397315 
L 490.181818 413.839488 
L 492.063177 407.452349 
L 493.976944 400.155705 
L 495.818182 391.86876 
L 496.811746 385.562416 
L 497.780816 378.265772 
L 498.535632 370.969128 
L 499.043641 363.672483 
L 499.276141 356.375839 
L 499.208989 349.079195 
L 498.824614 341.78255 
L 498.109223 334.485906 
L 497.07215 327.189262 
L 495.687666 319.892617 
L 493.646411 312.595973 
L 491.271131 305.299329 
L 489.914854 301.651007 
L 486.526776 294.354362 
L 484.545455 290.356534 
L 478.909091 281.388466 
L 474.879564 276.112752 
L 473.272727 274.11379 
L 468.359917 268.816107 
L 467.636364 268.069464 
L 462 262.939559 
L 456.363636 258.501225 
L 455.470425 257.871141 
L 450.012425 254.222819 
L 443.69984 250.574497 
L 436.335156 246.926174 
L 433.818182 245.794342 
L 427.710654 243.277852 
L 422.545455 241.462396 
L 416.874872 239.62953 
L 411.272727 238.117251 
L 402.062945 235.981208 
L 400 235.583064 
L 394.363636 234.649304 
L 388.727273 233.852237 
L 383.090909 233.202625 
L 377.454545 232.704199 
L 366.181818 232.174065 
L 360.545455 232.129722 
L 351.158323 232.332886 
L 349.272727 232.407458 
L 343.636364 232.759229 
L 338 233.232538 
L 326.727273 234.521829 
L 316.642379 235.981208 
L 309.818182 237.264796 
L 298.545455 239.712549 
L 287.272727 242.999714 
L 286.448806 243.277852 
L 281.636364 245.04586 
L 276 247.320049 
L 269.24762 250.574497 
L 262.842859 254.222819 
L 257.349153 257.871141 
L 252.541588 261.519463 
L 247.818182 265.601682 
L 242.181818 271.385079 
L 238.316774 276.112752 
L 236.545455 278.34757 
L 233.189892 283.409396 
L 230.845649 287.057718 
L 227.117755 294.354362 
L 225.272727 298.179998 
L 222.646051 305.299329 
L 220.247764 312.595973 
L 219.263777 316.244295 
L 217.752732 323.54094 
L 216.569445 330.837584 
L 215.680623 338.134228 
L 215.161251 345.430872 
L 214.912256 352.727517 
L 214.997274 360.024161 
L 215.369826 367.320805 
L 216.407916 378.265772 
L 217.373592 385.562416 
L 218.523747 392.85906 
L 219.916134 400.155705 
L 221.853128 407.452349 
L 224.021849 414.748993 
L 225.272727 418.545107 
L 228.387445 425.69396 
L 230.909091 430.980808 
L 234.320384 436.638926 
L 236.650803 440.287248 
L 242.470674 447.583893 
L 247.818182 452.999138 
L 249.969491 454.880537 
L 254.458367 458.528859 
L 259.617638 462.177181 
L 265.774992 465.825503 
L 273.193088 469.473826 
L 276 470.677369 
L 282.271275 473.122148 
L 287.272727 474.730375 
L 294.262666 476.77047 
L 298.545455 477.796629 
L 309.818182 480.1632 
L 315.454545 481.094255 
L 326.727273 482.660193 
L 338 483.873402 
L 343.636364 484.290035 
L 343.636364 484.290035 
" style="fill:none;stroke:#0000ff;stroke-width:3;"/>
   </g>
   <g id="line2d_1">
    <path clip-path="url(#pa22c4eeb86)" d="M 234.15 539.4 
L 234.15 177 
" style="fill:none;stroke:#ff0000;stroke-linecap:square;stroke-width:1.5;"/>
   </g>
   <g id="line2d_2">
    <path clip-path="url(#pa22c4eeb86)" d="M 503.85 539.4 
L 503.85 177 
" style="fill:none;stroke:#ff0000;stroke-linecap:square;stroke-width:1.5;"/>
   </g>
   <g id="line2d_3">
    <path clip-path="url(#pa22c4eeb86)" d="M 234.15 539.4 
L 503.85 539.4 
" style="fill:none;stroke:#ff0000;stroke-linecap:square;stroke-width:1.5;"/>
   </g>
   <g id="line2d_4">
    <path clip-path="url(#pa22c4eeb86)" d="M 234.15 177 
L 503.85 177 
" style="fill:none;stroke:#ff0000;stroke-linecap:square;stroke-width:1.5;"/>
   </g>
   <g id="text_1">
    <!-- Away Team Batting -->
    <defs>
     <path d="M 34.1875 63.1875 
L 20.796875 26.90625 
L 47.609375 26.90625 
z
M 28.609375 72.90625 
L 39.796875 72.90625 
L 67.578125 0 
L 57.328125 0 
L 50.6875 18.703125 
L 17.828125 18.703125 
L 11.1875 0 
L 0.78125 0 
z
" id="DejaVuSans-65"/>
     <path d="M 4.203125 54.6875 
L 13.1875 54.6875 
L 24.421875 12.015625 
L 35.59375 54.6875 
L 46.1875 54.6875 
L 57.421875 12.015625 
L 68.609375 54.6875 
L 77.59375 54.6875 
L 63.28125 0 
L 52.6875 0 
L 40.921875 44.828125 
L 29.109375 0 
L 18.5 0 
z
" id="DejaVuSans-119"/>
     <path d="M 34.28125 27.484375 
Q 23.390625 27.484375 19.1875 25 
Q 14.984375 22.515625 14.984375 16.5 
Q 14.984375 11.71875 18.140625 8.90625 
Q 21.296875 6.109375 26.703125 6.109375 
Q 34.1875 6.109375 38.703125 11.40625 
Q 43.21875 16.703125 43.21875 25.484375 
L 43.21875 27.484375 
z
M 52.203125 31.203125 
L 52.203125 0 
L 43.21875 0 
L 43.21875 8.296875 
Q 40.140625 3.328125 35.546875 0.953125 
Q 30.953125 -1.421875 24.3125 -1.421875 
Q 15.921875 -1.421875 10.953125 3.296875 
Q 6 8.015625 6 15.921875 
Q 6 25.140625 12.171875 29.828125 
Q 18.359375 34.515625 30.609375 34.515625 
L 43.21875 34.515625 
L 43.21875 35.40625 
Q 43.21875 41.609375 39.140625 45 
Q 35.0625 48.390625 27.6875 48.390625 
Q 23 48.390625 18.546875 47.265625 
Q 14.109375 46.140625 10.015625 43.890625 
L 10.015625 52.203125 
Q 14.9375 54.109375 19.578125 55.046875 
Q 24.21875 56 28.609375 56 
Q 40.484375 56 46.34375 49.84375 
Q 52.203125 43.703125 52.203125 31.203125 
z
" id="DejaVuSans-97"/>
     <path d="M 32.171875 -5.078125 
Q 28.375 -14.84375 24.75 -17.8125 
Q 21.140625 -20.796875 15.09375 -20.796875 
L 7.90625 -20.796875 
L 7.90625 -13.28125 
L 13.1875 -13.28125 
Q 16.890625 -13.28125 18.9375 -11.515625 
Q 21 -9.765625 23.484375 -3.21875 
L 25.09375 0.875 
L 2.984375 54.6875 
L 12.5 54.6875 
L 29.59375 11.921875 
L 46.6875 54.6875 
L 56.203125 54.6875 
z
" id="DejaVuSans-121"/>
     <path id="DejaVuSans-32"/>
     <path d="M -0.296875 72.90625 
L 61.375 72.90625 
L 61.375 64.59375 
L 35.5 64.59375 
L 35.5 0 
L 25.59375 0 
L 25.59375 64.59375 
L -0.296875 64.59375 
z
" id="DejaVuSans-84"/>
     <path d="M 56.203125 29.59375 
L 56.203125 25.203125 
L 14.890625 25.203125 
Q 15.484375 15.921875 20.484375 11.0625 
Q 25.484375 6.203125 34.421875 6.203125 
Q 39.59375 6.203125 44.453125 7.46875 
Q 49.3125 8.734375 54.109375 11.28125 
L 54.109375 2.78125 
Q 49.265625 0.734375 44.1875 -0.34375 
Q 39.109375 -1.421875 33.890625 -1.421875 
Q 20.796875 -1.421875 13.15625 6.1875 
Q 5.515625 13.8125 5.515625 26.8125 
Q 5.515625 40.234375 12.765625 48.109375 
Q 20.015625 56 32.328125 56 
Q 43.359375 56 49.78125 48.890625 
Q 56.203125 41.796875 56.203125 29.59375 
z
M 47.21875 32.234375 
Q 47.125 39.59375 43.09375 43.984375 
Q 39.0625 48.390625 32.421875 48.390625 
Q 24.90625 48.390625 20.390625 44.140625 
Q 15.875 39.890625 15.1875 32.171875 
z
" id="DejaVuSans-101"/>
     <path d="M 52 44.1875 
Q 55.375 50.25 60.0625 53.125 
Q 64.75 56 71.09375 56 
Q 79.640625 56 84.28125 50.015625 
Q 88.921875 44.046875 88.921875 33.015625 
L 88.921875 0 
L 79.890625 0 
L 79.890625 32.71875 
Q 79.890625 40.578125 77.09375 44.375 
Q 74.3125 48.1875 68.609375 48.1875 
Q 61.625 48.1875 57.5625 43.546875 
Q 53.515625 38.921875 53.515625 30.90625 
L 53.515625 0 
L 44.484375 0 
L 44.484375 32.71875 
Q 44.484375 40.625 41.703125 44.40625 
Q 38.921875 48.1875 33.109375 48.1875 
Q 26.21875 48.1875 22.15625 43.53125 
Q 18.109375 38.875 18.109375 30.90625 
L 18.109375 0 
L 9.078125 0 
L 9.078125 54.6875 
L 18.109375 54.6875 
L 18.109375 46.1875 
Q 21.1875 51.21875 25.484375 53.609375 
Q 29.78125 56 35.6875 56 
Q 41.65625 56 45.828125 52.96875 
Q 50 49.953125 52 44.1875 
z
" id="DejaVuSans-109"/>
     <path d="M 19.671875 34.8125 
L 19.671875 8.109375 
L 35.5 8.109375 
Q 43.453125 8.109375 47.28125 11.40625 
Q 51.125 14.703125 51.125 21.484375 
Q 51.125 28.328125 47.28125 31.5625 
Q 43.453125 34.8125 35.5 34.8125 
z
M 19.671875 64.796875 
L 19.671875 42.828125 
L 34.28125 42.828125 
Q 41.5 42.828125 45.03125 45.53125 
Q 48.578125 48.25 48.578125 53.8125 
Q 48.578125 59.328125 45.03125 62.0625 
Q 41.5 64.796875 34.28125 64.796875 
z
M 9.8125 72.90625 
L 35.015625 72.90625 
Q 46.296875 72.90625 52.390625 68.21875 
Q 58.5 63.53125 58.5 54.890625 
Q 58.5 48.1875 55.375 44.234375 
Q 52.25 40.28125 46.1875 39.3125 
Q 53.46875 37.75 57.5 32.78125 
Q 61.53125 27.828125 61.53125 20.40625 
Q 61.53125 10.640625 54.890625 5.3125 
Q 48.25 0 35.984375 0 
L 9.8125 0 
z
" id="DejaVuSans-66"/>
     <path d="M 18.3125 70.21875 
L 18.3125 54.6875 
L 36.8125 54.6875 
L 36.8125 47.703125 
L 18.3125 47.703125 
L 18.3125 18.015625 
Q 18.3125 11.328125 20.140625 9.421875 
Q 21.96875 7.515625 27.59375 7.515625 
L 36.8125 7.515625 
L 36.8125 0 
L 27.59375 0 
Q 17.1875 0 13.234375 3.875 
Q 9.28125 7.765625 9.28125 18.015625 
L 9.28125 47.703125 
L 2.6875 47.703125 
L 2.6875 54.6875 
L 9.28125 54.6875 
L 9.28125 70.21875 
z
" id="DejaVuSans-116"/>
     <path d="M 9.421875 54.6875 
L 18.40625 54.6875 
L 18.40625 0 
L 9.421875 0 
z
M 9.421875 75.984375 
L 18.40625 75.984375 
L 18.40625 64.59375 
L 9.421875 64.59375 
z
" id="DejaVuSans-105"/>
     <path d="M 54.890625 33.015625 
L 54.890625 0 
L 45.90625 0 
L 45.90625 32.71875 
Q 45.90625 40.484375 42.875 44.328125 
Q 39.84375 48.1875 33.796875 48.1875 
Q 26.515625 48.1875 22.3125 43.546875 
Q 18.109375 38.921875 18.109375 30.90625 
L 18.109375 0 
L 9.078125 0 
L 9.078125 54.6875 
L 18.109375 54.6875 
L 18.109375 46.1875 
Q 21.34375 51.125 25.703125 53.5625 
Q 30.078125 56 35.796875 56 
Q 45.21875 56 50.046875 50.171875 
Q 54.890625 44.34375 54.890625 33.015625 
z
" id="DejaVuSans-110"/>
     <path d="M 45.40625 27.984375 
Q 45.40625 37.75 41.375 43.109375 
Q 37.359375 48.484375 30.078125 48.484375 
Q 22.859375 48.484375 18.828125 43.109375 
Q 14.796875 37.75 14.796875 27.984375 
Q 14.796875 18.265625 18.828125 12.890625 
Q 22.859375 7.515625 30.078125 7.515625 
Q 37.359375 7.515625 41.375 12.890625 
Q 45.40625 18.265625 45.40625 27.984375 
z
M 54.390625 6.78125 
Q 54.390625 -7.171875 48.1875 -13.984375 
Q 42 -20.796875 29.203125 -20.796875 
Q 24.46875 -20.796875 20.265625 -20.09375 
Q 16.0625 -19.390625 12.109375 -17.921875 
L 12.109375 -9.1875 
Q 16.0625 -11.328125 19.921875 -12.34375 
Q 23.78125 -13.375 27.78125 -13.375 
Q 36.625 -13.375 41.015625 -8.765625 
Q 45.40625 -4.15625 45.40625 5.171875 
L 45.40625 9.625 
Q 42.625 4.78125 38.28125 2.390625 
Q 33.9375 0 27.875 0 
Q 17.828125 0 11.671875 7.65625 
Q 5.515625 15.328125 5.515625 27.984375 
Q 5.515625 40.671875 11.671875 48.328125 
Q 17.828125 56 27.875 56 
Q 33.9375 56 38.28125 53.609375 
Q 42.625 51.21875 45.40625 46.390625 
L 45.40625 54.6875 
L 54.390625 54.6875 
z
" id="DejaVuSans-103"/>
    </defs>
    <g transform="translate(251.625 80.4)scale(0.24 -0.24)">
     <use xlink:href="#DejaVuSans-65"/>
     <use x="68.345703" xlink:href="#DejaVuSans-119"/>
     <use x="150.132812" xlink:href="#DejaVuSans-97"/>
     <use x="211.412109" xlink:href="#DejaVuSans-121"/>
     <use x="270.591797" xlink:href="#DejaVuSans-32"/>
     <use x="302.378906" xlink:href="#DejaVuSans-84"/>
     <use x="363.197266" xlink:href="#DejaVuSans-101"/>
     <use x="424.720703" xlink:href="#DejaVuSans-97"/>
     <use x="486" xlink:href="#DejaVuSans-109"/>
     <use x="583.412109" xlink:href="#DejaVuSans-32"/>
     <use x="615.199219" xlink:href="#DejaVuSans-66"/>
     <use x="683.802734" xlink:href="#DejaVuSans-97"/>
     <use x="745.082031" xlink:href="#DejaVuSans-116"/>
     <use x="784.291016" xlink:href="#DejaVuSans-116"/>
     <use x="823.5" xlink:href="#DejaVuSans-105"/>
     <use x="851.283203" xlink:href="#DejaVuSans-110"/>
     <use x="914.662109" xlink:href="#DejaVuSans-103"/>
    </g>
   </g>
  </g>
 </g>
 <defs>
  <clipPath id="pa22c4eeb86">
   <rect height="543.6" width="558" x="90" y="86.4"/>
  </clipPath>
 </defs>
</svg>
