<?xml version="1.0" encoding="utf-8" standalone="no"?>
<!DOCTYPE svg PUBLIC "-//W3C//DTD SVG 1.1//EN"
  "http://www.w3.org/Graphics/SVG/1.1/DTD/svg11.dtd">
<!-- Created with matplotlib (https://matplotlib.org/) -->
<svg height="720pt" version="1.1" viewBox="0 0 720 720" width="720pt" xmlns="http://www.w3.org/2000/svg" xmlns:xlink="http://www.w3.org/1999/xlink">
 <defs>
  <style type="text/css">
*{stroke-linecap:butt;stroke-linejoin:round;}
  </style>
 </defs>
 <g id="figure_1">
  <g id="patch_1">
   <path d="M 0 720 
L 720 720 
L 720 0 
L 0 0 
z
" style="fill:#ffffff;"/>
  </g>
  <g id="axes_1">
   <g id="patch_2">
    <path d="M 90 630 
L 648 630 
L 648 86.4 
L 90 86.4 
z
" style="fill:#ffffff;"/>
   </g>
   <g id="matplotlib.axis_1"/>
   <g id="matplotlib.axis_2"/>
   <g id="patch_3">
    <path clip-path="url(#p73fa6d1c30)" d="M 234.15 297.8604 
L 324.0438 297.8604 
L 324.0438 177.07248 
L 234.15 177.07248 
z
" style="fill:#f7b194;opacity:0.5;stroke:#000000;stroke-linejoin:miter;"/>
   </g>
   <g id="patch_4">
    <path clip-path="url(#p73fa6d1c30)" d="M 324.049938 297.8604 
L 413.943738 297.8604 
L 413.943738 177.07248 
L 324.049938 177.07248 
z
" style="fill:#f29072;opacity:0.5;stroke:#000000;stroke-linejoin:miter;"/>
   </g>
   <g id="patch_5">
    <path clip-path="url(#p73fa6d1c30)" d="M 413.950062 297.8604 
L 503.843862 297.8604 
L 503.843862 177.07248 
L 413.950062 177.07248 
z
" style="fill:#c6d6f1;opacity:0.5;stroke:#000000;stroke-linejoin:miter;"/>
   </g>
   <g id="patch_6">
    <path clip-path="url(#p73fa6d1c30)" d="M 234.15 418.7208 
L 324.0438 418.7208 
L 324.0438 297.93288 
L 234.15 297.93288 
z
" style="fill:#bb1b2c;opacity:0.5;stroke:#000000;stroke-linejoin:miter;"/>
   </g>
   <g id="patch_7">
    <path clip-path="url(#p73fa6d1c30)" d="M 324.049938 418.7208 
L 413.943738 418.7208 
L 413.943738 297.93288 
L 324.049938 297.93288 
z
" style="fill:#b50927;opacity:0.5;stroke:#000000;stroke-linejoin:miter;"/>
   </g>
   <g id="patch_8">
    <path clip-path="url(#p73fa6d1c30)" d="M 413.950062 418.7208 
L 503.843862 418.7208 
L 503.843862 297.93288 
L 413.950062 297.93288 
z
" style="fill:#f7a688;opacity:0.5;stroke:#000000;stroke-linejoin:miter;"/>
   </g>
   <g id="patch_9">
    <path clip-path="url(#p73fa6d1c30)" d="M 234.15 539.4 
L 324.0438 539.4 
L 324.0438 418.61208 
L 234.15 418.61208 
z
" style="fill:#b1cbfc;opacity:0.5;stroke:#000000;stroke-linejoin:miter;"/>
   </g>
   <g id="patch_10">
    <path clip-path="url(#p73fa6d1c30)" d="M 324.049938 539.4 
L 413.943738 539.4 
L 413.943738 418.61208 
L 324.049938 418.61208 
z
" style="fill:#bed2f6;opacity:0.5;stroke:#000000;stroke-linejoin:miter;"/>
   </g>
   <g id="patch_11">
    <path clip-path="url(#p73fa6d1c30)" d="M 413.950062 539.4 
L 503.843862 539.4 
L 503.843862 418.61208 
L 413.950062 418.61208 
z
" style="fill:#3b4cc0;opacity:0.5;stroke:#000000;stroke-linejoin:miter;"/>
   </g>
   <g id="LineCollection_1">
    <path clip-path="url(#p73fa6d1c30)" d="M 264.727273 525.139914 
L 270.363636 526.016154 
L 276 526.644201 
L 281.636364 527.047134 
L 287.272727 527.320091 
L 292.909091 527.42604 
L 304.181818 527.344825 
L 326.727273 526.820843 
L 360.545455 526.312066 
L 371.818182 525.888036 
L 383.090909 525.145048 
L 394.363636 523.964036 
L 405.636364 522.275091 
L 416.909091 519.898752 
L 422.545455 518.47929 
L 428.181818 516.838271 
L 437.997261 513.253691 
L 439.454545 512.682689 
L 446.648202 509.605369 
L 450.727273 507.60564 
L 456.363636 504.530346 
L 462 501.095279 
L 467.636364 497.164423 
L 473.272727 492.877474 
L 479.203493 487.715436 
L 486.255511 480.418792 
L 490.181818 476.00601 
L 492.497968 473.122148 
L 495.818182 468.608237 
L 500.182794 462.177181 
L 502.395522 458.528859 
L 506.324351 451.232215 
L 508.129221 447.583893 
L 511.127002 440.287248 
L 512.727273 435.954336 
L 514.860354 429.342282 
L 515.872168 425.69396 
L 519.062609 411.100671 
L 519.666102 407.452349 
L 520.893892 396.507383 
L 521.335025 389.210738 
L 521.534929 381.914094 
L 521.618812 370.969128 
L 521.170298 360.024161 
L 520.542132 349.079195 
L 519.953984 341.78255 
L 517.363895 316.244295 
L 516.409266 308.947651 
L 515.353305 301.651007 
L 512.603085 287.057718 
L 511.801933 283.409396 
L 509.849815 276.112752 
L 506.602113 265.167785 
L 502.29672 254.222819 
L 500.562613 250.574497 
L 495.818182 241.357424 
L 494.807293 239.62953 
L 492.510851 235.981208 
L 487.174745 228.684564 
L 484.410168 225.036242 
L 478.909091 219.46607 
L 476.945283 217.739597 
L 472.930898 214.091275 
L 467.636364 210.014539 
L 463.876391 206.794631 
L 456.363636 201.643415 
L 450.727273 198.534376 
L 445.090909 195.7441 
L 439.454545 193.158538 
L 433.818182 190.965542 
L 426.626837 188.55302 
L 422.545455 187.37203 
L 416.909091 185.929145 
L 411.272727 184.695165 
L 400 182.664682 
L 387.75867 181.256376 
L 383.090909 180.741727 
L 371.818182 180.040929 
L 360.545455 179.562632 
L 332.363636 179.123703 
L 315.454545 178.89881 
L 304.181818 178.535433 
L 292.909091 178.477795 
L 281.636364 178.826483 
L 276 179.263447 
L 270.363636 179.898963 
L 264.727273 180.727998 
L 259.090909 181.86196 
L 253.454545 183.304188 
L 247.818182 185.089818 
L 242.181818 187.277803 
L 236.545455 189.885904 
L 230.909091 193.055997 
L 225.272727 196.62252 
L 219.636364 200.805788 
L 214 205.523048 
L 212.617527 206.794631 
L 208.363636 210.92042 
L 202.055128 217.739597 
L 196.342903 225.036242 
L 193.82104 228.684564 
L 191.436484 232.332886 
L 187.155436 239.62953 
L 185.238698 243.277852 
L 183.423679 246.926174 
L 180.180692 254.222819 
L 177.4179 261.519463 
L 174.545455 270.263899 
L 172.890602 276.112752 
L 171.081336 283.409396 
L 169.521719 290.70604 
L 168.181645 298.002685 
L 166.531318 308.947651 
L 165.187437 319.892617 
L 163.664148 334.485906 
L 162.665368 345.430872 
L 161.881277 356.375839 
L 161.505851 363.672483 
L 161.277708 370.969128 
L 161.216697 378.265772 
L 161.364768 385.562416 
L 161.776708 392.85906 
L 162.378695 400.155705 
L 163.292416 407.452349 
L 164.51985 414.748993 
L 166.076292 422.045638 
L 167.999431 429.342282 
L 170.378923 436.638926 
L 171.683305 440.287248 
L 174.692205 447.583893 
L 176.382172 451.232215 
L 180.181818 458.607127 
L 184.425198 465.825503 
L 186.773658 469.473826 
L 191.913315 476.77047 
L 197.709495 484.067114 
L 202.727273 489.705654 
L 208.363636 495.468884 
L 214 500.600107 
L 219.636364 505.209591 
L 225.272727 509.242449 
L 230.909091 512.813734 
L 236.545455 515.919642 
L 242.181818 518.599673 
L 247.818182 520.764613 
L 253.454545 522.564323 
L 260.070773 524.198658 
L 264.727273 525.139914 
L 264.727273 525.139914 
" style="fill:none;stroke:#000000;stroke-width:3;"/>
   </g>
   <g id="LineCollection_2">
    <path clip-path="url(#p73fa6d1c30)" d="M 287.272727 476.986614 
L 292.909091 477.144575 
L 304.181818 477.055065 
L 309.818182 476.768174 
L 315.454545 476.607418 
L 326.727273 476.007935 
L 332.363636 476.132541 
L 343.636364 475.928256 
L 366.181818 475.18533 
L 371.818182 474.651049 
L 377.454545 474.311317 
L 383.090909 473.713885 
L 400 470.685842 
L 405.636364 469.270405 
L 411.272727 467.447546 
L 416.909091 465.398798 
L 422.545455 463.048371 
L 423.985055 462.177181 
L 430.385576 458.528859 
L 436.010889 454.880537 
L 440.385799 451.232215 
L 445.2794 447.583893 
L 449.106172 443.93557 
L 450.727273 442.164979 
L 454.837487 436.638926 
L 456.363636 434.727363 
L 457.467974 432.990604 
L 459.59302 429.342282 
L 462 424.833499 
L 463.288345 422.045638 
L 464.725507 418.397315 
L 466.041219 414.748993 
L 467.094423 411.100671 
L 469.464749 400.155705 
L 470.112395 396.507383 
L 470.995414 389.210738 
L 471.342054 385.562416 
L 471.747401 378.265772 
L 471.656588 374.61745 
L 471.39986 370.969128 
L 471.106541 363.672483 
L 470.785274 360.024161 
L 470.350318 356.375839 
L 470.082995 352.727517 
L 469.204 345.430872 
L 466.909378 330.837584 
L 466.228094 327.189262 
L 465.345558 323.54094 
L 463.251242 316.244295 
L 462 307.704671 
L 461.420058 305.299329 
L 460.254732 301.651007 
L 456.039807 290.70604 
L 453.289597 283.409396 
L 451.637423 279.761074 
L 450.727273 278.118474 
L 447.25952 272.46443 
L 444.31522 268.816107 
L 439.454545 263.6508 
L 433.818182 257.403761 
L 429.954296 254.222819 
L 428.181818 252.957727 
L 416.909091 245.785073 
L 411.272727 242.954615 
L 405.636364 240.964685 
L 394.363636 237.577745 
L 387.529324 235.981208 
L 377.454545 234.65044 
L 366.181818 233.425892 
L 354.909091 232.845668 
L 349.272727 232.861609 
L 343.636364 232.503907 
L 338 232.523903 
L 332.363636 232.374697 
L 326.727273 232.469052 
L 321.090909 232.293179 
L 315.454545 231.819574 
L 309.818182 231.48659 
L 304.181818 231.338278 
L 292.909091 231.248116 
L 287.272727 231.574534 
L 280.331459 232.332886 
L 270.363636 233.717285 
L 264.727273 235.226058 
L 262.650177 235.981208 
L 253.454545 240.005092 
L 247.818182 243.688347 
L 242.181818 248.221011 
L 239.906129 250.574497 
L 236.543806 254.222819 
L 234.112104 257.871141 
L 230.909091 261.922992 
L 225.272727 272.49251 
L 223.689518 276.112752 
L 220.877762 283.409396 
L 218.583781 290.70604 
L 217.803267 294.354362 
L 216.870245 298.002685 
L 215.774366 301.651007 
L 214 309.633533 
L 213.477249 312.595973 
L 212.632504 319.892617 
L 211.403206 327.189262 
L 210.419334 334.485906 
L 209.80869 338.134228 
L 209.462241 341.78255 
L 208.941603 345.430872 
L 207.861771 356.375839 
L 207.582377 360.024161 
L 207.485171 363.672483 
L 207.117277 370.969128 
L 207.10079 378.265772 
L 207.479075 389.210738 
L 208.086802 396.507383 
L 208.464085 400.155705 
L 209.100718 403.804027 
L 209.973655 407.452349 
L 210.668061 411.100671 
L 211.496975 414.748993 
L 214 423.471858 
L 217.975336 432.990604 
L 219.732432 436.638926 
L 225.272727 445.792596 
L 230.909091 452.992276 
L 232.719802 454.880537 
L 236.545455 458.685348 
L 246.249333 465.825503 
L 247.818182 466.814259 
L 253.454545 469.699816 
L 259.090909 471.887479 
L 264.727273 473.755894 
L 270.363636 475.035387 
L 276 475.988585 
L 283.23877 476.77047 
L 287.272727 476.986614 
L 287.272727 476.986614 
" style="fill:none;stroke:#0000ff;stroke-width:3;"/>
   </g>
   <g id="line2d_1">
    <path clip-path="url(#p73fa6d1c30)" d="M 234.15 539.4 
L 234.15 177 
" style="fill:none;stroke:#ff0000;stroke-linecap:square;stroke-width:1.5;"/>
   </g>
   <g id="line2d_2">
    <path clip-path="url(#p73fa6d1c30)" d="M 503.85 539.4 
L 503.85 177 
" style="fill:none;stroke:#ff0000;stroke-linecap:square;stroke-width:1.5;"/>
   </g>
   <g id="line2d_3">
    <path clip-path="url(#p73fa6d1c30)" d="M 234.15 539.4 
L 503.85 539.4 
" style="fill:none;stroke:#ff0000;stroke-linecap:square;stroke-width:1.5;"/>
   </g>
   <g id="line2d_4">
    <path clip-path="url(#p73fa6d1c30)" d="M 234.15 177 
L 503.85 177 
" style="fill:none;stroke:#ff0000;stroke-linecap:square;stroke-width:1.5;"/>
   </g>
   <g id="text_1">
    <!-- Changeup, Leftie Hitter, Umpire's Strikezone -->
    <defs>
     <path d="M 64.40625 67.28125 
L 64.40625 56.890625 
Q 59.421875 61.53125 53.78125 63.8125 
Q 48.140625 66.109375 41.796875 66.109375 
Q 29.296875 66.109375 22.65625 58.46875 
Q 16.015625 50.828125 16.015625 36.375 
Q 16.015625 21.96875 22.65625 14.328125 
Q 29.296875 6.6875 41.796875 6.6875 
Q 48.140625 6.6875 53.78125 8.984375 
Q 59.421875 11.28125 64.40625 15.921875 
L 64.40625 5.609375 
Q 59.234375 2.09375 53.4375 0.328125 
Q 47.65625 -1.421875 41.21875 -1.421875 
Q 24.65625 -1.421875 15.125 8.703125 
Q 5.609375 18.84375 5.609375 36.375 
Q 5.609375 53.953125 15.125 64.078125 
Q 24.65625 74.21875 41.21875 74.21875 
Q 47.75 74.21875 53.53125 72.484375 
Q 59.328125 70.75 64.40625 67.28125 
z
" id="DejaVuSans-67"/>
     <path d="M 54.890625 33.015625 
L 54.890625 0 
L 45.90625 0 
L 45.90625 32.71875 
Q 45.90625 40.484375 42.875 44.328125 
Q 39.84375 48.1875 33.796875 48.1875 
Q 26.515625 48.1875 22.3125 43.546875 
Q 18.109375 38.921875 18.109375 30.90625 
L 18.109375 0 
L 9.078125 0 
L 9.078125 75.984375 
L 18.109375 75.984375 
L 18.109375 46.1875 
Q 21.34375 51.125 25.703125 53.5625 
Q 30.078125 56 35.796875 56 
Q 45.21875 56 50.046875 50.171875 
Q 54.890625 44.34375 54.890625 33.015625 
z
" id="DejaVuSans-104"/>
     <path d="M 34.28125 27.484375 
Q 23.390625 27.484375 19.1875 25 
Q 14.984375 22.515625 14.984375 16.5 
Q 14.984375 11.71875 18.140625 8.90625 
Q 21.296875 6.109375 26.703125 6.109375 
Q 34.1875 6.109375 38.703125 11.40625 
Q 43.21875 16.703125 43.21875 25.484375 
L 43.21875 27.484375 
z
M 52.203125 31.203125 
L 52.203125 0 
L 43.21875 0 
L 43.21875 8.296875 
Q 40.140625 3.328125 35.546875 0.953125 
Q 30.953125 -1.421875 24.3125 -1.421875 
Q 15.921875 -1.421875 10.953125 3.296875 
Q 6 8.015625 6 15.921875 
Q 6 25.140625 12.171875 29.828125 
Q 18.359375 34.515625 30.609375 34.515625 
L 43.21875 34.515625 
L 43.21875 35.40625 
Q 43.21875 41.609375 39.140625 45 
Q 35.0625 48.390625 27.6875 48.390625 
Q 23 48.390625 18.546875 47.265625 
Q 14.109375 46.140625 10.015625 43.890625 
L 10.015625 52.203125 
Q 14.9375 54.109375 19.578125 55.046875 
Q 24.21875 56 28.609375 56 
Q 40.484375 56 46.34375 49.84375 
Q 52.203125 43.703125 52.203125 31.203125 
z
" id="DejaVuSans-97"/>
     <path d="M 54.890625 33.015625 
L 54.890625 0 
L 45.90625 0 
L 45.90625 32.71875 
Q 45.90625 40.484375 42.875 44.328125 
Q 39.84375 48.1875 33.796875 48.1875 
Q 26.515625 48.1875 22.3125 43.546875 
Q 18.109375 38.921875 18.109375 30.90625 
L 18.109375 0 
L 9.078125 0 
L 9.078125 54.6875 
L 18.109375 54.6875 
L 18.109375 46.1875 
Q 21.34375 51.125 25.703125 53.5625 
Q 30.078125 56 35.796875 56 
Q 45.21875 56 50.046875 50.171875 
Q 54.890625 44.34375 54.890625 33.015625 
z
" id="DejaVuSans-110"/>
     <path d="M 45.40625 27.984375 
Q 45.40625 37.75 41.375 43.109375 
Q 37.359375 48.484375 30.078125 48.484375 
Q 22.859375 48.484375 18.828125 43.109375 
Q 14.796875 37.75 14.796875 27.984375 
Q 14.796875 18.265625 18.828125 12.890625 
Q 22.859375 7.515625 30.078125 7.515625 
Q 37.359375 7.515625 41.375 12.890625 
Q 45.40625 18.265625 45.40625 27.984375 
z
M 54.390625 6.78125 
Q 54.390625 -7.171875 48.1875 -13.984375 
Q 42 -20.796875 29.203125 -20.796875 
Q 24.46875 -20.796875 20.265625 -20.09375 
Q 16.0625 -19.390625 12.109375 -17.921875 
L 12.109375 -9.1875 
Q 16.0625 -11.328125 19.921875 -12.34375 
Q 23.78125 -13.375 27.78125 -13.375 
Q 36.625 -13.375 41.015625 -8.765625 
Q 45.40625 -4.15625 45.40625 5.171875 
L 45.40625 9.625 
Q 42.625 4.78125 38.28125 2.390625 
Q 33.9375 0 27.875 0 
Q 17.828125 0 11.671875 7.65625 
Q 5.515625 15.328125 5.515625 27.984375 
Q 5.515625 40.671875 11.671875 48.328125 
Q 17.828125 56 27.875 56 
Q 33.9375 56 38.28125 53.609375 
Q 42.625 51.21875 45.40625 46.390625 
L 45.40625 54.6875 
L 54.390625 54.6875 
z
" id="DejaVuSans-103"/>
     <path d="M 56.203125 29.59375 
L 56.203125 25.203125 
L 14.890625 25.203125 
Q 15.484375 15.921875 20.484375 11.0625 
Q 25.484375 6.203125 34.421875 6.203125 
Q 39.59375 6.203125 44.453125 7.46875 
Q 49.3125 8.734375 54.109375 11.28125 
L 54.109375 2.78125 
Q 49.265625 0.734375 44.1875 -0.34375 
Q 39.109375 -1.421875 33.890625 -1.421875 
Q 20.796875 -1.421875 13.15625 6.1875 
Q 5.515625 13.8125 5.515625 26.8125 
Q 5.515625 40.234375 12.765625 48.109375 
Q 20.015625 56 32.328125 56 
Q 43.359375 56 49.78125 48.890625 
Q 56.203125 41.796875 56.203125 29.59375 
z
M 47.21875 32.234375 
Q 47.125 39.59375 43.09375 43.984375 
Q 39.0625 48.390625 32.421875 48.390625 
Q 24.90625 48.390625 20.390625 44.140625 
Q 15.875 39.890625 15.1875 32.171875 
z
" id="DejaVuSans-101"/>
     <path d="M 8.5 21.578125 
L 8.5 54.6875 
L 17.484375 54.6875 
L 17.484375 21.921875 
Q 17.484375 14.15625 20.5 10.265625 
Q 23.53125 6.390625 29.59375 6.390625 
Q 36.859375 6.390625 41.078125 11.03125 
Q 45.3125 15.671875 45.3125 23.6875 
L 45.3125 54.6875 
L 54.296875 54.6875 
L 54.296875 0 
L 45.3125 0 
L 45.3125 8.40625 
Q 42.046875 3.421875 37.71875 1 
Q 33.40625 -1.421875 27.6875 -1.421875 
Q 18.265625 -1.421875 13.375 4.4375 
Q 8.5 10.296875 8.5 21.578125 
z
M 31.109375 56 
z
" id="DejaVuSans-117"/>
     <path d="M 18.109375 8.203125 
L 18.109375 -20.796875 
L 9.078125 -20.796875 
L 9.078125 54.6875 
L 18.109375 54.6875 
L 18.109375 46.390625 
Q 20.953125 51.265625 25.265625 53.625 
Q 29.59375 56 35.59375 56 
Q 45.5625 56 51.78125 48.09375 
Q 58.015625 40.1875 58.015625 27.296875 
Q 58.015625 14.40625 51.78125 6.484375 
Q 45.5625 -1.421875 35.59375 -1.421875 
Q 29.59375 -1.421875 25.265625 0.953125 
Q 20.953125 3.328125 18.109375 8.203125 
z
M 48.6875 27.296875 
Q 48.6875 37.203125 44.609375 42.84375 
Q 40.53125 48.484375 33.40625 48.484375 
Q 26.265625 48.484375 22.1875 42.84375 
Q 18.109375 37.203125 18.109375 27.296875 
Q 18.109375 17.390625 22.1875 11.75 
Q 26.265625 6.109375 33.40625 6.109375 
Q 40.53125 6.109375 44.609375 11.75 
Q 48.6875 17.390625 48.6875 27.296875 
z
" id="DejaVuSans-112"/>
     <path d="M 11.71875 12.40625 
L 22.015625 12.40625 
L 22.015625 4 
L 14.015625 -11.625 
L 7.71875 -11.625 
L 11.71875 4 
z
" id="DejaVuSans-44"/>
     <path id="DejaVuSans-32"/>
     <path d="M 9.8125 72.90625 
L 19.671875 72.90625 
L 19.671875 8.296875 
L 55.171875 8.296875 
L 55.171875 0 
L 9.8125 0 
z
" id="DejaVuSans-76"/>
     <path d="M 37.109375 75.984375 
L 37.109375 68.5 
L 28.515625 68.5 
Q 23.6875 68.5 21.796875 66.546875 
Q 19.921875 64.59375 19.921875 59.515625 
L 19.921875 54.6875 
L 34.71875 54.6875 
L 34.71875 47.703125 
L 19.921875 47.703125 
L 19.921875 0 
L 10.890625 0 
L 10.890625 47.703125 
L 2.296875 47.703125 
L 2.296875 54.6875 
L 10.890625 54.6875 
L 10.890625 58.5 
Q 10.890625 67.625 15.140625 71.796875 
Q 19.390625 75.984375 28.609375 75.984375 
z
" id="DejaVuSans-102"/>
     <path d="M 18.3125 70.21875 
L 18.3125 54.6875 
L 36.8125 54.6875 
L 36.8125 47.703125 
L 18.3125 47.703125 
L 18.3125 18.015625 
Q 18.3125 11.328125 20.140625 9.421875 
Q 21.96875 7.515625 27.59375 7.515625 
L 36.8125 7.515625 
L 36.8125 0 
L 27.59375 0 
Q 17.1875 0 13.234375 3.875 
Q 9.28125 7.765625 9.28125 18.015625 
L 9.28125 47.703125 
L 2.6875 47.703125 
L 2.6875 54.6875 
L 9.28125 54.6875 
L 9.28125 70.21875 
z
" id="DejaVuSans-116"/>
     <path d="M 9.421875 54.6875 
L 18.40625 54.6875 
L 18.40625 0 
L 9.421875 0 
z
M 9.421875 75.984375 
L 18.40625 75.984375 
L 18.40625 64.59375 
L 9.421875 64.59375 
z
" id="DejaVuSans-105"/>
     <path d="M 9.8125 72.90625 
L 19.671875 72.90625 
L 19.671875 43.015625 
L 55.515625 43.015625 
L 55.515625 72.90625 
L 65.375 72.90625 
L 65.375 0 
L 55.515625 0 
L 55.515625 34.71875 
L 19.671875 34.71875 
L 19.671875 0 
L 9.8125 0 
z
" id="DejaVuSans-72"/>
     <path d="M 41.109375 46.296875 
Q 39.59375 47.171875 37.8125 47.578125 
Q 36.03125 48 33.890625 48 
Q 26.265625 48 22.1875 43.046875 
Q 18.109375 38.09375 18.109375 28.8125 
L 18.109375 0 
L 9.078125 0 
L 9.078125 54.6875 
L 18.109375 54.6875 
L 18.109375 46.1875 
Q 20.953125 51.171875 25.484375 53.578125 
Q 30.03125 56 36.53125 56 
Q 37.453125 56 38.578125 55.875 
Q 39.703125 55.765625 41.0625 55.515625 
z
" id="DejaVuSans-114"/>
     <path d="M 8.6875 72.90625 
L 18.609375 72.90625 
L 18.609375 28.609375 
Q 18.609375 16.890625 22.84375 11.734375 
Q 27.09375 6.59375 36.625 6.59375 
Q 46.09375 6.59375 50.34375 11.734375 
Q 54.59375 16.890625 54.59375 28.609375 
L 54.59375 72.90625 
L 64.5 72.90625 
L 64.5 27.390625 
Q 64.5 13.140625 57.4375 5.859375 
Q 50.390625 -1.421875 36.625 -1.421875 
Q 22.796875 -1.421875 15.734375 5.859375 
Q 8.6875 13.140625 8.6875 27.390625 
z
" id="DejaVuSans-85"/>
     <path d="M 52 44.1875 
Q 55.375 50.25 60.0625 53.125 
Q 64.75 56 71.09375 56 
Q 79.640625 56 84.28125 50.015625 
Q 88.921875 44.046875 88.921875 33.015625 
L 88.921875 0 
L 79.890625 0 
L 79.890625 32.71875 
Q 79.890625 40.578125 77.09375 44.375 
Q 74.3125 48.1875 68.609375 48.1875 
Q 61.625 48.1875 57.5625 43.546875 
Q 53.515625 38.921875 53.515625 30.90625 
L 53.515625 0 
L 44.484375 0 
L 44.484375 32.71875 
Q 44.484375 40.625 41.703125 44.40625 
Q 38.921875 48.1875 33.109375 48.1875 
Q 26.21875 48.1875 22.15625 43.53125 
Q 18.109375 38.875 18.109375 30.90625 
L 18.109375 0 
L 9.078125 0 
L 9.078125 54.6875 
L 18.109375 54.6875 
L 18.109375 46.1875 
Q 21.1875 51.21875 25.484375 53.609375 
Q 29.78125 56 35.6875 56 
Q 41.65625 56 45.828125 52.96875 
Q 50 49.953125 52 44.1875 
z
" id="DejaVuSans-109"/>
     <path d="M 17.921875 72.90625 
L 17.921875 45.796875 
L 9.625 45.796875 
L 9.625 72.90625 
z
" id="DejaVuSans-39"/>
     <path d="M 44.28125 53.078125 
L 44.28125 44.578125 
Q 40.484375 46.53125 36.375 47.5 
Q 32.28125 48.484375 27.875 48.484375 
Q 21.1875 48.484375 17.84375 46.4375 
Q 14.5 44.390625 14.5 40.28125 
Q 14.5 37.15625 16.890625 35.375 
Q 19.28125 33.59375 26.515625 31.984375 
L 29.59375 31.296875 
Q 39.15625 29.25 43.1875 25.515625 
Q 47.21875 21.78125 47.21875 15.09375 
Q 47.21875 7.46875 41.1875 3.015625 
Q 35.15625 -1.421875 24.609375 -1.421875 
Q 20.21875 -1.421875 15.453125 -0.5625 
Q 10.6875 0.296875 5.421875 2 
L 5.421875 11.28125 
Q 10.40625 8.6875 15.234375 7.390625 
Q 20.0625 6.109375 24.8125 6.109375 
Q 31.15625 6.109375 34.5625 8.28125 
Q 37.984375 10.453125 37.984375 14.40625 
Q 37.984375 18.0625 35.515625 20.015625 
Q 33.0625 21.96875 24.703125 23.78125 
L 21.578125 24.515625 
Q 13.234375 26.265625 9.515625 29.90625 
Q 5.8125 33.546875 5.8125 39.890625 
Q 5.8125 47.609375 11.28125 51.796875 
Q 16.75 56 26.8125 56 
Q 31.78125 56 36.171875 55.265625 
Q 40.578125 54.546875 44.28125 53.078125 
z
" id="DejaVuSans-115"/>
     <path d="M 53.515625 70.515625 
L 53.515625 60.890625 
Q 47.90625 63.578125 42.921875 64.890625 
Q 37.9375 66.21875 33.296875 66.21875 
Q 25.25 66.21875 20.875 63.09375 
Q 16.5 59.96875 16.5 54.203125 
Q 16.5 49.359375 19.40625 46.890625 
Q 22.3125 44.4375 30.421875 42.921875 
L 36.375 41.703125 
Q 47.40625 39.59375 52.65625 34.296875 
Q 57.90625 29 57.90625 20.125 
Q 57.90625 9.515625 50.796875 4.046875 
Q 43.703125 -1.421875 29.984375 -1.421875 
Q 24.8125 -1.421875 18.96875 -0.25 
Q 13.140625 0.921875 6.890625 3.21875 
L 6.890625 13.375 
Q 12.890625 10.015625 18.65625 8.296875 
Q 24.421875 6.59375 29.984375 6.59375 
Q 38.421875 6.59375 43.015625 9.90625 
Q 47.609375 13.234375 47.609375 19.390625 
Q 47.609375 24.75 44.3125 27.78125 
Q 41.015625 30.8125 33.5 32.328125 
L 27.484375 33.5 
Q 16.453125 35.6875 11.515625 40.375 
Q 6.59375 45.0625 6.59375 53.421875 
Q 6.59375 63.09375 13.40625 68.65625 
Q 20.21875 74.21875 32.171875 74.21875 
Q 37.3125 74.21875 42.625 73.28125 
Q 47.953125 72.359375 53.515625 70.515625 
z
" id="DejaVuSans-83"/>
     <path d="M 9.078125 75.984375 
L 18.109375 75.984375 
L 18.109375 31.109375 
L 44.921875 54.6875 
L 56.390625 54.6875 
L 27.390625 29.109375 
L 57.625 0 
L 45.90625 0 
L 18.109375 26.703125 
L 18.109375 0 
L 9.078125 0 
z
" id="DejaVuSans-107"/>
     <path d="M 5.515625 54.6875 
L 48.1875 54.6875 
L 48.1875 46.484375 
L 14.40625 7.171875 
L 48.1875 7.171875 
L 48.1875 0 
L 4.296875 0 
L 4.296875 8.203125 
L 38.09375 47.515625 
L 5.515625 47.515625 
z
" id="DejaVuSans-122"/>
     <path d="M 30.609375 48.390625 
Q 23.390625 48.390625 19.1875 42.75 
Q 14.984375 37.109375 14.984375 27.296875 
Q 14.984375 17.484375 19.15625 11.84375 
Q 23.34375 6.203125 30.609375 6.203125 
Q 37.796875 6.203125 41.984375 11.859375 
Q 46.1875 17.53125 46.1875 27.296875 
Q 46.1875 37.015625 41.984375 42.703125 
Q 37.796875 48.390625 30.609375 48.390625 
z
M 30.609375 56 
Q 42.328125 56 49.015625 48.375 
Q 55.71875 40.765625 55.71875 27.296875 
Q 55.71875 13.875 49.015625 6.21875 
Q 42.328125 -1.421875 30.609375 -1.421875 
Q 18.84375 -1.421875 12.171875 6.21875 
Q 5.515625 13.875 5.515625 27.296875 
Q 5.515625 40.765625 12.171875 48.375 
Q 18.84375 56 30.609375 56 
z
" id="DejaVuSans-111"/>
    </defs>
    <g transform="translate(89.126953 80.4)scale(0.25 -0.25)">
     <use xlink:href="#DejaVuSans-67"/>
     <use x="69.824219" xlink:href="#DejaVuSans-104"/>
     <use x="133.203125" xlink:href="#DejaVuSans-97"/>
     <use x="194.482422" xlink:href="#DejaVuSans-110"/>
     <use x="257.861328" xlink:href="#DejaVuSans-103"/>
     <use x="321.337891" xlink:href="#DejaVuSans-101"/>
     <use x="382.861328" xlink:href="#DejaVuSans-117"/>
     <use x="446.240234" xlink:href="#DejaVuSans-112"/>
     <use x="509.716797" xlink:href="#DejaVuSans-44"/>
     <use x="541.503906" xlink:href="#DejaVuSans-32"/>
     <use x="573.291016" xlink:href="#DejaVuSans-76"/>
     <use x="628.988281" xlink:href="#DejaVuSans-101"/>
     <use x="690.511719" xlink:href="#DejaVuSans-102"/>
     <use x="725.701172" xlink:href="#DejaVuSans-116"/>
     <use x="764.910156" xlink:href="#DejaVuSans-105"/>
     <use x="792.693359" xlink:href="#DejaVuSans-101"/>
     <use x="854.216797" xlink:href="#DejaVuSans-32"/>
     <use x="886.003906" xlink:href="#DejaVuSans-72"/>
     <use x="961.199219" xlink:href="#DejaVuSans-105"/>
     <use x="988.982422" xlink:href="#DejaVuSans-116"/>
     <use x="1028.191406" xlink:href="#DejaVuSans-116"/>
     <use x="1067.400391" xlink:href="#DejaVuSans-101"/>
     <use x="1128.923828" xlink:href="#DejaVuSans-114"/>
     <use x="1170.037109" xlink:href="#DejaVuSans-44"/>
     <use x="1201.824219" xlink:href="#DejaVuSans-32"/>
     <use x="1233.611328" xlink:href="#DejaVuSans-85"/>
     <use x="1306.804688" xlink:href="#DejaVuSans-109"/>
     <use x="1404.216797" xlink:href="#DejaVuSans-112"/>
     <use x="1467.693359" xlink:href="#DejaVuSans-105"/>
     <use x="1495.476562" xlink:href="#DejaVuSans-114"/>
     <use x="1536.558594" xlink:href="#DejaVuSans-101"/>
     <use x="1598.082031" xlink:href="#DejaVuSans-39"/>
     <use x="1625.572266" xlink:href="#DejaVuSans-115"/>
     <use x="1677.671875" xlink:href="#DejaVuSans-32"/>
     <use x="1709.458984" xlink:href="#DejaVuSans-83"/>
     <use x="1772.935547" xlink:href="#DejaVuSans-116"/>
     <use x="1812.144531" xlink:href="#DejaVuSans-114"/>
     <use x="1853.257812" xlink:href="#DejaVuSans-105"/>
     <use x="1881.041016" xlink:href="#DejaVuSans-107"/>
     <use x="1938.904297" xlink:href="#DejaVuSans-101"/>
     <use x="2000.427734" xlink:href="#DejaVuSans-122"/>
     <use x="2052.917969" xlink:href="#DejaVuSans-111"/>
     <use x="2114.099609" xlink:href="#DejaVuSans-110"/>
     <use x="2177.478516" xlink:href="#DejaVuSans-101"/>
    </g>
   </g>
  </g>
 </g>
 <defs>
  <clipPath id="p73fa6d1c30">
   <rect height="543.6" width="558" x="90" y="86.4"/>
  </clipPath>
 </defs>
</svg>
