<?xml version="1.0" encoding="utf-8" standalone="no"?>
<!DOCTYPE svg PUBLIC "-//W3C//DTD SVG 1.1//EN"
  "http://www.w3.org/Graphics/SVG/1.1/DTD/svg11.dtd">
<!-- Created with matplotlib (https://matplotlib.org/) -->
<svg height="720pt" version="1.1" viewBox="0 0 720 720" width="720pt" xmlns="http://www.w3.org/2000/svg" xmlns:xlink="http://www.w3.org/1999/xlink">
 <defs>
  <style type="text/css">
*{stroke-linecap:butt;stroke-linejoin:round;}
  </style>
 </defs>
 <g id="figure_1">
  <g id="patch_1">
   <path d="M 0 720 
L 720 720 
L 720 0 
L 0 0 
z
" style="fill:#ffffff;"/>
  </g>
  <g id="axes_1">
   <g id="patch_2">
    <path d="M 90 630 
L 648 630 
L 648 86.4 
L 90 86.4 
z
" style="fill:#ffffff;"/>
   </g>
   <g id="matplotlib.axis_1"/>
   <g id="matplotlib.axis_2"/>
   <g id="patch_3">
    <path clip-path="url(#p716c18d349)" d="M 234.15 297.8604 
L 324.0438 297.8604 
L 324.0438 177.07248 
L 234.15 177.07248 
z
" style="fill:#f7b79b;opacity:0.5;stroke:#000000;stroke-linejoin:miter;"/>
   </g>
   <g id="patch_4">
    <path clip-path="url(#p716c18d349)" d="M 324.049938 297.8604 
L 413.943738 297.8604 
L 413.943738 177.07248 
L 324.049938 177.07248 
z
" style="fill:#ee8468;opacity:0.5;stroke:#000000;stroke-linejoin:miter;"/>
   </g>
   <g id="patch_5">
    <path clip-path="url(#p716c18d349)" d="M 413.950062 297.8604 
L 503.843862 297.8604 
L 503.843862 177.07248 
L 413.950062 177.07248 
z
" style="fill:#efcebd;opacity:0.5;stroke:#000000;stroke-linejoin:miter;"/>
   </g>
   <g id="patch_6">
    <path clip-path="url(#p716c18d349)" d="M 234.15 418.7208 
L 324.0438 418.7208 
L 324.0438 297.93288 
L 234.15 297.93288 
z
" style="fill:#c0282f;opacity:0.5;stroke:#000000;stroke-linejoin:miter;"/>
   </g>
   <g id="patch_7">
    <path clip-path="url(#p716c18d349)" d="M 324.049938 418.7208 
L 413.943738 418.7208 
L 413.943738 297.93288 
L 324.049938 297.93288 
z
" style="fill:#be242e;opacity:0.5;stroke:#000000;stroke-linejoin:miter;"/>
   </g>
   <g id="patch_8">
    <path clip-path="url(#p716c18d349)" d="M 413.950062 418.7208 
L 503.843862 418.7208 
L 503.843862 297.93288 
L 413.950062 297.93288 
z
" style="fill:#bd1f2d;opacity:0.5;stroke:#000000;stroke-linejoin:miter;"/>
   </g>
   <g id="patch_9">
    <path clip-path="url(#p716c18d349)" d="M 234.15 539.4 
L 324.0438 539.4 
L 324.0438 418.61208 
L 234.15 418.61208 
z
" style="fill:#5572df;opacity:0.5;stroke:#000000;stroke-linejoin:miter;"/>
   </g>
   <g id="patch_10">
    <path clip-path="url(#p716c18d349)" d="M 324.049938 539.4 
L 413.943738 539.4 
L 413.943738 418.61208 
L 324.049938 418.61208 
z
" style="fill:#adc9fd;opacity:0.5;stroke:#000000;stroke-linejoin:miter;"/>
   </g>
   <g id="patch_11">
    <path clip-path="url(#p716c18d349)" d="M 413.950062 539.4 
L 503.843862 539.4 
L 503.843862 418.61208 
L 413.950062 418.61208 
z
" style="fill:#8fb1fe;opacity:0.5;stroke:#000000;stroke-linejoin:miter;"/>
   </g>
   <g id="LineCollection_1">
    <path clip-path="url(#p716c18d349)" d="M 321.090909 520.595752 
L 332.363636 521.386288 
L 343.636364 521.882076 
L 360.545455 522.374808 
L 371.818182 522.533132 
L 383.090909 522.494141 
L 394.363636 522.27402 
L 405.636364 521.880213 
L 416.909091 521.248532 
L 428.181818 520.393805 
L 439.454545 519.195138 
L 445.090909 518.461249 
L 454.046636 516.902013 
L 456.363636 516.445779 
L 462 515.152728 
L 468.81833 513.253691 
L 473.272727 511.807957 
L 479.039551 509.605369 
L 484.545455 507.222466 
L 490.181818 504.346251 
L 495.818182 501.059154 
L 501.454545 497.247397 
L 507.090909 492.865412 
L 512.727273 487.806487 
L 516.425449 484.067114 
L 519.744013 480.418792 
L 524 475.367972 
L 529.636364 467.788492 
L 535.272727 459.065394 
L 537.658975 454.880537 
L 540.909091 448.840091 
L 543.271926 443.93557 
L 546.545455 436.612834 
L 549.367262 429.342282 
L 552.181818 421.037974 
L 554.001278 414.748993 
L 555.837163 407.452349 
L 558.113956 396.507383 
L 559.257464 389.210738 
L 560.171268 381.914094 
L 560.857402 374.61745 
L 561.340388 367.320805 
L 561.624575 360.024161 
L 561.736476 352.727517 
L 561.569843 341.78255 
L 561.028222 330.837584 
L 560.209485 319.892617 
L 559.447473 312.595973 
L 558.120246 301.651007 
L 556.932259 294.354362 
L 555.539831 287.057718 
L 553.952039 279.761074 
L 552.043787 272.46443 
L 549.804312 265.167785 
L 547.20901 257.871141 
L 545.767479 254.222819 
L 544.223034 250.574497 
L 540.774524 243.277852 
L 536.691378 235.981208 
L 534.438424 232.332886 
L 531.985622 228.684564 
L 529.341319 225.036242 
L 526.502724 221.387919 
L 523.407866 217.739597 
L 518.363636 212.41774 
L 512.727273 207.439271 
L 507.475736 203.146309 
L 507.090909 202.853309 
L 501.454545 199.043687 
L 495.818182 195.742813 
L 488.545599 192.201342 
L 484.545455 190.416822 
L 478.909091 188.372904 
L 473.272727 186.506583 
L 462 183.596831 
L 456.363636 182.495821 
L 448.662527 181.256376 
L 445.090909 180.743595 
L 433.818182 179.612424 
L 422.545455 178.705014 
L 411.272727 178.049899 
L 400 177.596861 
L 388.727273 177.323369 
L 377.454545 177.326066 
L 366.181818 177.400073 
L 360.545455 177.367634 
L 348.943286 177.608054 
L 338 178.147191 
L 326.727273 178.544514 
L 315.454545 179.395469 
L 309.818182 180.005365 
L 300.976743 181.256376 
L 298.545455 181.651986 
L 292.909091 182.70367 
L 287.272727 184.060889 
L 276 187.383675 
L 270.363636 189.39682 
L 263.958523 192.201342 
L 259.090909 194.656184 
L 253.454545 197.869637 
L 247.818182 201.38962 
L 245.393062 203.146309 
L 240.887097 206.794631 
L 232.287742 214.091275 
L 230.909091 215.431229 
L 222.315365 225.036242 
L 219.426049 228.684564 
L 214.355193 235.981208 
L 211.980569 239.62953 
L 207.927473 246.926174 
L 206.029937 250.574497 
L 202.727273 257.954168 
L 199.773456 265.167785 
L 197.090909 273.095391 
L 195.207463 279.761074 
L 193.342499 287.057718 
L 191.764047 294.354362 
L 191.087595 298.002685 
L 189.430753 308.947651 
L 188.893283 312.595973 
L 187.730703 323.54094 
L 187.127429 330.837584 
L 186.721279 338.134228 
L 186.394803 349.079195 
L 186.514577 360.024161 
L 186.592668 363.672483 
L 187.338737 374.61745 
L 187.723465 378.265772 
L 188.79707 385.562416 
L 191.454545 400.862352 
L 193.016648 407.452349 
L 195.069915 414.748993 
L 197.503559 422.045638 
L 200.288189 429.342282 
L 203.38279 436.638926 
L 206.947848 443.93557 
L 208.926132 447.583893 
L 214 456.167071 
L 217.910776 462.177181 
L 220.46139 465.825503 
L 225.272727 472.093698 
L 230.909091 478.734125 
L 236.545455 484.654593 
L 242.181818 489.920713 
L 248.326166 495.012081 
L 253.454545 498.83461 
L 259.090909 502.463731 
L 265.29828 505.957047 
L 270.363636 508.432871 
L 276 510.866325 
L 282.740359 513.253691 
L 287.272727 514.664086 
L 292.909091 516.18186 
L 298.545455 517.425318 
L 304.181818 518.473512 
L 309.818182 519.337455 
L 315.454545 520.038757 
L 321.090909 520.595752 
L 321.090909 520.595752 
" style="fill:none;stroke:#000000;stroke-width:3;"/>
   </g>
   <g id="LineCollection_2">
    <path clip-path="url(#p716c18d349)" d="M 338 469.550728 
L 360.545455 470.537965 
L 366.181818 470.689228 
L 383.090909 470.707376 
L 388.727273 470.569788 
L 410.907007 469.473826 
L 411.272727 469.448053 
L 422.545455 468.260424 
L 428.181818 467.624508 
L 433.818182 466.830729 
L 439.999806 465.825503 
L 445.090909 464.807015 
L 450.727273 463.445726 
L 456.363636 461.815068 
L 462 459.825155 
L 467.636364 457.390598 
L 473.272727 454.640486 
L 478.909091 451.186108 
L 484.545455 447.185795 
L 490.181818 442.176009 
L 495.818182 436.433178 
L 501.454545 429.11082 
L 503.45256 425.69396 
L 507.090909 419.84893 
L 507.785669 418.397315 
L 509.307366 414.748993 
L 511.055411 411.100671 
L 512.727273 407.282307 
L 514.900238 400.155705 
L 517.794419 389.210738 
L 518.578601 385.562416 
L 520.113994 374.61745 
L 521.090572 363.672483 
L 521.316297 360.024161 
L 521.382976 352.727517 
L 521.378628 349.079195 
L 521.254829 345.430872 
L 521.001302 341.78255 
L 520.94008 338.134228 
L 519.621642 323.54094 
L 518.918419 319.892617 
L 518.272931 312.595973 
L 517.495717 308.947651 
L 516.540642 305.299329 
L 515.814486 301.651007 
L 513.572626 294.354362 
L 512.727273 289.503532 
L 512.089731 287.057718 
L 509.091657 279.761074 
L 507.090909 274.511345 
L 506.048156 272.46443 
L 501.454545 264.145404 
L 495.818182 256.657571 
L 493.766096 254.222819 
L 490.126643 250.574497 
L 484.545455 245.698265 
L 475.691713 239.62953 
L 473.272727 238.250446 
L 467.636364 235.381155 
L 462 232.822381 
L 460.575187 232.332886 
L 456.363636 231.038394 
L 447.6559 228.684564 
L 445.090909 228.111863 
L 439.454545 227.213083 
L 433.818182 226.452449 
L 428.181818 226.391363 
L 422.545455 225.85708 
L 416.909091 224.914318 
L 411.272727 224.133075 
L 400 223.674258 
L 394.363636 223.036567 
L 383.090909 222.722294 
L 360.545455 222.834198 
L 354.909091 222.995311 
L 349.272727 223.418188 
L 343.636364 223.453006 
L 338 223.859769 
L 332.363636 224.141911 
L 315.454545 226.076287 
L 304.181818 228.241096 
L 298.545455 229.616073 
L 287.272727 233.7046 
L 281.636364 236.542939 
L 276 239.738962 
L 270.223253 243.277852 
L 264.727273 247.972262 
L 262.178145 250.574497 
L 258.958605 254.222819 
L 255.868265 257.871141 
L 253.131844 261.519463 
L 247.477422 272.46443 
L 245.817254 276.112752 
L 243.989636 279.761074 
L 242.025407 283.409396 
L 240.671755 287.057718 
L 239.491939 290.70604 
L 235.960805 305.299329 
L 234.996073 308.947651 
L 233.923228 316.244295 
L 232.431364 327.189262 
L 231.706397 330.837584 
L 231.680556 334.485906 
L 230.679375 345.430872 
L 230.773806 352.727517 
L 230.742442 356.375839 
L 230.909091 360.122162 
L 231.305843 363.672483 
L 231.398494 367.320805 
L 231.640765 370.969128 
L 232.079184 374.61745 
L 232.854505 378.265772 
L 234.691388 389.210738 
L 235.392015 392.85906 
L 236.545455 397.015572 
L 238.781404 403.804027 
L 240.168298 407.452349 
L 242.181818 412.112285 
L 243.666956 414.748993 
L 247.818182 423.63265 
L 249.077421 425.69396 
L 253.454545 432.142634 
L 260.681297 440.287248 
L 264.727273 444.595483 
L 268.323879 447.583893 
L 270.363636 449.089787 
L 276 452.936595 
L 281.636364 456.346199 
L 287.272727 459.145274 
L 298.545455 463.192713 
L 304.181818 464.835838 
L 309.818182 466.117606 
L 315.454545 467.122 
L 321.090909 467.918336 
L 332.363636 469.138282 
L 338 469.550728 
L 338 469.550728 
" style="fill:none;stroke:#0000ff;stroke-width:3;"/>
   </g>
   <g id="line2d_1">
    <path clip-path="url(#p716c18d349)" d="M 234.15 539.4 
L 234.15 177 
" style="fill:none;stroke:#ff0000;stroke-linecap:square;stroke-width:1.5;"/>
   </g>
   <g id="line2d_2">
    <path clip-path="url(#p716c18d349)" d="M 503.85 539.4 
L 503.85 177 
" style="fill:none;stroke:#ff0000;stroke-linecap:square;stroke-width:1.5;"/>
   </g>
   <g id="line2d_3">
    <path clip-path="url(#p716c18d349)" d="M 234.15 539.4 
L 503.85 539.4 
" style="fill:none;stroke:#ff0000;stroke-linecap:square;stroke-width:1.5;"/>
   </g>
   <g id="line2d_4">
    <path clip-path="url(#p716c18d349)" d="M 234.15 177 
L 503.85 177 
" style="fill:none;stroke:#ff0000;stroke-linecap:square;stroke-width:1.5;"/>
   </g>
   <g id="text_1">
    <!-- Changeup, Righty Hitter, Umpire's Strikezone -->
    <defs>
     <path d="M 64.40625 67.28125 
L 64.40625 56.890625 
Q 59.421875 61.53125 53.78125 63.8125 
Q 48.140625 66.109375 41.796875 66.109375 
Q 29.296875 66.109375 22.65625 58.46875 
Q 16.015625 50.828125 16.015625 36.375 
Q 16.015625 21.96875 22.65625 14.328125 
Q 29.296875 6.6875 41.796875 6.6875 
Q 48.140625 6.6875 53.78125 8.984375 
Q 59.421875 11.28125 64.40625 15.921875 
L 64.40625 5.609375 
Q 59.234375 2.09375 53.4375 0.328125 
Q 47.65625 -1.421875 41.21875 -1.421875 
Q 24.65625 -1.421875 15.125 8.703125 
Q 5.609375 18.84375 5.609375 36.375 
Q 5.609375 53.953125 15.125 64.078125 
Q 24.65625 74.21875 41.21875 74.21875 
Q 47.75 74.21875 53.53125 72.484375 
Q 59.328125 70.75 64.40625 67.28125 
z
" id="DejaVuSans-67"/>
     <path d="M 54.890625 33.015625 
L 54.890625 0 
L 45.90625 0 
L 45.90625 32.71875 
Q 45.90625 40.484375 42.875 44.328125 
Q 39.84375 48.1875 33.796875 48.1875 
Q 26.515625 48.1875 22.3125 43.546875 
Q 18.109375 38.921875 18.109375 30.90625 
L 18.109375 0 
L 9.078125 0 
L 9.078125 75.984375 
L 18.109375 75.984375 
L 18.109375 46.1875 
Q 21.34375 51.125 25.703125 53.5625 
Q 30.078125 56 35.796875 56 
Q 45.21875 56 50.046875 50.171875 
Q 54.890625 44.34375 54.890625 33.015625 
z
" id="DejaVuSans-104"/>
     <path d="M 34.28125 27.484375 
Q 23.390625 27.484375 19.1875 25 
Q 14.984375 22.515625 14.984375 16.5 
Q 14.984375 11.71875 18.140625 8.90625 
Q 21.296875 6.109375 26.703125 6.109375 
Q 34.1875 6.109375 38.703125 11.40625 
Q 43.21875 16.703125 43.21875 25.484375 
L 43.21875 27.484375 
z
M 52.203125 31.203125 
L 52.203125 0 
L 43.21875 0 
L 43.21875 8.296875 
Q 40.140625 3.328125 35.546875 0.953125 
Q 30.953125 -1.421875 24.3125 -1.421875 
Q 15.921875 -1.421875 10.953125 3.296875 
Q 6 8.015625 6 15.921875 
Q 6 25.140625 12.171875 29.828125 
Q 18.359375 34.515625 30.609375 34.515625 
L 43.21875 34.515625 
L 43.21875 35.40625 
Q 43.21875 41.609375 39.140625 45 
Q 35.0625 48.390625 27.6875 48.390625 
Q 23 48.390625 18.546875 47.265625 
Q 14.109375 46.140625 10.015625 43.890625 
L 10.015625 52.203125 
Q 14.9375 54.109375 19.578125 55.046875 
Q 24.21875 56 28.609375 56 
Q 40.484375 56 46.34375 49.84375 
Q 52.203125 43.703125 52.203125 31.203125 
z
" id="DejaVuSans-97"/>
     <path d="M 54.890625 33.015625 
L 54.890625 0 
L 45.90625 0 
L 45.90625 32.71875 
Q 45.90625 40.484375 42.875 44.328125 
Q 39.84375 48.1875 33.796875 48.1875 
Q 26.515625 48.1875 22.3125 43.546875 
Q 18.109375 38.921875 18.109375 30.90625 
L 18.109375 0 
L 9.078125 0 
L 9.078125 54.6875 
L 18.109375 54.6875 
L 18.109375 46.1875 
Q 21.34375 51.125 25.703125 53.5625 
Q 30.078125 56 35.796875 56 
Q 45.21875 56 50.046875 50.171875 
Q 54.890625 44.34375 54.890625 33.015625 
z
" id="DejaVuSans-110"/>
     <path d="M 45.40625 27.984375 
Q 45.40625 37.75 41.375 43.109375 
Q 37.359375 48.484375 30.078125 48.484375 
Q 22.859375 48.484375 18.828125 43.109375 
Q 14.796875 37.75 14.796875 27.984375 
Q 14.796875 18.265625 18.828125 12.890625 
Q 22.859375 7.515625 30.078125 7.515625 
Q 37.359375 7.515625 41.375 12.890625 
Q 45.40625 18.265625 45.40625 27.984375 
z
M 54.390625 6.78125 
Q 54.390625 -7.171875 48.1875 -13.984375 
Q 42 -20.796875 29.203125 -20.796875 
Q 24.46875 -20.796875 20.265625 -20.09375 
Q 16.0625 -19.390625 12.109375 -17.921875 
L 12.109375 -9.1875 
Q 16.0625 -11.328125 19.921875 -12.34375 
Q 23.78125 -13.375 27.78125 -13.375 
Q 36.625 -13.375 41.015625 -8.765625 
Q 45.40625 -4.15625 45.40625 5.171875 
L 45.40625 9.625 
Q 42.625 4.78125 38.28125 2.390625 
Q 33.9375 0 27.875 0 
Q 17.828125 0 11.671875 7.65625 
Q 5.515625 15.328125 5.515625 27.984375 
Q 5.515625 40.671875 11.671875 48.328125 
Q 17.828125 56 27.875 56 
Q 33.9375 56 38.28125 53.609375 
Q 42.625 51.21875 45.40625 46.390625 
L 45.40625 54.6875 
L 54.390625 54.6875 
z
" id="DejaVuSans-103"/>
     <path d="M 56.203125 29.59375 
L 56.203125 25.203125 
L 14.890625 25.203125 
Q 15.484375 15.921875 20.484375 11.0625 
Q 25.484375 6.203125 34.421875 6.203125 
Q 39.59375 6.203125 44.453125 7.46875 
Q 49.3125 8.734375 54.109375 11.28125 
L 54.109375 2.78125 
Q 49.265625 0.734375 44.1875 -0.34375 
Q 39.109375 -1.421875 33.890625 -1.421875 
Q 20.796875 -1.421875 13.15625 6.1875 
Q 5.515625 13.8125 5.515625 26.8125 
Q 5.515625 40.234375 12.765625 48.109375 
Q 20.015625 56 32.328125 56 
Q 43.359375 56 49.78125 48.890625 
Q 56.203125 41.796875 56.203125 29.59375 
z
M 47.21875 32.234375 
Q 47.125 39.59375 43.09375 43.984375 
Q 39.0625 48.390625 32.421875 48.390625 
Q 24.90625 48.390625 20.390625 44.140625 
Q 15.875 39.890625 15.1875 32.171875 
z
" id="DejaVuSans-101"/>
     <path d="M 8.5 21.578125 
L 8.5 54.6875 
L 17.484375 54.6875 
L 17.484375 21.921875 
Q 17.484375 14.15625 20.5 10.265625 
Q 23.53125 6.390625 29.59375 6.390625 
Q 36.859375 6.390625 41.078125 11.03125 
Q 45.3125 15.671875 45.3125 23.6875 
L 45.3125 54.6875 
L 54.296875 54.6875 
L 54.296875 0 
L 45.3125 0 
L 45.3125 8.40625 
Q 42.046875 3.421875 37.71875 1 
Q 33.40625 -1.421875 27.6875 -1.421875 
Q 18.265625 -1.421875 13.375 4.4375 
Q 8.5 10.296875 8.5 21.578125 
z
M 31.109375 56 
z
" id="DejaVuSans-117"/>
     <path d="M 18.109375 8.203125 
L 18.109375 -20.796875 
L 9.078125 -20.796875 
L 9.078125 54.6875 
L 18.109375 54.6875 
L 18.109375 46.390625 
Q 20.953125 51.265625 25.265625 53.625 
Q 29.59375 56 35.59375 56 
Q 45.5625 56 51.78125 48.09375 
Q 58.015625 40.1875 58.015625 27.296875 
Q 58.015625 14.40625 51.78125 6.484375 
Q 45.5625 -1.421875 35.59375 -1.421875 
Q 29.59375 -1.421875 25.265625 0.953125 
Q 20.953125 3.328125 18.109375 8.203125 
z
M 48.6875 27.296875 
Q 48.6875 37.203125 44.609375 42.84375 
Q 40.53125 48.484375 33.40625 48.484375 
Q 26.265625 48.484375 22.1875 42.84375 
Q 18.109375 37.203125 18.109375 27.296875 
Q 18.109375 17.390625 22.1875 11.75 
Q 26.265625 6.109375 33.40625 6.109375 
Q 40.53125 6.109375 44.609375 11.75 
Q 48.6875 17.390625 48.6875 27.296875 
z
" id="DejaVuSans-112"/>
     <path d="M 11.71875 12.40625 
L 22.015625 12.40625 
L 22.015625 4 
L 14.015625 -11.625 
L 7.71875 -11.625 
L 11.71875 4 
z
" id="DejaVuSans-44"/>
     <path id="DejaVuSans-32"/>
     <path d="M 44.390625 34.1875 
Q 47.5625 33.109375 50.5625 29.59375 
Q 53.5625 26.078125 56.59375 19.921875 
L 66.609375 0 
L 56 0 
L 46.6875 18.703125 
Q 43.0625 26.03125 39.671875 28.421875 
Q 36.28125 30.8125 30.421875 30.8125 
L 19.671875 30.8125 
L 19.671875 0 
L 9.8125 0 
L 9.8125 72.90625 
L 32.078125 72.90625 
Q 44.578125 72.90625 50.734375 67.671875 
Q 56.890625 62.453125 56.890625 51.90625 
Q 56.890625 45.015625 53.6875 40.46875 
Q 50.484375 35.9375 44.390625 34.1875 
z
M 19.671875 64.796875 
L 19.671875 38.921875 
L 32.078125 38.921875 
Q 39.203125 38.921875 42.84375 42.21875 
Q 46.484375 45.515625 46.484375 51.90625 
Q 46.484375 58.296875 42.84375 61.546875 
Q 39.203125 64.796875 32.078125 64.796875 
z
" id="DejaVuSans-82"/>
     <path d="M 9.421875 54.6875 
L 18.40625 54.6875 
L 18.40625 0 
L 9.421875 0 
z
M 9.421875 75.984375 
L 18.40625 75.984375 
L 18.40625 64.59375 
L 9.421875 64.59375 
z
" id="DejaVuSans-105"/>
     <path d="M 18.3125 70.21875 
L 18.3125 54.6875 
L 36.8125 54.6875 
L 36.8125 47.703125 
L 18.3125 47.703125 
L 18.3125 18.015625 
Q 18.3125 11.328125 20.140625 9.421875 
Q 21.96875 7.515625 27.59375 7.515625 
L 36.8125 7.515625 
L 36.8125 0 
L 27.59375 0 
Q 17.1875 0 13.234375 3.875 
Q 9.28125 7.765625 9.28125 18.015625 
L 9.28125 47.703125 
L 2.6875 47.703125 
L 2.6875 54.6875 
L 9.28125 54.6875 
L 9.28125 70.21875 
z
" id="DejaVuSans-116"/>
     <path d="M 32.171875 -5.078125 
Q 28.375 -14.84375 24.75 -17.8125 
Q 21.140625 -20.796875 15.09375 -20.796875 
L 7.90625 -20.796875 
L 7.90625 -13.28125 
L 13.1875 -13.28125 
Q 16.890625 -13.28125 18.9375 -11.515625 
Q 21 -9.765625 23.484375 -3.21875 
L 25.09375 0.875 
L 2.984375 54.6875 
L 12.5 54.6875 
L 29.59375 11.921875 
L 46.6875 54.6875 
L 56.203125 54.6875 
z
" id="DejaVuSans-121"/>
     <path d="M 9.8125 72.90625 
L 19.671875 72.90625 
L 19.671875 43.015625 
L 55.515625 43.015625 
L 55.515625 72.90625 
L 65.375 72.90625 
L 65.375 0 
L 55.515625 0 
L 55.515625 34.71875 
L 19.671875 34.71875 
L 19.671875 0 
L 9.8125 0 
z
" id="DejaVuSans-72"/>
     <path d="M 41.109375 46.296875 
Q 39.59375 47.171875 37.8125 47.578125 
Q 36.03125 48 33.890625 48 
Q 26.265625 48 22.1875 43.046875 
Q 18.109375 38.09375 18.109375 28.8125 
L 18.109375 0 
L 9.078125 0 
L 9.078125 54.6875 
L 18.109375 54.6875 
L 18.109375 46.1875 
Q 20.953125 51.171875 25.484375 53.578125 
Q 30.03125 56 36.53125 56 
Q 37.453125 56 38.578125 55.875 
Q 39.703125 55.765625 41.0625 55.515625 
z
" id="DejaVuSans-114"/>
     <path d="M 8.6875 72.90625 
L 18.609375 72.90625 
L 18.609375 28.609375 
Q 18.609375 16.890625 22.84375 11.734375 
Q 27.09375 6.59375 36.625 6.59375 
Q 46.09375 6.59375 50.34375 11.734375 
Q 54.59375 16.890625 54.59375 28.609375 
L 54.59375 72.90625 
L 64.5 72.90625 
L 64.5 27.390625 
Q 64.5 13.140625 57.4375 5.859375 
Q 50.390625 -1.421875 36.625 -1.421875 
Q 22.796875 -1.421875 15.734375 5.859375 
Q 8.6875 13.140625 8.6875 27.390625 
z
" id="DejaVuSans-85"/>
     <path d="M 52 44.1875 
Q 55.375 50.25 60.0625 53.125 
Q 64.75 56 71.09375 56 
Q 79.640625 56 84.28125 50.015625 
Q 88.921875 44.046875 88.921875 33.015625 
L 88.921875 0 
L 79.890625 0 
L 79.890625 32.71875 
Q 79.890625 40.578125 77.09375 44.375 
Q 74.3125 48.1875 68.609375 48.1875 
Q 61.625 48.1875 57.5625 43.546875 
Q 53.515625 38.921875 53.515625 30.90625 
L 53.515625 0 
L 44.484375 0 
L 44.484375 32.71875 
Q 44.484375 40.625 41.703125 44.40625 
Q 38.921875 48.1875 33.109375 48.1875 
Q 26.21875 48.1875 22.15625 43.53125 
Q 18.109375 38.875 18.109375 30.90625 
L 18.109375 0 
L 9.078125 0 
L 9.078125 54.6875 
L 18.109375 54.6875 
L 18.109375 46.1875 
Q 21.1875 51.21875 25.484375 53.609375 
Q 29.78125 56 35.6875 56 
Q 41.65625 56 45.828125 52.96875 
Q 50 49.953125 52 44.1875 
z
" id="DejaVuSans-109"/>
     <path d="M 17.921875 72.90625 
L 17.921875 45.796875 
L 9.625 45.796875 
L 9.625 72.90625 
z
" id="DejaVuSans-39"/>
     <path d="M 44.28125 53.078125 
L 44.28125 44.578125 
Q 40.484375 46.53125 36.375 47.5 
Q 32.28125 48.484375 27.875 48.484375 
Q 21.1875 48.484375 17.84375 46.4375 
Q 14.5 44.390625 14.5 40.28125 
Q 14.5 37.15625 16.890625 35.375 
Q 19.28125 33.59375 26.515625 31.984375 
L 29.59375 31.296875 
Q 39.15625 29.25 43.1875 25.515625 
Q 47.21875 21.78125 47.21875 15.09375 
Q 47.21875 7.46875 41.1875 3.015625 
Q 35.15625 -1.421875 24.609375 -1.421875 
Q 20.21875 -1.421875 15.453125 -0.5625 
Q 10.6875 0.296875 5.421875 2 
L 5.421875 11.28125 
Q 10.40625 8.6875 15.234375 7.390625 
Q 20.0625 6.109375 24.8125 6.109375 
Q 31.15625 6.109375 34.5625 8.28125 
Q 37.984375 10.453125 37.984375 14.40625 
Q 37.984375 18.0625 35.515625 20.015625 
Q 33.0625 21.96875 24.703125 23.78125 
L 21.578125 24.515625 
Q 13.234375 26.265625 9.515625 29.90625 
Q 5.8125 33.546875 5.8125 39.890625 
Q 5.8125 47.609375 11.28125 51.796875 
Q 16.75 56 26.8125 56 
Q 31.78125 56 36.171875 55.265625 
Q 40.578125 54.546875 44.28125 53.078125 
z
" id="DejaVuSans-115"/>
     <path d="M 53.515625 70.515625 
L 53.515625 60.890625 
Q 47.90625 63.578125 42.921875 64.890625 
Q 37.9375 66.21875 33.296875 66.21875 
Q 25.25 66.21875 20.875 63.09375 
Q 16.5 59.96875 16.5 54.203125 
Q 16.5 49.359375 19.40625 46.890625 
Q 22.3125 44.4375 30.421875 42.921875 
L 36.375 41.703125 
Q 47.40625 39.59375 52.65625 34.296875 
Q 57.90625 29 57.90625 20.125 
Q 57.90625 9.515625 50.796875 4.046875 
Q 43.703125 -1.421875 29.984375 -1.421875 
Q 24.8125 -1.421875 18.96875 -0.25 
Q 13.140625 0.921875 6.890625 3.21875 
L 6.890625 13.375 
Q 12.890625 10.015625 18.65625 8.296875 
Q 24.421875 6.59375 29.984375 6.59375 
Q 38.421875 6.59375 43.015625 9.90625 
Q 47.609375 13.234375 47.609375 19.390625 
Q 47.609375 24.75 44.3125 27.78125 
Q 41.015625 30.8125 33.5 32.328125 
L 27.484375 33.5 
Q 16.453125 35.6875 11.515625 40.375 
Q 6.59375 45.0625 6.59375 53.421875 
Q 6.59375 63.09375 13.40625 68.65625 
Q 20.21875 74.21875 32.171875 74.21875 
Q 37.3125 74.21875 42.625 73.28125 
Q 47.953125 72.359375 53.515625 70.515625 
z
" id="DejaVuSans-83"/>
     <path d="M 9.078125 75.984375 
L 18.109375 75.984375 
L 18.109375 31.109375 
L 44.921875 54.6875 
L 56.390625 54.6875 
L 27.390625 29.109375 
L 57.625 0 
L 45.90625 0 
L 18.109375 26.703125 
L 18.109375 0 
L 9.078125 0 
z
" id="DejaVuSans-107"/>
     <path d="M 5.515625 54.6875 
L 48.1875 54.6875 
L 48.1875 46.484375 
L 14.40625 7.171875 
L 48.1875 7.171875 
L 48.1875 0 
L 4.296875 0 
L 4.296875 8.203125 
L 38.09375 47.515625 
L 5.515625 47.515625 
z
" id="DejaVuSans-122"/>
     <path d="M 30.609375 48.390625 
Q 23.390625 48.390625 19.1875 42.75 
Q 14.984375 37.109375 14.984375 27.296875 
Q 14.984375 17.484375 19.15625 11.84375 
Q 23.34375 6.203125 30.609375 6.203125 
Q 37.796875 6.203125 41.984375 11.859375 
Q 46.1875 17.53125 46.1875 27.296875 
Q 46.1875 37.015625 41.984375 42.703125 
Q 37.796875 48.390625 30.609375 48.390625 
z
M 30.609375 56 
Q 42.328125 56 49.015625 48.375 
Q 55.71875 40.765625 55.71875 27.296875 
Q 55.71875 13.875 49.015625 6.21875 
Q 42.328125 -1.421875 30.609375 -1.421875 
Q 18.84375 -1.421875 12.171875 6.21875 
Q 5.515625 13.875 5.515625 27.296875 
Q 5.515625 40.765625 12.171875 48.375 
Q 18.84375 56 30.609375 56 
z
" id="DejaVuSans-111"/>
    </defs>
    <g transform="translate(83.929688 80.4)scale(0.25 -0.25)">
     <use xlink:href="#DejaVuSans-67"/>
     <use x="69.824219" xlink:href="#DejaVuSans-104"/>
     <use x="133.203125" xlink:href="#DejaVuSans-97"/>
     <use x="194.482422" xlink:href="#DejaVuSans-110"/>
     <use x="257.861328" xlink:href="#DejaVuSans-103"/>
     <use x="321.337891" xlink:href="#DejaVuSans-101"/>
     <use x="382.861328" xlink:href="#DejaVuSans-117"/>
     <use x="446.240234" xlink:href="#DejaVuSans-112"/>
     <use x="509.716797" xlink:href="#DejaVuSans-44"/>
     <use x="541.503906" xlink:href="#DejaVuSans-32"/>
     <use x="573.291016" xlink:href="#DejaVuSans-82"/>
     <use x="642.773438" xlink:href="#DejaVuSans-105"/>
     <use x="670.556641" xlink:href="#DejaVuSans-103"/>
     <use x="734.033203" xlink:href="#DejaVuSans-104"/>
     <use x="797.412109" xlink:href="#DejaVuSans-116"/>
     <use x="836.621094" xlink:href="#DejaVuSans-121"/>
     <use x="895.800781" xlink:href="#DejaVuSans-32"/>
     <use x="927.587891" xlink:href="#DejaVuSans-72"/>
     <use x="1002.783203" xlink:href="#DejaVuSans-105"/>
     <use x="1030.566406" xlink:href="#DejaVuSans-116"/>
     <use x="1069.775391" xlink:href="#DejaVuSans-116"/>
     <use x="1108.984375" xlink:href="#DejaVuSans-101"/>
     <use x="1170.507812" xlink:href="#DejaVuSans-114"/>
     <use x="1211.621094" xlink:href="#DejaVuSans-44"/>
     <use x="1243.408203" xlink:href="#DejaVuSans-32"/>
     <use x="1275.195312" xlink:href="#DejaVuSans-85"/>
     <use x="1348.388672" xlink:href="#DejaVuSans-109"/>
     <use x="1445.800781" xlink:href="#DejaVuSans-112"/>
     <use x="1509.277344" xlink:href="#DejaVuSans-105"/>
     <use x="1537.060547" xlink:href="#DejaVuSans-114"/>
     <use x="1578.142578" xlink:href="#DejaVuSans-101"/>
     <use x="1639.666016" xlink:href="#DejaVuSans-39"/>
     <use x="1667.15625" xlink:href="#DejaVuSans-115"/>
     <use x="1719.255859" xlink:href="#DejaVuSans-32"/>
     <use x="1751.042969" xlink:href="#DejaVuSans-83"/>
     <use x="1814.519531" xlink:href="#DejaVuSans-116"/>
     <use x="1853.728516" xlink:href="#DejaVuSans-114"/>
     <use x="1894.841797" xlink:href="#DejaVuSans-105"/>
     <use x="1922.625" xlink:href="#DejaVuSans-107"/>
     <use x="1980.488281" xlink:href="#DejaVuSans-101"/>
     <use x="2042.011719" xlink:href="#DejaVuSans-122"/>
     <use x="2094.501953" xlink:href="#DejaVuSans-111"/>
     <use x="2155.683594" xlink:href="#DejaVuSans-110"/>
     <use x="2219.0625" xlink:href="#DejaVuSans-101"/>
    </g>
   </g>
  </g>
 </g>
 <defs>
  <clipPath id="p716c18d349">
   <rect height="543.6" width="558" x="90" y="86.4"/>
  </clipPath>
 </defs>
</svg>
