<?xml version="1.0" encoding="utf-8" standalone="no"?>
<!DOCTYPE svg PUBLIC "-//W3C//DTD SVG 1.1//EN"
  "http://www.w3.org/Graphics/SVG/1.1/DTD/svg11.dtd">
<!-- Created with matplotlib (https://matplotlib.org/) -->
<svg height="720pt" version="1.1" viewBox="0 0 720 720" width="720pt" xmlns="http://www.w3.org/2000/svg" xmlns:xlink="http://www.w3.org/1999/xlink">
 <defs>
  <style type="text/css">
*{stroke-linecap:butt;stroke-linejoin:round;}
  </style>
 </defs>
 <g id="figure_1">
  <g id="patch_1">
   <path d="M 0 720 
L 720 720 
L 720 0 
L 0 0 
z
" style="fill:#ffffff;"/>
  </g>
  <g id="axes_1">
   <g id="patch_2">
    <path d="M 90 630 
L 648 630 
L 648 86.4 
L 90 86.4 
z
" style="fill:#ffffff;"/>
   </g>
   <g id="matplotlib.axis_1"/>
   <g id="matplotlib.axis_2"/>
   <g id="patch_3">
    <path clip-path="url(#p339cd5a3a6)" d="M 234.15 297.8604 
L 324.0438 297.8604 
L 324.0438 177.07248 
L 234.15 177.07248 
z
" style="fill:#f7b093;opacity:0.5;stroke:#000000;stroke-linejoin:miter;"/>
   </g>
   <g id="patch_4">
    <path clip-path="url(#p339cd5a3a6)" d="M 324.049938 297.8604 
L 413.943738 297.8604 
L 413.943738 177.07248 
L 324.049938 177.07248 
z
" style="fill:#f7ac8e;opacity:0.5;stroke:#000000;stroke-linejoin:miter;"/>
   </g>
   <g id="patch_5">
    <path clip-path="url(#p339cd5a3a6)" d="M 413.950062 297.8604 
L 503.843862 297.8604 
L 503.843862 177.07248 
L 413.950062 177.07248 
z
" style="fill:#b3cdfb;opacity:0.5;stroke:#000000;stroke-linejoin:miter;"/>
   </g>
   <g id="patch_6">
    <path clip-path="url(#p339cd5a3a6)" d="M 234.15 418.7208 
L 324.0438 418.7208 
L 324.0438 297.93288 
L 234.15 297.93288 
z
" style="fill:#b8122a;opacity:0.5;stroke:#000000;stroke-linejoin:miter;"/>
   </g>
   <g id="patch_7">
    <path clip-path="url(#p339cd5a3a6)" d="M 324.049938 418.7208 
L 413.943738 418.7208 
L 413.943738 297.93288 
L 324.049938 297.93288 
z
" style="fill:#b40426;opacity:0.5;stroke:#000000;stroke-linejoin:miter;"/>
   </g>
   <g id="patch_8">
    <path clip-path="url(#p339cd5a3a6)" d="M 413.950062 418.7208 
L 503.843862 418.7208 
L 503.843862 297.93288 
L 413.950062 297.93288 
z
" style="fill:#e26952;opacity:0.5;stroke:#000000;stroke-linejoin:miter;"/>
   </g>
   <g id="patch_9">
    <path clip-path="url(#p339cd5a3a6)" d="M 234.15 539.4 
L 324.0438 539.4 
L 324.0438 418.61208 
L 234.15 418.61208 
z
" style="fill:#d7dce3;opacity:0.5;stroke:#000000;stroke-linejoin:miter;"/>
   </g>
   <g id="patch_10">
    <path clip-path="url(#p339cd5a3a6)" d="M 324.049938 539.4 
L 413.943738 539.4 
L 413.943738 418.61208 
L 324.049938 418.61208 
z
" style="fill:#cfdaea;opacity:0.5;stroke:#000000;stroke-linejoin:miter;"/>
   </g>
   <g id="patch_11">
    <path clip-path="url(#p339cd5a3a6)" d="M 413.950062 539.4 
L 503.843862 539.4 
L 503.843862 418.61208 
L 413.950062 418.61208 
z
" style="fill:#3e51c5;opacity:0.5;stroke:#000000;stroke-linejoin:miter;"/>
   </g>
   <g id="LineCollection_1">
    <path clip-path="url(#p339cd5a3a6)" d="M 281.636364 527.994325 
L 287.272727 528.662263 
L 292.909091 529.01771 
L 298.545455 529.219786 
L 304.181818 529.211388 
L 309.818182 529.008432 
L 315.454545 528.688472 
L 326.727273 527.693374 
L 360.545455 524.142787 
L 371.818182 523.324957 
L 388.727273 522.1448 
L 405.636364 520.515937 
L 411.272727 519.70382 
L 416.909091 518.695854 
L 422.545455 517.554403 
L 428.181818 516.058434 
L 439.454545 512.488628 
L 446.340564 509.605369 
L 450.727273 507.45749 
L 456.363636 504.353994 
L 462 500.807543 
L 467.636364 496.830697 
L 473.272727 492.263549 
L 478.909091 487.301214 
L 484.545455 481.700596 
L 485.733868 480.418792 
L 492.043868 473.122148 
L 495.818182 468.269495 
L 501.454545 460.20257 
L 502.567924 458.528859 
L 507.090909 451.047 
L 510.830685 443.93557 
L 514.248372 436.638926 
L 515.870482 432.990604 
L 518.724414 425.69396 
L 521.151217 418.397315 
L 523.273077 411.100671 
L 525.010144 403.804027 
L 526.420545 396.507383 
L 527.549077 389.210738 
L 528.352582 381.914094 
L 528.84391 374.61745 
L 529.161279 367.320805 
L 529.139868 360.024161 
L 528.881445 352.727517 
L 528.408753 345.430872 
L 526.679188 330.837584 
L 525.491598 323.54094 
L 523.250517 312.595973 
L 521.502367 305.299329 
L 519.55937 298.002685 
L 517.364837 290.70604 
L 514.938788 283.409396 
L 512.234164 276.112752 
L 507.698144 265.167785 
L 505.961954 261.519463 
L 501.454545 252.675782 
L 498.15722 246.926174 
L 495.818182 243.143904 
L 490.915336 235.981208 
L 485.526149 228.684564 
L 484.545455 227.460186 
L 478.909091 221.083039 
L 471.802501 214.091275 
L 467.636364 210.221167 
L 462 205.768833 
L 456.363636 202.100399 
L 450.727273 198.632351 
L 445.090909 195.519055 
L 439.454545 193.110486 
L 433.818182 191.09492 
L 428.181818 189.174633 
L 422.545455 187.647671 
L 416.909091 186.390879 
L 408.480179 184.904698 
L 405.636364 184.477713 
L 394.363636 183.167168 
L 383.090909 182.225601 
L 360.545455 180.599624 
L 354.909091 180.105641 
L 332.363636 177.505623 
L 321.090909 176.2875 
L 315.454545 175.797839 
L 309.818182 175.456392 
L 304.181818 175.242828 
L 298.545455 175.238437 
L 292.909091 175.404945 
L 287.272727 175.86707 
L 281.636364 176.54118 
L 275.816126 177.608054 
L 270.363636 178.940569 
L 264.727273 180.514359 
L 259.090909 182.626046 
L 253.454545 185.120488 
L 246.860363 188.55302 
L 240.856758 192.201342 
L 235.48178 195.849664 
L 230.654549 199.497987 
L 225.272727 204.022237 
L 219.636364 209.251994 
L 214.902477 214.091275 
L 211.647813 217.739597 
L 208.363636 221.580105 
L 202.727273 228.711881 
L 197.090909 236.711324 
L 192.931934 243.277852 
L 190.767246 246.926174 
L 186.750484 254.222819 
L 184.874666 257.871141 
L 181.391641 265.167785 
L 178.201579 272.46443 
L 174.545455 281.81161 
L 172.678229 287.057718 
L 169.187172 298.002685 
L 167.113053 305.299329 
L 164.437045 316.244295 
L 162.912113 323.54094 
L 161.6332 330.837584 
L 160.595029 338.134228 
L 159.81206 345.430872 
L 159.279236 352.727517 
L 158.988931 360.024161 
L 158.983424 367.320805 
L 159.262418 374.61745 
L 159.859505 381.914094 
L 160.714305 389.210738 
L 161.901376 396.507383 
L 163.417304 403.804027 
L 165.314114 411.100671 
L 167.509328 418.397315 
L 170.093789 425.69396 
L 173.053897 432.990604 
L 174.639309 436.638926 
L 178.206558 443.93557 
L 182.131236 451.232215 
L 185.818182 457.463431 
L 188.857974 462.177181 
L 191.454545 466.021048 
L 197.090909 473.643104 
L 202.727273 480.547399 
L 209.241243 487.715436 
L 214 492.503116 
L 220.760526 498.660403 
L 225.272727 502.425534 
L 230.909091 506.719189 
L 236.545455 510.594242 
L 242.181818 514.075861 
L 247.818182 517.148482 
L 255.139347 520.550336 
L 259.090909 522.218335 
L 264.727273 524.212212 
L 270.363636 525.795887 
L 276 527.050017 
L 281.636364 527.994325 
L 281.636364 527.994325 
" style="fill:none;stroke:#000000;stroke-width:3;"/>
   </g>
   <g id="LineCollection_2">
    <path clip-path="url(#p339cd5a3a6)" d="M 276 477.157217 
L 281.636364 478.37876 
L 287.272727 479.358318 
L 292.909091 480.029174 
L 298.545455 480.298361 
L 304.181818 480.180636 
L 309.818182 479.931692 
L 315.454545 479.417125 
L 321.090909 478.575515 
L 326.727273 477.964851 
L 338 476.241726 
L 349.272727 474.407662 
L 366.181818 471.860908 
L 371.818182 471.55309 
L 383.090909 470.517898 
L 392.141926 469.473826 
L 400 468.314743 
L 405.636364 467.350789 
L 412.356277 465.825503 
L 416.909091 464.521958 
L 424.089212 462.177181 
L 428.181818 460.500463 
L 433.818182 457.658599 
L 439.454545 454.6231 
L 445.090909 450.420461 
L 450.727273 445.905339 
L 456.363636 440.112038 
L 462.198482 432.990604 
L 467.636364 424.507685 
L 468.827808 422.045638 
L 470.867975 418.397315 
L 473.272727 413.529663 
L 474.256674 411.100671 
L 475.491503 407.452349 
L 477.671987 400.155705 
L 478.947217 396.507383 
L 479.816342 392.85906 
L 480.526399 389.210738 
L 482.520243 374.61745 
L 482.809642 370.969128 
L 483.003471 363.672483 
L 482.788981 356.375839 
L 482.615725 352.727517 
L 481.797302 345.430872 
L 480.53101 338.134228 
L 480.148704 334.485906 
L 478.677588 327.189262 
L 477.663789 323.54094 
L 475.441062 316.244295 
L 471.234336 305.299329 
L 469.92529 301.651007 
L 466.621309 294.354362 
L 462 285.686948 
L 457.993022 279.761074 
L 455.537675 276.112752 
L 449.254702 268.816107 
L 445.090909 264.800818 
L 439.454545 260.230535 
L 433.818182 256.009606 
L 428.181818 252.433307 
L 422.545455 249.763415 
L 415.076061 246.926174 
L 411.272727 245.681008 
L 405.636364 244.104438 
L 400 242.957799 
L 388.727273 241.175762 
L 376.608277 239.62953 
L 371.818182 239.138808 
L 360.545455 237.663959 
L 349.272727 235.917863 
L 338 233.675381 
L 330.437676 232.332886 
L 326.727273 231.614739 
L 321.090909 230.721581 
L 315.454545 229.945746 
L 309.818182 229.384806 
L 304.181818 229.13591 
L 298.545455 229.048189 
L 292.909091 229.303661 
L 287.272727 230.011301 
L 281.636364 231.179553 
L 276 232.648873 
L 270.363636 234.876721 
L 264.727273 237.641725 
L 259.090909 241.082626 
L 253.454545 245.327959 
L 247.557973 250.574497 
L 242.181818 256.515791 
L 236.545455 263.460703 
L 230.521745 272.46443 
L 225.272727 281.810702 
L 219.636364 293.874838 
L 216.783846 301.651007 
L 214 309.702669 
L 213.016919 312.595973 
L 210.138597 323.54094 
L 208.335427 330.837584 
L 207.694937 334.485906 
L 206.181423 345.430872 
L 205.519954 352.727517 
L 205.218525 360.024161 
L 205.158949 367.320805 
L 205.302853 370.969128 
L 206.232622 381.914094 
L 207.282155 389.210738 
L 208.363636 395.24508 
L 208.672196 396.507383 
L 209.821969 400.155705 
L 211.8594 407.452349 
L 214 413.992678 
L 214.305079 414.748993 
L 217.542806 422.045638 
L 219.636364 426.478409 
L 223.345244 432.990604 
L 225.39087 436.638926 
L 228.064203 440.287248 
L 230.909091 444.531094 
L 236.545455 451.363847 
L 242.181818 457.022886 
L 248.078641 462.177181 
L 253.454545 466.356676 
L 259.090909 469.975585 
L 265.146648 473.122148 
L 270.363636 475.250051 
L 276 477.157217 
L 276 477.157217 
" style="fill:none;stroke:#0000ff;stroke-width:3;"/>
   </g>
   <g id="line2d_1">
    <path clip-path="url(#p339cd5a3a6)" d="M 234.15 539.4 
L 234.15 177 
" style="fill:none;stroke:#ff0000;stroke-linecap:square;stroke-width:1.5;"/>
   </g>
   <g id="line2d_2">
    <path clip-path="url(#p339cd5a3a6)" d="M 503.85 539.4 
L 503.85 177 
" style="fill:none;stroke:#ff0000;stroke-linecap:square;stroke-width:1.5;"/>
   </g>
   <g id="line2d_3">
    <path clip-path="url(#p339cd5a3a6)" d="M 234.15 539.4 
L 503.85 539.4 
" style="fill:none;stroke:#ff0000;stroke-linecap:square;stroke-width:1.5;"/>
   </g>
   <g id="line2d_4">
    <path clip-path="url(#p339cd5a3a6)" d="M 234.15 177 
L 503.85 177 
" style="fill:none;stroke:#ff0000;stroke-linecap:square;stroke-width:1.5;"/>
   </g>
   <g id="text_1">
    <!-- Curveball, Leftie Hitter, Umpire's Strikezone -->
    <defs>
     <path d="M 64.40625 67.28125 
L 64.40625 56.890625 
Q 59.421875 61.53125 53.78125 63.8125 
Q 48.140625 66.109375 41.796875 66.109375 
Q 29.296875 66.109375 22.65625 58.46875 
Q 16.015625 50.828125 16.015625 36.375 
Q 16.015625 21.96875 22.65625 14.328125 
Q 29.296875 6.6875 41.796875 6.6875 
Q 48.140625 6.6875 53.78125 8.984375 
Q 59.421875 11.28125 64.40625 15.921875 
L 64.40625 5.609375 
Q 59.234375 2.09375 53.4375 0.328125 
Q 47.65625 -1.421875 41.21875 -1.421875 
Q 24.65625 -1.421875 15.125 8.703125 
Q 5.609375 18.84375 5.609375 36.375 
Q 5.609375 53.953125 15.125 64.078125 
Q 24.65625 74.21875 41.21875 74.21875 
Q 47.75 74.21875 53.53125 72.484375 
Q 59.328125 70.75 64.40625 67.28125 
z
" id="DejaVuSans-67"/>
     <path d="M 8.5 21.578125 
L 8.5 54.6875 
L 17.484375 54.6875 
L 17.484375 21.921875 
Q 17.484375 14.15625 20.5 10.265625 
Q 23.53125 6.390625 29.59375 6.390625 
Q 36.859375 6.390625 41.078125 11.03125 
Q 45.3125 15.671875 45.3125 23.6875 
L 45.3125 54.6875 
L 54.296875 54.6875 
L 54.296875 0 
L 45.3125 0 
L 45.3125 8.40625 
Q 42.046875 3.421875 37.71875 1 
Q 33.40625 -1.421875 27.6875 -1.421875 
Q 18.265625 -1.421875 13.375 4.4375 
Q 8.5 10.296875 8.5 21.578125 
z
M 31.109375 56 
z
" id="DejaVuSans-117"/>
     <path d="M 41.109375 46.296875 
Q 39.59375 47.171875 37.8125 47.578125 
Q 36.03125 48 33.890625 48 
Q 26.265625 48 22.1875 43.046875 
Q 18.109375 38.09375 18.109375 28.8125 
L 18.109375 0 
L 9.078125 0 
L 9.078125 54.6875 
L 18.109375 54.6875 
L 18.109375 46.1875 
Q 20.953125 51.171875 25.484375 53.578125 
Q 30.03125 56 36.53125 56 
Q 37.453125 56 38.578125 55.875 
Q 39.703125 55.765625 41.0625 55.515625 
z
" id="DejaVuSans-114"/>
     <path d="M 2.984375 54.6875 
L 12.5 54.6875 
L 29.59375 8.796875 
L 46.6875 54.6875 
L 56.203125 54.6875 
L 35.6875 0 
L 23.484375 0 
z
" id="DejaVuSans-118"/>
     <path d="M 56.203125 29.59375 
L 56.203125 25.203125 
L 14.890625 25.203125 
Q 15.484375 15.921875 20.484375 11.0625 
Q 25.484375 6.203125 34.421875 6.203125 
Q 39.59375 6.203125 44.453125 7.46875 
Q 49.3125 8.734375 54.109375 11.28125 
L 54.109375 2.78125 
Q 49.265625 0.734375 44.1875 -0.34375 
Q 39.109375 -1.421875 33.890625 -1.421875 
Q 20.796875 -1.421875 13.15625 6.1875 
Q 5.515625 13.8125 5.515625 26.8125 
Q 5.515625 40.234375 12.765625 48.109375 
Q 20.015625 56 32.328125 56 
Q 43.359375 56 49.78125 48.890625 
Q 56.203125 41.796875 56.203125 29.59375 
z
M 47.21875 32.234375 
Q 47.125 39.59375 43.09375 43.984375 
Q 39.0625 48.390625 32.421875 48.390625 
Q 24.90625 48.390625 20.390625 44.140625 
Q 15.875 39.890625 15.1875 32.171875 
z
" id="DejaVuSans-101"/>
     <path d="M 48.6875 27.296875 
Q 48.6875 37.203125 44.609375 42.84375 
Q 40.53125 48.484375 33.40625 48.484375 
Q 26.265625 48.484375 22.1875 42.84375 
Q 18.109375 37.203125 18.109375 27.296875 
Q 18.109375 17.390625 22.1875 11.75 
Q 26.265625 6.109375 33.40625 6.109375 
Q 40.53125 6.109375 44.609375 11.75 
Q 48.6875 17.390625 48.6875 27.296875 
z
M 18.109375 46.390625 
Q 20.953125 51.265625 25.265625 53.625 
Q 29.59375 56 35.59375 56 
Q 45.5625 56 51.78125 48.09375 
Q 58.015625 40.1875 58.015625 27.296875 
Q 58.015625 14.40625 51.78125 6.484375 
Q 45.5625 -1.421875 35.59375 -1.421875 
Q 29.59375 -1.421875 25.265625 0.953125 
Q 20.953125 3.328125 18.109375 8.203125 
L 18.109375 0 
L 9.078125 0 
L 9.078125 75.984375 
L 18.109375 75.984375 
z
" id="DejaVuSans-98"/>
     <path d="M 34.28125 27.484375 
Q 23.390625 27.484375 19.1875 25 
Q 14.984375 22.515625 14.984375 16.5 
Q 14.984375 11.71875 18.140625 8.90625 
Q 21.296875 6.109375 26.703125 6.109375 
Q 34.1875 6.109375 38.703125 11.40625 
Q 43.21875 16.703125 43.21875 25.484375 
L 43.21875 27.484375 
z
M 52.203125 31.203125 
L 52.203125 0 
L 43.21875 0 
L 43.21875 8.296875 
Q 40.140625 3.328125 35.546875 0.953125 
Q 30.953125 -1.421875 24.3125 -1.421875 
Q 15.921875 -1.421875 10.953125 3.296875 
Q 6 8.015625 6 15.921875 
Q 6 25.140625 12.171875 29.828125 
Q 18.359375 34.515625 30.609375 34.515625 
L 43.21875 34.515625 
L 43.21875 35.40625 
Q 43.21875 41.609375 39.140625 45 
Q 35.0625 48.390625 27.6875 48.390625 
Q 23 48.390625 18.546875 47.265625 
Q 14.109375 46.140625 10.015625 43.890625 
L 10.015625 52.203125 
Q 14.9375 54.109375 19.578125 55.046875 
Q 24.21875 56 28.609375 56 
Q 40.484375 56 46.34375 49.84375 
Q 52.203125 43.703125 52.203125 31.203125 
z
" id="DejaVuSans-97"/>
     <path d="M 9.421875 75.984375 
L 18.40625 75.984375 
L 18.40625 0 
L 9.421875 0 
z
" id="DejaVuSans-108"/>
     <path d="M 11.71875 12.40625 
L 22.015625 12.40625 
L 22.015625 4 
L 14.015625 -11.625 
L 7.71875 -11.625 
L 11.71875 4 
z
" id="DejaVuSans-44"/>
     <path id="DejaVuSans-32"/>
     <path d="M 9.8125 72.90625 
L 19.671875 72.90625 
L 19.671875 8.296875 
L 55.171875 8.296875 
L 55.171875 0 
L 9.8125 0 
z
" id="DejaVuSans-76"/>
     <path d="M 37.109375 75.984375 
L 37.109375 68.5 
L 28.515625 68.5 
Q 23.6875 68.5 21.796875 66.546875 
Q 19.921875 64.59375 19.921875 59.515625 
L 19.921875 54.6875 
L 34.71875 54.6875 
L 34.71875 47.703125 
L 19.921875 47.703125 
L 19.921875 0 
L 10.890625 0 
L 10.890625 47.703125 
L 2.296875 47.703125 
L 2.296875 54.6875 
L 10.890625 54.6875 
L 10.890625 58.5 
Q 10.890625 67.625 15.140625 71.796875 
Q 19.390625 75.984375 28.609375 75.984375 
z
" id="DejaVuSans-102"/>
     <path d="M 18.3125 70.21875 
L 18.3125 54.6875 
L 36.8125 54.6875 
L 36.8125 47.703125 
L 18.3125 47.703125 
L 18.3125 18.015625 
Q 18.3125 11.328125 20.140625 9.421875 
Q 21.96875 7.515625 27.59375 7.515625 
L 36.8125 7.515625 
L 36.8125 0 
L 27.59375 0 
Q 17.1875 0 13.234375 3.875 
Q 9.28125 7.765625 9.28125 18.015625 
L 9.28125 47.703125 
L 2.6875 47.703125 
L 2.6875 54.6875 
L 9.28125 54.6875 
L 9.28125 70.21875 
z
" id="DejaVuSans-116"/>
     <path d="M 9.421875 54.6875 
L 18.40625 54.6875 
L 18.40625 0 
L 9.421875 0 
z
M 9.421875 75.984375 
L 18.40625 75.984375 
L 18.40625 64.59375 
L 9.421875 64.59375 
z
" id="DejaVuSans-105"/>
     <path d="M 9.8125 72.90625 
L 19.671875 72.90625 
L 19.671875 43.015625 
L 55.515625 43.015625 
L 55.515625 72.90625 
L 65.375 72.90625 
L 65.375 0 
L 55.515625 0 
L 55.515625 34.71875 
L 19.671875 34.71875 
L 19.671875 0 
L 9.8125 0 
z
" id="DejaVuSans-72"/>
     <path d="M 8.6875 72.90625 
L 18.609375 72.90625 
L 18.609375 28.609375 
Q 18.609375 16.890625 22.84375 11.734375 
Q 27.09375 6.59375 36.625 6.59375 
Q 46.09375 6.59375 50.34375 11.734375 
Q 54.59375 16.890625 54.59375 28.609375 
L 54.59375 72.90625 
L 64.5 72.90625 
L 64.5 27.390625 
Q 64.5 13.140625 57.4375 5.859375 
Q 50.390625 -1.421875 36.625 -1.421875 
Q 22.796875 -1.421875 15.734375 5.859375 
Q 8.6875 13.140625 8.6875 27.390625 
z
" id="DejaVuSans-85"/>
     <path d="M 52 44.1875 
Q 55.375 50.25 60.0625 53.125 
Q 64.75 56 71.09375 56 
Q 79.640625 56 84.28125 50.015625 
Q 88.921875 44.046875 88.921875 33.015625 
L 88.921875 0 
L 79.890625 0 
L 79.890625 32.71875 
Q 79.890625 40.578125 77.09375 44.375 
Q 74.3125 48.1875 68.609375 48.1875 
Q 61.625 48.1875 57.5625 43.546875 
Q 53.515625 38.921875 53.515625 30.90625 
L 53.515625 0 
L 44.484375 0 
L 44.484375 32.71875 
Q 44.484375 40.625 41.703125 44.40625 
Q 38.921875 48.1875 33.109375 48.1875 
Q 26.21875 48.1875 22.15625 43.53125 
Q 18.109375 38.875 18.109375 30.90625 
L 18.109375 0 
L 9.078125 0 
L 9.078125 54.6875 
L 18.109375 54.6875 
L 18.109375 46.1875 
Q 21.1875 51.21875 25.484375 53.609375 
Q 29.78125 56 35.6875 56 
Q 41.65625 56 45.828125 52.96875 
Q 50 49.953125 52 44.1875 
z
" id="DejaVuSans-109"/>
     <path d="M 18.109375 8.203125 
L 18.109375 -20.796875 
L 9.078125 -20.796875 
L 9.078125 54.6875 
L 18.109375 54.6875 
L 18.109375 46.390625 
Q 20.953125 51.265625 25.265625 53.625 
Q 29.59375 56 35.59375 56 
Q 45.5625 56 51.78125 48.09375 
Q 58.015625 40.1875 58.015625 27.296875 
Q 58.015625 14.40625 51.78125 6.484375 
Q 45.5625 -1.421875 35.59375 -1.421875 
Q 29.59375 -1.421875 25.265625 0.953125 
Q 20.953125 3.328125 18.109375 8.203125 
z
M 48.6875 27.296875 
Q 48.6875 37.203125 44.609375 42.84375 
Q 40.53125 48.484375 33.40625 48.484375 
Q 26.265625 48.484375 22.1875 42.84375 
Q 18.109375 37.203125 18.109375 27.296875 
Q 18.109375 17.390625 22.1875 11.75 
Q 26.265625 6.109375 33.40625 6.109375 
Q 40.53125 6.109375 44.609375 11.75 
Q 48.6875 17.390625 48.6875 27.296875 
z
" id="DejaVuSans-112"/>
     <path d="M 17.921875 72.90625 
L 17.921875 45.796875 
L 9.625 45.796875 
L 9.625 72.90625 
z
" id="DejaVuSans-39"/>
     <path d="M 44.28125 53.078125 
L 44.28125 44.578125 
Q 40.484375 46.53125 36.375 47.5 
Q 32.28125 48.484375 27.875 48.484375 
Q 21.1875 48.484375 17.84375 46.4375 
Q 14.5 44.390625 14.5 40.28125 
Q 14.5 37.15625 16.890625 35.375 
Q 19.28125 33.59375 26.515625 31.984375 
L 29.59375 31.296875 
Q 39.15625 29.25 43.1875 25.515625 
Q 47.21875 21.78125 47.21875 15.09375 
Q 47.21875 7.46875 41.1875 3.015625 
Q 35.15625 -1.421875 24.609375 -1.421875 
Q 20.21875 -1.421875 15.453125 -0.5625 
Q 10.6875 0.296875 5.421875 2 
L 5.421875 11.28125 
Q 10.40625 8.6875 15.234375 7.390625 
Q 20.0625 6.109375 24.8125 6.109375 
Q 31.15625 6.109375 34.5625 8.28125 
Q 37.984375 10.453125 37.984375 14.40625 
Q 37.984375 18.0625 35.515625 20.015625 
Q 33.0625 21.96875 24.703125 23.78125 
L 21.578125 24.515625 
Q 13.234375 26.265625 9.515625 29.90625 
Q 5.8125 33.546875 5.8125 39.890625 
Q 5.8125 47.609375 11.28125 51.796875 
Q 16.75 56 26.8125 56 
Q 31.78125 56 36.171875 55.265625 
Q 40.578125 54.546875 44.28125 53.078125 
z
" id="DejaVuSans-115"/>
     <path d="M 53.515625 70.515625 
L 53.515625 60.890625 
Q 47.90625 63.578125 42.921875 64.890625 
Q 37.9375 66.21875 33.296875 66.21875 
Q 25.25 66.21875 20.875 63.09375 
Q 16.5 59.96875 16.5 54.203125 
Q 16.5 49.359375 19.40625 46.890625 
Q 22.3125 44.4375 30.421875 42.921875 
L 36.375 41.703125 
Q 47.40625 39.59375 52.65625 34.296875 
Q 57.90625 29 57.90625 20.125 
Q 57.90625 9.515625 50.796875 4.046875 
Q 43.703125 -1.421875 29.984375 -1.421875 
Q 24.8125 -1.421875 18.96875 -0.25 
Q 13.140625 0.921875 6.890625 3.21875 
L 6.890625 13.375 
Q 12.890625 10.015625 18.65625 8.296875 
Q 24.421875 6.59375 29.984375 6.59375 
Q 38.421875 6.59375 43.015625 9.90625 
Q 47.609375 13.234375 47.609375 19.390625 
Q 47.609375 24.75 44.3125 27.78125 
Q 41.015625 30.8125 33.5 32.328125 
L 27.484375 33.5 
Q 16.453125 35.6875 11.515625 40.375 
Q 6.59375 45.0625 6.59375 53.421875 
Q 6.59375 63.09375 13.40625 68.65625 
Q 20.21875 74.21875 32.171875 74.21875 
Q 37.3125 74.21875 42.625 73.28125 
Q 47.953125 72.359375 53.515625 70.515625 
z
" id="DejaVuSans-83"/>
     <path d="M 9.078125 75.984375 
L 18.109375 75.984375 
L 18.109375 31.109375 
L 44.921875 54.6875 
L 56.390625 54.6875 
L 27.390625 29.109375 
L 57.625 0 
L 45.90625 0 
L 18.109375 26.703125 
L 18.109375 0 
L 9.078125 0 
z
" id="DejaVuSans-107"/>
     <path d="M 5.515625 54.6875 
L 48.1875 54.6875 
L 48.1875 46.484375 
L 14.40625 7.171875 
L 48.1875 7.171875 
L 48.1875 0 
L 4.296875 0 
L 4.296875 8.203125 
L 38.09375 47.515625 
L 5.515625 47.515625 
z
" id="DejaVuSans-122"/>
     <path d="M 30.609375 48.390625 
Q 23.390625 48.390625 19.1875 42.75 
Q 14.984375 37.109375 14.984375 27.296875 
Q 14.984375 17.484375 19.15625 11.84375 
Q 23.34375 6.203125 30.609375 6.203125 
Q 37.796875 6.203125 41.984375 11.859375 
Q 46.1875 17.53125 46.1875 27.296875 
Q 46.1875 37.015625 41.984375 42.703125 
Q 37.796875 48.390625 30.609375 48.390625 
z
M 30.609375 56 
Q 42.328125 56 49.015625 48.375 
Q 55.71875 40.765625 55.71875 27.296875 
Q 55.71875 13.875 49.015625 6.21875 
Q 42.328125 -1.421875 30.609375 -1.421875 
Q 18.84375 -1.421875 12.171875 6.21875 
Q 5.515625 13.875 5.515625 27.296875 
Q 5.515625 40.765625 12.171875 48.375 
Q 18.84375 56 30.609375 56 
z
" id="DejaVuSans-111"/>
     <path d="M 54.890625 33.015625 
L 54.890625 0 
L 45.90625 0 
L 45.90625 32.71875 
Q 45.90625 40.484375 42.875 44.328125 
Q 39.84375 48.1875 33.796875 48.1875 
Q 26.515625 48.1875 22.3125 43.546875 
Q 18.109375 38.921875 18.109375 30.90625 
L 18.109375 0 
L 9.078125 0 
L 9.078125 54.6875 
L 18.109375 54.6875 
L 18.109375 46.1875 
Q 21.34375 51.125 25.703125 53.5625 
Q 30.078125 56 35.796875 56 
Q 45.21875 56 50.046875 50.171875 
Q 54.890625 44.34375 54.890625 33.015625 
z
" id="DejaVuSans-110"/>
    </defs>
    <g transform="translate(93.423828 80.4)scale(0.25 -0.25)">
     <use xlink:href="#DejaVuSans-67"/>
     <use x="69.824219" xlink:href="#DejaVuSans-117"/>
     <use x="133.203125" xlink:href="#DejaVuSans-114"/>
     <use x="174.316406" xlink:href="#DejaVuSans-118"/>
     <use x="233.496094" xlink:href="#DejaVuSans-101"/>
     <use x="295.019531" xlink:href="#DejaVuSans-98"/>
     <use x="358.496094" xlink:href="#DejaVuSans-97"/>
     <use x="419.775391" xlink:href="#DejaVuSans-108"/>
     <use x="447.558594" xlink:href="#DejaVuSans-108"/>
     <use x="475.341797" xlink:href="#DejaVuSans-44"/>
     <use x="507.128906" xlink:href="#DejaVuSans-32"/>
     <use x="538.916016" xlink:href="#DejaVuSans-76"/>
     <use x="594.613281" xlink:href="#DejaVuSans-101"/>
     <use x="656.136719" xlink:href="#DejaVuSans-102"/>
     <use x="691.326172" xlink:href="#DejaVuSans-116"/>
     <use x="730.535156" xlink:href="#DejaVuSans-105"/>
     <use x="758.318359" xlink:href="#DejaVuSans-101"/>
     <use x="819.841797" xlink:href="#DejaVuSans-32"/>
     <use x="851.628906" xlink:href="#DejaVuSans-72"/>
     <use x="926.824219" xlink:href="#DejaVuSans-105"/>
     <use x="954.607422" xlink:href="#DejaVuSans-116"/>
     <use x="993.816406" xlink:href="#DejaVuSans-116"/>
     <use x="1033.025391" xlink:href="#DejaVuSans-101"/>
     <use x="1094.548828" xlink:href="#DejaVuSans-114"/>
     <use x="1135.662109" xlink:href="#DejaVuSans-44"/>
     <use x="1167.449219" xlink:href="#DejaVuSans-32"/>
     <use x="1199.236328" xlink:href="#DejaVuSans-85"/>
     <use x="1272.429688" xlink:href="#DejaVuSans-109"/>
     <use x="1369.841797" xlink:href="#DejaVuSans-112"/>
     <use x="1433.318359" xlink:href="#DejaVuSans-105"/>
     <use x="1461.101562" xlink:href="#DejaVuSans-114"/>
     <use x="1502.183594" xlink:href="#DejaVuSans-101"/>
     <use x="1563.707031" xlink:href="#DejaVuSans-39"/>
     <use x="1591.197266" xlink:href="#DejaVuSans-115"/>
     <use x="1643.296875" xlink:href="#DejaVuSans-32"/>
     <use x="1675.083984" xlink:href="#DejaVuSans-83"/>
     <use x="1738.560547" xlink:href="#DejaVuSans-116"/>
     <use x="1777.769531" xlink:href="#DejaVuSans-114"/>
     <use x="1818.882812" xlink:href="#DejaVuSans-105"/>
     <use x="1846.666016" xlink:href="#DejaVuSans-107"/>
     <use x="1904.529297" xlink:href="#DejaVuSans-101"/>
     <use x="1966.052734" xlink:href="#DejaVuSans-122"/>
     <use x="2018.542969" xlink:href="#DejaVuSans-111"/>
     <use x="2079.724609" xlink:href="#DejaVuSans-110"/>
     <use x="2143.103516" xlink:href="#DejaVuSans-101"/>
    </g>
   </g>
  </g>
 </g>
 <defs>
  <clipPath id="p339cd5a3a6">
   <rect height="543.6" width="558" x="90" y="86.4"/>
  </clipPath>
 </defs>
</svg>
