<?xml version="1.0" encoding="utf-8" standalone="no"?>
<!DOCTYPE svg PUBLIC "-//W3C//DTD SVG 1.1//EN"
  "http://www.w3.org/Graphics/SVG/1.1/DTD/svg11.dtd">
<!-- Created with matplotlib (https://matplotlib.org/) -->
<svg height="720pt" version="1.1" viewBox="0 0 720 720" width="720pt" xmlns="http://www.w3.org/2000/svg" xmlns:xlink="http://www.w3.org/1999/xlink">
 <defs>
  <style type="text/css">
*{stroke-linecap:butt;stroke-linejoin:round;}
  </style>
 </defs>
 <g id="figure_1">
  <g id="patch_1">
   <path d="M 0 720 
L 720 720 
L 720 0 
L 0 0 
z
" style="fill:#ffffff;"/>
  </g>
  <g id="axes_1">
   <g id="patch_2">
    <path d="M 90 630 
L 648 630 
L 648 86.4 
L 90 86.4 
z
" style="fill:#ffffff;"/>
   </g>
   <g id="matplotlib.axis_1"/>
   <g id="matplotlib.axis_2"/>
   <g id="patch_3">
    <path clip-path="url(#pef3dfd66d3)" d="M 234.15 297.8604 
L 324.0438 297.8604 
L 324.0438 177.07248 
L 234.15 177.07248 
z
" style="fill:#efcebd;opacity:0.5;stroke:#000000;stroke-linejoin:miter;"/>
   </g>
   <g id="patch_4">
    <path clip-path="url(#pef3dfd66d3)" d="M 324.049938 297.8604 
L 413.943738 297.8604 
L 413.943738 177.07248 
L 324.049938 177.07248 
z
" style="fill:#f6a385;opacity:0.5;stroke:#000000;stroke-linejoin:miter;"/>
   </g>
   <g id="patch_5">
    <path clip-path="url(#pef3dfd66d3)" d="M 413.950062 297.8604 
L 503.843862 297.8604 
L 503.843862 177.07248 
L 413.950062 177.07248 
z
" style="fill:#e4d9d2;opacity:0.5;stroke:#000000;stroke-linejoin:miter;"/>
   </g>
   <g id="patch_6">
    <path clip-path="url(#pef3dfd66d3)" d="M 234.15 418.7208 
L 324.0438 418.7208 
L 324.0438 297.93288 
L 234.15 297.93288 
z
" style="fill:#ba162b;opacity:0.5;stroke:#000000;stroke-linejoin:miter;"/>
   </g>
   <g id="patch_7">
    <path clip-path="url(#pef3dfd66d3)" d="M 324.049938 418.7208 
L 413.943738 418.7208 
L 413.943738 297.93288 
L 324.049938 297.93288 
z
" style="fill:#b50927;opacity:0.5;stroke:#000000;stroke-linejoin:miter;"/>
   </g>
   <g id="patch_8">
    <path clip-path="url(#pef3dfd66d3)" d="M 413.950062 418.7208 
L 503.843862 418.7208 
L 503.843862 297.93288 
L 413.950062 297.93288 
z
" style="fill:#c12b30;opacity:0.5;stroke:#000000;stroke-linejoin:miter;"/>
   </g>
   <g id="patch_9">
    <path clip-path="url(#pef3dfd66d3)" d="M 234.15 539.4 
L 324.0438 539.4 
L 324.0438 418.61208 
L 234.15 418.61208 
z
" style="fill:#9fbfff;opacity:0.5;stroke:#000000;stroke-linejoin:miter;"/>
   </g>
   <g id="patch_10">
    <path clip-path="url(#pef3dfd66d3)" d="M 324.049938 539.4 
L 413.943738 539.4 
L 413.943738 418.61208 
L 324.049938 418.61208 
z
" style="fill:#e3d9d3;opacity:0.5;stroke:#000000;stroke-linejoin:miter;"/>
   </g>
   <g id="patch_11">
    <path clip-path="url(#pef3dfd66d3)" d="M 413.950062 539.4 
L 503.843862 539.4 
L 503.843862 418.61208 
L 413.950062 418.61208 
z
" style="fill:#b2ccfb;opacity:0.5;stroke:#000000;stroke-linejoin:miter;"/>
   </g>
   <g id="LineCollection_1">
    <path clip-path="url(#pef3dfd66d3)" d="M 326.727273 527.882431 
L 332.363636 528.532306 
L 338 529.003983 
L 343.636364 529.361963 
L 349.272727 529.585064 
L 360.545455 529.690586 
L 366.181818 529.568849 
L 377.454545 528.99999 
L 383.090909 528.621287 
L 394.363636 527.56359 
L 405.636364 526.221622 
L 416.909091 524.579945 
L 422.545455 523.698145 
L 433.818182 521.506499 
L 439.454545 520.202964 
L 445.090909 518.745714 
L 451.404762 516.902013 
L 456.363636 515.290585 
L 462 513.21854 
L 470.526762 509.605369 
L 473.272727 508.347735 
L 478.909091 505.433208 
L 484.545455 502.151348 
L 490.181818 498.645594 
L 495.818182 494.597123 
L 501.454545 490.059524 
L 507.090909 484.972471 
L 512.727273 479.288251 
L 518.363636 472.86467 
L 524 465.597366 
L 529.636364 457.432037 
L 531.272411 454.880537 
L 535.610071 447.583893 
L 539.480655 440.287248 
L 543.041507 432.990604 
L 546.545455 424.942919 
L 549.086336 418.397315 
L 552.181818 409.569846 
L 553.961245 403.804027 
L 555.985286 396.507383 
L 557.818182 389.132349 
L 559.299918 381.914094 
L 560.558569 374.61745 
L 561.562393 367.320805 
L 562.272345 360.024161 
L 562.71333 352.727517 
L 562.858087 345.430872 
L 562.766087 338.134228 
L 562.347196 330.837584 
L 561.610297 323.54094 
L 560.579878 316.244295 
L 559.203316 308.947651 
L 557.51632 301.651007 
L 555.435327 294.354362 
L 552.991047 287.057718 
L 550.133412 279.761074 
L 546.545455 271.789383 
L 543.234867 265.167785 
L 540.909091 260.940302 
L 535.272727 251.665181 
L 532.043967 246.926174 
L 529.446296 243.277852 
L 523.73872 235.981208 
L 517.301877 228.684564 
L 512.727273 223.990828 
L 505.884447 217.739597 
L 501.454545 214.070133 
L 495.818182 209.938574 
L 490.181818 206.11133 
L 484.545455 202.60888 
L 478.836605 199.497987 
L 471.205199 195.849664 
L 467.636364 194.322572 
L 462 192.088473 
L 456.363636 190.060271 
L 450.727273 188.264502 
L 445.090909 186.635433 
L 438.262336 184.904698 
L 433.818182 183.897519 
L 422.545455 181.782505 
L 416.909091 180.808262 
L 405.636364 179.24561 
L 394.363636 177.880203 
L 383.090909 176.815914 
L 371.818182 176.109823 
L 360.545455 175.751533 
L 354.909091 175.724434 
L 349.272727 175.83759 
L 343.636364 176.075767 
L 338 176.428627 
L 332.363636 176.908257 
L 326.702459 177.608054 
L 315.454545 179.336421 
L 306.607326 181.256376 
L 304.181818 181.823235 
L 298.545455 183.331447 
L 292.909091 185.006205 
L 287.272727 186.956293 
L 281.636364 189.163585 
L 274.541554 192.201342 
L 267.185986 195.849664 
L 264.727273 197.140449 
L 259.090909 200.33014 
L 253.454545 203.904586 
L 247.818182 207.793022 
L 242.181818 212.018089 
L 235.366342 217.739597 
L 230.909091 221.807024 
L 224.165112 228.684564 
L 217.815961 235.981208 
L 212.115135 243.277852 
L 207.017767 250.574497 
L 202.536768 257.871141 
L 197.090909 267.965309 
L 194.984337 272.46443 
L 191.454545 280.736037 
L 189.14646 287.057718 
L 186.823121 294.354362 
L 184.906007 301.651007 
L 183.996289 305.299329 
L 182.531497 312.595973 
L 181.417343 319.892617 
L 180.562684 327.189262 
L 180.02685 334.485906 
L 179.757054 341.78255 
L 179.92046 352.727517 
L 180.309188 360.024161 
L 181.016232 367.320805 
L 181.987462 374.61745 
L 183.136869 381.914094 
L 184.547603 389.210738 
L 186.31046 396.507383 
L 188.240504 403.804027 
L 190.37043 411.100671 
L 192.88099 418.397315 
L 195.630025 425.69396 
L 198.736604 432.990604 
L 202.727273 441.247551 
L 206.025216 447.583893 
L 208.363636 451.727558 
L 214 460.65024 
L 217.683798 465.825503 
L 220.409026 469.473826 
L 226.486744 476.77047 
L 230.909091 481.650021 
L 236.545455 487.212208 
L 241.227378 491.363758 
L 242.181818 492.197261 
L 247.818182 496.765673 
L 253.454545 500.857461 
L 259.090909 504.598877 
L 264.727273 507.985038 
L 270.363636 510.982556 
L 276 513.687443 
L 283.357031 516.902013 
L 287.272727 518.402728 
L 293.399921 520.550336 
L 298.545455 522.127171 
L 306.504432 524.198658 
L 309.818182 524.96098 
L 315.454545 526.119709 
L 321.090909 527.075814 
L 326.727273 527.882431 
L 326.727273 527.882431 
" style="fill:none;stroke:#000000;stroke-width:3;"/>
   </g>
   <g id="LineCollection_2">
    <path clip-path="url(#pef3dfd66d3)" d="M 338 477.253486 
L 343.636364 477.781538 
L 349.272727 478.073163 
L 360.545455 478.116805 
L 366.181818 478.008983 
L 371.818182 477.722492 
L 383.090909 476.681598 
L 400 474.174171 
L 406.196986 473.122148 
L 422.669818 469.473826 
L 434.972812 465.825503 
L 439.454545 464.237782 
L 445.090909 462.032704 
L 452.626784 458.528859 
L 456.363636 456.598157 
L 462 453.344451 
L 467.636364 449.540206 
L 473.272727 445.347225 
L 479.083091 440.287248 
L 484.545455 434.760231 
L 490.181818 428.049253 
L 494.52079 422.045638 
L 495.818182 420.17684 
L 499.103386 414.748993 
L 501.454545 410.886626 
L 506.469116 400.155705 
L 507.090909 398.797649 
L 509.304213 392.85906 
L 512.861767 381.914094 
L 513.784897 378.265772 
L 515.298175 370.969128 
L 516.509553 363.672483 
L 517.383553 356.375839 
L 517.660097 352.727517 
L 517.761151 341.78255 
L 517.682452 338.134228 
L 517.488513 334.485906 
L 517.09469 330.837584 
L 515.314772 319.892617 
L 514.617188 316.244295 
L 512.727273 308.708778 
L 510.152128 301.651007 
L 508.683869 298.002685 
L 507.042668 294.354362 
L 501.454545 283.763879 
L 501.232543 283.409396 
L 498.581974 279.761074 
L 490.057413 268.816107 
L 482.408535 261.519463 
L 478.123165 257.871141 
L 473.272727 254.114106 
L 461.61929 246.926174 
L 453.771324 243.277852 
L 450.727273 241.884798 
L 445.090909 239.502495 
L 433.818182 235.825954 
L 419.844723 232.332886 
L 405.636364 229.54086 
L 388.727273 227.045879 
L 377.454545 225.812896 
L 360.545455 224.926402 
L 354.909091 224.921756 
L 349.272727 225.212368 
L 343.636364 225.316134 
L 332.363636 226.512548 
L 326.727273 227.327864 
L 319.462215 228.684564 
L 315.454545 229.652432 
L 309.818182 231.189652 
L 304.181818 232.993165 
L 296.090347 235.981208 
L 287.272727 239.939589 
L 281.126113 243.277852 
L 275.290262 246.926174 
L 269.953075 250.574497 
L 264.727273 254.738238 
L 259.090909 259.806094 
L 257.489371 261.519463 
L 253.454545 265.45024 
L 247.506633 272.46443 
L 245.139485 276.112752 
L 242.181818 280.24116 
L 240.124885 283.409396 
L 238.113281 287.057718 
L 235.938929 290.70604 
L 234.394232 294.354362 
L 231.122078 301.651007 
L 230.909091 302.183363 
L 229.911785 305.299329 
L 226.841549 316.244295 
L 226.046556 319.892617 
L 224.930479 327.189262 
L 224.405614 330.837584 
L 224.221049 334.485906 
L 224.274157 341.78255 
L 223.876585 345.430872 
L 223.837746 349.079195 
L 224.169507 356.375839 
L 225.272727 366.518341 
L 226.217171 370.969128 
L 227.186104 374.61745 
L 228.836334 381.914094 
L 229.67198 385.562416 
L 230.909091 389.879338 
L 233.472611 396.507383 
L 234.829511 400.155705 
L 236.545455 404.325173 
L 238.090156 407.452349 
L 240.026666 411.100671 
L 242.181818 415.488892 
L 248.761619 425.69396 
L 253.454545 432.158805 
L 259.090909 438.772315 
L 260.453132 440.287248 
L 264.727273 444.554446 
L 272.282943 451.232215 
L 277.068778 454.880537 
L 282.458444 458.528859 
L 288.616413 462.177181 
L 295.787005 465.825503 
L 298.545455 467.085286 
L 304.467624 469.473826 
L 309.818182 471.34338 
L 315.555657 473.122148 
L 321.090909 474.415348 
L 326.727273 475.597219 
L 333.767522 476.77047 
L 338 477.253486 
L 338 477.253486 
" style="fill:none;stroke:#0000ff;stroke-width:3;"/>
   </g>
   <g id="line2d_1">
    <path clip-path="url(#pef3dfd66d3)" d="M 234.15 539.4 
L 234.15 177 
" style="fill:none;stroke:#ff0000;stroke-linecap:square;stroke-width:1.5;"/>
   </g>
   <g id="line2d_2">
    <path clip-path="url(#pef3dfd66d3)" d="M 503.85 539.4 
L 503.85 177 
" style="fill:none;stroke:#ff0000;stroke-linecap:square;stroke-width:1.5;"/>
   </g>
   <g id="line2d_3">
    <path clip-path="url(#pef3dfd66d3)" d="M 234.15 539.4 
L 503.85 539.4 
" style="fill:none;stroke:#ff0000;stroke-linecap:square;stroke-width:1.5;"/>
   </g>
   <g id="line2d_4">
    <path clip-path="url(#pef3dfd66d3)" d="M 234.15 177 
L 503.85 177 
" style="fill:none;stroke:#ff0000;stroke-linecap:square;stroke-width:1.5;"/>
   </g>
   <g id="text_1">
    <!-- Curveball, Righty Hitter, Umpire's Strikezone -->
    <defs>
     <path d="M 64.40625 67.28125 
L 64.40625 56.890625 
Q 59.421875 61.53125 53.78125 63.8125 
Q 48.140625 66.109375 41.796875 66.109375 
Q 29.296875 66.109375 22.65625 58.46875 
Q 16.015625 50.828125 16.015625 36.375 
Q 16.015625 21.96875 22.65625 14.328125 
Q 29.296875 6.6875 41.796875 6.6875 
Q 48.140625 6.6875 53.78125 8.984375 
Q 59.421875 11.28125 64.40625 15.921875 
L 64.40625 5.609375 
Q 59.234375 2.09375 53.4375 0.328125 
Q 47.65625 -1.421875 41.21875 -1.421875 
Q 24.65625 -1.421875 15.125 8.703125 
Q 5.609375 18.84375 5.609375 36.375 
Q 5.609375 53.953125 15.125 64.078125 
Q 24.65625 74.21875 41.21875 74.21875 
Q 47.75 74.21875 53.53125 72.484375 
Q 59.328125 70.75 64.40625 67.28125 
z
" id="DejaVuSans-67"/>
     <path d="M 8.5 21.578125 
L 8.5 54.6875 
L 17.484375 54.6875 
L 17.484375 21.921875 
Q 17.484375 14.15625 20.5 10.265625 
Q 23.53125 6.390625 29.59375 6.390625 
Q 36.859375 6.390625 41.078125 11.03125 
Q 45.3125 15.671875 45.3125 23.6875 
L 45.3125 54.6875 
L 54.296875 54.6875 
L 54.296875 0 
L 45.3125 0 
L 45.3125 8.40625 
Q 42.046875 3.421875 37.71875 1 
Q 33.40625 -1.421875 27.6875 -1.421875 
Q 18.265625 -1.421875 13.375 4.4375 
Q 8.5 10.296875 8.5 21.578125 
z
M 31.109375 56 
z
" id="DejaVuSans-117"/>
     <path d="M 41.109375 46.296875 
Q 39.59375 47.171875 37.8125 47.578125 
Q 36.03125 48 33.890625 48 
Q 26.265625 48 22.1875 43.046875 
Q 18.109375 38.09375 18.109375 28.8125 
L 18.109375 0 
L 9.078125 0 
L 9.078125 54.6875 
L 18.109375 54.6875 
L 18.109375 46.1875 
Q 20.953125 51.171875 25.484375 53.578125 
Q 30.03125 56 36.53125 56 
Q 37.453125 56 38.578125 55.875 
Q 39.703125 55.765625 41.0625 55.515625 
z
" id="DejaVuSans-114"/>
     <path d="M 2.984375 54.6875 
L 12.5 54.6875 
L 29.59375 8.796875 
L 46.6875 54.6875 
L 56.203125 54.6875 
L 35.6875 0 
L 23.484375 0 
z
" id="DejaVuSans-118"/>
     <path d="M 56.203125 29.59375 
L 56.203125 25.203125 
L 14.890625 25.203125 
Q 15.484375 15.921875 20.484375 11.0625 
Q 25.484375 6.203125 34.421875 6.203125 
Q 39.59375 6.203125 44.453125 7.46875 
Q 49.3125 8.734375 54.109375 11.28125 
L 54.109375 2.78125 
Q 49.265625 0.734375 44.1875 -0.34375 
Q 39.109375 -1.421875 33.890625 -1.421875 
Q 20.796875 -1.421875 13.15625 6.1875 
Q 5.515625 13.8125 5.515625 26.8125 
Q 5.515625 40.234375 12.765625 48.109375 
Q 20.015625 56 32.328125 56 
Q 43.359375 56 49.78125 48.890625 
Q 56.203125 41.796875 56.203125 29.59375 
z
M 47.21875 32.234375 
Q 47.125 39.59375 43.09375 43.984375 
Q 39.0625 48.390625 32.421875 48.390625 
Q 24.90625 48.390625 20.390625 44.140625 
Q 15.875 39.890625 15.1875 32.171875 
z
" id="DejaVuSans-101"/>
     <path d="M 48.6875 27.296875 
Q 48.6875 37.203125 44.609375 42.84375 
Q 40.53125 48.484375 33.40625 48.484375 
Q 26.265625 48.484375 22.1875 42.84375 
Q 18.109375 37.203125 18.109375 27.296875 
Q 18.109375 17.390625 22.1875 11.75 
Q 26.265625 6.109375 33.40625 6.109375 
Q 40.53125 6.109375 44.609375 11.75 
Q 48.6875 17.390625 48.6875 27.296875 
z
M 18.109375 46.390625 
Q 20.953125 51.265625 25.265625 53.625 
Q 29.59375 56 35.59375 56 
Q 45.5625 56 51.78125 48.09375 
Q 58.015625 40.1875 58.015625 27.296875 
Q 58.015625 14.40625 51.78125 6.484375 
Q 45.5625 -1.421875 35.59375 -1.421875 
Q 29.59375 -1.421875 25.265625 0.953125 
Q 20.953125 3.328125 18.109375 8.203125 
L 18.109375 0 
L 9.078125 0 
L 9.078125 75.984375 
L 18.109375 75.984375 
z
" id="DejaVuSans-98"/>
     <path d="M 34.28125 27.484375 
Q 23.390625 27.484375 19.1875 25 
Q 14.984375 22.515625 14.984375 16.5 
Q 14.984375 11.71875 18.140625 8.90625 
Q 21.296875 6.109375 26.703125 6.109375 
Q 34.1875 6.109375 38.703125 11.40625 
Q 43.21875 16.703125 43.21875 25.484375 
L 43.21875 27.484375 
z
M 52.203125 31.203125 
L 52.203125 0 
L 43.21875 0 
L 43.21875 8.296875 
Q 40.140625 3.328125 35.546875 0.953125 
Q 30.953125 -1.421875 24.3125 -1.421875 
Q 15.921875 -1.421875 10.953125 3.296875 
Q 6 8.015625 6 15.921875 
Q 6 25.140625 12.171875 29.828125 
Q 18.359375 34.515625 30.609375 34.515625 
L 43.21875 34.515625 
L 43.21875 35.40625 
Q 43.21875 41.609375 39.140625 45 
Q 35.0625 48.390625 27.6875 48.390625 
Q 23 48.390625 18.546875 47.265625 
Q 14.109375 46.140625 10.015625 43.890625 
L 10.015625 52.203125 
Q 14.9375 54.109375 19.578125 55.046875 
Q 24.21875 56 28.609375 56 
Q 40.484375 56 46.34375 49.84375 
Q 52.203125 43.703125 52.203125 31.203125 
z
" id="DejaVuSans-97"/>
     <path d="M 9.421875 75.984375 
L 18.40625 75.984375 
L 18.40625 0 
L 9.421875 0 
z
" id="DejaVuSans-108"/>
     <path d="M 11.71875 12.40625 
L 22.015625 12.40625 
L 22.015625 4 
L 14.015625 -11.625 
L 7.71875 -11.625 
L 11.71875 4 
z
" id="DejaVuSans-44"/>
     <path id="DejaVuSans-32"/>
     <path d="M 44.390625 34.1875 
Q 47.5625 33.109375 50.5625 29.59375 
Q 53.5625 26.078125 56.59375 19.921875 
L 66.609375 0 
L 56 0 
L 46.6875 18.703125 
Q 43.0625 26.03125 39.671875 28.421875 
Q 36.28125 30.8125 30.421875 30.8125 
L 19.671875 30.8125 
L 19.671875 0 
L 9.8125 0 
L 9.8125 72.90625 
L 32.078125 72.90625 
Q 44.578125 72.90625 50.734375 67.671875 
Q 56.890625 62.453125 56.890625 51.90625 
Q 56.890625 45.015625 53.6875 40.46875 
Q 50.484375 35.9375 44.390625 34.1875 
z
M 19.671875 64.796875 
L 19.671875 38.921875 
L 32.078125 38.921875 
Q 39.203125 38.921875 42.84375 42.21875 
Q 46.484375 45.515625 46.484375 51.90625 
Q 46.484375 58.296875 42.84375 61.546875 
Q 39.203125 64.796875 32.078125 64.796875 
z
" id="DejaVuSans-82"/>
     <path d="M 9.421875 54.6875 
L 18.40625 54.6875 
L 18.40625 0 
L 9.421875 0 
z
M 9.421875 75.984375 
L 18.40625 75.984375 
L 18.40625 64.59375 
L 9.421875 64.59375 
z
" id="DejaVuSans-105"/>
     <path d="M 45.40625 27.984375 
Q 45.40625 37.75 41.375 43.109375 
Q 37.359375 48.484375 30.078125 48.484375 
Q 22.859375 48.484375 18.828125 43.109375 
Q 14.796875 37.75 14.796875 27.984375 
Q 14.796875 18.265625 18.828125 12.890625 
Q 22.859375 7.515625 30.078125 7.515625 
Q 37.359375 7.515625 41.375 12.890625 
Q 45.40625 18.265625 45.40625 27.984375 
z
M 54.390625 6.78125 
Q 54.390625 -7.171875 48.1875 -13.984375 
Q 42 -20.796875 29.203125 -20.796875 
Q 24.46875 -20.796875 20.265625 -20.09375 
Q 16.0625 -19.390625 12.109375 -17.921875 
L 12.109375 -9.1875 
Q 16.0625 -11.328125 19.921875 -12.34375 
Q 23.78125 -13.375 27.78125 -13.375 
Q 36.625 -13.375 41.015625 -8.765625 
Q 45.40625 -4.15625 45.40625 5.171875 
L 45.40625 9.625 
Q 42.625 4.78125 38.28125 2.390625 
Q 33.9375 0 27.875 0 
Q 17.828125 0 11.671875 7.65625 
Q 5.515625 15.328125 5.515625 27.984375 
Q 5.515625 40.671875 11.671875 48.328125 
Q 17.828125 56 27.875 56 
Q 33.9375 56 38.28125 53.609375 
Q 42.625 51.21875 45.40625 46.390625 
L 45.40625 54.6875 
L 54.390625 54.6875 
z
" id="DejaVuSans-103"/>
     <path d="M 54.890625 33.015625 
L 54.890625 0 
L 45.90625 0 
L 45.90625 32.71875 
Q 45.90625 40.484375 42.875 44.328125 
Q 39.84375 48.1875 33.796875 48.1875 
Q 26.515625 48.1875 22.3125 43.546875 
Q 18.109375 38.921875 18.109375 30.90625 
L 18.109375 0 
L 9.078125 0 
L 9.078125 75.984375 
L 18.109375 75.984375 
L 18.109375 46.1875 
Q 21.34375 51.125 25.703125 53.5625 
Q 30.078125 56 35.796875 56 
Q 45.21875 56 50.046875 50.171875 
Q 54.890625 44.34375 54.890625 33.015625 
z
" id="DejaVuSans-104"/>
     <path d="M 18.3125 70.21875 
L 18.3125 54.6875 
L 36.8125 54.6875 
L 36.8125 47.703125 
L 18.3125 47.703125 
L 18.3125 18.015625 
Q 18.3125 11.328125 20.140625 9.421875 
Q 21.96875 7.515625 27.59375 7.515625 
L 36.8125 7.515625 
L 36.8125 0 
L 27.59375 0 
Q 17.1875 0 13.234375 3.875 
Q 9.28125 7.765625 9.28125 18.015625 
L 9.28125 47.703125 
L 2.6875 47.703125 
L 2.6875 54.6875 
L 9.28125 54.6875 
L 9.28125 70.21875 
z
" id="DejaVuSans-116"/>
     <path d="M 32.171875 -5.078125 
Q 28.375 -14.84375 24.75 -17.8125 
Q 21.140625 -20.796875 15.09375 -20.796875 
L 7.90625 -20.796875 
L 7.90625 -13.28125 
L 13.1875 -13.28125 
Q 16.890625 -13.28125 18.9375 -11.515625 
Q 21 -9.765625 23.484375 -3.21875 
L 25.09375 0.875 
L 2.984375 54.6875 
L 12.5 54.6875 
L 29.59375 11.921875 
L 46.6875 54.6875 
L 56.203125 54.6875 
z
" id="DejaVuSans-121"/>
     <path d="M 9.8125 72.90625 
L 19.671875 72.90625 
L 19.671875 43.015625 
L 55.515625 43.015625 
L 55.515625 72.90625 
L 65.375 72.90625 
L 65.375 0 
L 55.515625 0 
L 55.515625 34.71875 
L 19.671875 34.71875 
L 19.671875 0 
L 9.8125 0 
z
" id="DejaVuSans-72"/>
     <path d="M 8.6875 72.90625 
L 18.609375 72.90625 
L 18.609375 28.609375 
Q 18.609375 16.890625 22.84375 11.734375 
Q 27.09375 6.59375 36.625 6.59375 
Q 46.09375 6.59375 50.34375 11.734375 
Q 54.59375 16.890625 54.59375 28.609375 
L 54.59375 72.90625 
L 64.5 72.90625 
L 64.5 27.390625 
Q 64.5 13.140625 57.4375 5.859375 
Q 50.390625 -1.421875 36.625 -1.421875 
Q 22.796875 -1.421875 15.734375 5.859375 
Q 8.6875 13.140625 8.6875 27.390625 
z
" id="DejaVuSans-85"/>
     <path d="M 52 44.1875 
Q 55.375 50.25 60.0625 53.125 
Q 64.75 56 71.09375 56 
Q 79.640625 56 84.28125 50.015625 
Q 88.921875 44.046875 88.921875 33.015625 
L 88.921875 0 
L 79.890625 0 
L 79.890625 32.71875 
Q 79.890625 40.578125 77.09375 44.375 
Q 74.3125 48.1875 68.609375 48.1875 
Q 61.625 48.1875 57.5625 43.546875 
Q 53.515625 38.921875 53.515625 30.90625 
L 53.515625 0 
L 44.484375 0 
L 44.484375 32.71875 
Q 44.484375 40.625 41.703125 44.40625 
Q 38.921875 48.1875 33.109375 48.1875 
Q 26.21875 48.1875 22.15625 43.53125 
Q 18.109375 38.875 18.109375 30.90625 
L 18.109375 0 
L 9.078125 0 
L 9.078125 54.6875 
L 18.109375 54.6875 
L 18.109375 46.1875 
Q 21.1875 51.21875 25.484375 53.609375 
Q 29.78125 56 35.6875 56 
Q 41.65625 56 45.828125 52.96875 
Q 50 49.953125 52 44.1875 
z
" id="DejaVuSans-109"/>
     <path d="M 18.109375 8.203125 
L 18.109375 -20.796875 
L 9.078125 -20.796875 
L 9.078125 54.6875 
L 18.109375 54.6875 
L 18.109375 46.390625 
Q 20.953125 51.265625 25.265625 53.625 
Q 29.59375 56 35.59375 56 
Q 45.5625 56 51.78125 48.09375 
Q 58.015625 40.1875 58.015625 27.296875 
Q 58.015625 14.40625 51.78125 6.484375 
Q 45.5625 -1.421875 35.59375 -1.421875 
Q 29.59375 -1.421875 25.265625 0.953125 
Q 20.953125 3.328125 18.109375 8.203125 
z
M 48.6875 27.296875 
Q 48.6875 37.203125 44.609375 42.84375 
Q 40.53125 48.484375 33.40625 48.484375 
Q 26.265625 48.484375 22.1875 42.84375 
Q 18.109375 37.203125 18.109375 27.296875 
Q 18.109375 17.390625 22.1875 11.75 
Q 26.265625 6.109375 33.40625 6.109375 
Q 40.53125 6.109375 44.609375 11.75 
Q 48.6875 17.390625 48.6875 27.296875 
z
" id="DejaVuSans-112"/>
     <path d="M 17.921875 72.90625 
L 17.921875 45.796875 
L 9.625 45.796875 
L 9.625 72.90625 
z
" id="DejaVuSans-39"/>
     <path d="M 44.28125 53.078125 
L 44.28125 44.578125 
Q 40.484375 46.53125 36.375 47.5 
Q 32.28125 48.484375 27.875 48.484375 
Q 21.1875 48.484375 17.84375 46.4375 
Q 14.5 44.390625 14.5 40.28125 
Q 14.5 37.15625 16.890625 35.375 
Q 19.28125 33.59375 26.515625 31.984375 
L 29.59375 31.296875 
Q 39.15625 29.25 43.1875 25.515625 
Q 47.21875 21.78125 47.21875 15.09375 
Q 47.21875 7.46875 41.1875 3.015625 
Q 35.15625 -1.421875 24.609375 -1.421875 
Q 20.21875 -1.421875 15.453125 -0.5625 
Q 10.6875 0.296875 5.421875 2 
L 5.421875 11.28125 
Q 10.40625 8.6875 15.234375 7.390625 
Q 20.0625 6.109375 24.8125 6.109375 
Q 31.15625 6.109375 34.5625 8.28125 
Q 37.984375 10.453125 37.984375 14.40625 
Q 37.984375 18.0625 35.515625 20.015625 
Q 33.0625 21.96875 24.703125 23.78125 
L 21.578125 24.515625 
Q 13.234375 26.265625 9.515625 29.90625 
Q 5.8125 33.546875 5.8125 39.890625 
Q 5.8125 47.609375 11.28125 51.796875 
Q 16.75 56 26.8125 56 
Q 31.78125 56 36.171875 55.265625 
Q 40.578125 54.546875 44.28125 53.078125 
z
" id="DejaVuSans-115"/>
     <path d="M 53.515625 70.515625 
L 53.515625 60.890625 
Q 47.90625 63.578125 42.921875 64.890625 
Q 37.9375 66.21875 33.296875 66.21875 
Q 25.25 66.21875 20.875 63.09375 
Q 16.5 59.96875 16.5 54.203125 
Q 16.5 49.359375 19.40625 46.890625 
Q 22.3125 44.4375 30.421875 42.921875 
L 36.375 41.703125 
Q 47.40625 39.59375 52.65625 34.296875 
Q 57.90625 29 57.90625 20.125 
Q 57.90625 9.515625 50.796875 4.046875 
Q 43.703125 -1.421875 29.984375 -1.421875 
Q 24.8125 -1.421875 18.96875 -0.25 
Q 13.140625 0.921875 6.890625 3.21875 
L 6.890625 13.375 
Q 12.890625 10.015625 18.65625 8.296875 
Q 24.421875 6.59375 29.984375 6.59375 
Q 38.421875 6.59375 43.015625 9.90625 
Q 47.609375 13.234375 47.609375 19.390625 
Q 47.609375 24.75 44.3125 27.78125 
Q 41.015625 30.8125 33.5 32.328125 
L 27.484375 33.5 
Q 16.453125 35.6875 11.515625 40.375 
Q 6.59375 45.0625 6.59375 53.421875 
Q 6.59375 63.09375 13.40625 68.65625 
Q 20.21875 74.21875 32.171875 74.21875 
Q 37.3125 74.21875 42.625 73.28125 
Q 47.953125 72.359375 53.515625 70.515625 
z
" id="DejaVuSans-83"/>
     <path d="M 9.078125 75.984375 
L 18.109375 75.984375 
L 18.109375 31.109375 
L 44.921875 54.6875 
L 56.390625 54.6875 
L 27.390625 29.109375 
L 57.625 0 
L 45.90625 0 
L 18.109375 26.703125 
L 18.109375 0 
L 9.078125 0 
z
" id="DejaVuSans-107"/>
     <path d="M 5.515625 54.6875 
L 48.1875 54.6875 
L 48.1875 46.484375 
L 14.40625 7.171875 
L 48.1875 7.171875 
L 48.1875 0 
L 4.296875 0 
L 4.296875 8.203125 
L 38.09375 47.515625 
L 5.515625 47.515625 
z
" id="DejaVuSans-122"/>
     <path d="M 30.609375 48.390625 
Q 23.390625 48.390625 19.1875 42.75 
Q 14.984375 37.109375 14.984375 27.296875 
Q 14.984375 17.484375 19.15625 11.84375 
Q 23.34375 6.203125 30.609375 6.203125 
Q 37.796875 6.203125 41.984375 11.859375 
Q 46.1875 17.53125 46.1875 27.296875 
Q 46.1875 37.015625 41.984375 42.703125 
Q 37.796875 48.390625 30.609375 48.390625 
z
M 30.609375 56 
Q 42.328125 56 49.015625 48.375 
Q 55.71875 40.765625 55.71875 27.296875 
Q 55.71875 13.875 49.015625 6.21875 
Q 42.328125 -1.421875 30.609375 -1.421875 
Q 18.84375 -1.421875 12.171875 6.21875 
Q 5.515625 13.875 5.515625 27.296875 
Q 5.515625 40.765625 12.171875 48.375 
Q 18.84375 56 30.609375 56 
z
" id="DejaVuSans-111"/>
     <path d="M 54.890625 33.015625 
L 54.890625 0 
L 45.90625 0 
L 45.90625 32.71875 
Q 45.90625 40.484375 42.875 44.328125 
Q 39.84375 48.1875 33.796875 48.1875 
Q 26.515625 48.1875 22.3125 43.546875 
Q 18.109375 38.921875 18.109375 30.90625 
L 18.109375 0 
L 9.078125 0 
L 9.078125 54.6875 
L 18.109375 54.6875 
L 18.109375 46.1875 
Q 21.34375 51.125 25.703125 53.5625 
Q 30.078125 56 35.796875 56 
Q 45.21875 56 50.046875 50.171875 
Q 54.890625 44.34375 54.890625 33.015625 
z
" id="DejaVuSans-110"/>
    </defs>
    <g transform="translate(88.226562 80.4)scale(0.25 -0.25)">
     <use xlink:href="#DejaVuSans-67"/>
     <use x="69.824219" xlink:href="#DejaVuSans-117"/>
     <use x="133.203125" xlink:href="#DejaVuSans-114"/>
     <use x="174.316406" xlink:href="#DejaVuSans-118"/>
     <use x="233.496094" xlink:href="#DejaVuSans-101"/>
     <use x="295.019531" xlink:href="#DejaVuSans-98"/>
     <use x="358.496094" xlink:href="#DejaVuSans-97"/>
     <use x="419.775391" xlink:href="#DejaVuSans-108"/>
     <use x="447.558594" xlink:href="#DejaVuSans-108"/>
     <use x="475.341797" xlink:href="#DejaVuSans-44"/>
     <use x="507.128906" xlink:href="#DejaVuSans-32"/>
     <use x="538.916016" xlink:href="#DejaVuSans-82"/>
     <use x="608.398438" xlink:href="#DejaVuSans-105"/>
     <use x="636.181641" xlink:href="#DejaVuSans-103"/>
     <use x="699.658203" xlink:href="#DejaVuSans-104"/>
     <use x="763.037109" xlink:href="#DejaVuSans-116"/>
     <use x="802.246094" xlink:href="#DejaVuSans-121"/>
     <use x="861.425781" xlink:href="#DejaVuSans-32"/>
     <use x="893.212891" xlink:href="#DejaVuSans-72"/>
     <use x="968.408203" xlink:href="#DejaVuSans-105"/>
     <use x="996.191406" xlink:href="#DejaVuSans-116"/>
     <use x="1035.400391" xlink:href="#DejaVuSans-116"/>
     <use x="1074.609375" xlink:href="#DejaVuSans-101"/>
     <use x="1136.132812" xlink:href="#DejaVuSans-114"/>
     <use x="1177.246094" xlink:href="#DejaVuSans-44"/>
     <use x="1209.033203" xlink:href="#DejaVuSans-32"/>
     <use x="1240.820312" xlink:href="#DejaVuSans-85"/>
     <use x="1314.013672" xlink:href="#DejaVuSans-109"/>
     <use x="1411.425781" xlink:href="#DejaVuSans-112"/>
     <use x="1474.902344" xlink:href="#DejaVuSans-105"/>
     <use x="1502.685547" xlink:href="#DejaVuSans-114"/>
     <use x="1543.767578" xlink:href="#DejaVuSans-101"/>
     <use x="1605.291016" xlink:href="#DejaVuSans-39"/>
     <use x="1632.78125" xlink:href="#DejaVuSans-115"/>
     <use x="1684.880859" xlink:href="#DejaVuSans-32"/>
     <use x="1716.667969" xlink:href="#DejaVuSans-83"/>
     <use x="1780.144531" xlink:href="#DejaVuSans-116"/>
     <use x="1819.353516" xlink:href="#DejaVuSans-114"/>
     <use x="1860.466797" xlink:href="#DejaVuSans-105"/>
     <use x="1888.25" xlink:href="#DejaVuSans-107"/>
     <use x="1946.113281" xlink:href="#DejaVuSans-101"/>
     <use x="2007.636719" xlink:href="#DejaVuSans-122"/>
     <use x="2060.126953" xlink:href="#DejaVuSans-111"/>
     <use x="2121.308594" xlink:href="#DejaVuSans-110"/>
     <use x="2184.6875" xlink:href="#DejaVuSans-101"/>
    </g>
   </g>
  </g>
 </g>
 <defs>
  <clipPath id="pef3dfd66d3">
   <rect height="543.6" width="558" x="90" y="86.4"/>
  </clipPath>
 </defs>
</svg>
