<?xml version="1.0" encoding="utf-8" standalone="no"?>
<!DOCTYPE svg PUBLIC "-//W3C//DTD SVG 1.1//EN"
  "http://www.w3.org/Graphics/SVG/1.1/DTD/svg11.dtd">
<!-- Created with matplotlib (https://matplotlib.org/) -->
<svg height="720pt" version="1.1" viewBox="0 0 720 720" width="720pt" xmlns="http://www.w3.org/2000/svg" xmlns:xlink="http://www.w3.org/1999/xlink">
 <defs>
  <style type="text/css">
*{stroke-linecap:butt;stroke-linejoin:round;}
  </style>
 </defs>
 <g id="figure_1">
  <g id="patch_1">
   <path d="M 0 720 
L 720 720 
L 720 0 
L 0 0 
z
" style="fill:#ffffff;"/>
  </g>
  <g id="axes_1">
   <g id="patch_2">
    <path d="M 90 630 
L 648 630 
L 648 86.4 
L 90 86.4 
z
" style="fill:#ffffff;"/>
   </g>
   <g id="matplotlib.axis_1"/>
   <g id="matplotlib.axis_2"/>
   <g id="patch_3">
    <path clip-path="url(#pa97db8a071)" d="M 234.15 297.8604 
L 324.0438 297.8604 
L 324.0438 177.07248 
L 234.15 177.07248 
z
" style="fill:#e1dad6;opacity:0.5;stroke:#000000;stroke-linejoin:miter;"/>
   </g>
   <g id="patch_4">
    <path clip-path="url(#pa97db8a071)" d="M 324.049938 297.8604 
L 413.943738 297.8604 
L 413.943738 177.07248 
L 324.049938 177.07248 
z
" style="fill:#f59c7d;opacity:0.5;stroke:#000000;stroke-linejoin:miter;"/>
   </g>
   <g id="patch_5">
    <path clip-path="url(#pa97db8a071)" d="M 413.950062 297.8604 
L 503.843862 297.8604 
L 503.843862 177.07248 
L 413.950062 177.07248 
z
" style="fill:#ccd9ed;opacity:0.5;stroke:#000000;stroke-linejoin:miter;"/>
   </g>
   <g id="patch_6">
    <path clip-path="url(#pa97db8a071)" d="M 234.15 418.7208 
L 324.0438 418.7208 
L 324.0438 297.93288 
L 234.15 297.93288 
z
" style="fill:#bd1f2d;opacity:0.5;stroke:#000000;stroke-linejoin:miter;"/>
   </g>
   <g id="patch_7">
    <path clip-path="url(#pa97db8a071)" d="M 324.049938 418.7208 
L 413.943738 418.7208 
L 413.943738 297.93288 
L 324.049938 297.93288 
z
" style="fill:#b50927;opacity:0.5;stroke:#000000;stroke-linejoin:miter;"/>
   </g>
   <g id="patch_8">
    <path clip-path="url(#pa97db8a071)" d="M 413.950062 418.7208 
L 503.843862 418.7208 
L 503.843862 297.93288 
L 413.950062 297.93288 
z
" style="fill:#cb3e38;opacity:0.5;stroke:#000000;stroke-linejoin:miter;"/>
   </g>
   <g id="patch_9">
    <path clip-path="url(#pa97db8a071)" d="M 234.15 539.4 
L 324.0438 539.4 
L 324.0438 418.61208 
L 234.15 418.61208 
z
" style="fill:#b9d0f9;opacity:0.5;stroke:#000000;stroke-linejoin:miter;"/>
   </g>
   <g id="patch_10">
    <path clip-path="url(#pa97db8a071)" d="M 324.049938 539.4 
L 413.943738 539.4 
L 413.943738 418.61208 
L 324.049938 418.61208 
z
" style="fill:#d7dce3;opacity:0.5;stroke:#000000;stroke-linejoin:miter;"/>
   </g>
   <g id="patch_11">
    <path clip-path="url(#pa97db8a071)" d="M 413.950062 539.4 
L 503.843862 539.4 
L 503.843862 418.61208 
L 413.950062 418.61208 
z
" style="fill:#e4d9d2;opacity:0.5;stroke:#000000;stroke-linejoin:miter;"/>
   </g>
   <g id="LineCollection_1">
    <path clip-path="url(#pa97db8a071)" d="M 377.454545 531.618063 
L 394.363636 532.70343 
L 405.636364 533.087457 
L 416.909091 533.074448 
L 422.545455 532.857711 
L 428.181818 532.467076 
L 433.818182 531.944886 
L 439.454545 531.196771 
L 445.090909 530.21347 
L 450.727273 529.063174 
L 456.363636 527.623501 
L 462 525.854986 
L 467.636364 523.868359 
L 475.578289 520.550336 
L 478.909091 519.032629 
L 484.545455 516.157566 
L 490.181818 512.947431 
L 495.818182 509.316763 
L 501.454545 505.297591 
L 507.090909 500.840129 
L 512.727273 495.849608 
L 513.609235 495.012081 
L 518.363636 490.25039 
L 520.707041 487.715436 
L 524 483.936042 
L 529.637352 476.77047 
L 532.167653 473.122148 
L 535.272727 468.328219 
L 538.813647 462.177181 
L 540.909091 458.178136 
L 542.457799 454.880537 
L 545.54172 447.583893 
L 546.912858 443.93557 
L 549.276922 436.638926 
L 550.331561 432.990604 
L 552.181818 425.549464 
L 552.968005 422.045638 
L 554.263738 414.748993 
L 555.349231 407.452349 
L 556.207246 400.155705 
L 556.845994 392.85906 
L 557.348727 385.562416 
L 557.818182 374.063742 
L 558.019132 363.672483 
L 558.018182 345.430872 
L 557.246306 327.189262 
L 556.667851 319.892617 
L 555.382351 308.947651 
L 554.821795 305.299329 
L 552.064352 290.70604 
L 550.170737 283.409396 
L 549.099507 279.761074 
L 546.545455 272.367688 
L 545.24408 268.816107 
L 542.153677 261.519463 
L 540.507273 257.871141 
L 538.67363 254.222819 
L 534.585314 246.926174 
L 532.326075 243.277852 
L 529.636364 239.235588 
L 524 231.53807 
L 518.363636 224.879397 
L 512.727273 218.812584 
L 507.090909 213.473831 
L 501.454545 208.71612 
L 495.818182 204.380012 
L 490.181818 200.597663 
L 484.545455 197.039809 
L 478.909091 193.938036 
L 473.272727 191.264459 
L 467.169991 188.55302 
L 462 186.618133 
L 456.363636 184.751814 
L 450.727273 183.279775 
L 439.454545 180.890959 
L 433.818182 180.123474 
L 428.181818 179.547038 
L 416.909091 178.885572 
L 405.636364 178.896003 
L 394.363636 179.316225 
L 371.818182 180.901582 
L 354.909091 182.169445 
L 338 183.109132 
L 326.727273 183.609945 
L 315.454545 184.321997 
L 308.776714 184.904698 
L 298.545455 186.137623 
L 292.909091 186.994592 
L 281.636364 189.394989 
L 276 190.915575 
L 270.363636 192.687989 
L 264.727273 194.69332 
L 259.090909 197.049443 
L 253.454545 199.894127 
L 247.481177 203.146309 
L 241.716304 206.794631 
L 236.545455 210.626446 
L 230.909091 215.029803 
L 225.272727 219.8006 
L 219.636364 225.214555 
L 213.134929 232.332886 
L 207.221883 239.62953 
L 204.574494 243.277852 
L 197.090909 255.050972 
L 195.520133 257.871141 
L 191.454545 265.973826 
L 190.112661 268.816107 
L 188.617024 272.46443 
L 184.621076 283.409396 
L 182.527108 290.70604 
L 180.034794 301.651007 
L 178.281499 312.595973 
L 177.752074 316.244295 
L 176.995102 323.54094 
L 176.473392 330.837584 
L 175.93613 341.78255 
L 175.7733 349.079195 
L 175.764957 360.024161 
L 175.974129 370.969128 
L 176.621414 385.562416 
L 177.225644 392.85906 
L 178.291959 403.804027 
L 179.340092 411.100671 
L 180.181818 415.784172 
L 181.598867 422.045638 
L 182.456856 425.69396 
L 184.533045 432.990604 
L 185.818182 436.939312 
L 189.919559 447.583893 
L 191.550782 451.232215 
L 195.267283 458.528859 
L 197.379335 462.177181 
L 204.844235 473.122148 
L 208.363636 477.716358 
L 214 484.140487 
L 219.636364 489.83671 
L 221.25009 491.363758 
L 225.364801 495.012081 
L 230.909091 499.43082 
L 236.545455 503.567653 
L 242.181818 507.262832 
L 247.818182 510.651881 
L 253.454545 513.560779 
L 259.090909 516.045765 
L 270.363636 520.185048 
L 276 521.885916 
L 281.636364 523.365942 
L 287.272727 524.497777 
L 298.545455 526.320014 
L 304.181818 526.990977 
L 315.454545 527.987624 
L 326.727273 528.658531 
L 354.909091 529.958088 
L 377.454545 531.618063 
L 377.454545 531.618063 
" style="fill:none;stroke:#000000;stroke-width:3;"/>
   </g>
   <g id="LineCollection_2">
    <path clip-path="url(#pa97db8a071)" d="M 388.727273 484.274171 
L 394.363636 484.634467 
L 411.272727 485.332934 
L 416.909091 484.983973 
L 422.545455 484.904774 
L 430.946973 484.067114 
L 433.818182 483.640134 
L 439.454545 482.449128 
L 447.271271 480.418792 
L 450.727273 479.265663 
L 457.138896 476.77047 
L 464.357253 473.122148 
L 467.636364 471.248275 
L 473.272727 467.470987 
L 475.403899 465.825503 
L 479.759628 462.177181 
L 484.545455 457.572484 
L 492.635777 447.583893 
L 495.818182 442.723409 
L 499.151479 436.638926 
L 502.403821 429.342282 
L 503.879166 425.69396 
L 505.01615 422.045638 
L 507.090909 416.021864 
L 508.234954 411.100671 
L 509.684651 403.804027 
L 510.314454 400.155705 
L 510.802659 396.507383 
L 511.539377 389.210738 
L 512.072177 385.562416 
L 512.643357 378.265772 
L 512.992658 367.320805 
L 513.118171 363.672483 
L 513.085657 345.430872 
L 512.974533 341.78255 
L 512.190314 330.837584 
L 511.909111 327.189262 
L 510.980285 319.892617 
L 510.422864 316.244295 
L 509.02097 308.947651 
L 507.307757 301.651007 
L 507.090909 300.717073 
L 506.246482 298.002685 
L 504.755829 294.354362 
L 503.652467 290.70604 
L 501.454545 285.144578 
L 498.765613 279.761074 
L 489.611086 265.167785 
L 484.545455 259.23852 
L 483.18525 257.871141 
L 478.909091 254.080998 
L 473.272727 248.963461 
L 467.636364 245.131414 
L 464.663505 243.277852 
L 462 241.777781 
L 456.363636 238.812805 
L 449.290809 235.981208 
L 445.090909 234.632002 
L 439.454545 233.010642 
L 433.818182 231.848772 
L 416.909091 230.21251 
L 411.272727 229.995028 
L 405.636364 230.074202 
L 394.363636 230.762547 
L 377.454545 232.418208 
L 366.181818 233.906002 
L 354.909091 235.046814 
L 349.272727 235.397134 
L 343.543902 235.981208 
L 326.727273 237.194173 
L 315.454545 238.775417 
L 309.818182 239.233476 
L 304.181818 239.997564 
L 298.545455 240.981712 
L 292.909091 242.773262 
L 287.272727 244.138368 
L 281.636364 246.084183 
L 276 248.752715 
L 271.778077 250.574497 
L 270.363636 251.346827 
L 265.786195 254.222819 
L 264.727273 255.031909 
L 257.158882 261.519463 
L 253.338506 265.167785 
L 249.860958 268.816107 
L 247.818182 271.144 
L 246.851013 272.46443 
L 242.181818 279.854012 
L 236.341149 290.70604 
L 232.439996 301.651007 
L 230.909091 306.559108 
L 230.357159 308.947651 
L 229.721091 312.595973 
L 228.903736 319.892617 
L 227.636022 327.189262 
L 227.271263 330.837584 
L 227.135158 334.485906 
L 226.498614 341.78255 
L 226.098513 345.430872 
L 225.812928 349.079195 
L 225.769432 356.375839 
L 226.144143 360.024161 
L 226.334122 363.672483 
L 226.169857 370.969128 
L 226.597762 378.265772 
L 227.328101 385.562416 
L 228.047394 392.85906 
L 228.755445 396.507383 
L 230.918867 403.804027 
L 232.146249 411.100671 
L 233.702289 418.397315 
L 234.965296 422.045638 
L 236.545455 426.009869 
L 238.054566 429.342282 
L 239.870205 432.990604 
L 242.181818 437.278871 
L 244.042199 440.287248 
L 246.429732 443.93557 
L 247.818182 445.478357 
L 256.848483 454.880537 
L 259.090909 457.475545 
L 260.388294 458.528859 
L 270.363636 465.053312 
L 271.863307 465.825503 
L 281.636364 469.789483 
L 287.272727 471.979035 
L 292.909091 473.766147 
L 304.181818 476.068098 
L 309.818182 477.000874 
L 326.727273 478.642764 
L 349.710372 480.418792 
L 360.545455 481.232925 
L 388.727273 484.274171 
L 388.727273 484.274171 
" style="fill:none;stroke:#0000ff;stroke-width:3;"/>
   </g>
   <g id="line2d_1">
    <path clip-path="url(#pa97db8a071)" d="M 234.15 539.4 
L 234.15 177 
" style="fill:none;stroke:#ff0000;stroke-linecap:square;stroke-width:1.5;"/>
   </g>
   <g id="line2d_2">
    <path clip-path="url(#pa97db8a071)" d="M 503.85 539.4 
L 503.85 177 
" style="fill:none;stroke:#ff0000;stroke-linecap:square;stroke-width:1.5;"/>
   </g>
   <g id="line2d_3">
    <path clip-path="url(#pa97db8a071)" d="M 234.15 539.4 
L 503.85 539.4 
" style="fill:none;stroke:#ff0000;stroke-linecap:square;stroke-width:1.5;"/>
   </g>
   <g id="line2d_4">
    <path clip-path="url(#pa97db8a071)" d="M 234.15 177 
L 503.85 177 
" style="fill:none;stroke:#ff0000;stroke-linecap:square;stroke-width:1.5;"/>
   </g>
   <g id="text_1">
    <!-- Cutter, Righty Hitter, Umpire's Strikezone -->
    <defs>
     <path d="M 64.40625 67.28125 
L 64.40625 56.890625 
Q 59.421875 61.53125 53.78125 63.8125 
Q 48.140625 66.109375 41.796875 66.109375 
Q 29.296875 66.109375 22.65625 58.46875 
Q 16.015625 50.828125 16.015625 36.375 
Q 16.015625 21.96875 22.65625 14.328125 
Q 29.296875 6.6875 41.796875 6.6875 
Q 48.140625 6.6875 53.78125 8.984375 
Q 59.421875 11.28125 64.40625 15.921875 
L 64.40625 5.609375 
Q 59.234375 2.09375 53.4375 0.328125 
Q 47.65625 -1.421875 41.21875 -1.421875 
Q 24.65625 -1.421875 15.125 8.703125 
Q 5.609375 18.84375 5.609375 36.375 
Q 5.609375 53.953125 15.125 64.078125 
Q 24.65625 74.21875 41.21875 74.21875 
Q 47.75 74.21875 53.53125 72.484375 
Q 59.328125 70.75 64.40625 67.28125 
z
" id="DejaVuSans-67"/>
     <path d="M 8.5 21.578125 
L 8.5 54.6875 
L 17.484375 54.6875 
L 17.484375 21.921875 
Q 17.484375 14.15625 20.5 10.265625 
Q 23.53125 6.390625 29.59375 6.390625 
Q 36.859375 6.390625 41.078125 11.03125 
Q 45.3125 15.671875 45.3125 23.6875 
L 45.3125 54.6875 
L 54.296875 54.6875 
L 54.296875 0 
L 45.3125 0 
L 45.3125 8.40625 
Q 42.046875 3.421875 37.71875 1 
Q 33.40625 -1.421875 27.6875 -1.421875 
Q 18.265625 -1.421875 13.375 4.4375 
Q 8.5 10.296875 8.5 21.578125 
z
M 31.109375 56 
z
" id="DejaVuSans-117"/>
     <path d="M 18.3125 70.21875 
L 18.3125 54.6875 
L 36.8125 54.6875 
L 36.8125 47.703125 
L 18.3125 47.703125 
L 18.3125 18.015625 
Q 18.3125 11.328125 20.140625 9.421875 
Q 21.96875 7.515625 27.59375 7.515625 
L 36.8125 7.515625 
L 36.8125 0 
L 27.59375 0 
Q 17.1875 0 13.234375 3.875 
Q 9.28125 7.765625 9.28125 18.015625 
L 9.28125 47.703125 
L 2.6875 47.703125 
L 2.6875 54.6875 
L 9.28125 54.6875 
L 9.28125 70.21875 
z
" id="DejaVuSans-116"/>
     <path d="M 56.203125 29.59375 
L 56.203125 25.203125 
L 14.890625 25.203125 
Q 15.484375 15.921875 20.484375 11.0625 
Q 25.484375 6.203125 34.421875 6.203125 
Q 39.59375 6.203125 44.453125 7.46875 
Q 49.3125 8.734375 54.109375 11.28125 
L 54.109375 2.78125 
Q 49.265625 0.734375 44.1875 -0.34375 
Q 39.109375 -1.421875 33.890625 -1.421875 
Q 20.796875 -1.421875 13.15625 6.1875 
Q 5.515625 13.8125 5.515625 26.8125 
Q 5.515625 40.234375 12.765625 48.109375 
Q 20.015625 56 32.328125 56 
Q 43.359375 56 49.78125 48.890625 
Q 56.203125 41.796875 56.203125 29.59375 
z
M 47.21875 32.234375 
Q 47.125 39.59375 43.09375 43.984375 
Q 39.0625 48.390625 32.421875 48.390625 
Q 24.90625 48.390625 20.390625 44.140625 
Q 15.875 39.890625 15.1875 32.171875 
z
" id="DejaVuSans-101"/>
     <path d="M 41.109375 46.296875 
Q 39.59375 47.171875 37.8125 47.578125 
Q 36.03125 48 33.890625 48 
Q 26.265625 48 22.1875 43.046875 
Q 18.109375 38.09375 18.109375 28.8125 
L 18.109375 0 
L 9.078125 0 
L 9.078125 54.6875 
L 18.109375 54.6875 
L 18.109375 46.1875 
Q 20.953125 51.171875 25.484375 53.578125 
Q 30.03125 56 36.53125 56 
Q 37.453125 56 38.578125 55.875 
Q 39.703125 55.765625 41.0625 55.515625 
z
" id="DejaVuSans-114"/>
     <path d="M 11.71875 12.40625 
L 22.015625 12.40625 
L 22.015625 4 
L 14.015625 -11.625 
L 7.71875 -11.625 
L 11.71875 4 
z
" id="DejaVuSans-44"/>
     <path id="DejaVuSans-32"/>
     <path d="M 44.390625 34.1875 
Q 47.5625 33.109375 50.5625 29.59375 
Q 53.5625 26.078125 56.59375 19.921875 
L 66.609375 0 
L 56 0 
L 46.6875 18.703125 
Q 43.0625 26.03125 39.671875 28.421875 
Q 36.28125 30.8125 30.421875 30.8125 
L 19.671875 30.8125 
L 19.671875 0 
L 9.8125 0 
L 9.8125 72.90625 
L 32.078125 72.90625 
Q 44.578125 72.90625 50.734375 67.671875 
Q 56.890625 62.453125 56.890625 51.90625 
Q 56.890625 45.015625 53.6875 40.46875 
Q 50.484375 35.9375 44.390625 34.1875 
z
M 19.671875 64.796875 
L 19.671875 38.921875 
L 32.078125 38.921875 
Q 39.203125 38.921875 42.84375 42.21875 
Q 46.484375 45.515625 46.484375 51.90625 
Q 46.484375 58.296875 42.84375 61.546875 
Q 39.203125 64.796875 32.078125 64.796875 
z
" id="DejaVuSans-82"/>
     <path d="M 9.421875 54.6875 
L 18.40625 54.6875 
L 18.40625 0 
L 9.421875 0 
z
M 9.421875 75.984375 
L 18.40625 75.984375 
L 18.40625 64.59375 
L 9.421875 64.59375 
z
" id="DejaVuSans-105"/>
     <path d="M 45.40625 27.984375 
Q 45.40625 37.75 41.375 43.109375 
Q 37.359375 48.484375 30.078125 48.484375 
Q 22.859375 48.484375 18.828125 43.109375 
Q 14.796875 37.75 14.796875 27.984375 
Q 14.796875 18.265625 18.828125 12.890625 
Q 22.859375 7.515625 30.078125 7.515625 
Q 37.359375 7.515625 41.375 12.890625 
Q 45.40625 18.265625 45.40625 27.984375 
z
M 54.390625 6.78125 
Q 54.390625 -7.171875 48.1875 -13.984375 
Q 42 -20.796875 29.203125 -20.796875 
Q 24.46875 -20.796875 20.265625 -20.09375 
Q 16.0625 -19.390625 12.109375 -17.921875 
L 12.109375 -9.1875 
Q 16.0625 -11.328125 19.921875 -12.34375 
Q 23.78125 -13.375 27.78125 -13.375 
Q 36.625 -13.375 41.015625 -8.765625 
Q 45.40625 -4.15625 45.40625 5.171875 
L 45.40625 9.625 
Q 42.625 4.78125 38.28125 2.390625 
Q 33.9375 0 27.875 0 
Q 17.828125 0 11.671875 7.65625 
Q 5.515625 15.328125 5.515625 27.984375 
Q 5.515625 40.671875 11.671875 48.328125 
Q 17.828125 56 27.875 56 
Q 33.9375 56 38.28125 53.609375 
Q 42.625 51.21875 45.40625 46.390625 
L 45.40625 54.6875 
L 54.390625 54.6875 
z
" id="DejaVuSans-103"/>
     <path d="M 54.890625 33.015625 
L 54.890625 0 
L 45.90625 0 
L 45.90625 32.71875 
Q 45.90625 40.484375 42.875 44.328125 
Q 39.84375 48.1875 33.796875 48.1875 
Q 26.515625 48.1875 22.3125 43.546875 
Q 18.109375 38.921875 18.109375 30.90625 
L 18.109375 0 
L 9.078125 0 
L 9.078125 75.984375 
L 18.109375 75.984375 
L 18.109375 46.1875 
Q 21.34375 51.125 25.703125 53.5625 
Q 30.078125 56 35.796875 56 
Q 45.21875 56 50.046875 50.171875 
Q 54.890625 44.34375 54.890625 33.015625 
z
" id="DejaVuSans-104"/>
     <path d="M 32.171875 -5.078125 
Q 28.375 -14.84375 24.75 -17.8125 
Q 21.140625 -20.796875 15.09375 -20.796875 
L 7.90625 -20.796875 
L 7.90625 -13.28125 
L 13.1875 -13.28125 
Q 16.890625 -13.28125 18.9375 -11.515625 
Q 21 -9.765625 23.484375 -3.21875 
L 25.09375 0.875 
L 2.984375 54.6875 
L 12.5 54.6875 
L 29.59375 11.921875 
L 46.6875 54.6875 
L 56.203125 54.6875 
z
" id="DejaVuSans-121"/>
     <path d="M 9.8125 72.90625 
L 19.671875 72.90625 
L 19.671875 43.015625 
L 55.515625 43.015625 
L 55.515625 72.90625 
L 65.375 72.90625 
L 65.375 0 
L 55.515625 0 
L 55.515625 34.71875 
L 19.671875 34.71875 
L 19.671875 0 
L 9.8125 0 
z
" id="DejaVuSans-72"/>
     <path d="M 8.6875 72.90625 
L 18.609375 72.90625 
L 18.609375 28.609375 
Q 18.609375 16.890625 22.84375 11.734375 
Q 27.09375 6.59375 36.625 6.59375 
Q 46.09375 6.59375 50.34375 11.734375 
Q 54.59375 16.890625 54.59375 28.609375 
L 54.59375 72.90625 
L 64.5 72.90625 
L 64.5 27.390625 
Q 64.5 13.140625 57.4375 5.859375 
Q 50.390625 -1.421875 36.625 -1.421875 
Q 22.796875 -1.421875 15.734375 5.859375 
Q 8.6875 13.140625 8.6875 27.390625 
z
" id="DejaVuSans-85"/>
     <path d="M 52 44.1875 
Q 55.375 50.25 60.0625 53.125 
Q 64.75 56 71.09375 56 
Q 79.640625 56 84.28125 50.015625 
Q 88.921875 44.046875 88.921875 33.015625 
L 88.921875 0 
L 79.890625 0 
L 79.890625 32.71875 
Q 79.890625 40.578125 77.09375 44.375 
Q 74.3125 48.1875 68.609375 48.1875 
Q 61.625 48.1875 57.5625 43.546875 
Q 53.515625 38.921875 53.515625 30.90625 
L 53.515625 0 
L 44.484375 0 
L 44.484375 32.71875 
Q 44.484375 40.625 41.703125 44.40625 
Q 38.921875 48.1875 33.109375 48.1875 
Q 26.21875 48.1875 22.15625 43.53125 
Q 18.109375 38.875 18.109375 30.90625 
L 18.109375 0 
L 9.078125 0 
L 9.078125 54.6875 
L 18.109375 54.6875 
L 18.109375 46.1875 
Q 21.1875 51.21875 25.484375 53.609375 
Q 29.78125 56 35.6875 56 
Q 41.65625 56 45.828125 52.96875 
Q 50 49.953125 52 44.1875 
z
" id="DejaVuSans-109"/>
     <path d="M 18.109375 8.203125 
L 18.109375 -20.796875 
L 9.078125 -20.796875 
L 9.078125 54.6875 
L 18.109375 54.6875 
L 18.109375 46.390625 
Q 20.953125 51.265625 25.265625 53.625 
Q 29.59375 56 35.59375 56 
Q 45.5625 56 51.78125 48.09375 
Q 58.015625 40.1875 58.015625 27.296875 
Q 58.015625 14.40625 51.78125 6.484375 
Q 45.5625 -1.421875 35.59375 -1.421875 
Q 29.59375 -1.421875 25.265625 0.953125 
Q 20.953125 3.328125 18.109375 8.203125 
z
M 48.6875 27.296875 
Q 48.6875 37.203125 44.609375 42.84375 
Q 40.53125 48.484375 33.40625 48.484375 
Q 26.265625 48.484375 22.1875 42.84375 
Q 18.109375 37.203125 18.109375 27.296875 
Q 18.109375 17.390625 22.1875 11.75 
Q 26.265625 6.109375 33.40625 6.109375 
Q 40.53125 6.109375 44.609375 11.75 
Q 48.6875 17.390625 48.6875 27.296875 
z
" id="DejaVuSans-112"/>
     <path d="M 17.921875 72.90625 
L 17.921875 45.796875 
L 9.625 45.796875 
L 9.625 72.90625 
z
" id="DejaVuSans-39"/>
     <path d="M 44.28125 53.078125 
L 44.28125 44.578125 
Q 40.484375 46.53125 36.375 47.5 
Q 32.28125 48.484375 27.875 48.484375 
Q 21.1875 48.484375 17.84375 46.4375 
Q 14.5 44.390625 14.5 40.28125 
Q 14.5 37.15625 16.890625 35.375 
Q 19.28125 33.59375 26.515625 31.984375 
L 29.59375 31.296875 
Q 39.15625 29.25 43.1875 25.515625 
Q 47.21875 21.78125 47.21875 15.09375 
Q 47.21875 7.46875 41.1875 3.015625 
Q 35.15625 -1.421875 24.609375 -1.421875 
Q 20.21875 -1.421875 15.453125 -0.5625 
Q 10.6875 0.296875 5.421875 2 
L 5.421875 11.28125 
Q 10.40625 8.6875 15.234375 7.390625 
Q 20.0625 6.109375 24.8125 6.109375 
Q 31.15625 6.109375 34.5625 8.28125 
Q 37.984375 10.453125 37.984375 14.40625 
Q 37.984375 18.0625 35.515625 20.015625 
Q 33.0625 21.96875 24.703125 23.78125 
L 21.578125 24.515625 
Q 13.234375 26.265625 9.515625 29.90625 
Q 5.8125 33.546875 5.8125 39.890625 
Q 5.8125 47.609375 11.28125 51.796875 
Q 16.75 56 26.8125 56 
Q 31.78125 56 36.171875 55.265625 
Q 40.578125 54.546875 44.28125 53.078125 
z
" id="DejaVuSans-115"/>
     <path d="M 53.515625 70.515625 
L 53.515625 60.890625 
Q 47.90625 63.578125 42.921875 64.890625 
Q 37.9375 66.21875 33.296875 66.21875 
Q 25.25 66.21875 20.875 63.09375 
Q 16.5 59.96875 16.5 54.203125 
Q 16.5 49.359375 19.40625 46.890625 
Q 22.3125 44.4375 30.421875 42.921875 
L 36.375 41.703125 
Q 47.40625 39.59375 52.65625 34.296875 
Q 57.90625 29 57.90625 20.125 
Q 57.90625 9.515625 50.796875 4.046875 
Q 43.703125 -1.421875 29.984375 -1.421875 
Q 24.8125 -1.421875 18.96875 -0.25 
Q 13.140625 0.921875 6.890625 3.21875 
L 6.890625 13.375 
Q 12.890625 10.015625 18.65625 8.296875 
Q 24.421875 6.59375 29.984375 6.59375 
Q 38.421875 6.59375 43.015625 9.90625 
Q 47.609375 13.234375 47.609375 19.390625 
Q 47.609375 24.75 44.3125 27.78125 
Q 41.015625 30.8125 33.5 32.328125 
L 27.484375 33.5 
Q 16.453125 35.6875 11.515625 40.375 
Q 6.59375 45.0625 6.59375 53.421875 
Q 6.59375 63.09375 13.40625 68.65625 
Q 20.21875 74.21875 32.171875 74.21875 
Q 37.3125 74.21875 42.625 73.28125 
Q 47.953125 72.359375 53.515625 70.515625 
z
" id="DejaVuSans-83"/>
     <path d="M 9.078125 75.984375 
L 18.109375 75.984375 
L 18.109375 31.109375 
L 44.921875 54.6875 
L 56.390625 54.6875 
L 27.390625 29.109375 
L 57.625 0 
L 45.90625 0 
L 18.109375 26.703125 
L 18.109375 0 
L 9.078125 0 
z
" id="DejaVuSans-107"/>
     <path d="M 5.515625 54.6875 
L 48.1875 54.6875 
L 48.1875 46.484375 
L 14.40625 7.171875 
L 48.1875 7.171875 
L 48.1875 0 
L 4.296875 0 
L 4.296875 8.203125 
L 38.09375 47.515625 
L 5.515625 47.515625 
z
" id="DejaVuSans-122"/>
     <path d="M 30.609375 48.390625 
Q 23.390625 48.390625 19.1875 42.75 
Q 14.984375 37.109375 14.984375 27.296875 
Q 14.984375 17.484375 19.15625 11.84375 
Q 23.34375 6.203125 30.609375 6.203125 
Q 37.796875 6.203125 41.984375 11.859375 
Q 46.1875 17.53125 46.1875 27.296875 
Q 46.1875 37.015625 41.984375 42.703125 
Q 37.796875 48.390625 30.609375 48.390625 
z
M 30.609375 56 
Q 42.328125 56 49.015625 48.375 
Q 55.71875 40.765625 55.71875 27.296875 
Q 55.71875 13.875 49.015625 6.21875 
Q 42.328125 -1.421875 30.609375 -1.421875 
Q 18.84375 -1.421875 12.171875 6.21875 
Q 5.515625 13.875 5.515625 27.296875 
Q 5.515625 40.765625 12.171875 48.375 
Q 18.84375 56 30.609375 56 
z
" id="DejaVuSans-111"/>
     <path d="M 54.890625 33.015625 
L 54.890625 0 
L 45.90625 0 
L 45.90625 32.71875 
Q 45.90625 40.484375 42.875 44.328125 
Q 39.84375 48.1875 33.796875 48.1875 
Q 26.515625 48.1875 22.3125 43.546875 
Q 18.109375 38.921875 18.109375 30.90625 
L 18.109375 0 
L 9.078125 0 
L 9.078125 54.6875 
L 18.109375 54.6875 
L 18.109375 46.1875 
Q 21.34375 51.125 25.703125 53.5625 
Q 30.078125 56 35.796875 56 
Q 45.21875 56 50.046875 50.171875 
Q 54.890625 44.34375 54.890625 33.015625 
z
" id="DejaVuSans-110"/>
    </defs>
    <g transform="translate(108.365234 80.4)scale(0.25 -0.25)">
     <use xlink:href="#DejaVuSans-67"/>
     <use x="69.824219" xlink:href="#DejaVuSans-117"/>
     <use x="133.203125" xlink:href="#DejaVuSans-116"/>
     <use x="172.412109" xlink:href="#DejaVuSans-116"/>
     <use x="211.621094" xlink:href="#DejaVuSans-101"/>
     <use x="273.144531" xlink:href="#DejaVuSans-114"/>
     <use x="314.257812" xlink:href="#DejaVuSans-44"/>
     <use x="346.044922" xlink:href="#DejaVuSans-32"/>
     <use x="377.832031" xlink:href="#DejaVuSans-82"/>
     <use x="447.314453" xlink:href="#DejaVuSans-105"/>
     <use x="475.097656" xlink:href="#DejaVuSans-103"/>
     <use x="538.574219" xlink:href="#DejaVuSans-104"/>
     <use x="601.953125" xlink:href="#DejaVuSans-116"/>
     <use x="641.162109" xlink:href="#DejaVuSans-121"/>
     <use x="700.341797" xlink:href="#DejaVuSans-32"/>
     <use x="732.128906" xlink:href="#DejaVuSans-72"/>
     <use x="807.324219" xlink:href="#DejaVuSans-105"/>
     <use x="835.107422" xlink:href="#DejaVuSans-116"/>
     <use x="874.316406" xlink:href="#DejaVuSans-116"/>
     <use x="913.525391" xlink:href="#DejaVuSans-101"/>
     <use x="975.048828" xlink:href="#DejaVuSans-114"/>
     <use x="1016.162109" xlink:href="#DejaVuSans-44"/>
     <use x="1047.949219" xlink:href="#DejaVuSans-32"/>
     <use x="1079.736328" xlink:href="#DejaVuSans-85"/>
     <use x="1152.929688" xlink:href="#DejaVuSans-109"/>
     <use x="1250.341797" xlink:href="#DejaVuSans-112"/>
     <use x="1313.818359" xlink:href="#DejaVuSans-105"/>
     <use x="1341.601562" xlink:href="#DejaVuSans-114"/>
     <use x="1382.683594" xlink:href="#DejaVuSans-101"/>
     <use x="1444.207031" xlink:href="#DejaVuSans-39"/>
     <use x="1471.697266" xlink:href="#DejaVuSans-115"/>
     <use x="1523.796875" xlink:href="#DejaVuSans-32"/>
     <use x="1555.583984" xlink:href="#DejaVuSans-83"/>
     <use x="1619.060547" xlink:href="#DejaVuSans-116"/>
     <use x="1658.269531" xlink:href="#DejaVuSans-114"/>
     <use x="1699.382812" xlink:href="#DejaVuSans-105"/>
     <use x="1727.166016" xlink:href="#DejaVuSans-107"/>
     <use x="1785.029297" xlink:href="#DejaVuSans-101"/>
     <use x="1846.552734" xlink:href="#DejaVuSans-122"/>
     <use x="1899.042969" xlink:href="#DejaVuSans-111"/>
     <use x="1960.224609" xlink:href="#DejaVuSans-110"/>
     <use x="2023.603516" xlink:href="#DejaVuSans-101"/>
    </g>
   </g>
  </g>
 </g>
 <defs>
  <clipPath id="pa97db8a071">
   <rect height="543.6" width="558" x="90" y="86.4"/>
  </clipPath>
 </defs>
</svg>
