<?xml version="1.0" encoding="utf-8" standalone="no"?>
<!DOCTYPE svg PUBLIC "-//W3C//DTD SVG 1.1//EN"
  "http://www.w3.org/Graphics/SVG/1.1/DTD/svg11.dtd">
<!-- Created with matplotlib (https://matplotlib.org/) -->
<svg height="720pt" version="1.1" viewBox="0 0 720 720" width="720pt" xmlns="http://www.w3.org/2000/svg" xmlns:xlink="http://www.w3.org/1999/xlink">
 <defs>
  <style type="text/css">
*{stroke-linecap:butt;stroke-linejoin:round;}
  </style>
 </defs>
 <g id="figure_1">
  <g id="patch_1">
   <path d="M 0 720 
L 720 720 
L 720 0 
L 0 0 
z
" style="fill:#ffffff;"/>
  </g>
  <g id="axes_1">
   <g id="patch_2">
    <path d="M 90 630 
L 648 630 
L 648 86.4 
L 90 86.4 
z
" style="fill:#ffffff;"/>
   </g>
   <g id="matplotlib.axis_1"/>
   <g id="matplotlib.axis_2"/>
   <g id="patch_3">
    <path clip-path="url(#p9b68abf966)" d="M 234.15 297.8604 
L 324.0438 297.8604 
L 324.0438 177.07248 
L 234.15 177.07248 
z
" style="fill:#efcfbf;opacity:0.5;stroke:#000000;stroke-linejoin:miter;"/>
   </g>
   <g id="patch_4">
    <path clip-path="url(#p9b68abf966)" d="M 324.049938 297.8604 
L 413.943738 297.8604 
L 413.943738 177.07248 
L 324.049938 177.07248 
z
" style="fill:#f6a385;opacity:0.5;stroke:#000000;stroke-linejoin:miter;"/>
   </g>
   <g id="patch_5">
    <path clip-path="url(#p9b68abf966)" d="M 413.950062 297.8604 
L 503.843862 297.8604 
L 503.843862 177.07248 
L 413.950062 177.07248 
z
" style="fill:#90b2fe;opacity:0.5;stroke:#000000;stroke-linejoin:miter;"/>
   </g>
   <g id="patch_6">
    <path clip-path="url(#p9b68abf966)" d="M 234.15 418.7208 
L 324.0438 418.7208 
L 324.0438 297.93288 
L 234.15 297.93288 
z
" style="fill:#b8122a;opacity:0.5;stroke:#000000;stroke-linejoin:miter;"/>
   </g>
   <g id="patch_7">
    <path clip-path="url(#p9b68abf966)" d="M 324.049938 418.7208 
L 413.943738 418.7208 
L 413.943738 297.93288 
L 324.049938 297.93288 
z
" style="fill:#b70d28;opacity:0.5;stroke:#000000;stroke-linejoin:miter;"/>
   </g>
   <g id="patch_8">
    <path clip-path="url(#p9b68abf966)" d="M 413.950062 418.7208 
L 503.843862 418.7208 
L 503.843862 297.93288 
L 413.950062 297.93288 
z
" style="fill:#d85646;opacity:0.5;stroke:#000000;stroke-linejoin:miter;"/>
   </g>
   <g id="patch_9">
    <path clip-path="url(#p9b68abf966)" d="M 234.15 539.4 
L 324.0438 539.4 
L 324.0438 418.61208 
L 234.15 418.61208 
z
" style="fill:#eed0c0;opacity:0.5;stroke:#000000;stroke-linejoin:miter;"/>
   </g>
   <g id="patch_10">
    <path clip-path="url(#p9b68abf966)" d="M 324.049938 539.4 
L 413.943738 539.4 
L 413.943738 418.61208 
L 324.049938 418.61208 
z
" style="fill:#dddcdc;opacity:0.5;stroke:#000000;stroke-linejoin:miter;"/>
   </g>
   <g id="patch_11">
    <path clip-path="url(#p9b68abf966)" d="M 413.950062 539.4 
L 503.843862 539.4 
L 503.843862 418.61208 
L 413.950062 418.61208 
z
" style="fill:#688aef;opacity:0.5;stroke:#000000;stroke-linejoin:miter;"/>
   </g>
   <g id="LineCollection_1">
    <path clip-path="url(#p9b68abf966)" d="M 287.272727 531.959492 
L 304.181818 533.079853 
L 315.454545 533.186762 
L 338 532.608517 
L 388.727273 530.13279 
L 400 529.416191 
L 405.636364 528.989124 
L 416.909091 527.713564 
L 422.545455 526.886754 
L 433.818182 524.776566 
L 439.454545 523.327848 
L 448.400543 520.550336 
L 450.727273 519.790155 
L 456.363636 517.820849 
L 462 515.253017 
L 467.636364 512.564818 
L 473.272727 509.401781 
L 478.909091 505.800439 
L 484.545455 501.597994 
L 491.958497 495.012081 
L 495.818182 491.216181 
L 501.980538 484.067114 
L 507.250532 476.77047 
L 509.596097 473.122148 
L 512.727273 467.858693 
L 515.688462 462.177181 
L 518.363636 456.506839 
L 520.570982 451.232215 
L 521.946441 447.583893 
L 525.453463 436.638926 
L 526.470386 432.990604 
L 529.008407 422.045638 
L 530.296668 414.748993 
L 530.850128 411.100671 
L 532.510712 392.85906 
L 532.985684 381.914094 
L 533.059964 374.61745 
L 532.974196 367.320805 
L 532.478933 352.727517 
L 531.560411 338.134228 
L 530.574051 327.189262 
L 529.636364 318.697525 
L 528.785055 312.595973 
L 527.529861 305.299329 
L 526.163574 298.002685 
L 523.645025 287.057718 
L 519.3146 272.46443 
L 516.572775 265.167785 
L 515.090743 261.519463 
L 511.787641 254.222819 
L 510.008078 250.574497 
L 507.090909 245.181181 
L 505.976955 243.277852 
L 501.285521 235.981208 
L 495.694113 228.684564 
L 490.181818 222.38537 
L 489.168293 221.387919 
L 480.864204 214.091275 
L 476.490611 210.442953 
L 473.272727 208.123311 
L 467.636364 204.673733 
L 462 201.615124 
L 456.363636 198.958651 
L 448.89841 195.849664 
L 445.090909 194.451119 
L 437.876299 192.201342 
L 433.818182 191.09801 
L 428.181818 189.881405 
L 416.909091 187.893344 
L 411.272727 187.109787 
L 400 186.055975 
L 388.727273 185.216544 
L 349.272727 183.159351 
L 332.363636 182.441608 
L 321.090909 182.054069 
L 309.818182 182.002516 
L 298.545455 182.355566 
L 292.909091 182.66548 
L 281.636364 183.913853 
L 270.363636 185.770733 
L 264.727273 186.893686 
L 258.644542 188.55302 
L 253.454545 190.175727 
L 247.818182 192.32883 
L 242.181818 194.793297 
L 236.545455 197.740591 
L 230.909091 201.249307 
L 225.272727 205.1661 
L 218.566384 210.442953 
L 214 214.583977 
L 207.406952 221.387919 
L 202.727273 226.740876 
L 198.251084 232.332886 
L 195.642561 235.981208 
L 191.454545 242.118125 
L 188.485555 246.926174 
L 185.818182 251.50415 
L 182.474486 257.871141 
L 177.42098 268.816107 
L 174.495554 276.112752 
L 171.971946 283.409396 
L 169.701757 290.70604 
L 166.871734 301.651007 
L 165.326865 308.947651 
L 164.018855 316.244295 
L 163.272727 320.725465 
L 161.961196 330.837584 
L 161.171216 338.134228 
L 160.546256 345.430872 
L 159.646096 360.024161 
L 159.349237 370.969128 
L 159.361791 378.265772 
L 159.725058 389.210738 
L 160.648396 400.155705 
L 161.045588 403.804027 
L 162.778446 414.748993 
L 164.359012 422.045638 
L 166.300649 429.342282 
L 168.909091 437.516012 
L 171.33651 443.93557 
L 172.879742 447.583893 
L 176.276949 454.880537 
L 178.087344 458.528859 
L 182.160534 465.825503 
L 186.786879 473.122148 
L 191.995555 480.418792 
L 197.918205 487.715436 
L 202.727273 492.956552 
L 212.448146 502.308725 
L 214 503.645275 
L 219.636364 508.065541 
L 225.272727 512.042454 
L 230.909091 515.572741 
L 236.545455 518.607335 
L 242.181818 521.355707 
L 249.334023 524.198658 
L 253.454545 525.605993 
L 261.48096 527.84698 
L 264.727273 528.697328 
L 270.363636 529.853743 
L 276 530.810455 
L 281.798325 531.495302 
L 287.272727 531.959492 
L 287.272727 531.959492 
" style="fill:none;stroke:#000000;stroke-width:3;"/>
   </g>
   <g id="LineCollection_2">
    <path clip-path="url(#p9b68abf966)" d="M 287.272727 484.5778 
L 292.909091 485.118868 
L 304.181818 485.925337 
L 309.818182 486.173455 
L 315.454545 486.250252 
L 332.363636 485.79127 
L 338 485.220942 
L 349.272727 484.654977 
L 360.545455 483.629551 
L 366.181818 482.985621 
L 371.818182 482.490351 
L 377.454545 482.434904 
L 383.090909 481.898367 
L 388.727273 481.504681 
L 397.584627 480.418792 
L 411.272727 478.503475 
L 418.296349 476.77047 
L 422.545455 475.663325 
L 433.818182 472.171959 
L 439.694674 469.473826 
L 446.132439 465.825503 
L 451.851889 462.177181 
L 456.380319 458.528859 
L 462 453.489178 
L 464.118445 451.232215 
L 467.636364 446.828471 
L 469.454633 443.93557 
L 473.272727 438.325916 
L 475.914106 432.990604 
L 477.794164 429.342282 
L 479.335115 425.69396 
L 480.633521 422.045638 
L 481.628764 418.397315 
L 483.11114 411.100671 
L 483.845848 407.452349 
L 484.843871 403.804027 
L 485.766568 400.155705 
L 486.464537 396.507383 
L 486.898613 392.85906 
L 487.201532 385.562416 
L 487.598672 378.265772 
L 487.61687 367.320805 
L 487.274049 360.024161 
L 486.909901 356.375839 
L 486.494245 349.079195 
L 486.128259 345.430872 
L 485.56023 341.78255 
L 484.545455 332.732248 
L 483.617492 327.189262 
L 479.422282 308.947651 
L 478.909091 307.323004 
L 476.85337 301.651007 
L 474.28872 294.354362 
L 472.676648 290.70604 
L 470.753311 287.057718 
L 467.636364 281.677889 
L 461.145671 272.46443 
L 456.363636 267.230106 
L 454.271731 265.167785 
L 450.208711 261.519463 
L 445.090909 257.35836 
L 439.454545 253.731483 
L 432.811043 250.574497 
L 422.545455 246.386272 
L 410.694492 243.277852 
L 405.636364 242.312129 
L 394.363636 240.551681 
L 383.090909 239.412062 
L 354.909091 236.961093 
L 343.636364 235.883559 
L 338 235.343909 
L 326.727273 234.867772 
L 321.090909 234.886534 
L 315.454545 235.388717 
L 309.818182 235.09802 
L 304.181818 235.339207 
L 298.545455 235.229286 
L 292.909091 235.519357 
L 287.272727 236.314058 
L 276 238.768235 
L 270.363636 240.538083 
L 264.033522 243.277852 
L 253.454545 249.102792 
L 247.818182 253.158891 
L 246.643035 254.222819 
L 242.181818 258.490274 
L 236.219483 265.167785 
L 233.634291 268.816107 
L 230.909091 273.125583 
L 229.272543 276.112752 
L 227.414501 279.761074 
L 225.076946 283.409396 
L 223.437371 287.057718 
L 219.315604 298.002685 
L 218.359903 301.651007 
L 217.236328 305.299329 
L 214.35837 316.244295 
L 213.674075 319.892617 
L 212.548937 327.189262 
L 211.481292 334.485906 
L 211.098381 338.134228 
L 210.587993 341.78255 
L 209.604029 352.727517 
L 208.929098 363.672483 
L 208.650564 374.61745 
L 208.575983 378.265772 
L 209.085529 389.210738 
L 209.809638 396.507383 
L 211.508912 407.452349 
L 212.539076 411.100671 
L 214.812382 422.045638 
L 217.411677 429.342282 
L 220.397692 436.638926 
L 225.272727 445.728833 
L 226.502673 447.583893 
L 229.056566 451.232215 
L 230.909091 454.124158 
L 231.528051 454.880537 
L 238.213937 462.177181 
L 242.181818 465.95163 
L 247.818182 470.266009 
L 253.454545 473.70727 
L 259.703281 476.77047 
L 264.727273 479.036523 
L 270.363636 480.897713 
L 276 482.47384 
L 281.636364 483.80306 
L 287.272727 484.5778 
L 287.272727 484.5778 
" style="fill:none;stroke:#0000ff;stroke-width:3;"/>
   </g>
   <g id="line2d_1">
    <path clip-path="url(#p9b68abf966)" d="M 234.15 539.4 
L 234.15 177 
" style="fill:none;stroke:#ff0000;stroke-linecap:square;stroke-width:1.5;"/>
   </g>
   <g id="line2d_2">
    <path clip-path="url(#p9b68abf966)" d="M 503.85 539.4 
L 503.85 177 
" style="fill:none;stroke:#ff0000;stroke-linecap:square;stroke-width:1.5;"/>
   </g>
   <g id="line2d_3">
    <path clip-path="url(#p9b68abf966)" d="M 234.15 539.4 
L 503.85 539.4 
" style="fill:none;stroke:#ff0000;stroke-linecap:square;stroke-width:1.5;"/>
   </g>
   <g id="line2d_4">
    <path clip-path="url(#p9b68abf966)" d="M 234.15 177 
L 503.85 177 
" style="fill:none;stroke:#ff0000;stroke-linecap:square;stroke-width:1.5;"/>
   </g>
   <g id="text_1">
    <!-- Cutter, Leftie Hitter, Umpire's Strikezone -->
    <defs>
     <path d="M 64.40625 67.28125 
L 64.40625 56.890625 
Q 59.421875 61.53125 53.78125 63.8125 
Q 48.140625 66.109375 41.796875 66.109375 
Q 29.296875 66.109375 22.65625 58.46875 
Q 16.015625 50.828125 16.015625 36.375 
Q 16.015625 21.96875 22.65625 14.328125 
Q 29.296875 6.6875 41.796875 6.6875 
Q 48.140625 6.6875 53.78125 8.984375 
Q 59.421875 11.28125 64.40625 15.921875 
L 64.40625 5.609375 
Q 59.234375 2.09375 53.4375 0.328125 
Q 47.65625 -1.421875 41.21875 -1.421875 
Q 24.65625 -1.421875 15.125 8.703125 
Q 5.609375 18.84375 5.609375 36.375 
Q 5.609375 53.953125 15.125 64.078125 
Q 24.65625 74.21875 41.21875 74.21875 
Q 47.75 74.21875 53.53125 72.484375 
Q 59.328125 70.75 64.40625 67.28125 
z
" id="DejaVuSans-67"/>
     <path d="M 8.5 21.578125 
L 8.5 54.6875 
L 17.484375 54.6875 
L 17.484375 21.921875 
Q 17.484375 14.15625 20.5 10.265625 
Q 23.53125 6.390625 29.59375 6.390625 
Q 36.859375 6.390625 41.078125 11.03125 
Q 45.3125 15.671875 45.3125 23.6875 
L 45.3125 54.6875 
L 54.296875 54.6875 
L 54.296875 0 
L 45.3125 0 
L 45.3125 8.40625 
Q 42.046875 3.421875 37.71875 1 
Q 33.40625 -1.421875 27.6875 -1.421875 
Q 18.265625 -1.421875 13.375 4.4375 
Q 8.5 10.296875 8.5 21.578125 
z
M 31.109375 56 
z
" id="DejaVuSans-117"/>
     <path d="M 18.3125 70.21875 
L 18.3125 54.6875 
L 36.8125 54.6875 
L 36.8125 47.703125 
L 18.3125 47.703125 
L 18.3125 18.015625 
Q 18.3125 11.328125 20.140625 9.421875 
Q 21.96875 7.515625 27.59375 7.515625 
L 36.8125 7.515625 
L 36.8125 0 
L 27.59375 0 
Q 17.1875 0 13.234375 3.875 
Q 9.28125 7.765625 9.28125 18.015625 
L 9.28125 47.703125 
L 2.6875 47.703125 
L 2.6875 54.6875 
L 9.28125 54.6875 
L 9.28125 70.21875 
z
" id="DejaVuSans-116"/>
     <path d="M 56.203125 29.59375 
L 56.203125 25.203125 
L 14.890625 25.203125 
Q 15.484375 15.921875 20.484375 11.0625 
Q 25.484375 6.203125 34.421875 6.203125 
Q 39.59375 6.203125 44.453125 7.46875 
Q 49.3125 8.734375 54.109375 11.28125 
L 54.109375 2.78125 
Q 49.265625 0.734375 44.1875 -0.34375 
Q 39.109375 -1.421875 33.890625 -1.421875 
Q 20.796875 -1.421875 13.15625 6.1875 
Q 5.515625 13.8125 5.515625 26.8125 
Q 5.515625 40.234375 12.765625 48.109375 
Q 20.015625 56 32.328125 56 
Q 43.359375 56 49.78125 48.890625 
Q 56.203125 41.796875 56.203125 29.59375 
z
M 47.21875 32.234375 
Q 47.125 39.59375 43.09375 43.984375 
Q 39.0625 48.390625 32.421875 48.390625 
Q 24.90625 48.390625 20.390625 44.140625 
Q 15.875 39.890625 15.1875 32.171875 
z
" id="DejaVuSans-101"/>
     <path d="M 41.109375 46.296875 
Q 39.59375 47.171875 37.8125 47.578125 
Q 36.03125 48 33.890625 48 
Q 26.265625 48 22.1875 43.046875 
Q 18.109375 38.09375 18.109375 28.8125 
L 18.109375 0 
L 9.078125 0 
L 9.078125 54.6875 
L 18.109375 54.6875 
L 18.109375 46.1875 
Q 20.953125 51.171875 25.484375 53.578125 
Q 30.03125 56 36.53125 56 
Q 37.453125 56 38.578125 55.875 
Q 39.703125 55.765625 41.0625 55.515625 
z
" id="DejaVuSans-114"/>
     <path d="M 11.71875 12.40625 
L 22.015625 12.40625 
L 22.015625 4 
L 14.015625 -11.625 
L 7.71875 -11.625 
L 11.71875 4 
z
" id="DejaVuSans-44"/>
     <path id="DejaVuSans-32"/>
     <path d="M 9.8125 72.90625 
L 19.671875 72.90625 
L 19.671875 8.296875 
L 55.171875 8.296875 
L 55.171875 0 
L 9.8125 0 
z
" id="DejaVuSans-76"/>
     <path d="M 37.109375 75.984375 
L 37.109375 68.5 
L 28.515625 68.5 
Q 23.6875 68.5 21.796875 66.546875 
Q 19.921875 64.59375 19.921875 59.515625 
L 19.921875 54.6875 
L 34.71875 54.6875 
L 34.71875 47.703125 
L 19.921875 47.703125 
L 19.921875 0 
L 10.890625 0 
L 10.890625 47.703125 
L 2.296875 47.703125 
L 2.296875 54.6875 
L 10.890625 54.6875 
L 10.890625 58.5 
Q 10.890625 67.625 15.140625 71.796875 
Q 19.390625 75.984375 28.609375 75.984375 
z
" id="DejaVuSans-102"/>
     <path d="M 9.421875 54.6875 
L 18.40625 54.6875 
L 18.40625 0 
L 9.421875 0 
z
M 9.421875 75.984375 
L 18.40625 75.984375 
L 18.40625 64.59375 
L 9.421875 64.59375 
z
" id="DejaVuSans-105"/>
     <path d="M 9.8125 72.90625 
L 19.671875 72.90625 
L 19.671875 43.015625 
L 55.515625 43.015625 
L 55.515625 72.90625 
L 65.375 72.90625 
L 65.375 0 
L 55.515625 0 
L 55.515625 34.71875 
L 19.671875 34.71875 
L 19.671875 0 
L 9.8125 0 
z
" id="DejaVuSans-72"/>
     <path d="M 8.6875 72.90625 
L 18.609375 72.90625 
L 18.609375 28.609375 
Q 18.609375 16.890625 22.84375 11.734375 
Q 27.09375 6.59375 36.625 6.59375 
Q 46.09375 6.59375 50.34375 11.734375 
Q 54.59375 16.890625 54.59375 28.609375 
L 54.59375 72.90625 
L 64.5 72.90625 
L 64.5 27.390625 
Q 64.5 13.140625 57.4375 5.859375 
Q 50.390625 -1.421875 36.625 -1.421875 
Q 22.796875 -1.421875 15.734375 5.859375 
Q 8.6875 13.140625 8.6875 27.390625 
z
" id="DejaVuSans-85"/>
     <path d="M 52 44.1875 
Q 55.375 50.25 60.0625 53.125 
Q 64.75 56 71.09375 56 
Q 79.640625 56 84.28125 50.015625 
Q 88.921875 44.046875 88.921875 33.015625 
L 88.921875 0 
L 79.890625 0 
L 79.890625 32.71875 
Q 79.890625 40.578125 77.09375 44.375 
Q 74.3125 48.1875 68.609375 48.1875 
Q 61.625 48.1875 57.5625 43.546875 
Q 53.515625 38.921875 53.515625 30.90625 
L 53.515625 0 
L 44.484375 0 
L 44.484375 32.71875 
Q 44.484375 40.625 41.703125 44.40625 
Q 38.921875 48.1875 33.109375 48.1875 
Q 26.21875 48.1875 22.15625 43.53125 
Q 18.109375 38.875 18.109375 30.90625 
L 18.109375 0 
L 9.078125 0 
L 9.078125 54.6875 
L 18.109375 54.6875 
L 18.109375 46.1875 
Q 21.1875 51.21875 25.484375 53.609375 
Q 29.78125 56 35.6875 56 
Q 41.65625 56 45.828125 52.96875 
Q 50 49.953125 52 44.1875 
z
" id="DejaVuSans-109"/>
     <path d="M 18.109375 8.203125 
L 18.109375 -20.796875 
L 9.078125 -20.796875 
L 9.078125 54.6875 
L 18.109375 54.6875 
L 18.109375 46.390625 
Q 20.953125 51.265625 25.265625 53.625 
Q 29.59375 56 35.59375 56 
Q 45.5625 56 51.78125 48.09375 
Q 58.015625 40.1875 58.015625 27.296875 
Q 58.015625 14.40625 51.78125 6.484375 
Q 45.5625 -1.421875 35.59375 -1.421875 
Q 29.59375 -1.421875 25.265625 0.953125 
Q 20.953125 3.328125 18.109375 8.203125 
z
M 48.6875 27.296875 
Q 48.6875 37.203125 44.609375 42.84375 
Q 40.53125 48.484375 33.40625 48.484375 
Q 26.265625 48.484375 22.1875 42.84375 
Q 18.109375 37.203125 18.109375 27.296875 
Q 18.109375 17.390625 22.1875 11.75 
Q 26.265625 6.109375 33.40625 6.109375 
Q 40.53125 6.109375 44.609375 11.75 
Q 48.6875 17.390625 48.6875 27.296875 
z
" id="DejaVuSans-112"/>
     <path d="M 17.921875 72.90625 
L 17.921875 45.796875 
L 9.625 45.796875 
L 9.625 72.90625 
z
" id="DejaVuSans-39"/>
     <path d="M 44.28125 53.078125 
L 44.28125 44.578125 
Q 40.484375 46.53125 36.375 47.5 
Q 32.28125 48.484375 27.875 48.484375 
Q 21.1875 48.484375 17.84375 46.4375 
Q 14.5 44.390625 14.5 40.28125 
Q 14.5 37.15625 16.890625 35.375 
Q 19.28125 33.59375 26.515625 31.984375 
L 29.59375 31.296875 
Q 39.15625 29.25 43.1875 25.515625 
Q 47.21875 21.78125 47.21875 15.09375 
Q 47.21875 7.46875 41.1875 3.015625 
Q 35.15625 -1.421875 24.609375 -1.421875 
Q 20.21875 -1.421875 15.453125 -0.5625 
Q 10.6875 0.296875 5.421875 2 
L 5.421875 11.28125 
Q 10.40625 8.6875 15.234375 7.390625 
Q 20.0625 6.109375 24.8125 6.109375 
Q 31.15625 6.109375 34.5625 8.28125 
Q 37.984375 10.453125 37.984375 14.40625 
Q 37.984375 18.0625 35.515625 20.015625 
Q 33.0625 21.96875 24.703125 23.78125 
L 21.578125 24.515625 
Q 13.234375 26.265625 9.515625 29.90625 
Q 5.8125 33.546875 5.8125 39.890625 
Q 5.8125 47.609375 11.28125 51.796875 
Q 16.75 56 26.8125 56 
Q 31.78125 56 36.171875 55.265625 
Q 40.578125 54.546875 44.28125 53.078125 
z
" id="DejaVuSans-115"/>
     <path d="M 53.515625 70.515625 
L 53.515625 60.890625 
Q 47.90625 63.578125 42.921875 64.890625 
Q 37.9375 66.21875 33.296875 66.21875 
Q 25.25 66.21875 20.875 63.09375 
Q 16.5 59.96875 16.5 54.203125 
Q 16.5 49.359375 19.40625 46.890625 
Q 22.3125 44.4375 30.421875 42.921875 
L 36.375 41.703125 
Q 47.40625 39.59375 52.65625 34.296875 
Q 57.90625 29 57.90625 20.125 
Q 57.90625 9.515625 50.796875 4.046875 
Q 43.703125 -1.421875 29.984375 -1.421875 
Q 24.8125 -1.421875 18.96875 -0.25 
Q 13.140625 0.921875 6.890625 3.21875 
L 6.890625 13.375 
Q 12.890625 10.015625 18.65625 8.296875 
Q 24.421875 6.59375 29.984375 6.59375 
Q 38.421875 6.59375 43.015625 9.90625 
Q 47.609375 13.234375 47.609375 19.390625 
Q 47.609375 24.75 44.3125 27.78125 
Q 41.015625 30.8125 33.5 32.328125 
L 27.484375 33.5 
Q 16.453125 35.6875 11.515625 40.375 
Q 6.59375 45.0625 6.59375 53.421875 
Q 6.59375 63.09375 13.40625 68.65625 
Q 20.21875 74.21875 32.171875 74.21875 
Q 37.3125 74.21875 42.625 73.28125 
Q 47.953125 72.359375 53.515625 70.515625 
z
" id="DejaVuSans-83"/>
     <path d="M 9.078125 75.984375 
L 18.109375 75.984375 
L 18.109375 31.109375 
L 44.921875 54.6875 
L 56.390625 54.6875 
L 27.390625 29.109375 
L 57.625 0 
L 45.90625 0 
L 18.109375 26.703125 
L 18.109375 0 
L 9.078125 0 
z
" id="DejaVuSans-107"/>
     <path d="M 5.515625 54.6875 
L 48.1875 54.6875 
L 48.1875 46.484375 
L 14.40625 7.171875 
L 48.1875 7.171875 
L 48.1875 0 
L 4.296875 0 
L 4.296875 8.203125 
L 38.09375 47.515625 
L 5.515625 47.515625 
z
" id="DejaVuSans-122"/>
     <path d="M 30.609375 48.390625 
Q 23.390625 48.390625 19.1875 42.75 
Q 14.984375 37.109375 14.984375 27.296875 
Q 14.984375 17.484375 19.15625 11.84375 
Q 23.34375 6.203125 30.609375 6.203125 
Q 37.796875 6.203125 41.984375 11.859375 
Q 46.1875 17.53125 46.1875 27.296875 
Q 46.1875 37.015625 41.984375 42.703125 
Q 37.796875 48.390625 30.609375 48.390625 
z
M 30.609375 56 
Q 42.328125 56 49.015625 48.375 
Q 55.71875 40.765625 55.71875 27.296875 
Q 55.71875 13.875 49.015625 6.21875 
Q 42.328125 -1.421875 30.609375 -1.421875 
Q 18.84375 -1.421875 12.171875 6.21875 
Q 5.515625 13.875 5.515625 27.296875 
Q 5.515625 40.765625 12.171875 48.375 
Q 18.84375 56 30.609375 56 
z
" id="DejaVuSans-111"/>
     <path d="M 54.890625 33.015625 
L 54.890625 0 
L 45.90625 0 
L 45.90625 32.71875 
Q 45.90625 40.484375 42.875 44.328125 
Q 39.84375 48.1875 33.796875 48.1875 
Q 26.515625 48.1875 22.3125 43.546875 
Q 18.109375 38.921875 18.109375 30.90625 
L 18.109375 0 
L 9.078125 0 
L 9.078125 54.6875 
L 18.109375 54.6875 
L 18.109375 46.1875 
Q 21.34375 51.125 25.703125 53.5625 
Q 30.078125 56 35.796875 56 
Q 45.21875 56 50.046875 50.171875 
Q 54.890625 44.34375 54.890625 33.015625 
z
" id="DejaVuSans-110"/>
    </defs>
    <g transform="translate(113.5625 80.4)scale(0.25 -0.25)">
     <use xlink:href="#DejaVuSans-67"/>
     <use x="69.824219" xlink:href="#DejaVuSans-117"/>
     <use x="133.203125" xlink:href="#DejaVuSans-116"/>
     <use x="172.412109" xlink:href="#DejaVuSans-116"/>
     <use x="211.621094" xlink:href="#DejaVuSans-101"/>
     <use x="273.144531" xlink:href="#DejaVuSans-114"/>
     <use x="314.257812" xlink:href="#DejaVuSans-44"/>
     <use x="346.044922" xlink:href="#DejaVuSans-32"/>
     <use x="377.832031" xlink:href="#DejaVuSans-76"/>
     <use x="433.529297" xlink:href="#DejaVuSans-101"/>
     <use x="495.052734" xlink:href="#DejaVuSans-102"/>
     <use x="530.242188" xlink:href="#DejaVuSans-116"/>
     <use x="569.451172" xlink:href="#DejaVuSans-105"/>
     <use x="597.234375" xlink:href="#DejaVuSans-101"/>
     <use x="658.757812" xlink:href="#DejaVuSans-32"/>
     <use x="690.544922" xlink:href="#DejaVuSans-72"/>
     <use x="765.740234" xlink:href="#DejaVuSans-105"/>
     <use x="793.523438" xlink:href="#DejaVuSans-116"/>
     <use x="832.732422" xlink:href="#DejaVuSans-116"/>
     <use x="871.941406" xlink:href="#DejaVuSans-101"/>
     <use x="933.464844" xlink:href="#DejaVuSans-114"/>
     <use x="974.578125" xlink:href="#DejaVuSans-44"/>
     <use x="1006.365234" xlink:href="#DejaVuSans-32"/>
     <use x="1038.152344" xlink:href="#DejaVuSans-85"/>
     <use x="1111.345703" xlink:href="#DejaVuSans-109"/>
     <use x="1208.757812" xlink:href="#DejaVuSans-112"/>
     <use x="1272.234375" xlink:href="#DejaVuSans-105"/>
     <use x="1300.017578" xlink:href="#DejaVuSans-114"/>
     <use x="1341.099609" xlink:href="#DejaVuSans-101"/>
     <use x="1402.623047" xlink:href="#DejaVuSans-39"/>
     <use x="1430.113281" xlink:href="#DejaVuSans-115"/>
     <use x="1482.212891" xlink:href="#DejaVuSans-32"/>
     <use x="1514" xlink:href="#DejaVuSans-83"/>
     <use x="1577.476562" xlink:href="#DejaVuSans-116"/>
     <use x="1616.685547" xlink:href="#DejaVuSans-114"/>
     <use x="1657.798828" xlink:href="#DejaVuSans-105"/>
     <use x="1685.582031" xlink:href="#DejaVuSans-107"/>
     <use x="1743.445312" xlink:href="#DejaVuSans-101"/>
     <use x="1804.96875" xlink:href="#DejaVuSans-122"/>
     <use x="1857.458984" xlink:href="#DejaVuSans-111"/>
     <use x="1918.640625" xlink:href="#DejaVuSans-110"/>
     <use x="1982.019531" xlink:href="#DejaVuSans-101"/>
    </g>
   </g>
  </g>
 </g>
 <defs>
  <clipPath id="p9b68abf966">
   <rect height="543.6" width="558" x="90" y="86.4"/>
  </clipPath>
 </defs>
</svg>
