<?xml version="1.0" encoding="utf-8" standalone="no"?>
<!DOCTYPE svg PUBLIC "-//W3C//DTD SVG 1.1//EN"
  "http://www.w3.org/Graphics/SVG/1.1/DTD/svg11.dtd">
<!-- Created with matplotlib (https://matplotlib.org/) -->
<svg height="720pt" version="1.1" viewBox="0 0 720 720" width="720pt" xmlns="http://www.w3.org/2000/svg" xmlns:xlink="http://www.w3.org/1999/xlink">
 <defs>
  <style type="text/css">
*{stroke-linecap:butt;stroke-linejoin:round;}
  </style>
 </defs>
 <g id="figure_1">
  <g id="patch_1">
   <path d="M 0 720 
L 720 720 
L 720 0 
L 0 0 
z
" style="fill:#ffffff;"/>
  </g>
  <g id="axes_1">
   <g id="patch_2">
    <path d="M 90 630 
L 648 630 
L 648 86.4 
L 90 86.4 
z
" style="fill:#ffffff;"/>
   </g>
   <g id="patch_3">
    <path clip-path="url(#pd46255927b)" d="M 234.15 297.8604 
L 324.0438 297.8604 
L 324.0438 177.07248 
L 234.15 177.07248 
z
" style="fill:#c0d4f5;opacity:0.5;stroke:#000000;stroke-linejoin:miter;"/>
   </g>
   <g id="patch_4">
    <path clip-path="url(#pd46255927b)" d="M 324.049938 297.8604 
L 413.943738 297.8604 
L 413.943738 177.07248 
L 324.049938 177.07248 
z
" style="fill:#f7b396;opacity:0.5;stroke:#000000;stroke-linejoin:miter;"/>
   </g>
   <g id="patch_5">
    <path clip-path="url(#pd46255927b)" d="M 413.950062 297.8604 
L 503.843862 297.8604 
L 503.843862 177.07248 
L 413.950062 177.07248 
z
" style="fill:#abc8fd;opacity:0.5;stroke:#000000;stroke-linejoin:miter;"/>
   </g>
   <g id="patch_6">
    <path clip-path="url(#pd46255927b)" d="M 234.15 418.7208 
L 324.0438 418.7208 
L 324.0438 297.93288 
L 234.15 297.93288 
z
" style="fill:#c53334;opacity:0.5;stroke:#000000;stroke-linejoin:miter;"/>
   </g>
   <g id="patch_7">
    <path clip-path="url(#pd46255927b)" d="M 324.049938 418.7208 
L 413.943738 418.7208 
L 413.943738 297.93288 
L 324.049938 297.93288 
z
" style="fill:#b40426;opacity:0.5;stroke:#000000;stroke-linejoin:miter;"/>
   </g>
   <g id="patch_8">
    <path clip-path="url(#pd46255927b)" d="M 413.950062 418.7208 
L 503.843862 418.7208 
L 503.843862 297.93288 
L 413.950062 297.93288 
z
" style="fill:#cd423b;opacity:0.5;stroke:#000000;stroke-linejoin:miter;"/>
   </g>
   <g id="patch_9">
    <path clip-path="url(#pd46255927b)" d="M 234.15 539.4 
L 324.0438 539.4 
L 324.0438 418.61208 
L 234.15 418.61208 
z
" style="fill:#cfdaea;opacity:0.5;stroke:#000000;stroke-linejoin:miter;"/>
   </g>
   <g id="patch_10">
    <path clip-path="url(#pd46255927b)" d="M 324.049938 539.4 
L 413.943738 539.4 
L 413.943738 418.61208 
L 324.049938 418.61208 
z
" style="fill:#c5d6f2;opacity:0.5;stroke:#000000;stroke-linejoin:miter;"/>
   </g>
   <g id="patch_11">
    <path clip-path="url(#pd46255927b)" d="M 413.950062 539.4 
L 503.843862 539.4 
L 503.843862 418.61208 
L 413.950062 418.61208 
z
" style="fill:#8db0fe;opacity:0.5;stroke:#000000;stroke-linejoin:miter;"/>
   </g>
   <g id="matplotlib.axis_1"/>
   <g id="matplotlib.axis_2"/>
   <g id="LineCollection_1">
    <path clip-path="url(#pd46255927b)" d="M 326.727273 527.924711 
L 338 528.521884 
L 349.272727 528.792416 
L 360.545455 528.884351 
L 371.818182 528.857225 
L 383.090909 528.594718 
L 394.363636 528.023736 
L 400 527.663651 
L 405.636364 527.190761 
L 411.272727 526.573274 
L 422.545455 524.985275 
L 428.181818 523.983677 
L 442.861775 520.550336 
L 445.090909 519.963554 
L 456.363636 516.151663 
L 463.737362 513.253691 
L 467.636364 511.526218 
L 473.272727 508.684514 
L 478.909091 505.574521 
L 484.545455 502.046273 
L 490.181818 498.189292 
L 498.711917 491.363758 
L 502.698021 487.715436 
L 507.090909 483.376111 
L 512.727273 477.224966 
L 513.116385 476.77047 
L 518.363636 470.114137 
L 518.823878 469.473826 
L 525.931098 458.528859 
L 529.636364 452.068167 
L 531.893618 447.583893 
L 535.272727 440.102327 
L 538.032468 432.990604 
L 539.322399 429.342282 
L 541.596581 422.045638 
L 543.605931 414.748993 
L 545.266227 407.452349 
L 547.418231 396.507383 
L 548.93887 385.562416 
L 549.579029 378.265772 
L 550.280158 367.320805 
L 550.414561 360.024161 
L 550.253816 352.727517 
L 549.931732 345.430872 
L 549.674548 341.78255 
L 548.881276 334.485906 
L 547.363049 323.54094 
L 546.545455 318.74351 
L 545.237832 312.595973 
L 542.461919 301.651007 
L 540.208653 294.354362 
L 537.587817 287.057718 
L 534.665433 279.761074 
L 531.335207 272.46443 
L 529.534266 268.816107 
L 527.491668 265.167785 
L 524 259.498534 
L 522.896433 257.871141 
L 518.363636 250.501688 
L 515.879499 246.926174 
L 512.727273 242.729312 
L 510.088906 239.62953 
L 506.795927 235.981208 
L 499.75034 228.684564 
L 495.818182 224.987242 
L 490.181818 220.122863 
L 484.545455 215.9819 
L 478.909091 211.99547 
L 476.483812 210.442953 
L 473.272727 208.542255 
L 462 202.894832 
L 454.180244 199.497987 
L 450.727273 198.119886 
L 444.085055 195.849664 
L 439.454545 194.422933 
L 430.514539 192.201342 
L 428.181818 191.673611 
L 416.909091 189.602664 
L 409.242331 188.55302 
L 394.363636 187.127222 
L 388.727273 186.773519 
L 377.454545 186.358538 
L 366.181818 186.187438 
L 354.909091 186.211496 
L 343.636364 186.408322 
L 338 186.595797 
L 326.727273 187.278336 
L 315.454545 188.32855 
L 309.818182 189.09631 
L 304.181818 190.059727 
L 287.272727 193.664326 
L 281.636364 195.018863 
L 276 196.746324 
L 268.477592 199.497987 
L 253.454545 206.15219 
L 245.963799 210.442953 
L 242.181818 212.693061 
L 240.055154 214.091275 
L 234.894418 217.739597 
L 230.026866 221.387919 
L 221.374304 228.684564 
L 217.575555 232.332886 
L 213.890755 235.981208 
L 208.363636 242.059165 
L 207.327066 243.277852 
L 201.546369 250.574497 
L 196.366909 257.871141 
L 191.454545 265.711012 
L 187.735612 272.46443 
L 185.781356 276.112752 
L 184.035216 279.761074 
L 180.181818 288.67514 
L 178.018586 294.354362 
L 175.536876 301.651007 
L 174.389444 305.299329 
L 172.441366 312.595973 
L 170.756178 319.892617 
L 170.032906 323.54094 
L 168.382559 334.485906 
L 167.867938 338.134228 
L 167.195892 345.430872 
L 166.858555 352.727517 
L 166.743816 360.024161 
L 166.731006 363.672483 
L 167.028301 370.969128 
L 167.497544 378.265772 
L 169.431341 392.85906 
L 170.041862 396.507383 
L 171.570686 403.804027 
L 173.28894 411.100671 
L 175.298981 418.397315 
L 177.724573 425.69396 
L 180.494701 432.990604 
L 183.53591 440.287248 
L 185.818182 445.103545 
L 187.111431 447.583893 
L 191.302248 454.880537 
L 193.532647 458.528859 
L 198.559117 465.825503 
L 202.727273 471.175276 
L 208.363636 477.778367 
L 210.843433 480.418792 
L 214.533711 484.067114 
L 219.636364 488.826654 
L 225.272727 493.45962 
L 232.386567 498.660403 
L 237.85117 502.308725 
L 244.003773 505.957047 
L 247.818182 508.032496 
L 253.454545 510.829473 
L 259.090909 513.393794 
L 264.727273 515.544466 
L 280.13815 520.550336 
L 281.636364 520.976975 
L 292.909091 523.566363 
L 298.545455 524.565632 
L 309.818182 526.260759 
L 326.727273 527.924711 
L 326.727273 527.924711 
" style="fill:none;stroke:#000000;stroke-width:3;"/>
   </g>
   <g id="LineCollection_2">
    <path clip-path="url(#pd46255927b)" d="M 321.090909 477.419973 
L 326.727273 478.197731 
L 338 478.958675 
L 343.636364 479.500391 
L 349.272727 479.74583 
L 366.181818 479.894821 
L 371.818182 479.852523 
L 383.090909 479.436212 
L 394.363636 478.499861 
L 404.582739 476.77047 
L 405.636364 476.571884 
L 411.272727 475.898753 
L 416.909091 474.790639 
L 423.681164 473.122148 
L 433.818182 469.436729 
L 439.454545 467.165641 
L 445.090909 464.530047 
L 450.727273 461.077699 
L 456.363636 457.2386 
L 459.407686 454.880537 
L 462 452.632937 
L 463.339879 451.232215 
L 467.636364 447.371114 
L 470.353173 443.93557 
L 473.397189 440.287248 
L 478.947419 432.990604 
L 480.79078 429.342282 
L 482.926486 425.69396 
L 484.812883 422.045638 
L 490.181818 409.417462 
L 490.802559 407.452349 
L 494.68929 392.85906 
L 496.239183 385.562416 
L 496.864401 381.914094 
L 498.217483 363.672483 
L 498.362507 356.375839 
L 497.679341 345.430872 
L 497.348268 341.78255 
L 495.371206 330.837584 
L 494.840241 327.189262 
L 491.64486 316.244295 
L 487.533415 305.299329 
L 485.872305 301.651007 
L 483.565454 298.002685 
L 478.909091 288.292686 
L 478.009098 287.057718 
L 475.527161 283.409396 
L 472.679055 279.761074 
L 466.329337 272.46443 
L 462 268.613364 
L 456.363636 263.928049 
L 450.727273 260.00326 
L 445.090909 256.963369 
L 439.075419 254.222819 
L 431.858674 250.574497 
L 422.545455 246.871977 
L 416.909091 245.583434 
L 411.272727 244.473416 
L 405.636364 243.18155 
L 400 242.264587 
L 394.363636 241.829453 
L 388.727273 241.57211 
L 383.090909 240.715657 
L 377.454545 240.058763 
L 366.181818 239.89129 
L 360.545455 240.959419 
L 354.909091 241.155488 
L 349.272727 240.585356 
L 343.636364 240.44768 
L 338 240.945716 
L 332.363636 241.16334 
L 326.727273 241.691947 
L 321.090909 242.815159 
L 315.454545 243.532377 
L 309.818182 244.421559 
L 304.181818 245.833623 
L 298.545455 247.581997 
L 292.909091 249.533739 
L 287.272727 251.836047 
L 281.636364 254.337661 
L 275.670619 257.871141 
L 257.048856 272.46443 
L 252.984455 276.112752 
L 250.645631 279.761074 
L 247.818182 283.678393 
L 245.017845 287.057718 
L 242.181818 290.903167 
L 235.993868 301.651007 
L 232.576059 308.947651 
L 230.909091 313.404793 
L 227.722019 323.54094 
L 225.820086 330.837584 
L 225.272727 334.632065 
L 224.761355 341.78255 
L 223.592935 349.079195 
L 223.32454 352.727517 
L 223.219505 360.024161 
L 223.199372 367.320805 
L 223.441409 370.969128 
L 224.672125 381.914094 
L 225.272727 386.266049 
L 225.909597 389.210738 
L 227.077561 392.85906 
L 228.98732 400.155705 
L 229.910072 403.804027 
L 230.997727 407.452349 
L 232.327615 411.100671 
L 236.545455 419.792567 
L 237.716158 422.045638 
L 241.119497 429.342282 
L 242.181818 430.959372 
L 243.741466 432.990604 
L 246.106439 436.638926 
L 247.818182 438.94103 
L 248.99834 440.287248 
L 253.454545 445.79732 
L 255.302611 447.583893 
L 259.480762 451.232215 
L 264.727273 455.338405 
L 270.363636 459.128993 
L 287.272727 468.629375 
L 289.116745 469.473826 
L 292.909091 470.979978 
L 299.709171 473.122148 
L 304.181818 474.313711 
L 309.818182 475.589631 
L 317.385807 476.77047 
L 321.090909 477.419973 
L 321.090909 477.419973 
" style="fill:none;stroke:#0000ff;stroke-width:3;"/>
   </g>
   <g id="line2d_1">
    <path clip-path="url(#pd46255927b)" d="M 234.15 539.4 
L 234.15 177 
" style="fill:none;stroke:#ff0000;stroke-linecap:square;stroke-width:1.5;"/>
   </g>
   <g id="line2d_2">
    <path clip-path="url(#pd46255927b)" d="M 503.85 539.4 
L 503.85 177 
" style="fill:none;stroke:#ff0000;stroke-linecap:square;stroke-width:1.5;"/>
   </g>
   <g id="line2d_3">
    <path clip-path="url(#pd46255927b)" d="M 234.15 539.4 
L 503.85 539.4 
" style="fill:none;stroke:#ff0000;stroke-linecap:square;stroke-width:1.5;"/>
   </g>
   <g id="line2d_4">
    <path clip-path="url(#pd46255927b)" d="M 234.15 177 
L 503.85 177 
" style="fill:none;stroke:#ff0000;stroke-linecap:square;stroke-width:1.5;"/>
   </g>
   <g id="text_1">
    <!-- Extra Innings -->
    <defs>
     <path d="M 9.8125 72.90625 
L 55.90625 72.90625 
L 55.90625 64.59375 
L 19.671875 64.59375 
L 19.671875 43.015625 
L 54.390625 43.015625 
L 54.390625 34.71875 
L 19.671875 34.71875 
L 19.671875 8.296875 
L 56.78125 8.296875 
L 56.78125 0 
L 9.8125 0 
z
" id="DejaVuSans-69"/>
     <path d="M 54.890625 54.6875 
L 35.109375 28.078125 
L 55.90625 0 
L 45.3125 0 
L 29.390625 21.484375 
L 13.484375 0 
L 2.875 0 
L 24.125 28.609375 
L 4.6875 54.6875 
L 15.28125 54.6875 
L 29.78125 35.203125 
L 44.28125 54.6875 
z
" id="DejaVuSans-120"/>
     <path d="M 18.3125 70.21875 
L 18.3125 54.6875 
L 36.8125 54.6875 
L 36.8125 47.703125 
L 18.3125 47.703125 
L 18.3125 18.015625 
Q 18.3125 11.328125 20.140625 9.421875 
Q 21.96875 7.515625 27.59375 7.515625 
L 36.8125 7.515625 
L 36.8125 0 
L 27.59375 0 
Q 17.1875 0 13.234375 3.875 
Q 9.28125 7.765625 9.28125 18.015625 
L 9.28125 47.703125 
L 2.6875 47.703125 
L 2.6875 54.6875 
L 9.28125 54.6875 
L 9.28125 70.21875 
z
" id="DejaVuSans-116"/>
     <path d="M 41.109375 46.296875 
Q 39.59375 47.171875 37.8125 47.578125 
Q 36.03125 48 33.890625 48 
Q 26.265625 48 22.1875 43.046875 
Q 18.109375 38.09375 18.109375 28.8125 
L 18.109375 0 
L 9.078125 0 
L 9.078125 54.6875 
L 18.109375 54.6875 
L 18.109375 46.1875 
Q 20.953125 51.171875 25.484375 53.578125 
Q 30.03125 56 36.53125 56 
Q 37.453125 56 38.578125 55.875 
Q 39.703125 55.765625 41.0625 55.515625 
z
" id="DejaVuSans-114"/>
     <path d="M 34.28125 27.484375 
Q 23.390625 27.484375 19.1875 25 
Q 14.984375 22.515625 14.984375 16.5 
Q 14.984375 11.71875 18.140625 8.90625 
Q 21.296875 6.109375 26.703125 6.109375 
Q 34.1875 6.109375 38.703125 11.40625 
Q 43.21875 16.703125 43.21875 25.484375 
L 43.21875 27.484375 
z
M 52.203125 31.203125 
L 52.203125 0 
L 43.21875 0 
L 43.21875 8.296875 
Q 40.140625 3.328125 35.546875 0.953125 
Q 30.953125 -1.421875 24.3125 -1.421875 
Q 15.921875 -1.421875 10.953125 3.296875 
Q 6 8.015625 6 15.921875 
Q 6 25.140625 12.171875 29.828125 
Q 18.359375 34.515625 30.609375 34.515625 
L 43.21875 34.515625 
L 43.21875 35.40625 
Q 43.21875 41.609375 39.140625 45 
Q 35.0625 48.390625 27.6875 48.390625 
Q 23 48.390625 18.546875 47.265625 
Q 14.109375 46.140625 10.015625 43.890625 
L 10.015625 52.203125 
Q 14.9375 54.109375 19.578125 55.046875 
Q 24.21875 56 28.609375 56 
Q 40.484375 56 46.34375 49.84375 
Q 52.203125 43.703125 52.203125 31.203125 
z
" id="DejaVuSans-97"/>
     <path id="DejaVuSans-32"/>
     <path d="M 9.8125 72.90625 
L 19.671875 72.90625 
L 19.671875 0 
L 9.8125 0 
z
" id="DejaVuSans-73"/>
     <path d="M 54.890625 33.015625 
L 54.890625 0 
L 45.90625 0 
L 45.90625 32.71875 
Q 45.90625 40.484375 42.875 44.328125 
Q 39.84375 48.1875 33.796875 48.1875 
Q 26.515625 48.1875 22.3125 43.546875 
Q 18.109375 38.921875 18.109375 30.90625 
L 18.109375 0 
L 9.078125 0 
L 9.078125 54.6875 
L 18.109375 54.6875 
L 18.109375 46.1875 
Q 21.34375 51.125 25.703125 53.5625 
Q 30.078125 56 35.796875 56 
Q 45.21875 56 50.046875 50.171875 
Q 54.890625 44.34375 54.890625 33.015625 
z
" id="DejaVuSans-110"/>
     <path d="M 9.421875 54.6875 
L 18.40625 54.6875 
L 18.40625 0 
L 9.421875 0 
z
M 9.421875 75.984375 
L 18.40625 75.984375 
L 18.40625 64.59375 
L 9.421875 64.59375 
z
" id="DejaVuSans-105"/>
     <path d="M 45.40625 27.984375 
Q 45.40625 37.75 41.375 43.109375 
Q 37.359375 48.484375 30.078125 48.484375 
Q 22.859375 48.484375 18.828125 43.109375 
Q 14.796875 37.75 14.796875 27.984375 
Q 14.796875 18.265625 18.828125 12.890625 
Q 22.859375 7.515625 30.078125 7.515625 
Q 37.359375 7.515625 41.375 12.890625 
Q 45.40625 18.265625 45.40625 27.984375 
z
M 54.390625 6.78125 
Q 54.390625 -7.171875 48.1875 -13.984375 
Q 42 -20.796875 29.203125 -20.796875 
Q 24.46875 -20.796875 20.265625 -20.09375 
Q 16.0625 -19.390625 12.109375 -17.921875 
L 12.109375 -9.1875 
Q 16.0625 -11.328125 19.921875 -12.34375 
Q 23.78125 -13.375 27.78125 -13.375 
Q 36.625 -13.375 41.015625 -8.765625 
Q 45.40625 -4.15625 45.40625 5.171875 
L 45.40625 9.625 
Q 42.625 4.78125 38.28125 2.390625 
Q 33.9375 0 27.875 0 
Q 17.828125 0 11.671875 7.65625 
Q 5.515625 15.328125 5.515625 27.984375 
Q 5.515625 40.671875 11.671875 48.328125 
Q 17.828125 56 27.875 56 
Q 33.9375 56 38.28125 53.609375 
Q 42.625 51.21875 45.40625 46.390625 
L 45.40625 54.6875 
L 54.390625 54.6875 
z
" id="DejaVuSans-103"/>
     <path d="M 44.28125 53.078125 
L 44.28125 44.578125 
Q 40.484375 46.53125 36.375 47.5 
Q 32.28125 48.484375 27.875 48.484375 
Q 21.1875 48.484375 17.84375 46.4375 
Q 14.5 44.390625 14.5 40.28125 
Q 14.5 37.15625 16.890625 35.375 
Q 19.28125 33.59375 26.515625 31.984375 
L 29.59375 31.296875 
Q 39.15625 29.25 43.1875 25.515625 
Q 47.21875 21.78125 47.21875 15.09375 
Q 47.21875 7.46875 41.1875 3.015625 
Q 35.15625 -1.421875 24.609375 -1.421875 
Q 20.21875 -1.421875 15.453125 -0.5625 
Q 10.6875 0.296875 5.421875 2 
L 5.421875 11.28125 
Q 10.40625 8.6875 15.234375 7.390625 
Q 20.0625 6.109375 24.8125 6.109375 
Q 31.15625 6.109375 34.5625 8.28125 
Q 37.984375 10.453125 37.984375 14.40625 
Q 37.984375 18.0625 35.515625 20.015625 
Q 33.0625 21.96875 24.703125 23.78125 
L 21.578125 24.515625 
Q 13.234375 26.265625 9.515625 29.90625 
Q 5.8125 33.546875 5.8125 39.890625 
Q 5.8125 47.609375 11.28125 51.796875 
Q 16.75 56 26.8125 56 
Q 31.78125 56 36.171875 55.265625 
Q 40.578125 54.546875 44.28125 53.078125 
z
" id="DejaVuSans-115"/>
    </defs>
    <g transform="translate(289.951875 80.4)scale(0.24 -0.24)">
     <use xlink:href="#DejaVuSans-69"/>
     <use x="63.183594" xlink:href="#DejaVuSans-120"/>
     <use x="122.363281" xlink:href="#DejaVuSans-116"/>
     <use x="161.572266" xlink:href="#DejaVuSans-114"/>
     <use x="202.685547" xlink:href="#DejaVuSans-97"/>
     <use x="263.964844" xlink:href="#DejaVuSans-32"/>
     <use x="295.751953" xlink:href="#DejaVuSans-73"/>
     <use x="325.244141" xlink:href="#DejaVuSans-110"/>
     <use x="388.623047" xlink:href="#DejaVuSans-110"/>
     <use x="452.001953" xlink:href="#DejaVuSans-105"/>
     <use x="479.785156" xlink:href="#DejaVuSans-110"/>
     <use x="543.164062" xlink:href="#DejaVuSans-103"/>
     <use x="606.640625" xlink:href="#DejaVuSans-115"/>
    </g>
   </g>
  </g>
 </g>
 <defs>
  <clipPath id="pd46255927b">
   <rect height="543.6" width="558" x="90" y="86.4"/>
  </clipPath>
 </defs>
</svg>
