<?xml version="1.0" encoding="utf-8" standalone="no"?>
<!DOCTYPE svg PUBLIC "-//W3C//DTD SVG 1.1//EN"
  "http://www.w3.org/Graphics/SVG/1.1/DTD/svg11.dtd">
<!-- Created with matplotlib (https://matplotlib.org/) -->
<svg height="720pt" version="1.1" viewBox="0 0 720 720" width="720pt" xmlns="http://www.w3.org/2000/svg" xmlns:xlink="http://www.w3.org/1999/xlink">
 <defs>
  <style type="text/css">
*{stroke-linecap:butt;stroke-linejoin:round;}
  </style>
 </defs>
 <g id="figure_1">
  <g id="patch_1">
   <path d="M 0 720 
L 720 720 
L 720 0 
L 0 0 
z
" style="fill:#ffffff;"/>
  </g>
  <g id="axes_1">
   <g id="patch_2">
    <path d="M 90 630 
L 648 630 
L 648 86.4 
L 90 86.4 
z
" style="fill:#ffffff;"/>
   </g>
   <g id="patch_3">
    <path clip-path="url(#p3590599bea)" d="M 234.15 297.8604 
L 324.0438 297.8604 
L 324.0438 177.07248 
L 234.15 177.07248 
z
" style="fill:#ead5c9;opacity:0.5;stroke:#000000;stroke-linejoin:miter;"/>
   </g>
   <g id="patch_4">
    <path clip-path="url(#p3590599bea)" d="M 324.049938 297.8604 
L 413.943738 297.8604 
L 413.943738 177.07248 
L 324.049938 177.07248 
z
" style="fill:#f7af91;opacity:0.5;stroke:#000000;stroke-linejoin:miter;"/>
   </g>
   <g id="patch_5">
    <path clip-path="url(#p3590599bea)" d="M 413.950062 297.8604 
L 503.843862 297.8604 
L 503.843862 177.07248 
L 413.950062 177.07248 
z
" style="fill:#c7d7f0;opacity:0.5;stroke:#000000;stroke-linejoin:miter;"/>
   </g>
   <g id="patch_6">
    <path clip-path="url(#p3590599bea)" d="M 234.15 418.7208 
L 324.0438 418.7208 
L 324.0438 297.93288 
L 234.15 297.93288 
z
" style="fill:#c0282f;opacity:0.5;stroke:#000000;stroke-linejoin:miter;"/>
   </g>
   <g id="patch_7">
    <path clip-path="url(#p3590599bea)" d="M 324.049938 418.7208 
L 413.943738 418.7208 
L 413.943738 297.93288 
L 324.049938 297.93288 
z
" style="fill:#b50927;opacity:0.5;stroke:#000000;stroke-linejoin:miter;"/>
   </g>
   <g id="patch_8">
    <path clip-path="url(#p3590599bea)" d="M 413.950062 418.7208 
L 503.843862 418.7208 
L 503.843862 297.93288 
L 413.950062 297.93288 
z
" style="fill:#d75445;opacity:0.5;stroke:#000000;stroke-linejoin:miter;"/>
   </g>
   <g id="patch_9">
    <path clip-path="url(#p3590599bea)" d="M 234.15 539.4 
L 324.0438 539.4 
L 324.0438 418.61208 
L 234.15 418.61208 
z
" style="fill:#c5d6f2;opacity:0.5;stroke:#000000;stroke-linejoin:miter;"/>
   </g>
   <g id="patch_10">
    <path clip-path="url(#p3590599bea)" d="M 324.049938 539.4 
L 413.943738 539.4 
L 413.943738 418.61208 
L 324.049938 418.61208 
z
" style="fill:#d2dbe8;opacity:0.5;stroke:#000000;stroke-linejoin:miter;"/>
   </g>
   <g id="patch_11">
    <path clip-path="url(#p3590599bea)" d="M 413.950062 539.4 
L 503.843862 539.4 
L 503.843862 418.61208 
L 413.950062 418.61208 
z
" style="fill:#9ebeff;opacity:0.5;stroke:#000000;stroke-linejoin:miter;"/>
   </g>
   <g id="matplotlib.axis_1"/>
   <g id="matplotlib.axis_2"/>
   <g id="LineCollection_1">
    <path clip-path="url(#p3590599bea)" d="M 292.909091 528.227007 
L 298.545455 528.86984 
L 304.181818 529.341869 
L 309.818182 529.661914 
L 315.454545 529.842843 
L 326.727273 529.853874 
L 338 529.484269 
L 349.272727 528.849318 
L 371.818182 527.220906 
L 383.090909 526.457678 
L 400 525.57728 
L 416.909091 524.629901 
L 428.181818 523.692394 
L 433.818182 523.064675 
L 439.454545 522.304517 
L 445.090909 521.399892 
L 450.727273 520.312975 
L 456.363636 519.004822 
L 463.87395 516.902013 
L 467.636364 515.69071 
L 474.12391 513.253691 
L 478.909091 511.177132 
L 484.545455 508.367359 
L 490.181818 505.114661 
L 495.818182 501.351645 
L 501.454545 497.008467 
L 507.090909 492.010411 
L 507.756329 491.363758 
L 512.727273 486.182289 
L 514.560445 484.067114 
L 518.363636 479.374107 
L 520.272017 476.77047 
L 524 471.26163 
L 525.107949 469.473826 
L 529.218577 462.177181 
L 531.026369 458.528859 
L 534.248693 451.232215 
L 535.690284 447.583893 
L 538.187808 440.287248 
L 540.328371 432.990604 
L 541.267158 429.342282 
L 542.873896 422.045638 
L 544.209691 414.748993 
L 545.312273 407.452349 
L 546.213817 400.155705 
L 546.935166 392.85906 
L 547.747156 381.914094 
L 548.347923 370.969128 
L 548.769775 360.024161 
L 548.952266 349.079195 
L 548.90801 341.78255 
L 548.707823 334.485906 
L 548.331587 327.189262 
L 547.758706 319.892617 
L 546.966939 312.595973 
L 545.908207 305.299329 
L 544.585337 298.002685 
L 542.979548 290.70604 
L 540.909091 282.90615 
L 538.724595 276.112752 
L 536.039637 268.816107 
L 534.514097 265.167785 
L 531.098782 257.871141 
L 529.201696 254.222819 
L 524.959231 246.926174 
L 522.580311 243.277852 
L 518.363636 237.310368 
L 514.393173 232.332886 
L 511.248741 228.684564 
L 507.090909 224.244685 
L 501.454545 218.915315 
L 495.634955 214.091275 
L 490.181818 210.152169 
L 484.545455 206.60125 
L 478.096938 203.146309 
L 473.272727 200.897827 
L 467.636364 198.610099 
L 462 196.659172 
L 456.363636 194.988562 
L 450.727273 193.583639 
L 444.075206 192.201342 
L 439.454545 191.39585 
L 433.818182 190.578265 
L 428.181818 189.90094 
L 416.909091 188.872291 
L 405.636364 188.148819 
L 383.090909 186.894444 
L 366.181818 185.619045 
L 349.272727 184.306148 
L 338 183.625047 
L 326.727273 183.227801 
L 321.090909 183.170824 
L 315.454545 183.239445 
L 309.818182 183.434491 
L 304.181818 183.775652 
L 298.545455 184.28889 
L 292.909091 184.974874 
L 287.272727 185.882801 
L 281.636364 187.000113 
L 275.292238 188.55302 
L 270.363636 189.979649 
L 263.804946 192.201342 
L 259.090909 194.014297 
L 253.454545 196.434126 
L 247.157224 199.497987 
L 240.534294 203.146309 
L 234.587105 206.794631 
L 229.195745 210.442953 
L 224.254288 214.091275 
L 219.636364 217.792288 
L 214 222.759722 
L 208.363636 228.245721 
L 204.557 232.332886 
L 201.363189 235.981208 
L 197.090909 241.288361 
L 192.995395 246.926174 
L 190.546695 250.574497 
L 186.149292 257.871141 
L 184.190492 261.519463 
L 180.651295 268.816107 
L 179.080356 272.46443 
L 176.292011 279.761074 
L 173.90361 287.057718 
L 171.932429 294.354362 
L 170.296595 301.651007 
L 168.909091 309.276347 
L 167.933424 316.244295 
L 167.169624 323.54094 
L 166.638793 330.837584 
L 166.317363 338.134228 
L 166.183588 345.430872 
L 166.212134 352.727517 
L 166.516417 363.672483 
L 167.063185 374.61745 
L 167.805922 385.562416 
L 168.822162 396.507383 
L 169.731074 403.804027 
L 170.848989 411.100671 
L 172.20904 418.397315 
L 173.852359 425.69396 
L 174.802386 429.342282 
L 177.001026 436.638926 
L 179.576878 443.93557 
L 181.053829 447.583893 
L 184.375879 454.880537 
L 186.237833 458.528859 
L 188.278534 462.177181 
L 191.454545 467.398274 
L 192.826931 469.473826 
L 197.090909 475.415506 
L 198.143781 476.77047 
L 202.727273 482.247455 
L 204.37937 484.067114 
L 208.363636 488.197552 
L 214 493.408254 
L 215.883241 495.012081 
L 220.422673 498.660403 
L 225.394595 502.308725 
L 230.909091 505.971218 
L 236.979294 509.605369 
L 243.83721 513.253691 
L 247.818182 515.18954 
L 253.454545 517.688045 
L 260.869522 520.550336 
L 264.727273 521.888888 
L 272.512498 524.198658 
L 276 525.111714 
L 281.636364 526.361694 
L 290.292091 527.84698 
L 292.909091 528.227007 
L 292.909091 528.227007 
" style="fill:none;stroke:#000000;stroke-width:3;"/>
   </g>
   <g id="LineCollection_2">
    <path clip-path="url(#p3590599bea)" d="M 298.545455 480.811577 
L 304.181818 481.568112 
L 309.818182 482.097518 
L 315.454545 482.400612 
L 321.090909 482.499126 
L 326.727273 482.415607 
L 332.363636 482.176623 
L 343.636364 481.332103 
L 354.909091 480.139683 
L 377.454545 477.295037 
L 394.363636 475.549438 
L 411.272727 473.992742 
L 418.794461 473.122148 
L 422.545455 472.566204 
L 428.181818 471.574613 
L 433.818182 470.402794 
L 439.454545 468.965538 
L 445.090909 467.138641 
L 450.727273 464.943498 
L 456.535568 462.177181 
L 462.56671 458.528859 
L 467.636364 454.811387 
L 473.272727 449.590015 
L 478.124523 443.93557 
L 478.909091 442.964612 
L 480.732705 440.287248 
L 484.545455 434.242393 
L 486.901342 429.342282 
L 490.181818 421.810992 
L 492.345489 414.748993 
L 494.285995 407.452349 
L 495.910333 400.155705 
L 496.998801 392.85906 
L 497.901196 385.562416 
L 498.976923 374.61745 
L 499.794406 363.672483 
L 500.148794 356.375839 
L 500.299479 345.430872 
L 500.094106 338.134228 
L 499.609463 330.837584 
L 498.821548 323.54094 
L 497.718694 316.244295 
L 496.296485 308.947651 
L 495.379598 305.299329 
L 493.000079 298.002685 
L 490.181818 290.467832 
L 486.491595 283.409396 
L 484.477449 279.761074 
L 478.909091 272.096168 
L 473.272727 266.07988 
L 472.254077 265.167785 
L 467.636364 261.2412 
L 462 257.358626 
L 456.363636 254.147097 
L 450.727273 251.584662 
L 445.090909 249.455802 
L 439.454545 247.67707 
L 433.818182 246.248027 
L 428.181818 245.131313 
L 422.545455 244.152263 
L 416.625164 243.277852 
L 405.636364 242.155621 
L 388.727273 240.659193 
L 377.454545 239.390291 
L 366.181818 238.015761 
L 349.272727 235.866732 
L 338 234.830022 
L 332.363636 234.453578 
L 326.727273 234.210707 
L 321.090909 234.126119 
L 315.454545 234.225913 
L 309.818182 234.533694 
L 304.181818 235.064541 
L 297.848164 235.981208 
L 292.909091 236.990259 
L 287.272727 238.456031 
L 281.636364 240.221861 
L 274.306755 243.277852 
L 270.363636 245.235051 
L 264.727273 248.516031 
L 259.090909 252.394315 
L 253.454545 256.954329 
L 252.460487 257.871141 
L 247.818182 262.389863 
L 242.181818 268.948506 
L 236.545455 277.088622 
L 233.06224 283.409396 
L 230.909091 287.525699 
L 228.147676 294.354362 
L 225.272727 302.47965 
L 223.653442 308.947651 
L 222.131296 316.244295 
L 220.952095 323.54094 
L 220.113424 330.837584 
L 219.603001 338.134228 
L 219.424279 345.430872 
L 219.46343 352.727517 
L 219.749183 360.024161 
L 220.170226 367.320805 
L 221.13663 378.265772 
L 221.935642 385.562416 
L 223.447192 396.507383 
L 224.719825 403.804027 
L 225.477229 407.452349 
L 227.466975 414.748993 
L 229.757504 422.045638 
L 231.036457 425.69396 
L 234.350784 432.990604 
L 236.545455 437.469457 
L 240.526101 443.93557 
L 243.026767 447.583893 
L 247.818182 453.560248 
L 249.0509 454.880537 
L 253.454545 459.33684 
L 259.090909 464.113758 
L 264.727273 468.110027 
L 266.945501 469.473826 
L 270.363636 471.43918 
L 276 474.208353 
L 282.429247 476.77047 
L 287.272727 478.255261 
L 292.909091 479.709656 
L 298.545455 480.811577 
L 298.545455 480.811577 
" style="fill:none;stroke:#0000ff;stroke-width:3;"/>
   </g>
   <g id="line2d_1">
    <path clip-path="url(#p3590599bea)" d="M 234.15 539.4 
L 234.15 177 
" style="fill:none;stroke:#ff0000;stroke-linecap:square;stroke-width:1.5;"/>
   </g>
   <g id="line2d_2">
    <path clip-path="url(#p3590599bea)" d="M 503.85 539.4 
L 503.85 177 
" style="fill:none;stroke:#ff0000;stroke-linecap:square;stroke-width:1.5;"/>
   </g>
   <g id="line2d_3">
    <path clip-path="url(#p3590599bea)" d="M 234.15 539.4 
L 503.85 539.4 
" style="fill:none;stroke:#ff0000;stroke-linecap:square;stroke-width:1.5;"/>
   </g>
   <g id="line2d_4">
    <path clip-path="url(#p3590599bea)" d="M 234.15 177 
L 503.85 177 
" style="fill:none;stroke:#ff0000;stroke-linecap:square;stroke-width:1.5;"/>
   </g>
   <g id="text_1">
    <!-- Home Team Batting -->
    <defs>
     <path d="M 9.8125 72.90625 
L 19.671875 72.90625 
L 19.671875 43.015625 
L 55.515625 43.015625 
L 55.515625 72.90625 
L 65.375 72.90625 
L 65.375 0 
L 55.515625 0 
L 55.515625 34.71875 
L 19.671875 34.71875 
L 19.671875 0 
L 9.8125 0 
z
" id="DejaVuSans-72"/>
     <path d="M 30.609375 48.390625 
Q 23.390625 48.390625 19.1875 42.75 
Q 14.984375 37.109375 14.984375 27.296875 
Q 14.984375 17.484375 19.15625 11.84375 
Q 23.34375 6.203125 30.609375 6.203125 
Q 37.796875 6.203125 41.984375 11.859375 
Q 46.1875 17.53125 46.1875 27.296875 
Q 46.1875 37.015625 41.984375 42.703125 
Q 37.796875 48.390625 30.609375 48.390625 
z
M 30.609375 56 
Q 42.328125 56 49.015625 48.375 
Q 55.71875 40.765625 55.71875 27.296875 
Q 55.71875 13.875 49.015625 6.21875 
Q 42.328125 -1.421875 30.609375 -1.421875 
Q 18.84375 -1.421875 12.171875 6.21875 
Q 5.515625 13.875 5.515625 27.296875 
Q 5.515625 40.765625 12.171875 48.375 
Q 18.84375 56 30.609375 56 
z
" id="DejaVuSans-111"/>
     <path d="M 52 44.1875 
Q 55.375 50.25 60.0625 53.125 
Q 64.75 56 71.09375 56 
Q 79.640625 56 84.28125 50.015625 
Q 88.921875 44.046875 88.921875 33.015625 
L 88.921875 0 
L 79.890625 0 
L 79.890625 32.71875 
Q 79.890625 40.578125 77.09375 44.375 
Q 74.3125 48.1875 68.609375 48.1875 
Q 61.625 48.1875 57.5625 43.546875 
Q 53.515625 38.921875 53.515625 30.90625 
L 53.515625 0 
L 44.484375 0 
L 44.484375 32.71875 
Q 44.484375 40.625 41.703125 44.40625 
Q 38.921875 48.1875 33.109375 48.1875 
Q 26.21875 48.1875 22.15625 43.53125 
Q 18.109375 38.875 18.109375 30.90625 
L 18.109375 0 
L 9.078125 0 
L 9.078125 54.6875 
L 18.109375 54.6875 
L 18.109375 46.1875 
Q 21.1875 51.21875 25.484375 53.609375 
Q 29.78125 56 35.6875 56 
Q 41.65625 56 45.828125 52.96875 
Q 50 49.953125 52 44.1875 
z
" id="DejaVuSans-109"/>
     <path d="M 56.203125 29.59375 
L 56.203125 25.203125 
L 14.890625 25.203125 
Q 15.484375 15.921875 20.484375 11.0625 
Q 25.484375 6.203125 34.421875 6.203125 
Q 39.59375 6.203125 44.453125 7.46875 
Q 49.3125 8.734375 54.109375 11.28125 
L 54.109375 2.78125 
Q 49.265625 0.734375 44.1875 -0.34375 
Q 39.109375 -1.421875 33.890625 -1.421875 
Q 20.796875 -1.421875 13.15625 6.1875 
Q 5.515625 13.8125 5.515625 26.8125 
Q 5.515625 40.234375 12.765625 48.109375 
Q 20.015625 56 32.328125 56 
Q 43.359375 56 49.78125 48.890625 
Q 56.203125 41.796875 56.203125 29.59375 
z
M 47.21875 32.234375 
Q 47.125 39.59375 43.09375 43.984375 
Q 39.0625 48.390625 32.421875 48.390625 
Q 24.90625 48.390625 20.390625 44.140625 
Q 15.875 39.890625 15.1875 32.171875 
z
" id="DejaVuSans-101"/>
     <path id="DejaVuSans-32"/>
     <path d="M -0.296875 72.90625 
L 61.375 72.90625 
L 61.375 64.59375 
L 35.5 64.59375 
L 35.5 0 
L 25.59375 0 
L 25.59375 64.59375 
L -0.296875 64.59375 
z
" id="DejaVuSans-84"/>
     <path d="M 34.28125 27.484375 
Q 23.390625 27.484375 19.1875 25 
Q 14.984375 22.515625 14.984375 16.5 
Q 14.984375 11.71875 18.140625 8.90625 
Q 21.296875 6.109375 26.703125 6.109375 
Q 34.1875 6.109375 38.703125 11.40625 
Q 43.21875 16.703125 43.21875 25.484375 
L 43.21875 27.484375 
z
M 52.203125 31.203125 
L 52.203125 0 
L 43.21875 0 
L 43.21875 8.296875 
Q 40.140625 3.328125 35.546875 0.953125 
Q 30.953125 -1.421875 24.3125 -1.421875 
Q 15.921875 -1.421875 10.953125 3.296875 
Q 6 8.015625 6 15.921875 
Q 6 25.140625 12.171875 29.828125 
Q 18.359375 34.515625 30.609375 34.515625 
L 43.21875 34.515625 
L 43.21875 35.40625 
Q 43.21875 41.609375 39.140625 45 
Q 35.0625 48.390625 27.6875 48.390625 
Q 23 48.390625 18.546875 47.265625 
Q 14.109375 46.140625 10.015625 43.890625 
L 10.015625 52.203125 
Q 14.9375 54.109375 19.578125 55.046875 
Q 24.21875 56 28.609375 56 
Q 40.484375 56 46.34375 49.84375 
Q 52.203125 43.703125 52.203125 31.203125 
z
" id="DejaVuSans-97"/>
     <path d="M 19.671875 34.8125 
L 19.671875 8.109375 
L 35.5 8.109375 
Q 43.453125 8.109375 47.28125 11.40625 
Q 51.125 14.703125 51.125 21.484375 
Q 51.125 28.328125 47.28125 31.5625 
Q 43.453125 34.8125 35.5 34.8125 
z
M 19.671875 64.796875 
L 19.671875 42.828125 
L 34.28125 42.828125 
Q 41.5 42.828125 45.03125 45.53125 
Q 48.578125 48.25 48.578125 53.8125 
Q 48.578125 59.328125 45.03125 62.0625 
Q 41.5 64.796875 34.28125 64.796875 
z
M 9.8125 72.90625 
L 35.015625 72.90625 
Q 46.296875 72.90625 52.390625 68.21875 
Q 58.5 63.53125 58.5 54.890625 
Q 58.5 48.1875 55.375 44.234375 
Q 52.25 40.28125 46.1875 39.3125 
Q 53.46875 37.75 57.5 32.78125 
Q 61.53125 27.828125 61.53125 20.40625 
Q 61.53125 10.640625 54.890625 5.3125 
Q 48.25 0 35.984375 0 
L 9.8125 0 
z
" id="DejaVuSans-66"/>
     <path d="M 18.3125 70.21875 
L 18.3125 54.6875 
L 36.8125 54.6875 
L 36.8125 47.703125 
L 18.3125 47.703125 
L 18.3125 18.015625 
Q 18.3125 11.328125 20.140625 9.421875 
Q 21.96875 7.515625 27.59375 7.515625 
L 36.8125 7.515625 
L 36.8125 0 
L 27.59375 0 
Q 17.1875 0 13.234375 3.875 
Q 9.28125 7.765625 9.28125 18.015625 
L 9.28125 47.703125 
L 2.6875 47.703125 
L 2.6875 54.6875 
L 9.28125 54.6875 
L 9.28125 70.21875 
z
" id="DejaVuSans-116"/>
     <path d="M 9.421875 54.6875 
L 18.40625 54.6875 
L 18.40625 0 
L 9.421875 0 
z
M 9.421875 75.984375 
L 18.40625 75.984375 
L 18.40625 64.59375 
L 9.421875 64.59375 
z
" id="DejaVuSans-105"/>
     <path d="M 54.890625 33.015625 
L 54.890625 0 
L 45.90625 0 
L 45.90625 32.71875 
Q 45.90625 40.484375 42.875 44.328125 
Q 39.84375 48.1875 33.796875 48.1875 
Q 26.515625 48.1875 22.3125 43.546875 
Q 18.109375 38.921875 18.109375 30.90625 
L 18.109375 0 
L 9.078125 0 
L 9.078125 54.6875 
L 18.109375 54.6875 
L 18.109375 46.1875 
Q 21.34375 51.125 25.703125 53.5625 
Q 30.078125 56 35.796875 56 
Q 45.21875 56 50.046875 50.171875 
Q 54.890625 44.34375 54.890625 33.015625 
z
" id="DejaVuSans-110"/>
     <path d="M 45.40625 27.984375 
Q 45.40625 37.75 41.375 43.109375 
Q 37.359375 48.484375 30.078125 48.484375 
Q 22.859375 48.484375 18.828125 43.109375 
Q 14.796875 37.75 14.796875 27.984375 
Q 14.796875 18.265625 18.828125 12.890625 
Q 22.859375 7.515625 30.078125 7.515625 
Q 37.359375 7.515625 41.375 12.890625 
Q 45.40625 18.265625 45.40625 27.984375 
z
M 54.390625 6.78125 
Q 54.390625 -7.171875 48.1875 -13.984375 
Q 42 -20.796875 29.203125 -20.796875 
Q 24.46875 -20.796875 20.265625 -20.09375 
Q 16.0625 -19.390625 12.109375 -17.921875 
L 12.109375 -9.1875 
Q 16.0625 -11.328125 19.921875 -12.34375 
Q 23.78125 -13.375 27.78125 -13.375 
Q 36.625 -13.375 41.015625 -8.765625 
Q 45.40625 -4.15625 45.40625 5.171875 
L 45.40625 9.625 
Q 42.625 4.78125 38.28125 2.390625 
Q 33.9375 0 27.875 0 
Q 17.828125 0 11.671875 7.65625 
Q 5.515625 15.328125 5.515625 27.984375 
Q 5.515625 40.671875 11.671875 48.328125 
Q 17.828125 56 27.875 56 
Q 33.9375 56 38.28125 53.609375 
Q 42.625 51.21875 45.40625 46.390625 
L 45.40625 54.6875 
L 54.390625 54.6875 
z
" id="DejaVuSans-103"/>
    </defs>
    <g transform="translate(248.656875 80.4)scale(0.24 -0.24)">
     <use xlink:href="#DejaVuSans-72"/>
     <use x="75.195312" xlink:href="#DejaVuSans-111"/>
     <use x="136.376953" xlink:href="#DejaVuSans-109"/>
     <use x="233.789062" xlink:href="#DejaVuSans-101"/>
     <use x="295.3125" xlink:href="#DejaVuSans-32"/>
     <use x="327.099609" xlink:href="#DejaVuSans-84"/>
     <use x="387.917969" xlink:href="#DejaVuSans-101"/>
     <use x="449.441406" xlink:href="#DejaVuSans-97"/>
     <use x="510.720703" xlink:href="#DejaVuSans-109"/>
     <use x="608.132812" xlink:href="#DejaVuSans-32"/>
     <use x="639.919922" xlink:href="#DejaVuSans-66"/>
     <use x="708.523438" xlink:href="#DejaVuSans-97"/>
     <use x="769.802734" xlink:href="#DejaVuSans-116"/>
     <use x="809.011719" xlink:href="#DejaVuSans-116"/>
     <use x="848.220703" xlink:href="#DejaVuSans-105"/>
     <use x="876.003906" xlink:href="#DejaVuSans-110"/>
     <use x="939.382812" xlink:href="#DejaVuSans-103"/>
    </g>
   </g>
  </g>
 </g>
 <defs>
  <clipPath id="p3590599bea">
   <rect height="543.6" width="558" x="90" y="86.4"/>
  </clipPath>
 </defs>
</svg>
