<?xml version="1.0" encoding="utf-8" standalone="no"?>
<!DOCTYPE svg PUBLIC "-//W3C//DTD SVG 1.1//EN"
  "http://www.w3.org/Graphics/SVG/1.1/DTD/svg11.dtd">
<!-- Created with matplotlib (https://matplotlib.org/) -->
<svg height="720pt" version="1.1" viewBox="0 0 720 720" width="720pt" xmlns="http://www.w3.org/2000/svg" xmlns:xlink="http://www.w3.org/1999/xlink">
 <defs>
  <style type="text/css">
*{stroke-linecap:butt;stroke-linejoin:round;}
  </style>
 </defs>
 <g id="figure_1">
  <g id="patch_1">
   <path d="M 0 720 
L 720 720 
L 720 0 
L 0 0 
z
" style="fill:#ffffff;"/>
  </g>
  <g id="axes_1">
   <g id="patch_2">
    <path d="M 90 630 
L 648 630 
L 648 86.4 
L 90 86.4 
z
" style="fill:#ffffff;"/>
   </g>
   <g id="matplotlib.axis_1"/>
   <g id="matplotlib.axis_2"/>
   <g id="patch_3">
    <path clip-path="url(#p8f74234eb6)" d="M 234.15 297.8604 
L 324.0438 297.8604 
L 324.0438 177.07248 
L 234.15 177.07248 
z
" style="fill:#dadce0;opacity:0.5;stroke:#000000;stroke-linejoin:miter;"/>
   </g>
   <g id="patch_4">
    <path clip-path="url(#p8f74234eb6)" d="M 324.049938 297.8604 
L 413.943738 297.8604 
L 413.943738 177.07248 
L 324.049938 177.07248 
z
" style="fill:#f2cab5;opacity:0.5;stroke:#000000;stroke-linejoin:miter;"/>
   </g>
   <g id="patch_5">
    <path clip-path="url(#p8f74234eb6)" d="M 413.950062 297.8604 
L 503.843862 297.8604 
L 503.843862 177.07248 
L 413.950062 177.07248 
z
" style="fill:#cdd9ec;opacity:0.5;stroke:#000000;stroke-linejoin:miter;"/>
   </g>
   <g id="patch_6">
    <path clip-path="url(#p8f74234eb6)" d="M 234.15 418.7208 
L 324.0438 418.7208 
L 324.0438 297.93288 
L 234.15 297.93288 
z
" style="fill:#bb1b2c;opacity:0.5;stroke:#000000;stroke-linejoin:miter;"/>
   </g>
   <g id="patch_7">
    <path clip-path="url(#p8f74234eb6)" d="M 324.049938 418.7208 
L 413.943738 418.7208 
L 413.943738 297.93288 
L 324.049938 297.93288 
z
" style="fill:#b40426;opacity:0.5;stroke:#000000;stroke-linejoin:miter;"/>
   </g>
   <g id="patch_8">
    <path clip-path="url(#p8f74234eb6)" d="M 413.950062 418.7208 
L 503.843862 418.7208 
L 503.843862 297.93288 
L 413.950062 297.93288 
z
" style="fill:#ec8165;opacity:0.5;stroke:#000000;stroke-linejoin:miter;"/>
   </g>
   <g id="patch_9">
    <path clip-path="url(#p8f74234eb6)" d="M 234.15 539.4 
L 324.0438 539.4 
L 324.0438 418.61208 
L 234.15 418.61208 
z
" style="fill:#e4d9d2;opacity:0.5;stroke:#000000;stroke-linejoin:miter;"/>
   </g>
   <g id="patch_10">
    <path clip-path="url(#p8f74234eb6)" d="M 324.049938 539.4 
L 413.943738 539.4 
L 413.943738 418.61208 
L 324.049938 418.61208 
z
" style="fill:#cfdaea;opacity:0.5;stroke:#000000;stroke-linejoin:miter;"/>
   </g>
   <g id="patch_11">
    <path clip-path="url(#p8f74234eb6)" d="M 413.950062 539.4 
L 503.843862 539.4 
L 503.843862 418.61208 
L 413.950062 418.61208 
z
" style="fill:#3b4cc0;opacity:0.5;stroke:#000000;stroke-linejoin:miter;"/>
   </g>
   <g id="LineCollection_1">
    <path clip-path="url(#p8f74234eb6)" d="M 270.363636 528.428466 
L 276 529.251368 
L 281.636364 529.90227 
L 287.272727 530.371376 
L 292.909091 530.678922 
L 298.545455 530.835778 
L 304.181818 530.867176 
L 315.454545 530.629806 
L 326.727273 530.125116 
L 354.909091 528.533565 
L 377.454545 527.474583 
L 388.727273 526.738282 
L 400 525.697376 
L 411.149359 524.198658 
L 411.272727 524.180428 
L 416.909091 523.18586 
L 422.545455 522.017302 
L 428.574049 520.550336 
L 433.818182 519.071705 
L 440.544005 516.902013 
L 450.026645 513.253691 
L 450.727273 512.971356 
L 458.043139 509.605369 
L 462 507.618868 
L 467.636364 504.493557 
L 473.272727 501.030787 
L 478.909091 497.222819 
L 484.545455 493.003991 
L 490.181818 488.25257 
L 495.818182 483.039993 
L 501.68186 476.77047 
L 507.550435 469.473826 
L 510.170025 465.825503 
L 514.697708 458.528859 
L 516.705993 454.880537 
L 520.120562 447.583893 
L 522.946632 440.287248 
L 524.09956 436.638926 
L 525.962061 429.342282 
L 527.539038 422.045638 
L 528.641633 414.748993 
L 529.400682 407.452349 
L 529.8986 400.155705 
L 530.161425 389.210738 
L 530.046705 378.265772 
L 529.636364 364.462503 
L 529.029385 349.079195 
L 528.417423 338.134228 
L 527.533878 327.189262 
L 526.752308 319.892617 
L 525.787196 312.595973 
L 524.601742 305.299329 
L 523.097803 298.002685 
L 521.313206 290.70604 
L 520.331579 287.057718 
L 518.363636 280.919401 
L 515.250852 272.46443 
L 512.727273 266.67274 
L 512.015181 265.167785 
L 508.178167 257.871141 
L 506.090265 254.222819 
L 503.854878 250.574497 
L 501.442928 246.926174 
L 495.818182 239.4734 
L 492.93809 235.981208 
L 489.62914 232.332886 
L 484.545455 227.088043 
L 478.165128 221.387919 
L 473.272727 217.438987 
L 467.636364 213.394441 
L 462 209.80652 
L 456.363636 206.499262 
L 449.656931 203.146309 
L 445.090909 201.07876 
L 433.818182 196.766548 
L 422.545455 193.594722 
L 416.909091 192.199767 
L 411.272727 191.130802 
L 405.636364 190.2524 
L 400 189.492244 
L 394.363636 189.133177 
L 377.454545 187.593167 
L 366.181818 186.949261 
L 349.272727 186.087348 
L 315.454545 184.172059 
L 304.181818 183.932179 
L 298.545455 183.946254 
L 292.909091 184.089227 
L 287.272727 184.415787 
L 281.636364 184.922286 
L 276 185.666575 
L 270.363636 186.538147 
L 264.727273 187.710925 
L 259.090909 189.101802 
L 253.454545 190.736714 
L 247.818182 192.566328 
L 239.659735 195.849664 
L 236.545455 197.267847 
L 230.909091 200.051166 
L 225.272727 203.190072 
L 219.62172 206.794631 
L 214 210.710757 
L 208.363636 215.103816 
L 202.727273 220.075324 
L 197.090909 225.677525 
L 191.186005 232.332886 
L 185.500453 239.62953 
L 180.558074 246.926174 
L 178.301506 250.574497 
L 174.190474 257.871141 
L 170.654293 265.167785 
L 168.909091 269.057425 
L 167.525808 272.46443 
L 164.884125 279.761074 
L 162.618592 287.057718 
L 160.736005 294.354362 
L 159.124151 301.651007 
L 157.636364 309.997361 
L 156.733684 316.244295 
L 155.517542 327.189262 
L 154.668168 338.134228 
L 154.071532 349.079195 
L 153.502085 363.672483 
L 152.950732 385.562416 
L 152.989264 392.85906 
L 153.21285 400.155705 
L 153.683988 407.452349 
L 154.429751 414.748993 
L 155.506752 422.045638 
L 156.989803 429.342282 
L 157.888702 432.990604 
L 158.921145 436.638926 
L 160.073242 440.287248 
L 161.3565 443.93557 
L 163.272727 448.779307 
L 164.349292 451.232215 
L 168.003565 458.528859 
L 170.099836 462.177181 
L 172.370692 465.825503 
L 174.815406 469.473826 
L 180.181818 476.608655 
L 180.312798 476.77047 
L 185.818182 483.073592 
L 191.454545 488.93473 
L 197.090909 494.163103 
L 202.727273 498.838195 
L 208.363636 503.022599 
L 214 506.82046 
L 219.636364 510.250393 
L 225.272727 513.357217 
L 232.654734 516.902013 
L 236.545455 518.626871 
L 242.181818 520.856497 
L 247.818182 522.805451 
L 253.454545 524.57143 
L 259.090909 526.08206 
L 267.295736 527.84698 
L 270.363636 528.428466 
L 270.363636 528.428466 
" style="fill:none;stroke:#000000;stroke-width:3;"/>
   </g>
   <g id="LineCollection_2">
    <path clip-path="url(#p8f74234eb6)" d="M 292.909091 484.260685 
L 298.545455 484.515354 
L 304.181818 484.484569 
L 309.818182 484.308965 
L 315.454545 483.896995 
L 321.090909 483.884218 
L 332.363636 483.022707 
L 338 482.443608 
L 354.909091 481.229856 
L 360.545455 480.583628 
L 367.375257 480.418792 
L 371.818182 480.189086 
L 388.727273 478.64321 
L 400 477.12201 
L 405.636364 476.015562 
L 411.272727 474.555057 
L 422.545455 471.368496 
L 428.181818 469.274573 
L 435.067345 465.825503 
L 441.324964 462.177181 
L 446.401818 458.528859 
L 451.163821 454.880537 
L 456.363636 449.517384 
L 458.081679 447.583893 
L 462 442.38233 
L 463.349395 440.287248 
L 465.47717 436.638926 
L 467.636364 432.571932 
L 468.992782 429.342282 
L 471.634387 422.045638 
L 473.272727 416.148755 
L 473.57686 414.748993 
L 474.214276 411.100671 
L 475.162514 403.804027 
L 475.614549 396.507383 
L 475.855984 392.85906 
L 475.793857 381.914094 
L 475.661533 378.265772 
L 475.388033 374.61745 
L 474.549026 356.375839 
L 474.064234 349.079195 
L 473.862914 345.430872 
L 473.119389 338.134228 
L 471.63529 327.189262 
L 471.000232 323.54094 
L 470.243713 319.892617 
L 467.62505 308.947651 
L 466.406712 305.299329 
L 464.773956 301.651007 
L 462 293.706986 
L 458.418539 287.057718 
L 456.081305 283.409396 
L 453.539769 279.761074 
L 450.727273 275.943337 
L 445.090909 269.603911 
L 439.454545 264.585639 
L 433.818182 260.529222 
L 428.181818 257.215614 
L 422.239503 254.222819 
L 416.909091 251.853017 
L 411.272727 249.846042 
L 405.636364 248.235714 
L 400 246.851024 
L 394.363636 245.856668 
L 383.090909 244.305229 
L 377.454545 243.803681 
L 371.818182 243.018386 
L 360.545455 242.149355 
L 354.909091 241.603959 
L 343.636364 240.751493 
L 338 239.962566 
L 321.090909 238.405047 
L 304.181818 237.548019 
L 298.545455 237.655776 
L 292.909091 237.88856 
L 287.272727 238.33671 
L 281.636364 239.119102 
L 276 240.465073 
L 270.363636 241.908796 
L 264.727273 243.814267 
L 257.668099 246.926174 
L 253.454545 249.096218 
L 247.818182 252.455615 
L 242.181818 256.616383 
L 240.648462 257.871141 
L 236.445021 261.519463 
L 230.909091 267.477044 
L 229.864047 268.816107 
L 224.673596 276.112752 
L 222.464564 279.761074 
L 219.636364 284.148878 
L 216.689693 290.70604 
L 213.9523 298.002685 
L 212.708659 301.651007 
L 210.657845 308.947651 
L 208.881542 316.244295 
L 208.179939 319.892617 
L 207.113703 327.189262 
L 205.91289 338.134228 
L 205.293758 345.430872 
L 204.940668 352.727517 
L 204.453712 360.024161 
L 204.297278 363.672483 
L 203.790042 370.969128 
L 203.478118 378.265772 
L 203.428719 385.562416 
L 203.712366 400.155705 
L 204.471669 407.452349 
L 204.936748 411.100671 
L 205.593913 414.748993 
L 206.488363 418.397315 
L 208.088966 425.69396 
L 208.363636 426.62189 
L 210.751266 432.990604 
L 214.065235 440.287248 
L 216.209929 443.93557 
L 219.636364 449.155422 
L 224.416137 454.880537 
L 225.272727 455.846119 
L 230.909091 461.290827 
L 231.937338 462.177181 
L 236.545455 465.901051 
L 242.181818 469.613794 
L 248.514043 473.122148 
L 253.454545 475.37355 
L 259.090909 477.590398 
L 264.727273 479.510245 
L 270.363636 481.055935 
L 276 482.277304 
L 281.636364 483.158595 
L 290.269642 484.067114 
L 292.909091 484.260685 
L 292.909091 484.260685 
" style="fill:none;stroke:#0000ff;stroke-width:3;"/>
   </g>
   <g id="line2d_1">
    <path clip-path="url(#p8f74234eb6)" d="M 234.15 539.4 
L 234.15 177 
" style="fill:none;stroke:#ff0000;stroke-linecap:square;stroke-width:1.5;"/>
   </g>
   <g id="line2d_2">
    <path clip-path="url(#p8f74234eb6)" d="M 503.85 539.4 
L 503.85 177 
" style="fill:none;stroke:#ff0000;stroke-linecap:square;stroke-width:1.5;"/>
   </g>
   <g id="line2d_3">
    <path clip-path="url(#p8f74234eb6)" d="M 234.15 539.4 
L 503.85 539.4 
" style="fill:none;stroke:#ff0000;stroke-linecap:square;stroke-width:1.5;"/>
   </g>
   <g id="line2d_4">
    <path clip-path="url(#p8f74234eb6)" d="M 234.15 177 
L 503.85 177 
" style="fill:none;stroke:#ff0000;stroke-linecap:square;stroke-width:1.5;"/>
   </g>
   <g id="text_1">
    <!-- LeftyPitch, LeftyBatter, Umpire's Strikezone -->
    <defs>
     <path d="M 9.8125 72.90625 
L 19.671875 72.90625 
L 19.671875 8.296875 
L 55.171875 8.296875 
L 55.171875 0 
L 9.8125 0 
z
" id="DejaVuSans-76"/>
     <path d="M 56.203125 29.59375 
L 56.203125 25.203125 
L 14.890625 25.203125 
Q 15.484375 15.921875 20.484375 11.0625 
Q 25.484375 6.203125 34.421875 6.203125 
Q 39.59375 6.203125 44.453125 7.46875 
Q 49.3125 8.734375 54.109375 11.28125 
L 54.109375 2.78125 
Q 49.265625 0.734375 44.1875 -0.34375 
Q 39.109375 -1.421875 33.890625 -1.421875 
Q 20.796875 -1.421875 13.15625 6.1875 
Q 5.515625 13.8125 5.515625 26.8125 
Q 5.515625 40.234375 12.765625 48.109375 
Q 20.015625 56 32.328125 56 
Q 43.359375 56 49.78125 48.890625 
Q 56.203125 41.796875 56.203125 29.59375 
z
M 47.21875 32.234375 
Q 47.125 39.59375 43.09375 43.984375 
Q 39.0625 48.390625 32.421875 48.390625 
Q 24.90625 48.390625 20.390625 44.140625 
Q 15.875 39.890625 15.1875 32.171875 
z
" id="DejaVuSans-101"/>
     <path d="M 37.109375 75.984375 
L 37.109375 68.5 
L 28.515625 68.5 
Q 23.6875 68.5 21.796875 66.546875 
Q 19.921875 64.59375 19.921875 59.515625 
L 19.921875 54.6875 
L 34.71875 54.6875 
L 34.71875 47.703125 
L 19.921875 47.703125 
L 19.921875 0 
L 10.890625 0 
L 10.890625 47.703125 
L 2.296875 47.703125 
L 2.296875 54.6875 
L 10.890625 54.6875 
L 10.890625 58.5 
Q 10.890625 67.625 15.140625 71.796875 
Q 19.390625 75.984375 28.609375 75.984375 
z
" id="DejaVuSans-102"/>
     <path d="M 18.3125 70.21875 
L 18.3125 54.6875 
L 36.8125 54.6875 
L 36.8125 47.703125 
L 18.3125 47.703125 
L 18.3125 18.015625 
Q 18.3125 11.328125 20.140625 9.421875 
Q 21.96875 7.515625 27.59375 7.515625 
L 36.8125 7.515625 
L 36.8125 0 
L 27.59375 0 
Q 17.1875 0 13.234375 3.875 
Q 9.28125 7.765625 9.28125 18.015625 
L 9.28125 47.703125 
L 2.6875 47.703125 
L 2.6875 54.6875 
L 9.28125 54.6875 
L 9.28125 70.21875 
z
" id="DejaVuSans-116"/>
     <path d="M 32.171875 -5.078125 
Q 28.375 -14.84375 24.75 -17.8125 
Q 21.140625 -20.796875 15.09375 -20.796875 
L 7.90625 -20.796875 
L 7.90625 -13.28125 
L 13.1875 -13.28125 
Q 16.890625 -13.28125 18.9375 -11.515625 
Q 21 -9.765625 23.484375 -3.21875 
L 25.09375 0.875 
L 2.984375 54.6875 
L 12.5 54.6875 
L 29.59375 11.921875 
L 46.6875 54.6875 
L 56.203125 54.6875 
z
" id="DejaVuSans-121"/>
     <path d="M 19.671875 64.796875 
L 19.671875 37.40625 
L 32.078125 37.40625 
Q 38.96875 37.40625 42.71875 40.96875 
Q 46.484375 44.53125 46.484375 51.125 
Q 46.484375 57.671875 42.71875 61.234375 
Q 38.96875 64.796875 32.078125 64.796875 
z
M 9.8125 72.90625 
L 32.078125 72.90625 
Q 44.34375 72.90625 50.609375 67.359375 
Q 56.890625 61.8125 56.890625 51.125 
Q 56.890625 40.328125 50.609375 34.8125 
Q 44.34375 29.296875 32.078125 29.296875 
L 19.671875 29.296875 
L 19.671875 0 
L 9.8125 0 
z
" id="DejaVuSans-80"/>
     <path d="M 9.421875 54.6875 
L 18.40625 54.6875 
L 18.40625 0 
L 9.421875 0 
z
M 9.421875 75.984375 
L 18.40625 75.984375 
L 18.40625 64.59375 
L 9.421875 64.59375 
z
" id="DejaVuSans-105"/>
     <path d="M 48.78125 52.59375 
L 48.78125 44.1875 
Q 44.96875 46.296875 41.140625 47.34375 
Q 37.3125 48.390625 33.40625 48.390625 
Q 24.65625 48.390625 19.8125 42.84375 
Q 14.984375 37.3125 14.984375 27.296875 
Q 14.984375 17.28125 19.8125 11.734375 
Q 24.65625 6.203125 33.40625 6.203125 
Q 37.3125 6.203125 41.140625 7.25 
Q 44.96875 8.296875 48.78125 10.40625 
L 48.78125 2.09375 
Q 45.015625 0.34375 40.984375 -0.53125 
Q 36.96875 -1.421875 32.421875 -1.421875 
Q 20.0625 -1.421875 12.78125 6.34375 
Q 5.515625 14.109375 5.515625 27.296875 
Q 5.515625 40.671875 12.859375 48.328125 
Q 20.21875 56 33.015625 56 
Q 37.15625 56 41.109375 55.140625 
Q 45.0625 54.296875 48.78125 52.59375 
z
" id="DejaVuSans-99"/>
     <path d="M 54.890625 33.015625 
L 54.890625 0 
L 45.90625 0 
L 45.90625 32.71875 
Q 45.90625 40.484375 42.875 44.328125 
Q 39.84375 48.1875 33.796875 48.1875 
Q 26.515625 48.1875 22.3125 43.546875 
Q 18.109375 38.921875 18.109375 30.90625 
L 18.109375 0 
L 9.078125 0 
L 9.078125 75.984375 
L 18.109375 75.984375 
L 18.109375 46.1875 
Q 21.34375 51.125 25.703125 53.5625 
Q 30.078125 56 35.796875 56 
Q 45.21875 56 50.046875 50.171875 
Q 54.890625 44.34375 54.890625 33.015625 
z
" id="DejaVuSans-104"/>
     <path d="M 11.71875 12.40625 
L 22.015625 12.40625 
L 22.015625 4 
L 14.015625 -11.625 
L 7.71875 -11.625 
L 11.71875 4 
z
" id="DejaVuSans-44"/>
     <path id="DejaVuSans-32"/>
     <path d="M 19.671875 34.8125 
L 19.671875 8.109375 
L 35.5 8.109375 
Q 43.453125 8.109375 47.28125 11.40625 
Q 51.125 14.703125 51.125 21.484375 
Q 51.125 28.328125 47.28125 31.5625 
Q 43.453125 34.8125 35.5 34.8125 
z
M 19.671875 64.796875 
L 19.671875 42.828125 
L 34.28125 42.828125 
Q 41.5 42.828125 45.03125 45.53125 
Q 48.578125 48.25 48.578125 53.8125 
Q 48.578125 59.328125 45.03125 62.0625 
Q 41.5 64.796875 34.28125 64.796875 
z
M 9.8125 72.90625 
L 35.015625 72.90625 
Q 46.296875 72.90625 52.390625 68.21875 
Q 58.5 63.53125 58.5 54.890625 
Q 58.5 48.1875 55.375 44.234375 
Q 52.25 40.28125 46.1875 39.3125 
Q 53.46875 37.75 57.5 32.78125 
Q 61.53125 27.828125 61.53125 20.40625 
Q 61.53125 10.640625 54.890625 5.3125 
Q 48.25 0 35.984375 0 
L 9.8125 0 
z
" id="DejaVuSans-66"/>
     <path d="M 34.28125 27.484375 
Q 23.390625 27.484375 19.1875 25 
Q 14.984375 22.515625 14.984375 16.5 
Q 14.984375 11.71875 18.140625 8.90625 
Q 21.296875 6.109375 26.703125 6.109375 
Q 34.1875 6.109375 38.703125 11.40625 
Q 43.21875 16.703125 43.21875 25.484375 
L 43.21875 27.484375 
z
M 52.203125 31.203125 
L 52.203125 0 
L 43.21875 0 
L 43.21875 8.296875 
Q 40.140625 3.328125 35.546875 0.953125 
Q 30.953125 -1.421875 24.3125 -1.421875 
Q 15.921875 -1.421875 10.953125 3.296875 
Q 6 8.015625 6 15.921875 
Q 6 25.140625 12.171875 29.828125 
Q 18.359375 34.515625 30.609375 34.515625 
L 43.21875 34.515625 
L 43.21875 35.40625 
Q 43.21875 41.609375 39.140625 45 
Q 35.0625 48.390625 27.6875 48.390625 
Q 23 48.390625 18.546875 47.265625 
Q 14.109375 46.140625 10.015625 43.890625 
L 10.015625 52.203125 
Q 14.9375 54.109375 19.578125 55.046875 
Q 24.21875 56 28.609375 56 
Q 40.484375 56 46.34375 49.84375 
Q 52.203125 43.703125 52.203125 31.203125 
z
" id="DejaVuSans-97"/>
     <path d="M 41.109375 46.296875 
Q 39.59375 47.171875 37.8125 47.578125 
Q 36.03125 48 33.890625 48 
Q 26.265625 48 22.1875 43.046875 
Q 18.109375 38.09375 18.109375 28.8125 
L 18.109375 0 
L 9.078125 0 
L 9.078125 54.6875 
L 18.109375 54.6875 
L 18.109375 46.1875 
Q 20.953125 51.171875 25.484375 53.578125 
Q 30.03125 56 36.53125 56 
Q 37.453125 56 38.578125 55.875 
Q 39.703125 55.765625 41.0625 55.515625 
z
" id="DejaVuSans-114"/>
     <path d="M 8.6875 72.90625 
L 18.609375 72.90625 
L 18.609375 28.609375 
Q 18.609375 16.890625 22.84375 11.734375 
Q 27.09375 6.59375 36.625 6.59375 
Q 46.09375 6.59375 50.34375 11.734375 
Q 54.59375 16.890625 54.59375 28.609375 
L 54.59375 72.90625 
L 64.5 72.90625 
L 64.5 27.390625 
Q 64.5 13.140625 57.4375 5.859375 
Q 50.390625 -1.421875 36.625 -1.421875 
Q 22.796875 -1.421875 15.734375 5.859375 
Q 8.6875 13.140625 8.6875 27.390625 
z
" id="DejaVuSans-85"/>
     <path d="M 52 44.1875 
Q 55.375 50.25 60.0625 53.125 
Q 64.75 56 71.09375 56 
Q 79.640625 56 84.28125 50.015625 
Q 88.921875 44.046875 88.921875 33.015625 
L 88.921875 0 
L 79.890625 0 
L 79.890625 32.71875 
Q 79.890625 40.578125 77.09375 44.375 
Q 74.3125 48.1875 68.609375 48.1875 
Q 61.625 48.1875 57.5625 43.546875 
Q 53.515625 38.921875 53.515625 30.90625 
L 53.515625 0 
L 44.484375 0 
L 44.484375 32.71875 
Q 44.484375 40.625 41.703125 44.40625 
Q 38.921875 48.1875 33.109375 48.1875 
Q 26.21875 48.1875 22.15625 43.53125 
Q 18.109375 38.875 18.109375 30.90625 
L 18.109375 0 
L 9.078125 0 
L 9.078125 54.6875 
L 18.109375 54.6875 
L 18.109375 46.1875 
Q 21.1875 51.21875 25.484375 53.609375 
Q 29.78125 56 35.6875 56 
Q 41.65625 56 45.828125 52.96875 
Q 50 49.953125 52 44.1875 
z
" id="DejaVuSans-109"/>
     <path d="M 18.109375 8.203125 
L 18.109375 -20.796875 
L 9.078125 -20.796875 
L 9.078125 54.6875 
L 18.109375 54.6875 
L 18.109375 46.390625 
Q 20.953125 51.265625 25.265625 53.625 
Q 29.59375 56 35.59375 56 
Q 45.5625 56 51.78125 48.09375 
Q 58.015625 40.1875 58.015625 27.296875 
Q 58.015625 14.40625 51.78125 6.484375 
Q 45.5625 -1.421875 35.59375 -1.421875 
Q 29.59375 -1.421875 25.265625 0.953125 
Q 20.953125 3.328125 18.109375 8.203125 
z
M 48.6875 27.296875 
Q 48.6875 37.203125 44.609375 42.84375 
Q 40.53125 48.484375 33.40625 48.484375 
Q 26.265625 48.484375 22.1875 42.84375 
Q 18.109375 37.203125 18.109375 27.296875 
Q 18.109375 17.390625 22.1875 11.75 
Q 26.265625 6.109375 33.40625 6.109375 
Q 40.53125 6.109375 44.609375 11.75 
Q 48.6875 17.390625 48.6875 27.296875 
z
" id="DejaVuSans-112"/>
     <path d="M 17.921875 72.90625 
L 17.921875 45.796875 
L 9.625 45.796875 
L 9.625 72.90625 
z
" id="DejaVuSans-39"/>
     <path d="M 44.28125 53.078125 
L 44.28125 44.578125 
Q 40.484375 46.53125 36.375 47.5 
Q 32.28125 48.484375 27.875 48.484375 
Q 21.1875 48.484375 17.84375 46.4375 
Q 14.5 44.390625 14.5 40.28125 
Q 14.5 37.15625 16.890625 35.375 
Q 19.28125 33.59375 26.515625 31.984375 
L 29.59375 31.296875 
Q 39.15625 29.25 43.1875 25.515625 
Q 47.21875 21.78125 47.21875 15.09375 
Q 47.21875 7.46875 41.1875 3.015625 
Q 35.15625 -1.421875 24.609375 -1.421875 
Q 20.21875 -1.421875 15.453125 -0.5625 
Q 10.6875 0.296875 5.421875 2 
L 5.421875 11.28125 
Q 10.40625 8.6875 15.234375 7.390625 
Q 20.0625 6.109375 24.8125 6.109375 
Q 31.15625 6.109375 34.5625 8.28125 
Q 37.984375 10.453125 37.984375 14.40625 
Q 37.984375 18.0625 35.515625 20.015625 
Q 33.0625 21.96875 24.703125 23.78125 
L 21.578125 24.515625 
Q 13.234375 26.265625 9.515625 29.90625 
Q 5.8125 33.546875 5.8125 39.890625 
Q 5.8125 47.609375 11.28125 51.796875 
Q 16.75 56 26.8125 56 
Q 31.78125 56 36.171875 55.265625 
Q 40.578125 54.546875 44.28125 53.078125 
z
" id="DejaVuSans-115"/>
     <path d="M 53.515625 70.515625 
L 53.515625 60.890625 
Q 47.90625 63.578125 42.921875 64.890625 
Q 37.9375 66.21875 33.296875 66.21875 
Q 25.25 66.21875 20.875 63.09375 
Q 16.5 59.96875 16.5 54.203125 
Q 16.5 49.359375 19.40625 46.890625 
Q 22.3125 44.4375 30.421875 42.921875 
L 36.375 41.703125 
Q 47.40625 39.59375 52.65625 34.296875 
Q 57.90625 29 57.90625 20.125 
Q 57.90625 9.515625 50.796875 4.046875 
Q 43.703125 -1.421875 29.984375 -1.421875 
Q 24.8125 -1.421875 18.96875 -0.25 
Q 13.140625 0.921875 6.890625 3.21875 
L 6.890625 13.375 
Q 12.890625 10.015625 18.65625 8.296875 
Q 24.421875 6.59375 29.984375 6.59375 
Q 38.421875 6.59375 43.015625 9.90625 
Q 47.609375 13.234375 47.609375 19.390625 
Q 47.609375 24.75 44.3125 27.78125 
Q 41.015625 30.8125 33.5 32.328125 
L 27.484375 33.5 
Q 16.453125 35.6875 11.515625 40.375 
Q 6.59375 45.0625 6.59375 53.421875 
Q 6.59375 63.09375 13.40625 68.65625 
Q 20.21875 74.21875 32.171875 74.21875 
Q 37.3125 74.21875 42.625 73.28125 
Q 47.953125 72.359375 53.515625 70.515625 
z
" id="DejaVuSans-83"/>
     <path d="M 9.078125 75.984375 
L 18.109375 75.984375 
L 18.109375 31.109375 
L 44.921875 54.6875 
L 56.390625 54.6875 
L 27.390625 29.109375 
L 57.625 0 
L 45.90625 0 
L 18.109375 26.703125 
L 18.109375 0 
L 9.078125 0 
z
" id="DejaVuSans-107"/>
     <path d="M 5.515625 54.6875 
L 48.1875 54.6875 
L 48.1875 46.484375 
L 14.40625 7.171875 
L 48.1875 7.171875 
L 48.1875 0 
L 4.296875 0 
L 4.296875 8.203125 
L 38.09375 47.515625 
L 5.515625 47.515625 
z
" id="DejaVuSans-122"/>
     <path d="M 30.609375 48.390625 
Q 23.390625 48.390625 19.1875 42.75 
Q 14.984375 37.109375 14.984375 27.296875 
Q 14.984375 17.484375 19.15625 11.84375 
Q 23.34375 6.203125 30.609375 6.203125 
Q 37.796875 6.203125 41.984375 11.859375 
Q 46.1875 17.53125 46.1875 27.296875 
Q 46.1875 37.015625 41.984375 42.703125 
Q 37.796875 48.390625 30.609375 48.390625 
z
M 30.609375 56 
Q 42.328125 56 49.015625 48.375 
Q 55.71875 40.765625 55.71875 27.296875 
Q 55.71875 13.875 49.015625 6.21875 
Q 42.328125 -1.421875 30.609375 -1.421875 
Q 18.84375 -1.421875 12.171875 6.21875 
Q 5.515625 13.875 5.515625 27.296875 
Q 5.515625 40.765625 12.171875 48.375 
Q 18.84375 56 30.609375 56 
z
" id="DejaVuSans-111"/>
     <path d="M 54.890625 33.015625 
L 54.890625 0 
L 45.90625 0 
L 45.90625 32.71875 
Q 45.90625 40.484375 42.875 44.328125 
Q 39.84375 48.1875 33.796875 48.1875 
Q 26.515625 48.1875 22.3125 43.546875 
Q 18.109375 38.921875 18.109375 30.90625 
L 18.109375 0 
L 9.078125 0 
L 9.078125 54.6875 
L 18.109375 54.6875 
L 18.109375 46.1875 
Q 21.34375 51.125 25.703125 53.5625 
Q 30.078125 56 35.796875 56 
Q 45.21875 56 50.046875 50.171875 
Q 54.890625 44.34375 54.890625 33.015625 
z
" id="DejaVuSans-110"/>
    </defs>
    <g transform="translate(95.166016 80.4)scale(0.25 -0.25)">
     <use xlink:href="#DejaVuSans-76"/>
     <use x="55.697266" xlink:href="#DejaVuSans-101"/>
     <use x="117.220703" xlink:href="#DejaVuSans-102"/>
     <use x="152.410156" xlink:href="#DejaVuSans-116"/>
     <use x="191.619141" xlink:href="#DejaVuSans-121"/>
     <use x="250.798828" xlink:href="#DejaVuSans-80"/>
     <use x="311.070312" xlink:href="#DejaVuSans-105"/>
     <use x="338.853516" xlink:href="#DejaVuSans-116"/>
     <use x="378.0625" xlink:href="#DejaVuSans-99"/>
     <use x="433.042969" xlink:href="#DejaVuSans-104"/>
     <use x="496.421875" xlink:href="#DejaVuSans-44"/>
     <use x="528.208984" xlink:href="#DejaVuSans-32"/>
     <use x="559.996094" xlink:href="#DejaVuSans-76"/>
     <use x="615.693359" xlink:href="#DejaVuSans-101"/>
     <use x="677.216797" xlink:href="#DejaVuSans-102"/>
     <use x="712.40625" xlink:href="#DejaVuSans-116"/>
     <use x="751.615234" xlink:href="#DejaVuSans-121"/>
     <use x="810.794922" xlink:href="#DejaVuSans-66"/>
     <use x="879.398438" xlink:href="#DejaVuSans-97"/>
     <use x="940.677734" xlink:href="#DejaVuSans-116"/>
     <use x="979.886719" xlink:href="#DejaVuSans-116"/>
     <use x="1019.095703" xlink:href="#DejaVuSans-101"/>
     <use x="1080.619141" xlink:href="#DejaVuSans-114"/>
     <use x="1121.732422" xlink:href="#DejaVuSans-44"/>
     <use x="1153.519531" xlink:href="#DejaVuSans-32"/>
     <use x="1185.306641" xlink:href="#DejaVuSans-85"/>
     <use x="1258.5" xlink:href="#DejaVuSans-109"/>
     <use x="1355.912109" xlink:href="#DejaVuSans-112"/>
     <use x="1419.388672" xlink:href="#DejaVuSans-105"/>
     <use x="1447.171875" xlink:href="#DejaVuSans-114"/>
     <use x="1488.253906" xlink:href="#DejaVuSans-101"/>
     <use x="1549.777344" xlink:href="#DejaVuSans-39"/>
     <use x="1577.267578" xlink:href="#DejaVuSans-115"/>
     <use x="1629.367188" xlink:href="#DejaVuSans-32"/>
     <use x="1661.154297" xlink:href="#DejaVuSans-83"/>
     <use x="1724.630859" xlink:href="#DejaVuSans-116"/>
     <use x="1763.839844" xlink:href="#DejaVuSans-114"/>
     <use x="1804.953125" xlink:href="#DejaVuSans-105"/>
     <use x="1832.736328" xlink:href="#DejaVuSans-107"/>
     <use x="1890.599609" xlink:href="#DejaVuSans-101"/>
     <use x="1952.123047" xlink:href="#DejaVuSans-122"/>
     <use x="2004.613281" xlink:href="#DejaVuSans-111"/>
     <use x="2065.794922" xlink:href="#DejaVuSans-110"/>
     <use x="2129.173828" xlink:href="#DejaVuSans-101"/>
    </g>
   </g>
  </g>
 </g>
 <defs>
  <clipPath id="p8f74234eb6">
   <rect height="543.6" width="558" x="90" y="86.4"/>
  </clipPath>
 </defs>
</svg>
