<?xml version="1.0" encoding="utf-8" standalone="no"?>
<!DOCTYPE svg PUBLIC "-//W3C//DTD SVG 1.1//EN"
  "http://www.w3.org/Graphics/SVG/1.1/DTD/svg11.dtd">
<!-- Created with matplotlib (https://matplotlib.org/) -->
<svg height="720pt" version="1.1" viewBox="0 0 720 720" width="720pt" xmlns="http://www.w3.org/2000/svg" xmlns:xlink="http://www.w3.org/1999/xlink">
 <defs>
  <style type="text/css">
*{stroke-linecap:butt;stroke-linejoin:round;}
  </style>
 </defs>
 <g id="figure_1">
  <g id="patch_1">
   <path d="M 0 720 
L 720 720 
L 720 0 
L 0 0 
z
" style="fill:#ffffff;"/>
  </g>
  <g id="axes_1">
   <g id="patch_2">
    <path d="M 90 630 
L 648 630 
L 648 86.4 
L 90 86.4 
z
" style="fill:#ffffff;"/>
   </g>
   <g id="patch_3">
    <path clip-path="url(#p3b933acd69)" d="M 234.15 297.8604 
L 324.0438 297.8604 
L 324.0438 177.07248 
L 234.15 177.07248 
z
" style="fill:#efcfbf;opacity:0.5;stroke:#000000;stroke-linejoin:miter;"/>
   </g>
   <g id="patch_4">
    <path clip-path="url(#p3b933acd69)" d="M 324.049938 297.8604 
L 413.943738 297.8604 
L 413.943738 177.07248 
L 324.049938 177.07248 
z
" style="fill:#f7aa8c;opacity:0.5;stroke:#000000;stroke-linejoin:miter;"/>
   </g>
   <g id="patch_5">
    <path clip-path="url(#p3b933acd69)" d="M 413.950062 297.8604 
L 503.843862 297.8604 
L 503.843862 177.07248 
L 413.950062 177.07248 
z
" style="fill:#cbd8ee;opacity:0.5;stroke:#000000;stroke-linejoin:miter;"/>
   </g>
   <g id="patch_6">
    <path clip-path="url(#p3b933acd69)" d="M 234.15 418.7208 
L 324.0438 418.7208 
L 324.0438 297.93288 
L 234.15 297.93288 
z
" style="fill:#be242e;opacity:0.5;stroke:#000000;stroke-linejoin:miter;"/>
   </g>
   <g id="patch_7">
    <path clip-path="url(#p3b933acd69)" d="M 324.049938 418.7208 
L 413.943738 418.7208 
L 413.943738 297.93288 
L 324.049938 297.93288 
z
" style="fill:#b70d28;opacity:0.5;stroke:#000000;stroke-linejoin:miter;"/>
   </g>
   <g id="patch_8">
    <path clip-path="url(#p3b933acd69)" d="M 413.950062 418.7208 
L 503.843862 418.7208 
L 503.843862 297.93288 
L 413.950062 297.93288 
z
" style="fill:#d55042;opacity:0.5;stroke:#000000;stroke-linejoin:miter;"/>
   </g>
   <g id="patch_9">
    <path clip-path="url(#p3b933acd69)" d="M 234.15 539.4 
L 324.0438 539.4 
L 324.0438 418.61208 
L 234.15 418.61208 
z
" style="fill:#c7d7f0;opacity:0.5;stroke:#000000;stroke-linejoin:miter;"/>
   </g>
   <g id="patch_10">
    <path clip-path="url(#p3b933acd69)" d="M 324.049938 539.4 
L 413.943738 539.4 
L 413.943738 418.61208 
L 324.049938 418.61208 
z
" style="fill:#d5dbe5;opacity:0.5;stroke:#000000;stroke-linejoin:miter;"/>
   </g>
   <g id="patch_11">
    <path clip-path="url(#p3b933acd69)" d="M 413.950062 539.4 
L 503.843862 539.4 
L 503.843862 418.61208 
L 413.950062 418.61208 
z
" style="fill:#a2c1ff;opacity:0.5;stroke:#000000;stroke-linejoin:miter;"/>
   </g>
   <g id="matplotlib.axis_1"/>
   <g id="matplotlib.axis_2"/>
   <g id="LineCollection_1">
    <path clip-path="url(#p3b933acd69)" d="M 292.909091 528.299547 
L 298.545455 529.011229 
L 304.181818 529.566204 
L 309.818182 529.976723 
L 315.454545 530.254088 
L 326.727273 530.453726 
L 338 530.253738 
L 349.272727 529.7433 
L 360.545455 529.011906 
L 383.090909 527.222494 
L 400 525.939356 
L 416.909091 524.715211 
L 428.181818 523.66971 
L 439.454545 522.248963 
L 445.090909 521.35059 
L 450.727273 520.289776 
L 456.363636 519.031801 
L 464.261473 516.902013 
L 467.636364 515.867137 
L 474.879319 513.253691 
L 478.909091 511.597371 
L 484.545455 508.958023 
L 490.181818 505.914409 
L 495.927066 502.308725 
L 501.454545 498.280102 
L 507.090909 493.485258 
L 509.304139 491.363758 
L 512.901925 487.715436 
L 518.363636 481.294779 
L 519.041882 480.418792 
L 524 473.434761 
L 524.204365 473.122148 
L 526.439472 469.473826 
L 529.636364 463.802674 
L 530.475847 462.177181 
L 533.874202 454.880537 
L 535.407683 451.232215 
L 538.046201 443.93557 
L 540.309108 436.638926 
L 541.302309 432.990604 
L 543.00364 425.69396 
L 544.4185 418.397315 
L 545.586181 411.100671 
L 546.545455 403.760605 
L 547.282866 396.507383 
L 548.116112 385.562416 
L 548.709017 374.61745 
L 549.131762 363.672483 
L 549.343593 352.727517 
L 549.280816 341.78255 
L 549.054963 334.485906 
L 548.659824 327.189262 
L 548.075743 319.892617 
L 547.282255 312.595973 
L 546.246903 305.299329 
L 544.937276 298.002685 
L 543.360201 290.70604 
L 541.487576 283.409396 
L 540.41027 279.761074 
L 537.97144 272.46443 
L 535.168698 265.167785 
L 531.857235 257.871141 
L 529.636364 253.442478 
L 525.939149 246.926174 
L 523.689161 243.277852 
L 518.631131 235.981208 
L 518.363636 235.621879 
L 512.727273 228.650178 
L 507.090909 222.647721 
L 501.454545 217.416701 
L 495.818182 212.917099 
L 490.181818 209.024154 
L 484.545455 205.643609 
L 478.909091 202.714298 
L 471.515387 199.497987 
L 467.636364 198.014393 
L 461.031972 195.849664 
L 456.363636 194.532992 
L 450.727273 193.162574 
L 445.090909 191.989493 
L 439.454545 191.010792 
L 433.818182 190.177546 
L 422.545455 188.852499 
L 411.272727 187.854489 
L 383.090909 185.60466 
L 360.545455 183.672457 
L 349.272727 182.883799 
L 338 182.333643 
L 326.727273 182.117942 
L 321.090909 182.165695 
L 315.454545 182.333201 
L 309.818182 182.633035 
L 304.181818 183.074791 
L 298.545455 183.673095 
L 290.148008 184.904698 
L 287.272727 185.401889 
L 281.636364 186.571822 
L 273.78999 188.55302 
L 270.363636 189.537598 
L 262.39061 192.201342 
L 259.090909 193.423696 
L 253.177522 195.849664 
L 245.468257 199.497987 
L 242.181818 201.198142 
L 236.545455 204.378091 
L 230.909091 207.900454 
L 225.272727 211.799407 
L 219.636364 216.114201 
L 214 220.892756 
L 209.591652 225.036242 
L 205.999289 228.684564 
L 202.620862 232.332886 
L 197.090909 239.000853 
L 193.923543 243.277852 
L 191.367406 246.926174 
L 186.846226 254.222819 
L 184.805081 257.871141 
L 181.168339 265.167785 
L 179.532767 268.816107 
L 176.659374 276.112752 
L 174.171265 283.409396 
L 172.109835 290.70604 
L 170.375156 298.002685 
L 168.909091 305.44296 
L 167.806133 312.595973 
L 166.934137 319.892617 
L 166.291565 327.189262 
L 165.856447 334.485906 
L 165.607715 341.78255 
L 165.524521 349.079195 
L 165.664824 360.024161 
L 166.060831 370.969128 
L 166.64869 381.914094 
L 167.463857 392.85906 
L 168.189304 400.155705 
L 169.108121 407.452349 
L 170.272029 414.748993 
L 171.688141 422.045638 
L 173.396221 429.342282 
L 174.545455 433.572212 
L 176.671688 440.287248 
L 179.360286 447.583893 
L 180.90058 451.232215 
L 184.392761 458.528859 
L 186.355085 462.177181 
L 188.516008 465.825503 
L 191.454545 470.423559 
L 193.356488 473.122148 
L 197.090909 478.044985 
L 199.067722 480.418792 
L 202.727273 484.546013 
L 208.363636 490.157384 
L 209.683091 491.363758 
L 214 495.109235 
L 219.636364 499.471775 
L 225.272727 503.387213 
L 230.909091 506.915345 
L 236.545455 510.107534 
L 242.735382 513.253691 
L 250.928436 516.902013 
L 253.454545 517.939788 
L 260.55318 520.550336 
L 264.727273 521.933343 
L 272.611515 524.198658 
L 276 525.070699 
L 281.636364 526.33159 
L 290.012291 527.84698 
L 292.909091 528.299547 
L 292.909091 528.299547 
" style="fill:none;stroke:#000000;stroke-width:3;"/>
   </g>
   <g id="LineCollection_2">
    <path clip-path="url(#p3b933acd69)" d="M 298.545455 481.534385 
L 304.181818 482.444943 
L 309.818182 483.133815 
L 315.454545 483.608362 
L 321.090909 483.87569 
L 326.727273 483.951942 
L 332.363636 483.856199 
L 338 483.60793 
L 349.272727 482.741517 
L 360.545455 481.536531 
L 371.818182 480.119009 
L 388.727273 477.737268 
L 416.909091 474.069912 
L 423.141803 473.122148 
L 428.181818 472.149673 
L 433.818182 470.910464 
L 439.566023 469.473826 
L 445.090909 467.674496 
L 450.727273 465.586196 
L 457.838485 462.177181 
L 462 459.786799 
L 463.907949 458.528859 
L 467.636364 455.907803 
L 468.90056 454.880537 
L 473.272727 451.126154 
L 478.909091 444.978245 
L 479.701628 443.93557 
L 484.545455 437.019971 
L 484.764014 436.638926 
L 488.542676 429.342282 
L 490.273366 425.69396 
L 492.816316 418.397315 
L 495.027492 411.100671 
L 495.96822 407.452349 
L 497.320221 400.155705 
L 498.430648 392.85906 
L 499.3366 385.562416 
L 500.393919 374.61745 
L 501.16545 363.672483 
L 501.472504 356.375839 
L 501.553452 349.079195 
L 501.441121 341.78255 
L 501.023761 334.485906 
L 500.303976 327.189262 
L 499.264994 319.892617 
L 497.901376 312.595973 
L 496.217687 305.299329 
L 495.818182 303.802698 
L 493.787322 298.002685 
L 490.900102 290.70604 
L 490.181818 289.059121 
L 487.072132 283.409396 
L 484.545455 279.104416 
L 478.909091 271.683092 
L 473.272727 265.867977 
L 472.467852 265.167785 
L 467.636364 261.188081 
L 462 257.393937 
L 456.320775 254.222819 
L 450.727273 251.71 
L 445.090909 249.568623 
L 439.454545 247.783304 
L 433.818182 246.292676 
L 422.545455 243.997407 
L 416.909091 243.065592 
L 360.545455 235.357629 
L 349.272727 234.112782 
L 343.636364 233.610054 
L 338 233.220579 
L 332.363636 232.964756 
L 326.727273 232.866033 
L 321.090909 232.945029 
L 315.454545 233.220796 
L 309.818182 233.707562 
L 304.181818 234.417124 
L 298.545455 235.356558 
L 292.909091 236.6036 
L 287.272727 238.221067 
L 281.636364 240.094859 
L 274.20224 243.277852 
L 270.363636 245.192914 
L 264.727273 248.431352 
L 259.090909 252.209729 
L 253.454545 256.628134 
L 248.131885 261.519463 
L 247.818182 261.826118 
L 241.641099 268.816107 
L 236.324533 276.112752 
L 232.102883 283.409396 
L 230.21299 287.057718 
L 227.086715 294.354362 
L 225.272727 299.016016 
L 223.437156 305.299329 
L 221.62845 312.595973 
L 220.160915 319.892617 
L 219.571677 323.54094 
L 218.804693 330.837584 
L 218.309795 338.134228 
L 218.069285 345.430872 
L 218.05715 352.727517 
L 218.243183 360.024161 
L 218.821139 370.969128 
L 219.666963 381.914094 
L 220.545933 389.210738 
L 221.625624 396.507383 
L 222.945454 403.804027 
L 224.529659 411.100671 
L 225.456331 414.748993 
L 227.904788 422.045638 
L 230.6838 429.342282 
L 230.909091 429.871855 
L 234.365189 436.638926 
L 236.545455 440.629158 
L 241.333375 447.583893 
L 242.181818 448.729642 
L 247.818182 455.275854 
L 253.454545 460.582627 
L 255.390938 462.177181 
L 260.154696 465.825503 
L 265.76278 469.473826 
L 272.559503 473.122148 
L 276 474.704853 
L 281.636364 477.007073 
L 287.272727 478.819233 
L 293.006158 480.418792 
L 298.545455 481.534385 
L 298.545455 481.534385 
" style="fill:none;stroke:#0000ff;stroke-width:3;"/>
   </g>
   <g id="line2d_1">
    <path clip-path="url(#p3b933acd69)" d="M 234.15 539.4 
L 234.15 177 
" style="fill:none;stroke:#ff0000;stroke-linecap:square;stroke-width:1.5;"/>
   </g>
   <g id="line2d_2">
    <path clip-path="url(#p3b933acd69)" d="M 503.85 539.4 
L 503.85 177 
" style="fill:none;stroke:#ff0000;stroke-linecap:square;stroke-width:1.5;"/>
   </g>
   <g id="line2d_3">
    <path clip-path="url(#p3b933acd69)" d="M 234.15 539.4 
L 503.85 539.4 
" style="fill:none;stroke:#ff0000;stroke-linecap:square;stroke-width:1.5;"/>
   </g>
   <g id="line2d_4">
    <path clip-path="url(#p3b933acd69)" d="M 234.15 177 
L 503.85 177 
" style="fill:none;stroke:#ff0000;stroke-linecap:square;stroke-width:1.5;"/>
   </g>
   <g id="text_1">
    <!-- Regulation Innings -->
    <defs>
     <path d="M 44.390625 34.1875 
Q 47.5625 33.109375 50.5625 29.59375 
Q 53.5625 26.078125 56.59375 19.921875 
L 66.609375 0 
L 56 0 
L 46.6875 18.703125 
Q 43.0625 26.03125 39.671875 28.421875 
Q 36.28125 30.8125 30.421875 30.8125 
L 19.671875 30.8125 
L 19.671875 0 
L 9.8125 0 
L 9.8125 72.90625 
L 32.078125 72.90625 
Q 44.578125 72.90625 50.734375 67.671875 
Q 56.890625 62.453125 56.890625 51.90625 
Q 56.890625 45.015625 53.6875 40.46875 
Q 50.484375 35.9375 44.390625 34.1875 
z
M 19.671875 64.796875 
L 19.671875 38.921875 
L 32.078125 38.921875 
Q 39.203125 38.921875 42.84375 42.21875 
Q 46.484375 45.515625 46.484375 51.90625 
Q 46.484375 58.296875 42.84375 61.546875 
Q 39.203125 64.796875 32.078125 64.796875 
z
" id="DejaVuSans-82"/>
     <path d="M 56.203125 29.59375 
L 56.203125 25.203125 
L 14.890625 25.203125 
Q 15.484375 15.921875 20.484375 11.0625 
Q 25.484375 6.203125 34.421875 6.203125 
Q 39.59375 6.203125 44.453125 7.46875 
Q 49.3125 8.734375 54.109375 11.28125 
L 54.109375 2.78125 
Q 49.265625 0.734375 44.1875 -0.34375 
Q 39.109375 -1.421875 33.890625 -1.421875 
Q 20.796875 -1.421875 13.15625 6.1875 
Q 5.515625 13.8125 5.515625 26.8125 
Q 5.515625 40.234375 12.765625 48.109375 
Q 20.015625 56 32.328125 56 
Q 43.359375 56 49.78125 48.890625 
Q 56.203125 41.796875 56.203125 29.59375 
z
M 47.21875 32.234375 
Q 47.125 39.59375 43.09375 43.984375 
Q 39.0625 48.390625 32.421875 48.390625 
Q 24.90625 48.390625 20.390625 44.140625 
Q 15.875 39.890625 15.1875 32.171875 
z
" id="DejaVuSans-101"/>
     <path d="M 45.40625 27.984375 
Q 45.40625 37.75 41.375 43.109375 
Q 37.359375 48.484375 30.078125 48.484375 
Q 22.859375 48.484375 18.828125 43.109375 
Q 14.796875 37.75 14.796875 27.984375 
Q 14.796875 18.265625 18.828125 12.890625 
Q 22.859375 7.515625 30.078125 7.515625 
Q 37.359375 7.515625 41.375 12.890625 
Q 45.40625 18.265625 45.40625 27.984375 
z
M 54.390625 6.78125 
Q 54.390625 -7.171875 48.1875 -13.984375 
Q 42 -20.796875 29.203125 -20.796875 
Q 24.46875 -20.796875 20.265625 -20.09375 
Q 16.0625 -19.390625 12.109375 -17.921875 
L 12.109375 -9.1875 
Q 16.0625 -11.328125 19.921875 -12.34375 
Q 23.78125 -13.375 27.78125 -13.375 
Q 36.625 -13.375 41.015625 -8.765625 
Q 45.40625 -4.15625 45.40625 5.171875 
L 45.40625 9.625 
Q 42.625 4.78125 38.28125 2.390625 
Q 33.9375 0 27.875 0 
Q 17.828125 0 11.671875 7.65625 
Q 5.515625 15.328125 5.515625 27.984375 
Q 5.515625 40.671875 11.671875 48.328125 
Q 17.828125 56 27.875 56 
Q 33.9375 56 38.28125 53.609375 
Q 42.625 51.21875 45.40625 46.390625 
L 45.40625 54.6875 
L 54.390625 54.6875 
z
" id="DejaVuSans-103"/>
     <path d="M 8.5 21.578125 
L 8.5 54.6875 
L 17.484375 54.6875 
L 17.484375 21.921875 
Q 17.484375 14.15625 20.5 10.265625 
Q 23.53125 6.390625 29.59375 6.390625 
Q 36.859375 6.390625 41.078125 11.03125 
Q 45.3125 15.671875 45.3125 23.6875 
L 45.3125 54.6875 
L 54.296875 54.6875 
L 54.296875 0 
L 45.3125 0 
L 45.3125 8.40625 
Q 42.046875 3.421875 37.71875 1 
Q 33.40625 -1.421875 27.6875 -1.421875 
Q 18.265625 -1.421875 13.375 4.4375 
Q 8.5 10.296875 8.5 21.578125 
z
M 31.109375 56 
z
" id="DejaVuSans-117"/>
     <path d="M 9.421875 75.984375 
L 18.40625 75.984375 
L 18.40625 0 
L 9.421875 0 
z
" id="DejaVuSans-108"/>
     <path d="M 34.28125 27.484375 
Q 23.390625 27.484375 19.1875 25 
Q 14.984375 22.515625 14.984375 16.5 
Q 14.984375 11.71875 18.140625 8.90625 
Q 21.296875 6.109375 26.703125 6.109375 
Q 34.1875 6.109375 38.703125 11.40625 
Q 43.21875 16.703125 43.21875 25.484375 
L 43.21875 27.484375 
z
M 52.203125 31.203125 
L 52.203125 0 
L 43.21875 0 
L 43.21875 8.296875 
Q 40.140625 3.328125 35.546875 0.953125 
Q 30.953125 -1.421875 24.3125 -1.421875 
Q 15.921875 -1.421875 10.953125 3.296875 
Q 6 8.015625 6 15.921875 
Q 6 25.140625 12.171875 29.828125 
Q 18.359375 34.515625 30.609375 34.515625 
L 43.21875 34.515625 
L 43.21875 35.40625 
Q 43.21875 41.609375 39.140625 45 
Q 35.0625 48.390625 27.6875 48.390625 
Q 23 48.390625 18.546875 47.265625 
Q 14.109375 46.140625 10.015625 43.890625 
L 10.015625 52.203125 
Q 14.9375 54.109375 19.578125 55.046875 
Q 24.21875 56 28.609375 56 
Q 40.484375 56 46.34375 49.84375 
Q 52.203125 43.703125 52.203125 31.203125 
z
" id="DejaVuSans-97"/>
     <path d="M 18.3125 70.21875 
L 18.3125 54.6875 
L 36.8125 54.6875 
L 36.8125 47.703125 
L 18.3125 47.703125 
L 18.3125 18.015625 
Q 18.3125 11.328125 20.140625 9.421875 
Q 21.96875 7.515625 27.59375 7.515625 
L 36.8125 7.515625 
L 36.8125 0 
L 27.59375 0 
Q 17.1875 0 13.234375 3.875 
Q 9.28125 7.765625 9.28125 18.015625 
L 9.28125 47.703125 
L 2.6875 47.703125 
L 2.6875 54.6875 
L 9.28125 54.6875 
L 9.28125 70.21875 
z
" id="DejaVuSans-116"/>
     <path d="M 9.421875 54.6875 
L 18.40625 54.6875 
L 18.40625 0 
L 9.421875 0 
z
M 9.421875 75.984375 
L 18.40625 75.984375 
L 18.40625 64.59375 
L 9.421875 64.59375 
z
" id="DejaVuSans-105"/>
     <path d="M 30.609375 48.390625 
Q 23.390625 48.390625 19.1875 42.75 
Q 14.984375 37.109375 14.984375 27.296875 
Q 14.984375 17.484375 19.15625 11.84375 
Q 23.34375 6.203125 30.609375 6.203125 
Q 37.796875 6.203125 41.984375 11.859375 
Q 46.1875 17.53125 46.1875 27.296875 
Q 46.1875 37.015625 41.984375 42.703125 
Q 37.796875 48.390625 30.609375 48.390625 
z
M 30.609375 56 
Q 42.328125 56 49.015625 48.375 
Q 55.71875 40.765625 55.71875 27.296875 
Q 55.71875 13.875 49.015625 6.21875 
Q 42.328125 -1.421875 30.609375 -1.421875 
Q 18.84375 -1.421875 12.171875 6.21875 
Q 5.515625 13.875 5.515625 27.296875 
Q 5.515625 40.765625 12.171875 48.375 
Q 18.84375 56 30.609375 56 
z
" id="DejaVuSans-111"/>
     <path d="M 54.890625 33.015625 
L 54.890625 0 
L 45.90625 0 
L 45.90625 32.71875 
Q 45.90625 40.484375 42.875 44.328125 
Q 39.84375 48.1875 33.796875 48.1875 
Q 26.515625 48.1875 22.3125 43.546875 
Q 18.109375 38.921875 18.109375 30.90625 
L 18.109375 0 
L 9.078125 0 
L 9.078125 54.6875 
L 18.109375 54.6875 
L 18.109375 46.1875 
Q 21.34375 51.125 25.703125 53.5625 
Q 30.078125 56 35.796875 56 
Q 45.21875 56 50.046875 50.171875 
Q 54.890625 44.34375 54.890625 33.015625 
z
" id="DejaVuSans-110"/>
     <path id="DejaVuSans-32"/>
     <path d="M 9.8125 72.90625 
L 19.671875 72.90625 
L 19.671875 0 
L 9.8125 0 
z
" id="DejaVuSans-73"/>
     <path d="M 44.28125 53.078125 
L 44.28125 44.578125 
Q 40.484375 46.53125 36.375 47.5 
Q 32.28125 48.484375 27.875 48.484375 
Q 21.1875 48.484375 17.84375 46.4375 
Q 14.5 44.390625 14.5 40.28125 
Q 14.5 37.15625 16.890625 35.375 
Q 19.28125 33.59375 26.515625 31.984375 
L 29.59375 31.296875 
Q 39.15625 29.25 43.1875 25.515625 
Q 47.21875 21.78125 47.21875 15.09375 
Q 47.21875 7.46875 41.1875 3.015625 
Q 35.15625 -1.421875 24.609375 -1.421875 
Q 20.21875 -1.421875 15.453125 -0.5625 
Q 10.6875 0.296875 5.421875 2 
L 5.421875 11.28125 
Q 10.40625 8.6875 15.234375 7.390625 
Q 20.0625 6.109375 24.8125 6.109375 
Q 31.15625 6.109375 34.5625 8.28125 
Q 37.984375 10.453125 37.984375 14.40625 
Q 37.984375 18.0625 35.515625 20.015625 
Q 33.0625 21.96875 24.703125 23.78125 
L 21.578125 24.515625 
Q 13.234375 26.265625 9.515625 29.90625 
Q 5.8125 33.546875 5.8125 39.890625 
Q 5.8125 47.609375 11.28125 51.796875 
Q 16.75 56 26.8125 56 
Q 31.78125 56 36.171875 55.265625 
Q 40.578125 54.546875 44.28125 53.078125 
z
" id="DejaVuSans-115"/>
    </defs>
    <g transform="translate(257.0175 80.4)scale(0.24 -0.24)">
     <use xlink:href="#DejaVuSans-82"/>
     <use x="69.419922" xlink:href="#DejaVuSans-101"/>
     <use x="130.943359" xlink:href="#DejaVuSans-103"/>
     <use x="194.419922" xlink:href="#DejaVuSans-117"/>
     <use x="257.798828" xlink:href="#DejaVuSans-108"/>
     <use x="285.582031" xlink:href="#DejaVuSans-97"/>
     <use x="346.861328" xlink:href="#DejaVuSans-116"/>
     <use x="386.070312" xlink:href="#DejaVuSans-105"/>
     <use x="413.853516" xlink:href="#DejaVuSans-111"/>
     <use x="475.035156" xlink:href="#DejaVuSans-110"/>
     <use x="538.414062" xlink:href="#DejaVuSans-32"/>
     <use x="570.201172" xlink:href="#DejaVuSans-73"/>
     <use x="599.693359" xlink:href="#DejaVuSans-110"/>
     <use x="663.072266" xlink:href="#DejaVuSans-110"/>
     <use x="726.451172" xlink:href="#DejaVuSans-105"/>
     <use x="754.234375" xlink:href="#DejaVuSans-110"/>
     <use x="817.613281" xlink:href="#DejaVuSans-103"/>
     <use x="881.089844" xlink:href="#DejaVuSans-115"/>
    </g>
   </g>
  </g>
 </g>
 <defs>
  <clipPath id="p3b933acd69">
   <rect height="543.6" width="558" x="90" y="86.4"/>
  </clipPath>
 </defs>
</svg>
