<?xml version="1.0" encoding="utf-8" standalone="no"?>
<!DOCTYPE svg PUBLIC "-//W3C//DTD SVG 1.1//EN"
  "http://www.w3.org/Graphics/SVG/1.1/DTD/svg11.dtd">
<!-- Created with matplotlib (https://matplotlib.org/) -->
<svg height="720pt" version="1.1" viewBox="0 0 720 720" width="720pt" xmlns="http://www.w3.org/2000/svg" xmlns:xlink="http://www.w3.org/1999/xlink">
 <defs>
  <style type="text/css">
*{stroke-linecap:butt;stroke-linejoin:round;}
  </style>
 </defs>
 <g id="figure_1">
  <g id="patch_1">
   <path d="M 0 720 
L 720 720 
L 720 0 
L 0 0 
z
" style="fill:#ffffff;"/>
  </g>
  <g id="axes_1">
   <g id="patch_2">
    <path d="M 90 630 
L 648 630 
L 648 86.4 
L 90 86.4 
z
" style="fill:#ffffff;"/>
   </g>
   <g id="patch_3">
    <path clip-path="url(#p7441a63266)" d="M 234.15 297.8604 
L 324.0438 297.8604 
L 324.0438 177.07248 
L 234.15 177.07248 
z
" style="fill:#eed0c0;opacity:0.5;stroke:#000000;stroke-linejoin:miter;"/>
   </g>
   <g id="patch_4">
    <path clip-path="url(#p7441a63266)" d="M 324.049938 297.8604 
L 413.943738 297.8604 
L 413.943738 177.07248 
L 324.049938 177.07248 
z
" style="fill:#f6a586;opacity:0.5;stroke:#000000;stroke-linejoin:miter;"/>
   </g>
   <g id="patch_5">
    <path clip-path="url(#p7441a63266)" d="M 413.950062 297.8604 
L 503.843862 297.8604 
L 503.843862 177.07248 
L 413.950062 177.07248 
z
" style="fill:#d9dce1;opacity:0.5;stroke:#000000;stroke-linejoin:miter;"/>
   </g>
   <g id="patch_6">
    <path clip-path="url(#p7441a63266)" d="M 234.15 418.7208 
L 324.0438 418.7208 
L 324.0438 297.93288 
L 234.15 297.93288 
z
" style="fill:#c32e31;opacity:0.5;stroke:#000000;stroke-linejoin:miter;"/>
   </g>
   <g id="patch_7">
    <path clip-path="url(#p7441a63266)" d="M 324.049938 418.7208 
L 413.943738 418.7208 
L 413.943738 297.93288 
L 324.049938 297.93288 
z
" style="fill:#b70d28;opacity:0.5;stroke:#000000;stroke-linejoin:miter;"/>
   </g>
   <g id="patch_8">
    <path clip-path="url(#p7441a63266)" d="M 413.950062 418.7208 
L 503.843862 418.7208 
L 503.843862 297.93288 
L 413.950062 297.93288 
z
" style="fill:#ca3b37;opacity:0.5;stroke:#000000;stroke-linejoin:miter;"/>
   </g>
   <g id="patch_9">
    <path clip-path="url(#p7441a63266)" d="M 234.15 539.4 
L 324.0438 539.4 
L 324.0438 418.61208 
L 234.15 418.61208 
z
" style="fill:#a1c0ff;opacity:0.5;stroke:#000000;stroke-linejoin:miter;"/>
   </g>
   <g id="patch_10">
    <path clip-path="url(#p7441a63266)" d="M 324.049938 539.4 
L 413.943738 539.4 
L 413.943738 418.61208 
L 324.049938 418.61208 
z
" style="fill:#d3dbe7;opacity:0.5;stroke:#000000;stroke-linejoin:miter;"/>
   </g>
   <g id="patch_11">
    <path clip-path="url(#p7441a63266)" d="M 413.950062 539.4 
L 503.843862 539.4 
L 503.843862 418.61208 
L 413.950062 418.61208 
z
" style="fill:#c4d5f3;opacity:0.5;stroke:#000000;stroke-linejoin:miter;"/>
   </g>
   <g id="matplotlib.axis_1"/>
   <g id="matplotlib.axis_2"/>
   <g id="LineCollection_1">
    <path clip-path="url(#p7441a63266)" d="M 326.727273 527.963825 
L 338 528.531113 
L 349.272727 528.757758 
L 360.545455 528.703261 
L 371.818182 528.426243 
L 388.727273 527.718106 
L 416.909091 526.21083 
L 428.181818 525.476015 
L 439.454545 524.444153 
L 445.090909 523.749956 
L 450.727273 522.908321 
L 456.363636 521.902168 
L 462.621966 520.550336 
L 467.636364 519.264971 
L 475.2434 516.902013 
L 478.909091 515.599795 
L 484.658558 513.253691 
L 492.05244 509.605369 
L 495.818182 507.503715 
L 501.454545 503.894409 
L 507.090909 499.705341 
L 508.338562 498.660403 
L 512.727273 494.808229 
L 518.363636 488.99831 
L 519.477378 487.715436 
L 524 482.127112 
L 525.246336 480.418792 
L 529.636364 473.922401 
L 532.26167 469.473826 
L 535.272727 463.918167 
L 537.838574 458.528859 
L 540.952543 451.232215 
L 543.578519 443.93557 
L 545.878781 436.638926 
L 546.909537 432.990604 
L 548.704834 425.69396 
L 550.245782 418.397315 
L 551.569641 411.100671 
L 552.685565 403.804027 
L 553.607304 396.507383 
L 554.722045 385.562416 
L 555.59351 374.61745 
L 556.268774 363.672483 
L 556.70182 352.727517 
L 556.831046 341.78255 
L 556.718342 334.485906 
L 556.42615 327.189262 
L 555.937424 319.892617 
L 555.235317 312.595973 
L 554.302012 305.299329 
L 553.11381 298.002685 
L 551.628541 290.70604 
L 549.824956 283.409396 
L 547.711129 276.112752 
L 546.518915 272.46443 
L 543.7855 265.167785 
L 540.909091 258.399394 
L 538.881724 254.222819 
L 535.272727 247.402334 
L 532.795316 243.277852 
L 529.636364 238.335719 
L 525.310988 232.332886 
L 522.408192 228.684564 
L 518.363636 223.973141 
L 512.727273 218.230927 
L 508.048745 214.091275 
L 507.090909 213.274978 
L 501.454545 208.993231 
L 495.818182 205.279717 
L 490.181818 202.058543 
L 484.545455 199.274569 
L 478.909091 196.883782 
L 473.272727 194.820447 
L 467.636364 193.064553 
L 462 191.57077 
L 456.363636 190.327625 
L 450.727273 189.270168 
L 445.090909 188.393005 
L 439.454545 187.679753 
L 428.181818 186.602812 
L 416.909091 185.835336 
L 388.727273 184.273957 
L 371.818182 183.541268 
L 360.545455 183.252278 
L 349.272727 183.195039 
L 338 183.434586 
L 326.727273 184.025304 
L 316.706246 184.904698 
L 315.454545 185.032175 
L 309.818182 185.726995 
L 304.181818 186.55221 
L 298.545455 187.511334 
L 292.909091 188.632989 
L 287.272727 189.917037 
L 278.822662 192.201342 
L 276 193.046257 
L 267.843884 195.849664 
L 264.727273 197.02791 
L 258.817604 199.497987 
L 251.246591 203.146309 
L 247.818182 204.957147 
L 242.181818 208.226753 
L 236.545455 211.87337 
L 230.909091 215.947598 
L 225.272727 220.494398 
L 220.238991 225.036242 
L 219.636364 225.602417 
L 214 231.391053 
L 210.034845 235.981208 
L 207.109204 239.62953 
L 202.727273 245.673117 
L 201.894304 246.926174 
L 197.417077 254.222819 
L 195.442273 257.871141 
L 191.885913 265.167785 
L 190.320625 268.816107 
L 187.550461 276.112752 
L 185.172474 283.409396 
L 183.219715 290.70604 
L 181.594169 298.002685 
L 180.181818 305.765695 
L 179.233284 312.595973 
L 178.473216 319.892617 
L 177.94624 327.189262 
L 177.630875 334.485906 
L 177.514112 341.78255 
L 177.562863 349.079195 
L 177.927002 360.024161 
L 178.575949 370.969128 
L 179.450497 381.914094 
L 180.581796 392.85906 
L 181.530993 400.155705 
L 182.651498 407.452349 
L 183.969408 414.748993 
L 185.818182 423.27338 
L 187.403268 429.342282 
L 189.580428 436.638926 
L 191.454545 442.148843 
L 193.579943 447.583893 
L 196.779789 454.880537 
L 198.62758 458.528859 
L 202.69132 465.825503 
L 202.727273 465.884471 
L 207.53317 473.122148 
L 210.284927 476.77047 
L 214 481.311053 
L 216.510739 484.067114 
L 220.034916 487.715436 
L 225.272727 492.530704 
L 230.909091 497.069516 
L 236.545455 501.081562 
L 242.181818 504.644605 
L 247.818182 507.818544 
L 253.454545 510.657997 
L 259.207276 513.253691 
L 264.727273 515.458286 
L 270.363636 517.490898 
L 276 519.282839 
L 281.636364 520.885426 
L 287.272727 522.289825 
L 296.397382 524.198658 
L 298.545455 524.602538 
L 304.181818 525.526876 
L 309.818182 526.314612 
L 315.454545 526.978712 
L 326.727273 527.963825 
L 326.727273 527.963825 
" style="fill:none;stroke:#000000;stroke-width:3;"/>
   </g>
   <g id="LineCollection_2">
    <path clip-path="url(#p7441a63266)" d="M 315.454545 477.295719 
L 321.090909 478.178821 
L 326.727273 478.889527 
L 332.363636 479.47062 
L 338 479.882089 
L 343.636364 480.149107 
L 349.272727 480.280627 
L 360.545455 480.185143 
L 371.818182 479.699513 
L 383.090909 478.94344 
L 405.636364 477.052845 
L 416.909091 475.982385 
L 428.181818 474.690696 
L 433.818182 473.888309 
L 439.454545 472.915752 
L 445.090909 471.630975 
L 452.837701 469.473826 
L 456.363636 468.254962 
L 462.400637 465.825503 
L 467.636364 463.179367 
L 469.358401 462.177181 
L 473.272727 459.752383 
L 474.978347 458.528859 
L 479.678973 454.880537 
L 484.545455 450.340008 
L 490.181818 443.791721 
L 495.818182 435.247639 
L 498.774079 429.342282 
L 501.454545 423.637738 
L 503.303244 418.397315 
L 505.646081 411.100671 
L 507.090909 406.172345 
L 508.355351 400.155705 
L 509.706543 392.85906 
L 510.893314 385.562416 
L 512.407347 374.61745 
L 512.821088 370.969128 
L 513.65346 360.024161 
L 514.003389 352.727517 
L 514.193484 345.430872 
L 514.151671 338.134228 
L 513.868065 330.837584 
L 513.325019 323.54094 
L 512.727273 318.047238 
L 512.442392 316.244295 
L 511.024193 308.947651 
L 509.265786 301.651007 
L 507.090909 294.005346 
L 504.20549 287.057718 
L 501.454545 281.016163 
L 498.520579 276.112752 
L 495.818182 271.806035 
L 490.181818 264.791456 
L 484.545455 259.276894 
L 482.849475 257.871141 
L 478.082067 254.222819 
L 472.367635 250.574497 
L 467.636364 248.082977 
L 462 245.588906 
L 455.715442 243.277852 
L 450.727273 241.839606 
L 445.090909 240.42883 
L 439.454545 239.272834 
L 433.818182 238.382573 
L 428.181818 237.624934 
L 416.909091 236.402517 
L 405.636364 235.442618 
L 383.090909 233.642226 
L 371.818182 232.925598 
L 360.545455 232.464851 
L 349.272727 232.378483 
L 343.636364 232.497728 
L 338 232.750434 
L 332.363636 233.142993 
L 321.090909 234.371165 
L 315.454545 235.207043 
L 309.818182 236.22692 
L 304.181818 237.542777 
L 296.504598 239.62953 
L 292.909091 240.805382 
L 286.226969 243.277852 
L 281.636364 245.27286 
L 276 248.044114 
L 270.363636 251.263394 
L 264.727273 255.033935 
L 259.090909 259.474582 
L 253.454545 264.717828 
L 253.032204 265.167785 
L 247.818182 271.105922 
L 246.793458 272.46443 
L 242.181818 279.016382 
L 239.6763 283.409396 
L 236.545455 289.357798 
L 234.519274 294.354362 
L 231.885179 301.651007 
L 230.750049 305.299329 
L 229.118703 312.595973 
L 227.839465 319.892617 
L 226.925351 327.189262 
L 226.373001 334.485906 
L 226.156619 341.78255 
L 226.249496 349.079195 
L 226.618702 356.375839 
L 227.222832 363.672483 
L 228.01432 370.969128 
L 229.469696 381.914094 
L 230.909091 390.93243 
L 232.156472 396.507383 
L 233.998645 403.804027 
L 236.545455 412.621771 
L 238.803848 418.397315 
L 242.181818 426.276799 
L 245.940391 432.990604 
L 248.123133 436.638926 
L 253.483777 443.93557 
L 259.090909 450.085163 
L 264.278675 454.880537 
L 264.727273 455.269908 
L 270.363636 459.565028 
L 276 463.220701 
L 281.636364 466.349757 
L 288.377326 469.473826 
L 292.909091 471.231418 
L 298.545455 473.209686 
L 304.181818 474.778603 
L 312.657099 476.77047 
L 315.454545 477.295719 
L 315.454545 477.295719 
" style="fill:none;stroke:#0000ff;stroke-width:3;"/>
   </g>
   <g id="line2d_1">
    <path clip-path="url(#p7441a63266)" d="M 234.15 539.4 
L 234.15 177 
" style="fill:none;stroke:#ff0000;stroke-linecap:square;stroke-width:1.5;"/>
   </g>
   <g id="line2d_2">
    <path clip-path="url(#p7441a63266)" d="M 503.85 539.4 
L 503.85 177 
" style="fill:none;stroke:#ff0000;stroke-linecap:square;stroke-width:1.5;"/>
   </g>
   <g id="line2d_3">
    <path clip-path="url(#p7441a63266)" d="M 234.15 539.4 
L 503.85 539.4 
" style="fill:none;stroke:#ff0000;stroke-linecap:square;stroke-width:1.5;"/>
   </g>
   <g id="line2d_4">
    <path clip-path="url(#p7441a63266)" d="M 234.15 177 
L 503.85 177 
" style="fill:none;stroke:#ff0000;stroke-linecap:square;stroke-width:1.5;"/>
   </g>
   <g id="text_1">
    <!-- Outside -->
    <defs>
     <path d="M 39.40625 66.21875 
Q 28.65625 66.21875 22.328125 58.203125 
Q 16.015625 50.203125 16.015625 36.375 
Q 16.015625 22.609375 22.328125 14.59375 
Q 28.65625 6.59375 39.40625 6.59375 
Q 50.140625 6.59375 56.421875 14.59375 
Q 62.703125 22.609375 62.703125 36.375 
Q 62.703125 50.203125 56.421875 58.203125 
Q 50.140625 66.21875 39.40625 66.21875 
z
M 39.40625 74.21875 
Q 54.734375 74.21875 63.90625 63.9375 
Q 73.09375 53.65625 73.09375 36.375 
Q 73.09375 19.140625 63.90625 8.859375 
Q 54.734375 -1.421875 39.40625 -1.421875 
Q 24.03125 -1.421875 14.8125 8.828125 
Q 5.609375 19.09375 5.609375 36.375 
Q 5.609375 53.65625 14.8125 63.9375 
Q 24.03125 74.21875 39.40625 74.21875 
z
" id="DejaVuSans-79"/>
     <path d="M 8.5 21.578125 
L 8.5 54.6875 
L 17.484375 54.6875 
L 17.484375 21.921875 
Q 17.484375 14.15625 20.5 10.265625 
Q 23.53125 6.390625 29.59375 6.390625 
Q 36.859375 6.390625 41.078125 11.03125 
Q 45.3125 15.671875 45.3125 23.6875 
L 45.3125 54.6875 
L 54.296875 54.6875 
L 54.296875 0 
L 45.3125 0 
L 45.3125 8.40625 
Q 42.046875 3.421875 37.71875 1 
Q 33.40625 -1.421875 27.6875 -1.421875 
Q 18.265625 -1.421875 13.375 4.4375 
Q 8.5 10.296875 8.5 21.578125 
z
M 31.109375 56 
z
" id="DejaVuSans-117"/>
     <path d="M 18.3125 70.21875 
L 18.3125 54.6875 
L 36.8125 54.6875 
L 36.8125 47.703125 
L 18.3125 47.703125 
L 18.3125 18.015625 
Q 18.3125 11.328125 20.140625 9.421875 
Q 21.96875 7.515625 27.59375 7.515625 
L 36.8125 7.515625 
L 36.8125 0 
L 27.59375 0 
Q 17.1875 0 13.234375 3.875 
Q 9.28125 7.765625 9.28125 18.015625 
L 9.28125 47.703125 
L 2.6875 47.703125 
L 2.6875 54.6875 
L 9.28125 54.6875 
L 9.28125 70.21875 
z
" id="DejaVuSans-116"/>
     <path d="M 44.28125 53.078125 
L 44.28125 44.578125 
Q 40.484375 46.53125 36.375 47.5 
Q 32.28125 48.484375 27.875 48.484375 
Q 21.1875 48.484375 17.84375 46.4375 
Q 14.5 44.390625 14.5 40.28125 
Q 14.5 37.15625 16.890625 35.375 
Q 19.28125 33.59375 26.515625 31.984375 
L 29.59375 31.296875 
Q 39.15625 29.25 43.1875 25.515625 
Q 47.21875 21.78125 47.21875 15.09375 
Q 47.21875 7.46875 41.1875 3.015625 
Q 35.15625 -1.421875 24.609375 -1.421875 
Q 20.21875 -1.421875 15.453125 -0.5625 
Q 10.6875 0.296875 5.421875 2 
L 5.421875 11.28125 
Q 10.40625 8.6875 15.234375 7.390625 
Q 20.0625 6.109375 24.8125 6.109375 
Q 31.15625 6.109375 34.5625 8.28125 
Q 37.984375 10.453125 37.984375 14.40625 
Q 37.984375 18.0625 35.515625 20.015625 
Q 33.0625 21.96875 24.703125 23.78125 
L 21.578125 24.515625 
Q 13.234375 26.265625 9.515625 29.90625 
Q 5.8125 33.546875 5.8125 39.890625 
Q 5.8125 47.609375 11.28125 51.796875 
Q 16.75 56 26.8125 56 
Q 31.78125 56 36.171875 55.265625 
Q 40.578125 54.546875 44.28125 53.078125 
z
" id="DejaVuSans-115"/>
     <path d="M 9.421875 54.6875 
L 18.40625 54.6875 
L 18.40625 0 
L 9.421875 0 
z
M 9.421875 75.984375 
L 18.40625 75.984375 
L 18.40625 64.59375 
L 9.421875 64.59375 
z
" id="DejaVuSans-105"/>
     <path d="M 45.40625 46.390625 
L 45.40625 75.984375 
L 54.390625 75.984375 
L 54.390625 0 
L 45.40625 0 
L 45.40625 8.203125 
Q 42.578125 3.328125 38.25 0.953125 
Q 33.9375 -1.421875 27.875 -1.421875 
Q 17.96875 -1.421875 11.734375 6.484375 
Q 5.515625 14.40625 5.515625 27.296875 
Q 5.515625 40.1875 11.734375 48.09375 
Q 17.96875 56 27.875 56 
Q 33.9375 56 38.25 53.625 
Q 42.578125 51.265625 45.40625 46.390625 
z
M 14.796875 27.296875 
Q 14.796875 17.390625 18.875 11.75 
Q 22.953125 6.109375 30.078125 6.109375 
Q 37.203125 6.109375 41.296875 11.75 
Q 45.40625 17.390625 45.40625 27.296875 
Q 45.40625 37.203125 41.296875 42.84375 
Q 37.203125 48.484375 30.078125 48.484375 
Q 22.953125 48.484375 18.875 42.84375 
Q 14.796875 37.203125 14.796875 27.296875 
z
" id="DejaVuSans-100"/>
     <path d="M 56.203125 29.59375 
L 56.203125 25.203125 
L 14.890625 25.203125 
Q 15.484375 15.921875 20.484375 11.0625 
Q 25.484375 6.203125 34.421875 6.203125 
Q 39.59375 6.203125 44.453125 7.46875 
Q 49.3125 8.734375 54.109375 11.28125 
L 54.109375 2.78125 
Q 49.265625 0.734375 44.1875 -0.34375 
Q 39.109375 -1.421875 33.890625 -1.421875 
Q 20.796875 -1.421875 13.15625 6.1875 
Q 5.515625 13.8125 5.515625 26.8125 
Q 5.515625 40.234375 12.765625 48.109375 
Q 20.015625 56 32.328125 56 
Q 43.359375 56 49.78125 48.890625 
Q 56.203125 41.796875 56.203125 29.59375 
z
M 47.21875 32.234375 
Q 47.125 39.59375 43.09375 43.984375 
Q 39.0625 48.390625 32.421875 48.390625 
Q 24.90625 48.390625 20.390625 44.140625 
Q 15.875 39.890625 15.1875 32.171875 
z
" id="DejaVuSans-101"/>
    </defs>
    <g transform="translate(517.8 539.4)scale(0.15 -0.15)">
     <use xlink:href="#DejaVuSans-79"/>
     <use x="78.710938" xlink:href="#DejaVuSans-117"/>
     <use x="142.089844" xlink:href="#DejaVuSans-116"/>
     <use x="181.298828" xlink:href="#DejaVuSans-115"/>
     <use x="233.398438" xlink:href="#DejaVuSans-105"/>
     <use x="261.181641" xlink:href="#DejaVuSans-100"/>
     <use x="324.658203" xlink:href="#DejaVuSans-101"/>
    </g>
   </g>
   <g id="text_2">
    <!-- Inside -->
    <defs>
     <path d="M 9.8125 72.90625 
L 19.671875 72.90625 
L 19.671875 0 
L 9.8125 0 
z
" id="DejaVuSans-73"/>
     <path d="M 54.890625 33.015625 
L 54.890625 0 
L 45.90625 0 
L 45.90625 32.71875 
Q 45.90625 40.484375 42.875 44.328125 
Q 39.84375 48.1875 33.796875 48.1875 
Q 26.515625 48.1875 22.3125 43.546875 
Q 18.109375 38.921875 18.109375 30.90625 
L 18.109375 0 
L 9.078125 0 
L 9.078125 54.6875 
L 18.109375 54.6875 
L 18.109375 46.1875 
Q 21.34375 51.125 25.703125 53.5625 
Q 30.078125 56 35.796875 56 
Q 45.21875 56 50.046875 50.171875 
Q 54.890625 44.34375 54.890625 33.015625 
z
" id="DejaVuSans-110"/>
    </defs>
    <g transform="translate(164.4 539.4)scale(0.15 -0.15)">
     <use xlink:href="#DejaVuSans-73"/>
     <use x="29.492188" xlink:href="#DejaVuSans-110"/>
     <use x="92.871094" xlink:href="#DejaVuSans-115"/>
     <use x="144.970703" xlink:href="#DejaVuSans-105"/>
     <use x="172.753906" xlink:href="#DejaVuSans-100"/>
     <use x="236.230469" xlink:href="#DejaVuSans-101"/>
    </g>
   </g>
   <g id="text_3">
    <!-- Righties, Umpire's Strikezone -->
    <defs>
     <path d="M 44.390625 34.1875 
Q 47.5625 33.109375 50.5625 29.59375 
Q 53.5625 26.078125 56.59375 19.921875 
L 66.609375 0 
L 56 0 
L 46.6875 18.703125 
Q 43.0625 26.03125 39.671875 28.421875 
Q 36.28125 30.8125 30.421875 30.8125 
L 19.671875 30.8125 
L 19.671875 0 
L 9.8125 0 
L 9.8125 72.90625 
L 32.078125 72.90625 
Q 44.578125 72.90625 50.734375 67.671875 
Q 56.890625 62.453125 56.890625 51.90625 
Q 56.890625 45.015625 53.6875 40.46875 
Q 50.484375 35.9375 44.390625 34.1875 
z
M 19.671875 64.796875 
L 19.671875 38.921875 
L 32.078125 38.921875 
Q 39.203125 38.921875 42.84375 42.21875 
Q 46.484375 45.515625 46.484375 51.90625 
Q 46.484375 58.296875 42.84375 61.546875 
Q 39.203125 64.796875 32.078125 64.796875 
z
" id="DejaVuSans-82"/>
     <path d="M 45.40625 27.984375 
Q 45.40625 37.75 41.375 43.109375 
Q 37.359375 48.484375 30.078125 48.484375 
Q 22.859375 48.484375 18.828125 43.109375 
Q 14.796875 37.75 14.796875 27.984375 
Q 14.796875 18.265625 18.828125 12.890625 
Q 22.859375 7.515625 30.078125 7.515625 
Q 37.359375 7.515625 41.375 12.890625 
Q 45.40625 18.265625 45.40625 27.984375 
z
M 54.390625 6.78125 
Q 54.390625 -7.171875 48.1875 -13.984375 
Q 42 -20.796875 29.203125 -20.796875 
Q 24.46875 -20.796875 20.265625 -20.09375 
Q 16.0625 -19.390625 12.109375 -17.921875 
L 12.109375 -9.1875 
Q 16.0625 -11.328125 19.921875 -12.34375 
Q 23.78125 -13.375 27.78125 -13.375 
Q 36.625 -13.375 41.015625 -8.765625 
Q 45.40625 -4.15625 45.40625 5.171875 
L 45.40625 9.625 
Q 42.625 4.78125 38.28125 2.390625 
Q 33.9375 0 27.875 0 
Q 17.828125 0 11.671875 7.65625 
Q 5.515625 15.328125 5.515625 27.984375 
Q 5.515625 40.671875 11.671875 48.328125 
Q 17.828125 56 27.875 56 
Q 33.9375 56 38.28125 53.609375 
Q 42.625 51.21875 45.40625 46.390625 
L 45.40625 54.6875 
L 54.390625 54.6875 
z
" id="DejaVuSans-103"/>
     <path d="M 54.890625 33.015625 
L 54.890625 0 
L 45.90625 0 
L 45.90625 32.71875 
Q 45.90625 40.484375 42.875 44.328125 
Q 39.84375 48.1875 33.796875 48.1875 
Q 26.515625 48.1875 22.3125 43.546875 
Q 18.109375 38.921875 18.109375 30.90625 
L 18.109375 0 
L 9.078125 0 
L 9.078125 75.984375 
L 18.109375 75.984375 
L 18.109375 46.1875 
Q 21.34375 51.125 25.703125 53.5625 
Q 30.078125 56 35.796875 56 
Q 45.21875 56 50.046875 50.171875 
Q 54.890625 44.34375 54.890625 33.015625 
z
" id="DejaVuSans-104"/>
     <path d="M 11.71875 12.40625 
L 22.015625 12.40625 
L 22.015625 4 
L 14.015625 -11.625 
L 7.71875 -11.625 
L 11.71875 4 
z
" id="DejaVuSans-44"/>
     <path id="DejaVuSans-32"/>
     <path d="M 8.6875 72.90625 
L 18.609375 72.90625 
L 18.609375 28.609375 
Q 18.609375 16.890625 22.84375 11.734375 
Q 27.09375 6.59375 36.625 6.59375 
Q 46.09375 6.59375 50.34375 11.734375 
Q 54.59375 16.890625 54.59375 28.609375 
L 54.59375 72.90625 
L 64.5 72.90625 
L 64.5 27.390625 
Q 64.5 13.140625 57.4375 5.859375 
Q 50.390625 -1.421875 36.625 -1.421875 
Q 22.796875 -1.421875 15.734375 5.859375 
Q 8.6875 13.140625 8.6875 27.390625 
z
" id="DejaVuSans-85"/>
     <path d="M 52 44.1875 
Q 55.375 50.25 60.0625 53.125 
Q 64.75 56 71.09375 56 
Q 79.640625 56 84.28125 50.015625 
Q 88.921875 44.046875 88.921875 33.015625 
L 88.921875 0 
L 79.890625 0 
L 79.890625 32.71875 
Q 79.890625 40.578125 77.09375 44.375 
Q 74.3125 48.1875 68.609375 48.1875 
Q 61.625 48.1875 57.5625 43.546875 
Q 53.515625 38.921875 53.515625 30.90625 
L 53.515625 0 
L 44.484375 0 
L 44.484375 32.71875 
Q 44.484375 40.625 41.703125 44.40625 
Q 38.921875 48.1875 33.109375 48.1875 
Q 26.21875 48.1875 22.15625 43.53125 
Q 18.109375 38.875 18.109375 30.90625 
L 18.109375 0 
L 9.078125 0 
L 9.078125 54.6875 
L 18.109375 54.6875 
L 18.109375 46.1875 
Q 21.1875 51.21875 25.484375 53.609375 
Q 29.78125 56 35.6875 56 
Q 41.65625 56 45.828125 52.96875 
Q 50 49.953125 52 44.1875 
z
" id="DejaVuSans-109"/>
     <path d="M 18.109375 8.203125 
L 18.109375 -20.796875 
L 9.078125 -20.796875 
L 9.078125 54.6875 
L 18.109375 54.6875 
L 18.109375 46.390625 
Q 20.953125 51.265625 25.265625 53.625 
Q 29.59375 56 35.59375 56 
Q 45.5625 56 51.78125 48.09375 
Q 58.015625 40.1875 58.015625 27.296875 
Q 58.015625 14.40625 51.78125 6.484375 
Q 45.5625 -1.421875 35.59375 -1.421875 
Q 29.59375 -1.421875 25.265625 0.953125 
Q 20.953125 3.328125 18.109375 8.203125 
z
M 48.6875 27.296875 
Q 48.6875 37.203125 44.609375 42.84375 
Q 40.53125 48.484375 33.40625 48.484375 
Q 26.265625 48.484375 22.1875 42.84375 
Q 18.109375 37.203125 18.109375 27.296875 
Q 18.109375 17.390625 22.1875 11.75 
Q 26.265625 6.109375 33.40625 6.109375 
Q 40.53125 6.109375 44.609375 11.75 
Q 48.6875 17.390625 48.6875 27.296875 
z
" id="DejaVuSans-112"/>
     <path d="M 41.109375 46.296875 
Q 39.59375 47.171875 37.8125 47.578125 
Q 36.03125 48 33.890625 48 
Q 26.265625 48 22.1875 43.046875 
Q 18.109375 38.09375 18.109375 28.8125 
L 18.109375 0 
L 9.078125 0 
L 9.078125 54.6875 
L 18.109375 54.6875 
L 18.109375 46.1875 
Q 20.953125 51.171875 25.484375 53.578125 
Q 30.03125 56 36.53125 56 
Q 37.453125 56 38.578125 55.875 
Q 39.703125 55.765625 41.0625 55.515625 
z
" id="DejaVuSans-114"/>
     <path d="M 17.921875 72.90625 
L 17.921875 45.796875 
L 9.625 45.796875 
L 9.625 72.90625 
z
" id="DejaVuSans-39"/>
     <path d="M 53.515625 70.515625 
L 53.515625 60.890625 
Q 47.90625 63.578125 42.921875 64.890625 
Q 37.9375 66.21875 33.296875 66.21875 
Q 25.25 66.21875 20.875 63.09375 
Q 16.5 59.96875 16.5 54.203125 
Q 16.5 49.359375 19.40625 46.890625 
Q 22.3125 44.4375 30.421875 42.921875 
L 36.375 41.703125 
Q 47.40625 39.59375 52.65625 34.296875 
Q 57.90625 29 57.90625 20.125 
Q 57.90625 9.515625 50.796875 4.046875 
Q 43.703125 -1.421875 29.984375 -1.421875 
Q 24.8125 -1.421875 18.96875 -0.25 
Q 13.140625 0.921875 6.890625 3.21875 
L 6.890625 13.375 
Q 12.890625 10.015625 18.65625 8.296875 
Q 24.421875 6.59375 29.984375 6.59375 
Q 38.421875 6.59375 43.015625 9.90625 
Q 47.609375 13.234375 47.609375 19.390625 
Q 47.609375 24.75 44.3125 27.78125 
Q 41.015625 30.8125 33.5 32.328125 
L 27.484375 33.5 
Q 16.453125 35.6875 11.515625 40.375 
Q 6.59375 45.0625 6.59375 53.421875 
Q 6.59375 63.09375 13.40625 68.65625 
Q 20.21875 74.21875 32.171875 74.21875 
Q 37.3125 74.21875 42.625 73.28125 
Q 47.953125 72.359375 53.515625 70.515625 
z
" id="DejaVuSans-83"/>
     <path d="M 9.078125 75.984375 
L 18.109375 75.984375 
L 18.109375 31.109375 
L 44.921875 54.6875 
L 56.390625 54.6875 
L 27.390625 29.109375 
L 57.625 0 
L 45.90625 0 
L 18.109375 26.703125 
L 18.109375 0 
L 9.078125 0 
z
" id="DejaVuSans-107"/>
     <path d="M 5.515625 54.6875 
L 48.1875 54.6875 
L 48.1875 46.484375 
L 14.40625 7.171875 
L 48.1875 7.171875 
L 48.1875 0 
L 4.296875 0 
L 4.296875 8.203125 
L 38.09375 47.515625 
L 5.515625 47.515625 
z
" id="DejaVuSans-122"/>
     <path d="M 30.609375 48.390625 
Q 23.390625 48.390625 19.1875 42.75 
Q 14.984375 37.109375 14.984375 27.296875 
Q 14.984375 17.484375 19.15625 11.84375 
Q 23.34375 6.203125 30.609375 6.203125 
Q 37.796875 6.203125 41.984375 11.859375 
Q 46.1875 17.53125 46.1875 27.296875 
Q 46.1875 37.015625 41.984375 42.703125 
Q 37.796875 48.390625 30.609375 48.390625 
z
M 30.609375 56 
Q 42.328125 56 49.015625 48.375 
Q 55.71875 40.765625 55.71875 27.296875 
Q 55.71875 13.875 49.015625 6.21875 
Q 42.328125 -1.421875 30.609375 -1.421875 
Q 18.84375 -1.421875 12.171875 6.21875 
Q 5.515625 13.875 5.515625 27.296875 
Q 5.515625 40.765625 12.171875 48.375 
Q 18.84375 56 30.609375 56 
z
" id="DejaVuSans-111"/>
    </defs>
    <g transform="translate(184.791016 80.4)scale(0.25 -0.25)">
     <use xlink:href="#DejaVuSans-82"/>
     <use x="69.482422" xlink:href="#DejaVuSans-105"/>
     <use x="97.265625" xlink:href="#DejaVuSans-103"/>
     <use x="160.742188" xlink:href="#DejaVuSans-104"/>
     <use x="224.121094" xlink:href="#DejaVuSans-116"/>
     <use x="263.330078" xlink:href="#DejaVuSans-105"/>
     <use x="291.113281" xlink:href="#DejaVuSans-101"/>
     <use x="352.636719" xlink:href="#DejaVuSans-115"/>
     <use x="404.736328" xlink:href="#DejaVuSans-44"/>
     <use x="436.523438" xlink:href="#DejaVuSans-32"/>
     <use x="468.310547" xlink:href="#DejaVuSans-85"/>
     <use x="541.503906" xlink:href="#DejaVuSans-109"/>
     <use x="638.916016" xlink:href="#DejaVuSans-112"/>
     <use x="702.392578" xlink:href="#DejaVuSans-105"/>
     <use x="730.175781" xlink:href="#DejaVuSans-114"/>
     <use x="771.257812" xlink:href="#DejaVuSans-101"/>
     <use x="832.78125" xlink:href="#DejaVuSans-39"/>
     <use x="860.271484" xlink:href="#DejaVuSans-115"/>
     <use x="912.371094" xlink:href="#DejaVuSans-32"/>
     <use x="944.158203" xlink:href="#DejaVuSans-83"/>
     <use x="1007.634766" xlink:href="#DejaVuSans-116"/>
     <use x="1046.84375" xlink:href="#DejaVuSans-114"/>
     <use x="1087.957031" xlink:href="#DejaVuSans-105"/>
     <use x="1115.740234" xlink:href="#DejaVuSans-107"/>
     <use x="1173.603516" xlink:href="#DejaVuSans-101"/>
     <use x="1235.126953" xlink:href="#DejaVuSans-122"/>
     <use x="1287.617188" xlink:href="#DejaVuSans-111"/>
     <use x="1348.798828" xlink:href="#DejaVuSans-110"/>
     <use x="1412.177734" xlink:href="#DejaVuSans-101"/>
    </g>
   </g>
  </g>
 </g>
 <defs>
  <clipPath id="p7441a63266">
   <rect height="543.6" width="558" x="90" y="86.4"/>
  </clipPath>
 </defs>
</svg>
