<?xml version="1.0" encoding="utf-8" standalone="no"?>
<!DOCTYPE svg PUBLIC "-//W3C//DTD SVG 1.1//EN"
  "http://www.w3.org/Graphics/SVG/1.1/DTD/svg11.dtd">
<!-- Created with matplotlib (https://matplotlib.org/) -->
<svg height="720pt" version="1.1" viewBox="0 0 720 720" width="720pt" xmlns="http://www.w3.org/2000/svg" xmlns:xlink="http://www.w3.org/1999/xlink">
 <defs>
  <style type="text/css">
*{stroke-linecap:butt;stroke-linejoin:round;}
  </style>
 </defs>
 <g id="figure_1">
  <g id="patch_1">
   <path d="M 0 720 
L 720 720 
L 720 0 
L 0 0 
z
" style="fill:#ffffff;"/>
  </g>
  <g id="axes_1">
   <g id="patch_2">
    <path d="M 90 630 
L 648 630 
L 648 86.4 
L 90 86.4 
z
" style="fill:#ffffff;"/>
   </g>
   <g id="matplotlib.axis_1"/>
   <g id="matplotlib.axis_2"/>
   <g id="patch_3">
    <path clip-path="url(#pcc143b4a76)" d="M 234.15 297.8604 
L 324.0438 297.8604 
L 324.0438 177.07248 
L 234.15 177.07248 
z
" style="fill:#f7a889;opacity:0.5;stroke:#000000;stroke-linejoin:miter;"/>
   </g>
   <g id="patch_4">
    <path clip-path="url(#pcc143b4a76)" d="M 324.049938 297.8604 
L 413.943738 297.8604 
L 413.943738 177.07248 
L 324.049938 177.07248 
z
" style="fill:#f7b093;opacity:0.5;stroke:#000000;stroke-linejoin:miter;"/>
   </g>
   <g id="patch_5">
    <path clip-path="url(#pcc143b4a76)" d="M 413.950062 297.8604 
L 503.843862 297.8604 
L 503.843862 177.07248 
L 413.950062 177.07248 
z
" style="fill:#c4d5f3;opacity:0.5;stroke:#000000;stroke-linejoin:miter;"/>
   </g>
   <g id="patch_6">
    <path clip-path="url(#pcc143b4a76)" d="M 234.15 418.7208 
L 324.0438 418.7208 
L 324.0438 297.93288 
L 234.15 297.93288 
z
" style="fill:#d24b40;opacity:0.5;stroke:#000000;stroke-linejoin:miter;"/>
   </g>
   <g id="patch_7">
    <path clip-path="url(#pcc143b4a76)" d="M 324.049938 418.7208 
L 413.943738 418.7208 
L 413.943738 297.93288 
L 324.049938 297.93288 
z
" style="fill:#b8122a;opacity:0.5;stroke:#000000;stroke-linejoin:miter;"/>
   </g>
   <g id="patch_8">
    <path clip-path="url(#pcc143b4a76)" d="M 413.950062 418.7208 
L 503.843862 418.7208 
L 503.843862 297.93288 
L 413.950062 297.93288 
z
" style="fill:#c53334;opacity:0.5;stroke:#000000;stroke-linejoin:miter;"/>
   </g>
   <g id="patch_9">
    <path clip-path="url(#pcc143b4a76)" d="M 234.15 539.4 
L 324.0438 539.4 
L 324.0438 418.61208 
L 234.15 418.61208 
z
" style="fill:#81a4fb;opacity:0.5;stroke:#000000;stroke-linejoin:miter;"/>
   </g>
   <g id="patch_10">
    <path clip-path="url(#pcc143b4a76)" d="M 324.049938 539.4 
L 413.943738 539.4 
L 413.943738 418.61208 
L 324.049938 418.61208 
z
" style="fill:#cdd9ec;opacity:0.5;stroke:#000000;stroke-linejoin:miter;"/>
   </g>
   <g id="patch_11">
    <path clip-path="url(#pcc143b4a76)" d="M 413.950062 539.4 
L 503.843862 539.4 
L 503.843862 418.61208 
L 413.950062 418.61208 
z
" style="fill:#c7d7f0;opacity:0.5;stroke:#000000;stroke-linejoin:miter;"/>
   </g>
   <g id="LineCollection_1">
    <path clip-path="url(#pcc143b4a76)" d="M 349.272727 527.894413 
L 400 529.617151 
L 416.909091 529.482242 
L 422.545455 529.247289 
L 428.181818 528.883234 
L 439.454545 527.716972 
L 445.090909 527.073854 
L 450.727273 526.1346 
L 456.363636 525.014414 
L 462 523.648794 
L 467.636364 522.031646 
L 473.272727 520.220379 
L 478.909091 518.090289 
L 484.545455 515.578687 
L 490.181818 512.827466 
L 495.9614 509.605369 
L 501.511482 505.957047 
L 507.090909 501.834507 
L 512.727273 497.107723 
L 518.667996 491.363758 
L 524 485.276669 
L 529.636364 478.343484 
L 533.305886 473.122148 
L 535.645278 469.473826 
L 539.900117 462.177181 
L 541.858267 458.528859 
L 545.240648 451.232215 
L 548.177166 443.93557 
L 550.711731 436.638926 
L 552.181818 431.765668 
L 553.73223 425.69396 
L 555.274764 418.397315 
L 556.474801 411.100671 
L 557.818182 401.180066 
L 558.260863 396.507383 
L 558.78346 389.210738 
L 559.317446 374.61745 
L 559.284565 352.727517 
L 558.937117 341.78255 
L 558.274452 330.837584 
L 557.624286 323.54094 
L 556.726926 316.244295 
L 555.714276 308.947651 
L 554.442524 301.651007 
L 552.861278 294.354362 
L 551.138621 287.057718 
L 549.054871 279.761074 
L 546.545455 272.233943 
L 545.277912 268.816107 
L 542.259071 261.519463 
L 540.560601 257.871141 
L 536.860409 250.574497 
L 534.789412 246.926174 
L 529.636364 238.776059 
L 524 231.163988 
L 521.92397 228.684564 
L 518.363636 224.647231 
L 512.727273 219.126986 
L 507.028252 214.091275 
L 501.454545 210.125402 
L 495.818182 206.398738 
L 490.181818 203.143158 
L 484.545455 200.291445 
L 478.909091 197.929367 
L 473.272727 195.790798 
L 467.636364 193.885545 
L 456.363636 191.037107 
L 450.727273 189.860259 
L 439.454545 188.255762 
L 433.818182 187.546177 
L 428.181818 186.998106 
L 422.545455 186.670266 
L 411.272727 186.392512 
L 400 186.366297 
L 388.727273 186.532313 
L 371.818182 187.196858 
L 366.181818 187.634927 
L 360.545455 187.901837 
L 349.272727 188.094447 
L 343.636364 188.336316 
L 332.252763 188.55302 
L 321.090909 189.123588 
L 309.818182 190.070319 
L 298.545455 191.586023 
L 287.272727 193.982273 
L 280.361249 195.849664 
L 276 197.22122 
L 269.551196 199.497987 
L 264.727273 201.515593 
L 259.090909 204.18372 
L 253.454545 207.138541 
L 247.818182 210.548474 
L 242.181818 214.566908 
L 233.538877 221.387919 
L 225.272727 228.633494 
L 225.220572 228.684564 
L 219.636364 234.634467 
L 215.494794 239.62953 
L 212.62555 243.277852 
L 208.363636 249.366417 
L 207.579581 250.574497 
L 202.727273 258.737564 
L 199.390392 265.167785 
L 197.090909 270.173663 
L 193.351334 279.761074 
L 190.829714 287.057718 
L 189.669408 290.70604 
L 188.648471 294.354362 
L 186.911528 301.651007 
L 185.381328 308.947651 
L 184.18365 316.244295 
L 183.23107 323.54094 
L 182.152328 334.485906 
L 181.690207 341.78255 
L 181.374889 349.079195 
L 181.139955 360.024161 
L 181.146201 370.969128 
L 181.45979 381.914094 
L 181.879938 389.210738 
L 182.49253 396.507383 
L 183.325226 403.804027 
L 184.4549 411.100671 
L 186.806379 422.045638 
L 188.799109 429.342282 
L 191.454545 437.241068 
L 194.184816 443.93557 
L 197.090909 450.152929 
L 199.614421 454.880537 
L 202.727273 460.141256 
L 206.364572 465.825503 
L 208.984474 469.473826 
L 214 475.837588 
L 217.964131 480.418792 
L 221.352499 484.067114 
L 225.272727 487.90732 
L 230.909091 493.008958 
L 233.270806 495.012081 
L 237.950968 498.660403 
L 242.977217 502.308725 
L 248.694238 505.957047 
L 255.050334 509.605369 
L 259.090909 511.790374 
L 264.727273 514.443103 
L 270.830804 516.902013 
L 281.502301 520.550336 
L 281.636364 520.593733 
L 287.272727 522.015552 
L 292.909091 523.268376 
L 298.545455 524.322206 
L 304.181818 525.145677 
L 309.818182 525.819878 
L 315.454545 526.362633 
L 326.727273 527.114023 
L 338 527.581395 
L 349.272727 527.894413 
L 349.272727 527.894413 
" style="fill:none;stroke:#000000;stroke-width:3;"/>
   </g>
   <g id="LineCollection_2">
    <path clip-path="url(#pcc143b4a76)" d="M 400 480.928115 
L 405.636364 481.013724 
L 411.272727 480.907992 
L 422.749621 480.418792 
L 433.818182 479.085685 
L 439.454545 478.140417 
L 446.28597 476.77047 
L 456.363636 473.729413 
L 462 471.336737 
L 466.212934 469.473826 
L 467.636364 468.711888 
L 473.272727 465.390021 
L 478.909091 461.851299 
L 484.545455 457.118771 
L 490.582151 451.232215 
L 493.377966 447.583893 
L 498.671613 440.287248 
L 501.454545 435.95764 
L 504.323079 429.342282 
L 505.6498 425.69396 
L 507.202016 422.045638 
L 508.495393 418.397315 
L 509.561535 414.748993 
L 511.2227 407.452349 
L 511.924532 403.804027 
L 512.351333 400.155705 
L 513.120217 396.507383 
L 513.878372 389.210738 
L 514.126084 385.562416 
L 514.732114 367.320805 
L 514.695076 360.024161 
L 514.387489 352.727517 
L 514.318979 345.430872 
L 513.794083 338.134228 
L 513.55152 334.485906 
L 512.959941 330.837584 
L 512.727273 326.728067 
L 511.48445 319.892617 
L 509.661661 312.595973 
L 508.228986 305.299329 
L 507.090909 301.375217 
L 504.721217 294.354362 
L 503.25058 290.70604 
L 501.454545 286.597292 
L 499.715815 283.409396 
L 493.130396 272.46443 
L 490.181818 268.648527 
L 486.724573 265.167785 
L 483.245417 261.519463 
L 478.909091 257.320149 
L 474.848534 254.222819 
L 473.272727 253.219267 
L 467.636364 249.264851 
L 462 246.42594 
L 456.363636 243.83657 
L 454.835813 243.277852 
L 450.727273 241.988589 
L 445.090909 240.350669 
L 439.454545 239.007547 
L 433.818182 238.011168 
L 416.909091 236.245034 
L 411.272727 235.974579 
L 400 235.916285 
L 394.363636 236.098519 
L 388.727273 236.810223 
L 383.090909 237.360312 
L 377.454545 237.556306 
L 371.818182 237.484528 
L 366.181818 237.957661 
L 332.363636 239.752989 
L 315.454545 241.618392 
L 309.818182 242.416868 
L 304.181818 243.581465 
L 298.545455 245.217671 
L 292.909091 247.717318 
L 285.569708 250.574497 
L 281.636364 252.365312 
L 276 255.664477 
L 272.94338 257.871141 
L 268.324299 261.519463 
L 264.475971 265.167785 
L 261.088583 268.816107 
L 259.090909 270.750297 
L 255.542479 276.112752 
L 252.734923 279.761074 
L 247.818182 288.080032 
L 246.627781 290.70604 
L 242.123506 301.651007 
L 240.951724 305.299329 
L 239.089726 312.595973 
L 237.971118 316.244295 
L 237.131834 319.892617 
L 235.785327 327.189262 
L 234.884203 334.485906 
L 234.274223 341.78255 
L 233.951274 345.430872 
L 233.574676 352.727517 
L 233.391859 360.024161 
L 233.497539 367.320805 
L 233.686539 378.265772 
L 235.374887 396.507383 
L 235.897395 400.155705 
L 236.588588 403.804027 
L 237.437118 407.452349 
L 239.526492 414.748993 
L 241.868722 422.045638 
L 242.181818 422.841367 
L 245.38656 429.342282 
L 247.818182 434.386011 
L 249.226911 436.638926 
L 253.454545 442.902742 
L 254.29567 443.93557 
L 259.090909 449.329645 
L 264.727273 454.448588 
L 270.363636 458.923024 
L 276 462.970301 
L 281.636364 466.164426 
L 287.272727 468.726503 
L 292.909091 470.679809 
L 298.545455 472.478708 
L 300.966913 473.122148 
L 304.181818 473.835058 
L 309.818182 474.936878 
L 323.504315 476.77047 
L 326.727273 477.091273 
L 332.363636 477.528367 
L 366.181818 479.231178 
L 377.454545 479.914802 
L 388.727273 480.006595 
L 394.724726 480.418792 
L 400 480.928115 
L 400 480.928115 
" style="fill:none;stroke:#0000ff;stroke-width:3;"/>
   </g>
   <g id="line2d_1">
    <path clip-path="url(#pcc143b4a76)" d="M 234.15 539.4 
L 234.15 177 
" style="fill:none;stroke:#ff0000;stroke-linecap:square;stroke-width:1.5;"/>
   </g>
   <g id="line2d_2">
    <path clip-path="url(#pcc143b4a76)" d="M 503.85 539.4 
L 503.85 177 
" style="fill:none;stroke:#ff0000;stroke-linecap:square;stroke-width:1.5;"/>
   </g>
   <g id="line2d_3">
    <path clip-path="url(#pcc143b4a76)" d="M 234.15 539.4 
L 503.85 539.4 
" style="fill:none;stroke:#ff0000;stroke-linecap:square;stroke-width:1.5;"/>
   </g>
   <g id="line2d_4">
    <path clip-path="url(#pcc143b4a76)" d="M 234.15 177 
L 503.85 177 
" style="fill:none;stroke:#ff0000;stroke-linecap:square;stroke-width:1.5;"/>
   </g>
   <g id="text_1">
    <!-- RightyPitch, LeftyBatter, Umpire's Strikezone -->
    <defs>
     <path d="M 44.390625 34.1875 
Q 47.5625 33.109375 50.5625 29.59375 
Q 53.5625 26.078125 56.59375 19.921875 
L 66.609375 0 
L 56 0 
L 46.6875 18.703125 
Q 43.0625 26.03125 39.671875 28.421875 
Q 36.28125 30.8125 30.421875 30.8125 
L 19.671875 30.8125 
L 19.671875 0 
L 9.8125 0 
L 9.8125 72.90625 
L 32.078125 72.90625 
Q 44.578125 72.90625 50.734375 67.671875 
Q 56.890625 62.453125 56.890625 51.90625 
Q 56.890625 45.015625 53.6875 40.46875 
Q 50.484375 35.9375 44.390625 34.1875 
z
M 19.671875 64.796875 
L 19.671875 38.921875 
L 32.078125 38.921875 
Q 39.203125 38.921875 42.84375 42.21875 
Q 46.484375 45.515625 46.484375 51.90625 
Q 46.484375 58.296875 42.84375 61.546875 
Q 39.203125 64.796875 32.078125 64.796875 
z
" id="DejaVuSans-82"/>
     <path d="M 9.421875 54.6875 
L 18.40625 54.6875 
L 18.40625 0 
L 9.421875 0 
z
M 9.421875 75.984375 
L 18.40625 75.984375 
L 18.40625 64.59375 
L 9.421875 64.59375 
z
" id="DejaVuSans-105"/>
     <path d="M 45.40625 27.984375 
Q 45.40625 37.75 41.375 43.109375 
Q 37.359375 48.484375 30.078125 48.484375 
Q 22.859375 48.484375 18.828125 43.109375 
Q 14.796875 37.75 14.796875 27.984375 
Q 14.796875 18.265625 18.828125 12.890625 
Q 22.859375 7.515625 30.078125 7.515625 
Q 37.359375 7.515625 41.375 12.890625 
Q 45.40625 18.265625 45.40625 27.984375 
z
M 54.390625 6.78125 
Q 54.390625 -7.171875 48.1875 -13.984375 
Q 42 -20.796875 29.203125 -20.796875 
Q 24.46875 -20.796875 20.265625 -20.09375 
Q 16.0625 -19.390625 12.109375 -17.921875 
L 12.109375 -9.1875 
Q 16.0625 -11.328125 19.921875 -12.34375 
Q 23.78125 -13.375 27.78125 -13.375 
Q 36.625 -13.375 41.015625 -8.765625 
Q 45.40625 -4.15625 45.40625 5.171875 
L 45.40625 9.625 
Q 42.625 4.78125 38.28125 2.390625 
Q 33.9375 0 27.875 0 
Q 17.828125 0 11.671875 7.65625 
Q 5.515625 15.328125 5.515625 27.984375 
Q 5.515625 40.671875 11.671875 48.328125 
Q 17.828125 56 27.875 56 
Q 33.9375 56 38.28125 53.609375 
Q 42.625 51.21875 45.40625 46.390625 
L 45.40625 54.6875 
L 54.390625 54.6875 
z
" id="DejaVuSans-103"/>
     <path d="M 54.890625 33.015625 
L 54.890625 0 
L 45.90625 0 
L 45.90625 32.71875 
Q 45.90625 40.484375 42.875 44.328125 
Q 39.84375 48.1875 33.796875 48.1875 
Q 26.515625 48.1875 22.3125 43.546875 
Q 18.109375 38.921875 18.109375 30.90625 
L 18.109375 0 
L 9.078125 0 
L 9.078125 75.984375 
L 18.109375 75.984375 
L 18.109375 46.1875 
Q 21.34375 51.125 25.703125 53.5625 
Q 30.078125 56 35.796875 56 
Q 45.21875 56 50.046875 50.171875 
Q 54.890625 44.34375 54.890625 33.015625 
z
" id="DejaVuSans-104"/>
     <path d="M 18.3125 70.21875 
L 18.3125 54.6875 
L 36.8125 54.6875 
L 36.8125 47.703125 
L 18.3125 47.703125 
L 18.3125 18.015625 
Q 18.3125 11.328125 20.140625 9.421875 
Q 21.96875 7.515625 27.59375 7.515625 
L 36.8125 7.515625 
L 36.8125 0 
L 27.59375 0 
Q 17.1875 0 13.234375 3.875 
Q 9.28125 7.765625 9.28125 18.015625 
L 9.28125 47.703125 
L 2.6875 47.703125 
L 2.6875 54.6875 
L 9.28125 54.6875 
L 9.28125 70.21875 
z
" id="DejaVuSans-116"/>
     <path d="M 32.171875 -5.078125 
Q 28.375 -14.84375 24.75 -17.8125 
Q 21.140625 -20.796875 15.09375 -20.796875 
L 7.90625 -20.796875 
L 7.90625 -13.28125 
L 13.1875 -13.28125 
Q 16.890625 -13.28125 18.9375 -11.515625 
Q 21 -9.765625 23.484375 -3.21875 
L 25.09375 0.875 
L 2.984375 54.6875 
L 12.5 54.6875 
L 29.59375 11.921875 
L 46.6875 54.6875 
L 56.203125 54.6875 
z
" id="DejaVuSans-121"/>
     <path d="M 19.671875 64.796875 
L 19.671875 37.40625 
L 32.078125 37.40625 
Q 38.96875 37.40625 42.71875 40.96875 
Q 46.484375 44.53125 46.484375 51.125 
Q 46.484375 57.671875 42.71875 61.234375 
Q 38.96875 64.796875 32.078125 64.796875 
z
M 9.8125 72.90625 
L 32.078125 72.90625 
Q 44.34375 72.90625 50.609375 67.359375 
Q 56.890625 61.8125 56.890625 51.125 
Q 56.890625 40.328125 50.609375 34.8125 
Q 44.34375 29.296875 32.078125 29.296875 
L 19.671875 29.296875 
L 19.671875 0 
L 9.8125 0 
z
" id="DejaVuSans-80"/>
     <path d="M 48.78125 52.59375 
L 48.78125 44.1875 
Q 44.96875 46.296875 41.140625 47.34375 
Q 37.3125 48.390625 33.40625 48.390625 
Q 24.65625 48.390625 19.8125 42.84375 
Q 14.984375 37.3125 14.984375 27.296875 
Q 14.984375 17.28125 19.8125 11.734375 
Q 24.65625 6.203125 33.40625 6.203125 
Q 37.3125 6.203125 41.140625 7.25 
Q 44.96875 8.296875 48.78125 10.40625 
L 48.78125 2.09375 
Q 45.015625 0.34375 40.984375 -0.53125 
Q 36.96875 -1.421875 32.421875 -1.421875 
Q 20.0625 -1.421875 12.78125 6.34375 
Q 5.515625 14.109375 5.515625 27.296875 
Q 5.515625 40.671875 12.859375 48.328125 
Q 20.21875 56 33.015625 56 
Q 37.15625 56 41.109375 55.140625 
Q 45.0625 54.296875 48.78125 52.59375 
z
" id="DejaVuSans-99"/>
     <path d="M 11.71875 12.40625 
L 22.015625 12.40625 
L 22.015625 4 
L 14.015625 -11.625 
L 7.71875 -11.625 
L 11.71875 4 
z
" id="DejaVuSans-44"/>
     <path id="DejaVuSans-32"/>
     <path d="M 9.8125 72.90625 
L 19.671875 72.90625 
L 19.671875 8.296875 
L 55.171875 8.296875 
L 55.171875 0 
L 9.8125 0 
z
" id="DejaVuSans-76"/>
     <path d="M 56.203125 29.59375 
L 56.203125 25.203125 
L 14.890625 25.203125 
Q 15.484375 15.921875 20.484375 11.0625 
Q 25.484375 6.203125 34.421875 6.203125 
Q 39.59375 6.203125 44.453125 7.46875 
Q 49.3125 8.734375 54.109375 11.28125 
L 54.109375 2.78125 
Q 49.265625 0.734375 44.1875 -0.34375 
Q 39.109375 -1.421875 33.890625 -1.421875 
Q 20.796875 -1.421875 13.15625 6.1875 
Q 5.515625 13.8125 5.515625 26.8125 
Q 5.515625 40.234375 12.765625 48.109375 
Q 20.015625 56 32.328125 56 
Q 43.359375 56 49.78125 48.890625 
Q 56.203125 41.796875 56.203125 29.59375 
z
M 47.21875 32.234375 
Q 47.125 39.59375 43.09375 43.984375 
Q 39.0625 48.390625 32.421875 48.390625 
Q 24.90625 48.390625 20.390625 44.140625 
Q 15.875 39.890625 15.1875 32.171875 
z
" id="DejaVuSans-101"/>
     <path d="M 37.109375 75.984375 
L 37.109375 68.5 
L 28.515625 68.5 
Q 23.6875 68.5 21.796875 66.546875 
Q 19.921875 64.59375 19.921875 59.515625 
L 19.921875 54.6875 
L 34.71875 54.6875 
L 34.71875 47.703125 
L 19.921875 47.703125 
L 19.921875 0 
L 10.890625 0 
L 10.890625 47.703125 
L 2.296875 47.703125 
L 2.296875 54.6875 
L 10.890625 54.6875 
L 10.890625 58.5 
Q 10.890625 67.625 15.140625 71.796875 
Q 19.390625 75.984375 28.609375 75.984375 
z
" id="DejaVuSans-102"/>
     <path d="M 19.671875 34.8125 
L 19.671875 8.109375 
L 35.5 8.109375 
Q 43.453125 8.109375 47.28125 11.40625 
Q 51.125 14.703125 51.125 21.484375 
Q 51.125 28.328125 47.28125 31.5625 
Q 43.453125 34.8125 35.5 34.8125 
z
M 19.671875 64.796875 
L 19.671875 42.828125 
L 34.28125 42.828125 
Q 41.5 42.828125 45.03125 45.53125 
Q 48.578125 48.25 48.578125 53.8125 
Q 48.578125 59.328125 45.03125 62.0625 
Q 41.5 64.796875 34.28125 64.796875 
z
M 9.8125 72.90625 
L 35.015625 72.90625 
Q 46.296875 72.90625 52.390625 68.21875 
Q 58.5 63.53125 58.5 54.890625 
Q 58.5 48.1875 55.375 44.234375 
Q 52.25 40.28125 46.1875 39.3125 
Q 53.46875 37.75 57.5 32.78125 
Q 61.53125 27.828125 61.53125 20.40625 
Q 61.53125 10.640625 54.890625 5.3125 
Q 48.25 0 35.984375 0 
L 9.8125 0 
z
" id="DejaVuSans-66"/>
     <path d="M 34.28125 27.484375 
Q 23.390625 27.484375 19.1875 25 
Q 14.984375 22.515625 14.984375 16.5 
Q 14.984375 11.71875 18.140625 8.90625 
Q 21.296875 6.109375 26.703125 6.109375 
Q 34.1875 6.109375 38.703125 11.40625 
Q 43.21875 16.703125 43.21875 25.484375 
L 43.21875 27.484375 
z
M 52.203125 31.203125 
L 52.203125 0 
L 43.21875 0 
L 43.21875 8.296875 
Q 40.140625 3.328125 35.546875 0.953125 
Q 30.953125 -1.421875 24.3125 -1.421875 
Q 15.921875 -1.421875 10.953125 3.296875 
Q 6 8.015625 6 15.921875 
Q 6 25.140625 12.171875 29.828125 
Q 18.359375 34.515625 30.609375 34.515625 
L 43.21875 34.515625 
L 43.21875 35.40625 
Q 43.21875 41.609375 39.140625 45 
Q 35.0625 48.390625 27.6875 48.390625 
Q 23 48.390625 18.546875 47.265625 
Q 14.109375 46.140625 10.015625 43.890625 
L 10.015625 52.203125 
Q 14.9375 54.109375 19.578125 55.046875 
Q 24.21875 56 28.609375 56 
Q 40.484375 56 46.34375 49.84375 
Q 52.203125 43.703125 52.203125 31.203125 
z
" id="DejaVuSans-97"/>
     <path d="M 41.109375 46.296875 
Q 39.59375 47.171875 37.8125 47.578125 
Q 36.03125 48 33.890625 48 
Q 26.265625 48 22.1875 43.046875 
Q 18.109375 38.09375 18.109375 28.8125 
L 18.109375 0 
L 9.078125 0 
L 9.078125 54.6875 
L 18.109375 54.6875 
L 18.109375 46.1875 
Q 20.953125 51.171875 25.484375 53.578125 
Q 30.03125 56 36.53125 56 
Q 37.453125 56 38.578125 55.875 
Q 39.703125 55.765625 41.0625 55.515625 
z
" id="DejaVuSans-114"/>
     <path d="M 8.6875 72.90625 
L 18.609375 72.90625 
L 18.609375 28.609375 
Q 18.609375 16.890625 22.84375 11.734375 
Q 27.09375 6.59375 36.625 6.59375 
Q 46.09375 6.59375 50.34375 11.734375 
Q 54.59375 16.890625 54.59375 28.609375 
L 54.59375 72.90625 
L 64.5 72.90625 
L 64.5 27.390625 
Q 64.5 13.140625 57.4375 5.859375 
Q 50.390625 -1.421875 36.625 -1.421875 
Q 22.796875 -1.421875 15.734375 5.859375 
Q 8.6875 13.140625 8.6875 27.390625 
z
" id="DejaVuSans-85"/>
     <path d="M 52 44.1875 
Q 55.375 50.25 60.0625 53.125 
Q 64.75 56 71.09375 56 
Q 79.640625 56 84.28125 50.015625 
Q 88.921875 44.046875 88.921875 33.015625 
L 88.921875 0 
L 79.890625 0 
L 79.890625 32.71875 
Q 79.890625 40.578125 77.09375 44.375 
Q 74.3125 48.1875 68.609375 48.1875 
Q 61.625 48.1875 57.5625 43.546875 
Q 53.515625 38.921875 53.515625 30.90625 
L 53.515625 0 
L 44.484375 0 
L 44.484375 32.71875 
Q 44.484375 40.625 41.703125 44.40625 
Q 38.921875 48.1875 33.109375 48.1875 
Q 26.21875 48.1875 22.15625 43.53125 
Q 18.109375 38.875 18.109375 30.90625 
L 18.109375 0 
L 9.078125 0 
L 9.078125 54.6875 
L 18.109375 54.6875 
L 18.109375 46.1875 
Q 21.1875 51.21875 25.484375 53.609375 
Q 29.78125 56 35.6875 56 
Q 41.65625 56 45.828125 52.96875 
Q 50 49.953125 52 44.1875 
z
" id="DejaVuSans-109"/>
     <path d="M 18.109375 8.203125 
L 18.109375 -20.796875 
L 9.078125 -20.796875 
L 9.078125 54.6875 
L 18.109375 54.6875 
L 18.109375 46.390625 
Q 20.953125 51.265625 25.265625 53.625 
Q 29.59375 56 35.59375 56 
Q 45.5625 56 51.78125 48.09375 
Q 58.015625 40.1875 58.015625 27.296875 
Q 58.015625 14.40625 51.78125 6.484375 
Q 45.5625 -1.421875 35.59375 -1.421875 
Q 29.59375 -1.421875 25.265625 0.953125 
Q 20.953125 3.328125 18.109375 8.203125 
z
M 48.6875 27.296875 
Q 48.6875 37.203125 44.609375 42.84375 
Q 40.53125 48.484375 33.40625 48.484375 
Q 26.265625 48.484375 22.1875 42.84375 
Q 18.109375 37.203125 18.109375 27.296875 
Q 18.109375 17.390625 22.1875 11.75 
Q 26.265625 6.109375 33.40625 6.109375 
Q 40.53125 6.109375 44.609375 11.75 
Q 48.6875 17.390625 48.6875 27.296875 
z
" id="DejaVuSans-112"/>
     <path d="M 17.921875 72.90625 
L 17.921875 45.796875 
L 9.625 45.796875 
L 9.625 72.90625 
z
" id="DejaVuSans-39"/>
     <path d="M 44.28125 53.078125 
L 44.28125 44.578125 
Q 40.484375 46.53125 36.375 47.5 
Q 32.28125 48.484375 27.875 48.484375 
Q 21.1875 48.484375 17.84375 46.4375 
Q 14.5 44.390625 14.5 40.28125 
Q 14.5 37.15625 16.890625 35.375 
Q 19.28125 33.59375 26.515625 31.984375 
L 29.59375 31.296875 
Q 39.15625 29.25 43.1875 25.515625 
Q 47.21875 21.78125 47.21875 15.09375 
Q 47.21875 7.46875 41.1875 3.015625 
Q 35.15625 -1.421875 24.609375 -1.421875 
Q 20.21875 -1.421875 15.453125 -0.5625 
Q 10.6875 0.296875 5.421875 2 
L 5.421875 11.28125 
Q 10.40625 8.6875 15.234375 7.390625 
Q 20.0625 6.109375 24.8125 6.109375 
Q 31.15625 6.109375 34.5625 8.28125 
Q 37.984375 10.453125 37.984375 14.40625 
Q 37.984375 18.0625 35.515625 20.015625 
Q 33.0625 21.96875 24.703125 23.78125 
L 21.578125 24.515625 
Q 13.234375 26.265625 9.515625 29.90625 
Q 5.8125 33.546875 5.8125 39.890625 
Q 5.8125 47.609375 11.28125 51.796875 
Q 16.75 56 26.8125 56 
Q 31.78125 56 36.171875 55.265625 
Q 40.578125 54.546875 44.28125 53.078125 
z
" id="DejaVuSans-115"/>
     <path d="M 53.515625 70.515625 
L 53.515625 60.890625 
Q 47.90625 63.578125 42.921875 64.890625 
Q 37.9375 66.21875 33.296875 66.21875 
Q 25.25 66.21875 20.875 63.09375 
Q 16.5 59.96875 16.5 54.203125 
Q 16.5 49.359375 19.40625 46.890625 
Q 22.3125 44.4375 30.421875 42.921875 
L 36.375 41.703125 
Q 47.40625 39.59375 52.65625 34.296875 
Q 57.90625 29 57.90625 20.125 
Q 57.90625 9.515625 50.796875 4.046875 
Q 43.703125 -1.421875 29.984375 -1.421875 
Q 24.8125 -1.421875 18.96875 -0.25 
Q 13.140625 0.921875 6.890625 3.21875 
L 6.890625 13.375 
Q 12.890625 10.015625 18.65625 8.296875 
Q 24.421875 6.59375 29.984375 6.59375 
Q 38.421875 6.59375 43.015625 9.90625 
Q 47.609375 13.234375 47.609375 19.390625 
Q 47.609375 24.75 44.3125 27.78125 
Q 41.015625 30.8125 33.5 32.328125 
L 27.484375 33.5 
Q 16.453125 35.6875 11.515625 40.375 
Q 6.59375 45.0625 6.59375 53.421875 
Q 6.59375 63.09375 13.40625 68.65625 
Q 20.21875 74.21875 32.171875 74.21875 
Q 37.3125 74.21875 42.625 73.28125 
Q 47.953125 72.359375 53.515625 70.515625 
z
" id="DejaVuSans-83"/>
     <path d="M 9.078125 75.984375 
L 18.109375 75.984375 
L 18.109375 31.109375 
L 44.921875 54.6875 
L 56.390625 54.6875 
L 27.390625 29.109375 
L 57.625 0 
L 45.90625 0 
L 18.109375 26.703125 
L 18.109375 0 
L 9.078125 0 
z
" id="DejaVuSans-107"/>
     <path d="M 5.515625 54.6875 
L 48.1875 54.6875 
L 48.1875 46.484375 
L 14.40625 7.171875 
L 48.1875 7.171875 
L 48.1875 0 
L 4.296875 0 
L 4.296875 8.203125 
L 38.09375 47.515625 
L 5.515625 47.515625 
z
" id="DejaVuSans-122"/>
     <path d="M 30.609375 48.390625 
Q 23.390625 48.390625 19.1875 42.75 
Q 14.984375 37.109375 14.984375 27.296875 
Q 14.984375 17.484375 19.15625 11.84375 
Q 23.34375 6.203125 30.609375 6.203125 
Q 37.796875 6.203125 41.984375 11.859375 
Q 46.1875 17.53125 46.1875 27.296875 
Q 46.1875 37.015625 41.984375 42.703125 
Q 37.796875 48.390625 30.609375 48.390625 
z
M 30.609375 56 
Q 42.328125 56 49.015625 48.375 
Q 55.71875 40.765625 55.71875 27.296875 
Q 55.71875 13.875 49.015625 6.21875 
Q 42.328125 -1.421875 30.609375 -1.421875 
Q 18.84375 -1.421875 12.171875 6.21875 
Q 5.515625 13.875 5.515625 27.296875 
Q 5.515625 40.765625 12.171875 48.375 
Q 18.84375 56 30.609375 56 
z
" id="DejaVuSans-111"/>
     <path d="M 54.890625 33.015625 
L 54.890625 0 
L 45.90625 0 
L 45.90625 32.71875 
Q 45.90625 40.484375 42.875 44.328125 
Q 39.84375 48.1875 33.796875 48.1875 
Q 26.515625 48.1875 22.3125 43.546875 
Q 18.109375 38.921875 18.109375 30.90625 
L 18.109375 0 
L 9.078125 0 
L 9.078125 54.6875 
L 18.109375 54.6875 
L 18.109375 46.1875 
Q 21.34375 51.125 25.703125 53.5625 
Q 30.078125 56 35.796875 56 
Q 45.21875 56 50.046875 50.171875 
Q 54.890625 44.34375 54.890625 33.015625 
z
" id="DejaVuSans-110"/>
    </defs>
    <g transform="translate(86.203125 80.4)scale(0.25 -0.25)">
     <use xlink:href="#DejaVuSans-82"/>
     <use x="69.482422" xlink:href="#DejaVuSans-105"/>
     <use x="97.265625" xlink:href="#DejaVuSans-103"/>
     <use x="160.742188" xlink:href="#DejaVuSans-104"/>
     <use x="224.121094" xlink:href="#DejaVuSans-116"/>
     <use x="263.330078" xlink:href="#DejaVuSans-121"/>
     <use x="322.509766" xlink:href="#DejaVuSans-80"/>
     <use x="382.78125" xlink:href="#DejaVuSans-105"/>
     <use x="410.564453" xlink:href="#DejaVuSans-116"/>
     <use x="449.773438" xlink:href="#DejaVuSans-99"/>
     <use x="504.753906" xlink:href="#DejaVuSans-104"/>
     <use x="568.132812" xlink:href="#DejaVuSans-44"/>
     <use x="599.919922" xlink:href="#DejaVuSans-32"/>
     <use x="631.707031" xlink:href="#DejaVuSans-76"/>
     <use x="687.404297" xlink:href="#DejaVuSans-101"/>
     <use x="748.927734" xlink:href="#DejaVuSans-102"/>
     <use x="784.117188" xlink:href="#DejaVuSans-116"/>
     <use x="823.326172" xlink:href="#DejaVuSans-121"/>
     <use x="882.505859" xlink:href="#DejaVuSans-66"/>
     <use x="951.109375" xlink:href="#DejaVuSans-97"/>
     <use x="1012.388672" xlink:href="#DejaVuSans-116"/>
     <use x="1051.597656" xlink:href="#DejaVuSans-116"/>
     <use x="1090.806641" xlink:href="#DejaVuSans-101"/>
     <use x="1152.330078" xlink:href="#DejaVuSans-114"/>
     <use x="1193.443359" xlink:href="#DejaVuSans-44"/>
     <use x="1225.230469" xlink:href="#DejaVuSans-32"/>
     <use x="1257.017578" xlink:href="#DejaVuSans-85"/>
     <use x="1330.210938" xlink:href="#DejaVuSans-109"/>
     <use x="1427.623047" xlink:href="#DejaVuSans-112"/>
     <use x="1491.099609" xlink:href="#DejaVuSans-105"/>
     <use x="1518.882812" xlink:href="#DejaVuSans-114"/>
     <use x="1559.964844" xlink:href="#DejaVuSans-101"/>
     <use x="1621.488281" xlink:href="#DejaVuSans-39"/>
     <use x="1648.978516" xlink:href="#DejaVuSans-115"/>
     <use x="1701.078125" xlink:href="#DejaVuSans-32"/>
     <use x="1732.865234" xlink:href="#DejaVuSans-83"/>
     <use x="1796.341797" xlink:href="#DejaVuSans-116"/>
     <use x="1835.550781" xlink:href="#DejaVuSans-114"/>
     <use x="1876.664062" xlink:href="#DejaVuSans-105"/>
     <use x="1904.447266" xlink:href="#DejaVuSans-107"/>
     <use x="1962.310547" xlink:href="#DejaVuSans-101"/>
     <use x="2023.833984" xlink:href="#DejaVuSans-122"/>
     <use x="2076.324219" xlink:href="#DejaVuSans-111"/>
     <use x="2137.505859" xlink:href="#DejaVuSans-110"/>
     <use x="2200.884766" xlink:href="#DejaVuSans-101"/>
    </g>
   </g>
  </g>
 </g>
 <defs>
  <clipPath id="pcc143b4a76">
   <rect height="543.6" width="558" x="90" y="86.4"/>
  </clipPath>
 </defs>
</svg>
