<?xml version="1.0" encoding="utf-8" standalone="no"?>
<!DOCTYPE svg PUBLIC "-//W3C//DTD SVG 1.1//EN"
  "http://www.w3.org/Graphics/SVG/1.1/DTD/svg11.dtd">
<!-- Created with matplotlib (https://matplotlib.org/) -->
<svg height="720pt" version="1.1" viewBox="0 0 720 720" width="720pt" xmlns="http://www.w3.org/2000/svg" xmlns:xlink="http://www.w3.org/1999/xlink">
 <defs>
  <style type="text/css">
*{stroke-linecap:butt;stroke-linejoin:round;}
  </style>
 </defs>
 <g id="figure_1">
  <g id="patch_1">
   <path d="M 0 720 
L 720 720 
L 720 0 
L 0 0 
z
" style="fill:#ffffff;"/>
  </g>
  <g id="axes_1">
   <g id="patch_2">
    <path d="M 90 630 
L 648 630 
L 648 86.4 
L 90 86.4 
z
" style="fill:#ffffff;"/>
   </g>
   <g id="matplotlib.axis_1"/>
   <g id="matplotlib.axis_2"/>
   <g id="patch_3">
    <path clip-path="url(#p2f32202bae)" d="M 234.15 297.8604 
L 324.0438 297.8604 
L 324.0438 177.07248 
L 234.15 177.07248 
z
" style="fill:#f7b599;opacity:0.5;stroke:#000000;stroke-linejoin:miter;"/>
   </g>
   <g id="patch_4">
    <path clip-path="url(#p2f32202bae)" d="M 324.049938 297.8604 
L 413.943738 297.8604 
L 413.943738 177.07248 
L 324.049938 177.07248 
z
" style="fill:#f7a889;opacity:0.5;stroke:#000000;stroke-linejoin:miter;"/>
   </g>
   <g id="patch_5">
    <path clip-path="url(#p2f32202bae)" d="M 413.950062 297.8604 
L 503.843862 297.8604 
L 503.843862 177.07248 
L 413.950062 177.07248 
z
" style="fill:#d8dce2;opacity:0.5;stroke:#000000;stroke-linejoin:miter;"/>
   </g>
   <g id="patch_6">
    <path clip-path="url(#p2f32202bae)" d="M 234.15 418.7208 
L 324.0438 418.7208 
L 324.0438 297.93288 
L 234.15 297.93288 
z
" style="fill:#c83836;opacity:0.5;stroke:#000000;stroke-linejoin:miter;"/>
   </g>
   <g id="patch_7">
    <path clip-path="url(#p2f32202bae)" d="M 324.049938 418.7208 
L 413.943738 418.7208 
L 413.943738 297.93288 
L 324.049938 297.93288 
z
" style="fill:#b8122a;opacity:0.5;stroke:#000000;stroke-linejoin:miter;"/>
   </g>
   <g id="patch_8">
    <path clip-path="url(#p2f32202bae)" d="M 413.950062 418.7208 
L 503.843862 418.7208 
L 503.843862 297.93288 
L 413.950062 297.93288 
z
" style="fill:#cc403a;opacity:0.5;stroke:#000000;stroke-linejoin:miter;"/>
   </g>
   <g id="patch_9">
    <path clip-path="url(#p2f32202bae)" d="M 234.15 539.4 
L 324.0438 539.4 
L 324.0438 418.61208 
L 234.15 418.61208 
z
" style="fill:#9fbfff;opacity:0.5;stroke:#000000;stroke-linejoin:miter;"/>
   </g>
   <g id="patch_10">
    <path clip-path="url(#p2f32202bae)" d="M 324.049938 539.4 
L 413.943738 539.4 
L 413.943738 418.61208 
L 324.049938 418.61208 
z
" style="fill:#c0d4f5;opacity:0.5;stroke:#000000;stroke-linejoin:miter;"/>
   </g>
   <g id="patch_11">
    <path clip-path="url(#p2f32202bae)" d="M 413.950062 539.4 
L 503.843862 539.4 
L 503.843862 418.61208 
L 413.950062 418.61208 
z
" style="fill:#b9d0f9;opacity:0.5;stroke:#000000;stroke-linejoin:miter;"/>
   </g>
   <g id="LineCollection_1">
    <path clip-path="url(#p2f32202bae)" d="M 292.909091 524.986587 
L 298.545455 525.820098 
L 304.181818 526.466363 
L 309.818182 526.926349 
L 315.454545 527.254985 
L 326.727273 527.497803 
L 338 527.374793 
L 354.909091 526.8633 
L 366.181818 526.529399 
L 377.454545 526.443148 
L 388.727273 526.623702 
L 411.272727 527.186497 
L 422.545455 527.167705 
L 428.181818 526.995647 
L 433.818182 526.697921 
L 439.454545 526.220613 
L 445.090909 525.571477 
L 453.294505 524.198658 
L 456.363636 523.571014 
L 462 522.165153 
L 467.636364 520.501549 
L 473.272727 518.480612 
L 478.909091 516.176837 
L 485.026626 513.253691 
L 491.612068 509.605369 
L 497.319041 505.957047 
L 502.423179 502.308725 
L 507.090909 498.583791 
L 512.727273 493.484534 
L 514.8311 491.363758 
L 518.363636 487.634822 
L 524 480.865514 
L 524.340984 480.418792 
L 529.636364 472.927531 
L 533.878363 465.825503 
L 535.877484 462.177181 
L 539.415671 454.880537 
L 542.468999 447.583893 
L 545.113705 440.287248 
L 547.40912 432.990604 
L 549.32236 425.69396 
L 550.958123 418.397315 
L 552.346332 411.100671 
L 553.432118 403.804027 
L 554.295264 396.507383 
L 554.967553 389.210738 
L 555.436609 381.914094 
L 555.733606 374.61745 
L 555.888776 363.672483 
L 555.734761 352.727517 
L 555.30733 341.78255 
L 554.693976 330.837584 
L 553.911168 319.892617 
L 552.894456 308.947651 
L 551.997284 301.651007 
L 550.888878 294.354362 
L 549.532452 287.057718 
L 548.770111 283.409396 
L 546.917787 276.112752 
L 545.854261 272.46443 
L 544.67972 268.816107 
L 541.994877 261.519463 
L 540.398142 257.871141 
L 536.858203 250.574497 
L 534.794594 246.926174 
L 532.503027 243.277852 
L 529.636364 239.02474 
L 524 231.839682 
L 518.363636 225.740812 
L 512.727273 220.414217 
L 507.090909 215.742744 
L 501.454545 211.619901 
L 495.818182 207.99604 
L 490.181818 204.746674 
L 484.545455 201.837827 
L 478.909091 199.365598 
L 473.272727 197.148201 
L 467.636364 195.213305 
L 462 193.605853 
L 456.036297 192.201342 
L 450.727273 191.175181 
L 445.090909 190.337083 
L 439.454545 189.701767 
L 433.818182 189.262631 
L 428.181818 188.943132 
L 416.909091 188.721103 
L 405.636364 188.858162 
L 377.454545 189.474506 
L 366.181818 189.440959 
L 332.363636 188.495198 
L 321.090909 188.511172 
L 309.818182 189.003179 
L 298.545455 190.068183 
L 292.909091 190.878334 
L 286.009828 192.201342 
L 281.636364 193.170161 
L 276 194.629442 
L 270.363636 196.345163 
L 264.727273 198.267731 
L 259.090909 200.429565 
L 252.940101 203.146309 
L 245.714715 206.794631 
L 242.181818 208.729953 
L 236.545455 212.185829 
L 230.909091 215.978071 
L 225.272727 220.263601 
L 219.491998 225.036242 
L 214 230.266857 
L 212.012905 232.332886 
L 208.363636 236.348331 
L 205.695695 239.62953 
L 200.435873 246.926174 
L 197.090909 252.130031 
L 195.904067 254.222819 
L 192.128796 261.519463 
L 190.529528 265.167785 
L 187.681572 272.46443 
L 185.288118 279.761074 
L 183.39611 287.057718 
L 181.825903 294.354362 
L 180.507307 301.651007 
L 179.487126 308.947651 
L 178.656836 316.244295 
L 177.977821 323.54094 
L 177.099271 334.485906 
L 176.444883 345.430872 
L 176.081738 356.375839 
L 175.977559 363.672483 
L 176.036445 370.969128 
L 176.300492 378.265772 
L 176.746486 385.562416 
L 177.427014 392.85906 
L 178.329705 400.155705 
L 178.844633 403.804027 
L 180.181818 411.351279 
L 181.767005 418.397315 
L 183.655744 425.69396 
L 185.882852 432.990604 
L 188.519581 440.287248 
L 191.548023 447.583893 
L 193.263509 451.232215 
L 197.090909 458.620226 
L 201.350785 465.825503 
L 203.785084 469.473826 
L 208.363636 475.849893 
L 212.08914 480.418792 
L 215.320546 484.067114 
L 219.636364 488.55075 
L 225.272727 493.727674 
L 231.282306 498.660403 
L 236.545455 502.458647 
L 242.181818 506.158548 
L 248.123997 509.605369 
L 255.380016 513.253691 
L 259.090909 514.958214 
L 264.727273 517.288899 
L 270.363636 519.281283 
L 276 521.07913 
L 281.636364 522.623038 
L 288.699587 524.198658 
L 292.909091 524.986587 
L 292.909091 524.986587 
" style="fill:none;stroke:#000000;stroke-width:3;"/>
   </g>
   <g id="LineCollection_2">
    <path clip-path="url(#p2f32202bae)" d="M 304.181818 473.485163 
L 309.818182 474.224756 
L 315.454545 474.757555 
L 321.090909 475.110011 
L 326.727273 475.214729 
L 343.636364 474.749757 
L 354.909091 474.14983 
L 366.181818 473.643492 
L 377.454545 473.469255 
L 388.727273 473.785536 
L 405.636364 474.509867 
L 416.909091 474.775059 
L 422.545455 474.670044 
L 428.181818 474.370767 
L 433.818182 473.897614 
L 439.653162 473.122148 
L 445.090909 471.970201 
L 450.727273 470.417619 
L 456.363636 468.444821 
L 462.287512 465.825503 
L 468.598532 462.177181 
L 473.85813 458.528859 
L 478.909091 454.310165 
L 485.31944 447.583893 
L 490.181818 441.413745 
L 495.435566 432.990604 
L 495.818182 432.330091 
L 498.953069 425.69396 
L 501.454545 419.909927 
L 503.167395 414.748993 
L 505.267143 407.452349 
L 507.109051 400.155705 
L 508.209338 392.85906 
L 509.160603 385.562416 
L 509.985968 374.61745 
L 510.199204 367.320805 
L 510.096458 356.375839 
L 509.793915 349.079195 
L 508.688529 334.485906 
L 507.025856 319.892617 
L 506.513767 316.244295 
L 505.245922 308.947651 
L 503.725005 301.651007 
L 500.759438 290.70604 
L 495.818182 278.557799 
L 492.272054 272.46443 
L 489.923304 268.816107 
L 483.909829 261.519463 
L 478.909091 256.654278 
L 476.071344 254.222819 
L 471.040573 250.574497 
L 467.636364 248.392361 
L 462 245.365073 
L 456.363636 243.051155 
L 450.727273 241.313656 
L 443.478758 239.62953 
L 439.454545 238.942061 
L 433.818182 238.173672 
L 428.181818 237.73556 
L 422.545455 237.476663 
L 416.909091 237.36842 
L 405.636364 237.565852 
L 383.090909 238.451629 
L 377.454545 238.623745 
L 371.818182 238.567258 
L 354.909091 237.941511 
L 343.636364 237.374961 
L 332.363636 237.001017 
L 326.727273 236.963 
L 315.454545 237.382601 
L 304.181818 238.457415 
L 297.877249 239.62953 
L 292.909091 241.057392 
L 285.780029 243.277852 
L 281.636364 244.701507 
L 276 247.23308 
L 270.015375 250.574497 
L 264.503357 254.222819 
L 259.090909 258.690917 
L 253.454545 264.498021 
L 252.880795 265.167785 
L 247.644865 272.46443 
L 245.301267 276.112752 
L 241.239213 283.409396 
L 238.261819 290.70604 
L 235.868755 298.002685 
L 234.824991 301.651007 
L 233.223279 308.947651 
L 232.633746 312.595973 
L 231.835642 316.244295 
L 230.909091 321.425523 
L 230.242709 327.189262 
L 228.760059 341.78255 
L 228.183623 349.079195 
L 227.797811 356.375839 
L 227.697053 363.672483 
L 227.806078 370.969128 
L 228.192314 378.265772 
L 228.478185 381.914094 
L 229.847998 392.85906 
L 230.909091 398.592939 
L 232.109941 403.804027 
L 236.751513 418.397315 
L 240.114461 425.69396 
L 242.181818 429.891054 
L 244.170574 432.990604 
L 247.818182 438.858593 
L 251.814194 443.93557 
L 253.454545 445.956795 
L 254.987347 447.583893 
L 259.090909 451.597049 
L 267.489825 458.528859 
L 270.363636 460.499667 
L 276 463.931904 
L 281.636364 466.760688 
L 288.423193 469.473826 
L 292.909091 470.893724 
L 298.545455 472.365823 
L 304.181818 473.485163 
L 304.181818 473.485163 
" style="fill:none;stroke:#0000ff;stroke-width:3;"/>
   </g>
   <g id="line2d_1">
    <path clip-path="url(#p2f32202bae)" d="M 234.15 539.4 
L 234.15 177 
" style="fill:none;stroke:#ff0000;stroke-linecap:square;stroke-width:1.5;"/>
   </g>
   <g id="line2d_2">
    <path clip-path="url(#p2f32202bae)" d="M 503.85 539.4 
L 503.85 177 
" style="fill:none;stroke:#ff0000;stroke-linecap:square;stroke-width:1.5;"/>
   </g>
   <g id="line2d_3">
    <path clip-path="url(#p2f32202bae)" d="M 234.15 539.4 
L 503.85 539.4 
" style="fill:none;stroke:#ff0000;stroke-linecap:square;stroke-width:1.5;"/>
   </g>
   <g id="line2d_4">
    <path clip-path="url(#p2f32202bae)" d="M 234.15 177 
L 503.85 177 
" style="fill:none;stroke:#ff0000;stroke-linecap:square;stroke-width:1.5;"/>
   </g>
   <g id="text_1">
    <!-- Sinker, Righty Hitter, Umpire's Strikezone -->
    <defs>
     <path d="M 53.515625 70.515625 
L 53.515625 60.890625 
Q 47.90625 63.578125 42.921875 64.890625 
Q 37.9375 66.21875 33.296875 66.21875 
Q 25.25 66.21875 20.875 63.09375 
Q 16.5 59.96875 16.5 54.203125 
Q 16.5 49.359375 19.40625 46.890625 
Q 22.3125 44.4375 30.421875 42.921875 
L 36.375 41.703125 
Q 47.40625 39.59375 52.65625 34.296875 
Q 57.90625 29 57.90625 20.125 
Q 57.90625 9.515625 50.796875 4.046875 
Q 43.703125 -1.421875 29.984375 -1.421875 
Q 24.8125 -1.421875 18.96875 -0.25 
Q 13.140625 0.921875 6.890625 3.21875 
L 6.890625 13.375 
Q 12.890625 10.015625 18.65625 8.296875 
Q 24.421875 6.59375 29.984375 6.59375 
Q 38.421875 6.59375 43.015625 9.90625 
Q 47.609375 13.234375 47.609375 19.390625 
Q 47.609375 24.75 44.3125 27.78125 
Q 41.015625 30.8125 33.5 32.328125 
L 27.484375 33.5 
Q 16.453125 35.6875 11.515625 40.375 
Q 6.59375 45.0625 6.59375 53.421875 
Q 6.59375 63.09375 13.40625 68.65625 
Q 20.21875 74.21875 32.171875 74.21875 
Q 37.3125 74.21875 42.625 73.28125 
Q 47.953125 72.359375 53.515625 70.515625 
z
" id="DejaVuSans-83"/>
     <path d="M 9.421875 54.6875 
L 18.40625 54.6875 
L 18.40625 0 
L 9.421875 0 
z
M 9.421875 75.984375 
L 18.40625 75.984375 
L 18.40625 64.59375 
L 9.421875 64.59375 
z
" id="DejaVuSans-105"/>
     <path d="M 54.890625 33.015625 
L 54.890625 0 
L 45.90625 0 
L 45.90625 32.71875 
Q 45.90625 40.484375 42.875 44.328125 
Q 39.84375 48.1875 33.796875 48.1875 
Q 26.515625 48.1875 22.3125 43.546875 
Q 18.109375 38.921875 18.109375 30.90625 
L 18.109375 0 
L 9.078125 0 
L 9.078125 54.6875 
L 18.109375 54.6875 
L 18.109375 46.1875 
Q 21.34375 51.125 25.703125 53.5625 
Q 30.078125 56 35.796875 56 
Q 45.21875 56 50.046875 50.171875 
Q 54.890625 44.34375 54.890625 33.015625 
z
" id="DejaVuSans-110"/>
     <path d="M 9.078125 75.984375 
L 18.109375 75.984375 
L 18.109375 31.109375 
L 44.921875 54.6875 
L 56.390625 54.6875 
L 27.390625 29.109375 
L 57.625 0 
L 45.90625 0 
L 18.109375 26.703125 
L 18.109375 0 
L 9.078125 0 
z
" id="DejaVuSans-107"/>
     <path d="M 56.203125 29.59375 
L 56.203125 25.203125 
L 14.890625 25.203125 
Q 15.484375 15.921875 20.484375 11.0625 
Q 25.484375 6.203125 34.421875 6.203125 
Q 39.59375 6.203125 44.453125 7.46875 
Q 49.3125 8.734375 54.109375 11.28125 
L 54.109375 2.78125 
Q 49.265625 0.734375 44.1875 -0.34375 
Q 39.109375 -1.421875 33.890625 -1.421875 
Q 20.796875 -1.421875 13.15625 6.1875 
Q 5.515625 13.8125 5.515625 26.8125 
Q 5.515625 40.234375 12.765625 48.109375 
Q 20.015625 56 32.328125 56 
Q 43.359375 56 49.78125 48.890625 
Q 56.203125 41.796875 56.203125 29.59375 
z
M 47.21875 32.234375 
Q 47.125 39.59375 43.09375 43.984375 
Q 39.0625 48.390625 32.421875 48.390625 
Q 24.90625 48.390625 20.390625 44.140625 
Q 15.875 39.890625 15.1875 32.171875 
z
" id="DejaVuSans-101"/>
     <path d="M 41.109375 46.296875 
Q 39.59375 47.171875 37.8125 47.578125 
Q 36.03125 48 33.890625 48 
Q 26.265625 48 22.1875 43.046875 
Q 18.109375 38.09375 18.109375 28.8125 
L 18.109375 0 
L 9.078125 0 
L 9.078125 54.6875 
L 18.109375 54.6875 
L 18.109375 46.1875 
Q 20.953125 51.171875 25.484375 53.578125 
Q 30.03125 56 36.53125 56 
Q 37.453125 56 38.578125 55.875 
Q 39.703125 55.765625 41.0625 55.515625 
z
" id="DejaVuSans-114"/>
     <path d="M 11.71875 12.40625 
L 22.015625 12.40625 
L 22.015625 4 
L 14.015625 -11.625 
L 7.71875 -11.625 
L 11.71875 4 
z
" id="DejaVuSans-44"/>
     <path id="DejaVuSans-32"/>
     <path d="M 44.390625 34.1875 
Q 47.5625 33.109375 50.5625 29.59375 
Q 53.5625 26.078125 56.59375 19.921875 
L 66.609375 0 
L 56 0 
L 46.6875 18.703125 
Q 43.0625 26.03125 39.671875 28.421875 
Q 36.28125 30.8125 30.421875 30.8125 
L 19.671875 30.8125 
L 19.671875 0 
L 9.8125 0 
L 9.8125 72.90625 
L 32.078125 72.90625 
Q 44.578125 72.90625 50.734375 67.671875 
Q 56.890625 62.453125 56.890625 51.90625 
Q 56.890625 45.015625 53.6875 40.46875 
Q 50.484375 35.9375 44.390625 34.1875 
z
M 19.671875 64.796875 
L 19.671875 38.921875 
L 32.078125 38.921875 
Q 39.203125 38.921875 42.84375 42.21875 
Q 46.484375 45.515625 46.484375 51.90625 
Q 46.484375 58.296875 42.84375 61.546875 
Q 39.203125 64.796875 32.078125 64.796875 
z
" id="DejaVuSans-82"/>
     <path d="M 45.40625 27.984375 
Q 45.40625 37.75 41.375 43.109375 
Q 37.359375 48.484375 30.078125 48.484375 
Q 22.859375 48.484375 18.828125 43.109375 
Q 14.796875 37.75 14.796875 27.984375 
Q 14.796875 18.265625 18.828125 12.890625 
Q 22.859375 7.515625 30.078125 7.515625 
Q 37.359375 7.515625 41.375 12.890625 
Q 45.40625 18.265625 45.40625 27.984375 
z
M 54.390625 6.78125 
Q 54.390625 -7.171875 48.1875 -13.984375 
Q 42 -20.796875 29.203125 -20.796875 
Q 24.46875 -20.796875 20.265625 -20.09375 
Q 16.0625 -19.390625 12.109375 -17.921875 
L 12.109375 -9.1875 
Q 16.0625 -11.328125 19.921875 -12.34375 
Q 23.78125 -13.375 27.78125 -13.375 
Q 36.625 -13.375 41.015625 -8.765625 
Q 45.40625 -4.15625 45.40625 5.171875 
L 45.40625 9.625 
Q 42.625 4.78125 38.28125 2.390625 
Q 33.9375 0 27.875 0 
Q 17.828125 0 11.671875 7.65625 
Q 5.515625 15.328125 5.515625 27.984375 
Q 5.515625 40.671875 11.671875 48.328125 
Q 17.828125 56 27.875 56 
Q 33.9375 56 38.28125 53.609375 
Q 42.625 51.21875 45.40625 46.390625 
L 45.40625 54.6875 
L 54.390625 54.6875 
z
" id="DejaVuSans-103"/>
     <path d="M 54.890625 33.015625 
L 54.890625 0 
L 45.90625 0 
L 45.90625 32.71875 
Q 45.90625 40.484375 42.875 44.328125 
Q 39.84375 48.1875 33.796875 48.1875 
Q 26.515625 48.1875 22.3125 43.546875 
Q 18.109375 38.921875 18.109375 30.90625 
L 18.109375 0 
L 9.078125 0 
L 9.078125 75.984375 
L 18.109375 75.984375 
L 18.109375 46.1875 
Q 21.34375 51.125 25.703125 53.5625 
Q 30.078125 56 35.796875 56 
Q 45.21875 56 50.046875 50.171875 
Q 54.890625 44.34375 54.890625 33.015625 
z
" id="DejaVuSans-104"/>
     <path d="M 18.3125 70.21875 
L 18.3125 54.6875 
L 36.8125 54.6875 
L 36.8125 47.703125 
L 18.3125 47.703125 
L 18.3125 18.015625 
Q 18.3125 11.328125 20.140625 9.421875 
Q 21.96875 7.515625 27.59375 7.515625 
L 36.8125 7.515625 
L 36.8125 0 
L 27.59375 0 
Q 17.1875 0 13.234375 3.875 
Q 9.28125 7.765625 9.28125 18.015625 
L 9.28125 47.703125 
L 2.6875 47.703125 
L 2.6875 54.6875 
L 9.28125 54.6875 
L 9.28125 70.21875 
z
" id="DejaVuSans-116"/>
     <path d="M 32.171875 -5.078125 
Q 28.375 -14.84375 24.75 -17.8125 
Q 21.140625 -20.796875 15.09375 -20.796875 
L 7.90625 -20.796875 
L 7.90625 -13.28125 
L 13.1875 -13.28125 
Q 16.890625 -13.28125 18.9375 -11.515625 
Q 21 -9.765625 23.484375 -3.21875 
L 25.09375 0.875 
L 2.984375 54.6875 
L 12.5 54.6875 
L 29.59375 11.921875 
L 46.6875 54.6875 
L 56.203125 54.6875 
z
" id="DejaVuSans-121"/>
     <path d="M 9.8125 72.90625 
L 19.671875 72.90625 
L 19.671875 43.015625 
L 55.515625 43.015625 
L 55.515625 72.90625 
L 65.375 72.90625 
L 65.375 0 
L 55.515625 0 
L 55.515625 34.71875 
L 19.671875 34.71875 
L 19.671875 0 
L 9.8125 0 
z
" id="DejaVuSans-72"/>
     <path d="M 8.6875 72.90625 
L 18.609375 72.90625 
L 18.609375 28.609375 
Q 18.609375 16.890625 22.84375 11.734375 
Q 27.09375 6.59375 36.625 6.59375 
Q 46.09375 6.59375 50.34375 11.734375 
Q 54.59375 16.890625 54.59375 28.609375 
L 54.59375 72.90625 
L 64.5 72.90625 
L 64.5 27.390625 
Q 64.5 13.140625 57.4375 5.859375 
Q 50.390625 -1.421875 36.625 -1.421875 
Q 22.796875 -1.421875 15.734375 5.859375 
Q 8.6875 13.140625 8.6875 27.390625 
z
" id="DejaVuSans-85"/>
     <path d="M 52 44.1875 
Q 55.375 50.25 60.0625 53.125 
Q 64.75 56 71.09375 56 
Q 79.640625 56 84.28125 50.015625 
Q 88.921875 44.046875 88.921875 33.015625 
L 88.921875 0 
L 79.890625 0 
L 79.890625 32.71875 
Q 79.890625 40.578125 77.09375 44.375 
Q 74.3125 48.1875 68.609375 48.1875 
Q 61.625 48.1875 57.5625 43.546875 
Q 53.515625 38.921875 53.515625 30.90625 
L 53.515625 0 
L 44.484375 0 
L 44.484375 32.71875 
Q 44.484375 40.625 41.703125 44.40625 
Q 38.921875 48.1875 33.109375 48.1875 
Q 26.21875 48.1875 22.15625 43.53125 
Q 18.109375 38.875 18.109375 30.90625 
L 18.109375 0 
L 9.078125 0 
L 9.078125 54.6875 
L 18.109375 54.6875 
L 18.109375 46.1875 
Q 21.1875 51.21875 25.484375 53.609375 
Q 29.78125 56 35.6875 56 
Q 41.65625 56 45.828125 52.96875 
Q 50 49.953125 52 44.1875 
z
" id="DejaVuSans-109"/>
     <path d="M 18.109375 8.203125 
L 18.109375 -20.796875 
L 9.078125 -20.796875 
L 9.078125 54.6875 
L 18.109375 54.6875 
L 18.109375 46.390625 
Q 20.953125 51.265625 25.265625 53.625 
Q 29.59375 56 35.59375 56 
Q 45.5625 56 51.78125 48.09375 
Q 58.015625 40.1875 58.015625 27.296875 
Q 58.015625 14.40625 51.78125 6.484375 
Q 45.5625 -1.421875 35.59375 -1.421875 
Q 29.59375 -1.421875 25.265625 0.953125 
Q 20.953125 3.328125 18.109375 8.203125 
z
M 48.6875 27.296875 
Q 48.6875 37.203125 44.609375 42.84375 
Q 40.53125 48.484375 33.40625 48.484375 
Q 26.265625 48.484375 22.1875 42.84375 
Q 18.109375 37.203125 18.109375 27.296875 
Q 18.109375 17.390625 22.1875 11.75 
Q 26.265625 6.109375 33.40625 6.109375 
Q 40.53125 6.109375 44.609375 11.75 
Q 48.6875 17.390625 48.6875 27.296875 
z
" id="DejaVuSans-112"/>
     <path d="M 17.921875 72.90625 
L 17.921875 45.796875 
L 9.625 45.796875 
L 9.625 72.90625 
z
" id="DejaVuSans-39"/>
     <path d="M 44.28125 53.078125 
L 44.28125 44.578125 
Q 40.484375 46.53125 36.375 47.5 
Q 32.28125 48.484375 27.875 48.484375 
Q 21.1875 48.484375 17.84375 46.4375 
Q 14.5 44.390625 14.5 40.28125 
Q 14.5 37.15625 16.890625 35.375 
Q 19.28125 33.59375 26.515625 31.984375 
L 29.59375 31.296875 
Q 39.15625 29.25 43.1875 25.515625 
Q 47.21875 21.78125 47.21875 15.09375 
Q 47.21875 7.46875 41.1875 3.015625 
Q 35.15625 -1.421875 24.609375 -1.421875 
Q 20.21875 -1.421875 15.453125 -0.5625 
Q 10.6875 0.296875 5.421875 2 
L 5.421875 11.28125 
Q 10.40625 8.6875 15.234375 7.390625 
Q 20.0625 6.109375 24.8125 6.109375 
Q 31.15625 6.109375 34.5625 8.28125 
Q 37.984375 10.453125 37.984375 14.40625 
Q 37.984375 18.0625 35.515625 20.015625 
Q 33.0625 21.96875 24.703125 23.78125 
L 21.578125 24.515625 
Q 13.234375 26.265625 9.515625 29.90625 
Q 5.8125 33.546875 5.8125 39.890625 
Q 5.8125 47.609375 11.28125 51.796875 
Q 16.75 56 26.8125 56 
Q 31.78125 56 36.171875 55.265625 
Q 40.578125 54.546875 44.28125 53.078125 
z
" id="DejaVuSans-115"/>
     <path d="M 5.515625 54.6875 
L 48.1875 54.6875 
L 48.1875 46.484375 
L 14.40625 7.171875 
L 48.1875 7.171875 
L 48.1875 0 
L 4.296875 0 
L 4.296875 8.203125 
L 38.09375 47.515625 
L 5.515625 47.515625 
z
" id="DejaVuSans-122"/>
     <path d="M 30.609375 48.390625 
Q 23.390625 48.390625 19.1875 42.75 
Q 14.984375 37.109375 14.984375 27.296875 
Q 14.984375 17.484375 19.15625 11.84375 
Q 23.34375 6.203125 30.609375 6.203125 
Q 37.796875 6.203125 41.984375 11.859375 
Q 46.1875 17.53125 46.1875 27.296875 
Q 46.1875 37.015625 41.984375 42.703125 
Q 37.796875 48.390625 30.609375 48.390625 
z
M 30.609375 56 
Q 42.328125 56 49.015625 48.375 
Q 55.71875 40.765625 55.71875 27.296875 
Q 55.71875 13.875 49.015625 6.21875 
Q 42.328125 -1.421875 30.609375 -1.421875 
Q 18.84375 -1.421875 12.171875 6.21875 
Q 5.515625 13.875 5.515625 27.296875 
Q 5.515625 40.765625 12.171875 48.375 
Q 18.84375 56 30.609375 56 
z
" id="DejaVuSans-111"/>
    </defs>
    <g transform="translate(108.253906 80.4)scale(0.25 -0.25)">
     <use xlink:href="#DejaVuSans-83"/>
     <use x="63.476562" xlink:href="#DejaVuSans-105"/>
     <use x="91.259766" xlink:href="#DejaVuSans-110"/>
     <use x="154.638672" xlink:href="#DejaVuSans-107"/>
     <use x="212.501953" xlink:href="#DejaVuSans-101"/>
     <use x="274.025391" xlink:href="#DejaVuSans-114"/>
     <use x="315.138672" xlink:href="#DejaVuSans-44"/>
     <use x="346.925781" xlink:href="#DejaVuSans-32"/>
     <use x="378.712891" xlink:href="#DejaVuSans-82"/>
     <use x="448.195312" xlink:href="#DejaVuSans-105"/>
     <use x="475.978516" xlink:href="#DejaVuSans-103"/>
     <use x="539.455078" xlink:href="#DejaVuSans-104"/>
     <use x="602.833984" xlink:href="#DejaVuSans-116"/>
     <use x="642.042969" xlink:href="#DejaVuSans-121"/>
     <use x="701.222656" xlink:href="#DejaVuSans-32"/>
     <use x="733.009766" xlink:href="#DejaVuSans-72"/>
     <use x="808.205078" xlink:href="#DejaVuSans-105"/>
     <use x="835.988281" xlink:href="#DejaVuSans-116"/>
     <use x="875.197266" xlink:href="#DejaVuSans-116"/>
     <use x="914.40625" xlink:href="#DejaVuSans-101"/>
     <use x="975.929688" xlink:href="#DejaVuSans-114"/>
     <use x="1017.042969" xlink:href="#DejaVuSans-44"/>
     <use x="1048.830078" xlink:href="#DejaVuSans-32"/>
     <use x="1080.617188" xlink:href="#DejaVuSans-85"/>
     <use x="1153.810547" xlink:href="#DejaVuSans-109"/>
     <use x="1251.222656" xlink:href="#DejaVuSans-112"/>
     <use x="1314.699219" xlink:href="#DejaVuSans-105"/>
     <use x="1342.482422" xlink:href="#DejaVuSans-114"/>
     <use x="1383.564453" xlink:href="#DejaVuSans-101"/>
     <use x="1445.087891" xlink:href="#DejaVuSans-39"/>
     <use x="1472.578125" xlink:href="#DejaVuSans-115"/>
     <use x="1524.677734" xlink:href="#DejaVuSans-32"/>
     <use x="1556.464844" xlink:href="#DejaVuSans-83"/>
     <use x="1619.941406" xlink:href="#DejaVuSans-116"/>
     <use x="1659.150391" xlink:href="#DejaVuSans-114"/>
     <use x="1700.263672" xlink:href="#DejaVuSans-105"/>
     <use x="1728.046875" xlink:href="#DejaVuSans-107"/>
     <use x="1785.910156" xlink:href="#DejaVuSans-101"/>
     <use x="1847.433594" xlink:href="#DejaVuSans-122"/>
     <use x="1899.923828" xlink:href="#DejaVuSans-111"/>
     <use x="1961.105469" xlink:href="#DejaVuSans-110"/>
     <use x="2024.484375" xlink:href="#DejaVuSans-101"/>
    </g>
   </g>
  </g>
 </g>
 <defs>
  <clipPath id="p2f32202bae">
   <rect height="543.6" width="558" x="90" y="86.4"/>
  </clipPath>
 </defs>
</svg>
