<?xml version="1.0" encoding="utf-8" standalone="no"?>
<!DOCTYPE svg PUBLIC "-//W3C//DTD SVG 1.1//EN"
  "http://www.w3.org/Graphics/SVG/1.1/DTD/svg11.dtd">
<!-- Created with matplotlib (https://matplotlib.org/) -->
<svg height="720pt" version="1.1" viewBox="0 0 720 720" width="720pt" xmlns="http://www.w3.org/2000/svg" xmlns:xlink="http://www.w3.org/1999/xlink">
 <defs>
  <style type="text/css">
*{stroke-linecap:butt;stroke-linejoin:round;}
  </style>
 </defs>
 <g id="figure_1">
  <g id="patch_1">
   <path d="M 0 720 
L 720 720 
L 720 0 
L 0 0 
z
" style="fill:#ffffff;"/>
  </g>
  <g id="axes_1">
   <g id="patch_2">
    <path d="M 90 630 
L 648 630 
L 648 86.4 
L 90 86.4 
z
" style="fill:#ffffff;"/>
   </g>
   <g id="matplotlib.axis_1"/>
   <g id="matplotlib.axis_2"/>
   <g id="patch_3">
    <path clip-path="url(#pee41135077)" d="M 234.15 297.8604 
L 324.0438 297.8604 
L 324.0438 177.07248 
L 234.15 177.07248 
z
" style="fill:#dadce0;opacity:0.5;stroke:#000000;stroke-linejoin:miter;"/>
   </g>
   <g id="patch_4">
    <path clip-path="url(#pee41135077)" d="M 324.049938 297.8604 
L 413.943738 297.8604 
L 413.943738 177.07248 
L 324.049938 177.07248 
z
" style="fill:#f5c4ac;opacity:0.5;stroke:#000000;stroke-linejoin:miter;"/>
   </g>
   <g id="patch_5">
    <path clip-path="url(#pee41135077)" d="M 413.950062 297.8604 
L 503.843862 297.8604 
L 503.843862 177.07248 
L 413.950062 177.07248 
z
" style="fill:#ccd9ed;opacity:0.5;stroke:#000000;stroke-linejoin:miter;"/>
   </g>
   <g id="patch_6">
    <path clip-path="url(#pee41135077)" d="M 234.15 418.7208 
L 324.0438 418.7208 
L 324.0438 297.93288 
L 234.15 297.93288 
z
" style="fill:#c43032;opacity:0.5;stroke:#000000;stroke-linejoin:miter;"/>
   </g>
   <g id="patch_7">
    <path clip-path="url(#pee41135077)" d="M 324.049938 418.7208 
L 413.943738 418.7208 
L 413.943738 297.93288 
L 324.049938 297.93288 
z
" style="fill:#b40426;opacity:0.5;stroke:#000000;stroke-linejoin:miter;"/>
   </g>
   <g id="patch_8">
    <path clip-path="url(#pee41135077)" d="M 413.950062 418.7208 
L 503.843862 418.7208 
L 503.843862 297.93288 
L 413.950062 297.93288 
z
" style="fill:#e57058;opacity:0.5;stroke:#000000;stroke-linejoin:miter;"/>
   </g>
   <g id="patch_9">
    <path clip-path="url(#pee41135077)" d="M 234.15 539.4 
L 324.0438 539.4 
L 324.0438 418.61208 
L 234.15 418.61208 
z
" style="fill:#e0dbd8;opacity:0.5;stroke:#000000;stroke-linejoin:miter;"/>
   </g>
   <g id="patch_10">
    <path clip-path="url(#pee41135077)" d="M 324.049938 539.4 
L 413.943738 539.4 
L 413.943738 418.61208 
L 324.049938 418.61208 
z
" style="fill:#d7dce3;opacity:0.5;stroke:#000000;stroke-linejoin:miter;"/>
   </g>
   <g id="patch_11">
    <path clip-path="url(#pee41135077)" d="M 413.950062 539.4 
L 503.843862 539.4 
L 503.843862 418.61208 
L 413.950062 418.61208 
z
" style="fill:#4961d2;opacity:0.5;stroke:#000000;stroke-linejoin:miter;"/>
   </g>
   <g id="LineCollection_1">
    <path clip-path="url(#pee41135077)" d="M 276 528.465618 
L 281.636364 529.144053 
L 287.272727 529.646797 
L 292.909091 530.01932 
L 304.181818 530.389394 
L 315.454545 530.436071 
L 343.636364 530.170344 
L 360.545455 529.836322 
L 371.818182 529.402037 
L 383.090909 528.796111 
L 394.549703 527.84698 
L 405.636364 526.561314 
L 411.272727 525.751296 
L 420.227073 524.198658 
L 422.545455 523.752008 
L 428.181818 522.520878 
L 435.766845 520.550336 
L 439.454545 519.503958 
L 447.317681 516.902013 
L 450.727273 515.654801 
L 456.572018 513.253691 
L 464.210319 509.605369 
L 467.636364 507.825213 
L 473.272727 504.499189 
L 478.909091 500.790844 
L 484.545455 496.678136 
L 490.847184 491.363758 
L 495.818182 486.617018 
L 498.253009 484.067114 
L 501.487906 480.418792 
L 504.545835 476.77047 
L 507.364503 473.122148 
L 509.937424 469.473826 
L 512.727273 465.210431 
L 514.530312 462.177181 
L 516.486406 458.528859 
L 518.363636 454.716007 
L 519.916298 451.232215 
L 521.413428 447.583893 
L 522.790341 443.93557 
L 524.0182 440.287248 
L 525.041788 436.638926 
L 526.812081 429.342282 
L 527.558671 425.69396 
L 528.743208 418.397315 
L 529.636364 410.485438 
L 530.1476 403.804027 
L 530.452999 396.507383 
L 530.634921 385.562416 
L 530.541991 374.61745 
L 529.955234 345.430872 
L 529.551085 334.485906 
L 528.848995 323.54094 
L 528.170778 316.244295 
L 527.301964 308.947651 
L 526.179611 301.651007 
L 524.766036 294.354362 
L 523.07777 287.057718 
L 522.059959 283.409396 
L 519.753762 276.112752 
L 518.363636 272.214744 
L 515.416271 265.167785 
L 511.877979 257.871141 
L 507.786007 250.574497 
L 505.448065 246.926174 
L 501.454545 241.128622 
L 497.480051 235.981208 
L 494.282239 232.332886 
L 490.181818 227.81896 
L 484.545455 222.396155 
L 483.391692 221.387919 
L 478.909091 217.654187 
L 473.272727 213.474547 
L 467.636364 209.853009 
L 462 206.617096 
L 455.042459 203.146309 
L 450.727273 201.342183 
L 445.090909 199.130817 
L 433.818182 195.311753 
L 422.545455 192.541047 
L 416.909091 191.355925 
L 411.272727 190.377555 
L 400 188.780979 
L 388.727273 187.717398 
L 383.090909 187.208372 
L 371.818182 186.504135 
L 360.545455 186.075022 
L 349.272727 185.806085 
L 321.090909 185.469433 
L 304.181818 185.522899 
L 298.545455 185.641637 
L 292.909091 185.872913 
L 287.272727 186.260238 
L 281.636364 186.862082 
L 270.363636 188.417944 
L 264.727273 189.6121 
L 259.090909 191.015528 
L 253.454545 192.721454 
L 247.818182 194.688173 
L 242.181818 197.09888 
L 236.545455 199.846973 
L 230.679817 203.146309 
L 224.83682 206.794631 
L 219.636364 210.499763 
L 214 214.795404 
L 208.363636 219.65705 
L 202.692275 225.036242 
L 195.962044 232.332886 
L 191.454545 237.764766 
L 189.996892 239.62953 
L 184.758909 246.926174 
L 180.162288 254.222819 
L 178.085589 257.871141 
L 174.366109 265.167785 
L 172.665484 268.816107 
L 169.726818 276.112752 
L 168.398605 279.761074 
L 166.149301 287.057718 
L 164.262878 294.354362 
L 162.711596 301.651007 
L 161.502846 308.947651 
L 160.550086 316.244295 
L 159.83242 323.54094 
L 159.293485 330.837584 
L 158.754483 341.78255 
L 158.347483 356.375839 
L 157.85147 385.562416 
L 157.92629 392.85906 
L 158.181975 400.155705 
L 158.664517 407.452349 
L 159.432511 414.748993 
L 159.933431 418.397315 
L 161.230844 425.69396 
L 162.915249 432.990604 
L 163.965319 436.638926 
L 165.141881 440.287248 
L 166.440505 443.93557 
L 168.909091 449.974632 
L 169.462449 451.232215 
L 171.24378 454.880537 
L 174.545455 460.898477 
L 175.303651 462.177181 
L 177.617235 465.825503 
L 180.181818 469.600896 
L 182.80072 473.122148 
L 185.818182 476.938311 
L 188.816955 480.418792 
L 192.16802 484.067114 
L 197.090909 489.10626 
L 199.434928 491.363758 
L 203.488606 495.012081 
L 208.363636 499.093442 
L 214 503.37859 
L 219.636364 507.288158 
L 225.272727 510.86159 
L 230.909091 514.04363 
L 236.545455 516.9518 
L 242.181818 519.462554 
L 247.818182 521.661148 
L 255.584441 524.198658 
L 259.090909 525.198825 
L 264.727273 526.503246 
L 271.875838 527.84698 
L 276 528.465618 
L 276 528.465618 
" style="fill:none;stroke:#000000;stroke-width:3;"/>
   </g>
   <g id="LineCollection_2">
    <path clip-path="url(#pee41135077)" d="M 281.636364 480.853031 
L 287.272727 481.570794 
L 298.545455 482.482064 
L 304.181818 482.668979 
L 315.454545 482.754714 
L 332.363636 482.516934 
L 338 482.28785 
L 343.636364 482.35907 
L 354.909091 482.052644 
L 360.545455 481.571119 
L 366.181818 481.369392 
L 371.818182 481.285331 
L 383.090909 480.309114 
L 388.727273 479.698586 
L 400 477.97627 
L 406.326381 476.77047 
L 411.272727 475.625586 
L 420.388638 473.122148 
L 422.545455 472.418366 
L 430.317023 469.473826 
L 433.818182 467.906945 
L 439.454545 464.943491 
L 445.090909 461.656764 
L 450.727273 457.733387 
L 456.363636 452.627555 
L 457.728531 451.232215 
L 462 446.255878 
L 467.636364 437.692222 
L 468.164539 436.638926 
L 471.378117 429.342282 
L 473.272727 424.343885 
L 473.966262 422.045638 
L 475.637438 414.748993 
L 476.845997 407.452349 
L 477.259654 403.804027 
L 478.051129 392.85906 
L 478.15291 385.562416 
L 478.018424 378.265772 
L 477.503453 367.320805 
L 477.441573 360.024161 
L 477.036389 352.727517 
L 477.013945 349.079195 
L 476.879896 345.430872 
L 475.439961 327.189262 
L 475.028218 323.54094 
L 473.272727 312.515066 
L 471.267177 305.299329 
L 467.585503 294.354362 
L 466.03786 290.70604 
L 462 283.017297 
L 459.79746 279.761074 
L 456.363636 275.054044 
L 450.727273 268.664608 
L 442.048523 261.519463 
L 439.454545 259.672027 
L 433.818182 256.22013 
L 428.181818 253.293004 
L 416.909091 248.790788 
L 411.272727 246.872471 
L 400 244.103063 
L 394.363636 242.997127 
L 388.727273 242.360383 
L 377.454545 240.880176 
L 371.818182 240.350719 
L 354.909091 239.244316 
L 315.454545 238.584567 
L 304.181818 238.61409 
L 298.545455 238.855506 
L 288.821623 239.62953 
L 287.272727 239.78947 
L 281.636364 240.749577 
L 276 242.027424 
L 270.363636 243.533012 
L 264.727273 245.561113 
L 259.090909 248.113259 
L 253.454545 251.196813 
L 247.818182 254.906959 
L 242.181818 259.674614 
L 240.346375 261.519463 
L 236.545455 265.68834 
L 230.909091 273.006437 
L 224.867192 283.409396 
L 220.413209 294.354362 
L 219.636364 296.458039 
L 219.189711 298.002685 
L 216.488304 308.947651 
L 215.075324 316.244295 
L 213.991069 323.54094 
L 213.746859 327.189262 
L 213.282901 330.837584 
L 212.171175 352.727517 
L 211.499664 378.265772 
L 211.494708 392.85906 
L 211.843167 400.155705 
L 212.098962 403.804027 
L 212.490748 407.452349 
L 213.068638 411.100671 
L 214 417.827232 
L 214.109874 418.397315 
L 216.065152 425.69396 
L 218.495394 432.990604 
L 219.949282 436.638926 
L 221.769139 440.287248 
L 223.731537 443.93557 
L 226.043763 447.583893 
L 231.41568 454.880537 
L 236.545455 460.259957 
L 238.727803 462.177181 
L 243.357384 465.825503 
L 248.680313 469.473826 
L 253.454545 472.091859 
L 255.574894 473.122148 
L 259.090909 474.684063 
L 264.727273 476.837494 
L 270.363636 478.452948 
L 276 479.815576 
L 281.636364 480.853031 
L 281.636364 480.853031 
" style="fill:none;stroke:#0000ff;stroke-width:3;"/>
   </g>
   <g id="line2d_1">
    <path clip-path="url(#pee41135077)" d="M 234.15 539.4 
L 234.15 177 
" style="fill:none;stroke:#ff0000;stroke-linecap:square;stroke-width:1.5;"/>
   </g>
   <g id="line2d_2">
    <path clip-path="url(#pee41135077)" d="M 503.85 539.4 
L 503.85 177 
" style="fill:none;stroke:#ff0000;stroke-linecap:square;stroke-width:1.5;"/>
   </g>
   <g id="line2d_3">
    <path clip-path="url(#pee41135077)" d="M 234.15 539.4 
L 503.85 539.4 
" style="fill:none;stroke:#ff0000;stroke-linecap:square;stroke-width:1.5;"/>
   </g>
   <g id="line2d_4">
    <path clip-path="url(#pee41135077)" d="M 234.15 177 
L 503.85 177 
" style="fill:none;stroke:#ff0000;stroke-linecap:square;stroke-width:1.5;"/>
   </g>
   <g id="text_1">
    <!-- Sinker, Leftie Hitter, Umpire's Strikezone -->
    <defs>
     <path d="M 53.515625 70.515625 
L 53.515625 60.890625 
Q 47.90625 63.578125 42.921875 64.890625 
Q 37.9375 66.21875 33.296875 66.21875 
Q 25.25 66.21875 20.875 63.09375 
Q 16.5 59.96875 16.5 54.203125 
Q 16.5 49.359375 19.40625 46.890625 
Q 22.3125 44.4375 30.421875 42.921875 
L 36.375 41.703125 
Q 47.40625 39.59375 52.65625 34.296875 
Q 57.90625 29 57.90625 20.125 
Q 57.90625 9.515625 50.796875 4.046875 
Q 43.703125 -1.421875 29.984375 -1.421875 
Q 24.8125 -1.421875 18.96875 -0.25 
Q 13.140625 0.921875 6.890625 3.21875 
L 6.890625 13.375 
Q 12.890625 10.015625 18.65625 8.296875 
Q 24.421875 6.59375 29.984375 6.59375 
Q 38.421875 6.59375 43.015625 9.90625 
Q 47.609375 13.234375 47.609375 19.390625 
Q 47.609375 24.75 44.3125 27.78125 
Q 41.015625 30.8125 33.5 32.328125 
L 27.484375 33.5 
Q 16.453125 35.6875 11.515625 40.375 
Q 6.59375 45.0625 6.59375 53.421875 
Q 6.59375 63.09375 13.40625 68.65625 
Q 20.21875 74.21875 32.171875 74.21875 
Q 37.3125 74.21875 42.625 73.28125 
Q 47.953125 72.359375 53.515625 70.515625 
z
" id="DejaVuSans-83"/>
     <path d="M 9.421875 54.6875 
L 18.40625 54.6875 
L 18.40625 0 
L 9.421875 0 
z
M 9.421875 75.984375 
L 18.40625 75.984375 
L 18.40625 64.59375 
L 9.421875 64.59375 
z
" id="DejaVuSans-105"/>
     <path d="M 54.890625 33.015625 
L 54.890625 0 
L 45.90625 0 
L 45.90625 32.71875 
Q 45.90625 40.484375 42.875 44.328125 
Q 39.84375 48.1875 33.796875 48.1875 
Q 26.515625 48.1875 22.3125 43.546875 
Q 18.109375 38.921875 18.109375 30.90625 
L 18.109375 0 
L 9.078125 0 
L 9.078125 54.6875 
L 18.109375 54.6875 
L 18.109375 46.1875 
Q 21.34375 51.125 25.703125 53.5625 
Q 30.078125 56 35.796875 56 
Q 45.21875 56 50.046875 50.171875 
Q 54.890625 44.34375 54.890625 33.015625 
z
" id="DejaVuSans-110"/>
     <path d="M 9.078125 75.984375 
L 18.109375 75.984375 
L 18.109375 31.109375 
L 44.921875 54.6875 
L 56.390625 54.6875 
L 27.390625 29.109375 
L 57.625 0 
L 45.90625 0 
L 18.109375 26.703125 
L 18.109375 0 
L 9.078125 0 
z
" id="DejaVuSans-107"/>
     <path d="M 56.203125 29.59375 
L 56.203125 25.203125 
L 14.890625 25.203125 
Q 15.484375 15.921875 20.484375 11.0625 
Q 25.484375 6.203125 34.421875 6.203125 
Q 39.59375 6.203125 44.453125 7.46875 
Q 49.3125 8.734375 54.109375 11.28125 
L 54.109375 2.78125 
Q 49.265625 0.734375 44.1875 -0.34375 
Q 39.109375 -1.421875 33.890625 -1.421875 
Q 20.796875 -1.421875 13.15625 6.1875 
Q 5.515625 13.8125 5.515625 26.8125 
Q 5.515625 40.234375 12.765625 48.109375 
Q 20.015625 56 32.328125 56 
Q 43.359375 56 49.78125 48.890625 
Q 56.203125 41.796875 56.203125 29.59375 
z
M 47.21875 32.234375 
Q 47.125 39.59375 43.09375 43.984375 
Q 39.0625 48.390625 32.421875 48.390625 
Q 24.90625 48.390625 20.390625 44.140625 
Q 15.875 39.890625 15.1875 32.171875 
z
" id="DejaVuSans-101"/>
     <path d="M 41.109375 46.296875 
Q 39.59375 47.171875 37.8125 47.578125 
Q 36.03125 48 33.890625 48 
Q 26.265625 48 22.1875 43.046875 
Q 18.109375 38.09375 18.109375 28.8125 
L 18.109375 0 
L 9.078125 0 
L 9.078125 54.6875 
L 18.109375 54.6875 
L 18.109375 46.1875 
Q 20.953125 51.171875 25.484375 53.578125 
Q 30.03125 56 36.53125 56 
Q 37.453125 56 38.578125 55.875 
Q 39.703125 55.765625 41.0625 55.515625 
z
" id="DejaVuSans-114"/>
     <path d="M 11.71875 12.40625 
L 22.015625 12.40625 
L 22.015625 4 
L 14.015625 -11.625 
L 7.71875 -11.625 
L 11.71875 4 
z
" id="DejaVuSans-44"/>
     <path id="DejaVuSans-32"/>
     <path d="M 9.8125 72.90625 
L 19.671875 72.90625 
L 19.671875 8.296875 
L 55.171875 8.296875 
L 55.171875 0 
L 9.8125 0 
z
" id="DejaVuSans-76"/>
     <path d="M 37.109375 75.984375 
L 37.109375 68.5 
L 28.515625 68.5 
Q 23.6875 68.5 21.796875 66.546875 
Q 19.921875 64.59375 19.921875 59.515625 
L 19.921875 54.6875 
L 34.71875 54.6875 
L 34.71875 47.703125 
L 19.921875 47.703125 
L 19.921875 0 
L 10.890625 0 
L 10.890625 47.703125 
L 2.296875 47.703125 
L 2.296875 54.6875 
L 10.890625 54.6875 
L 10.890625 58.5 
Q 10.890625 67.625 15.140625 71.796875 
Q 19.390625 75.984375 28.609375 75.984375 
z
" id="DejaVuSans-102"/>
     <path d="M 18.3125 70.21875 
L 18.3125 54.6875 
L 36.8125 54.6875 
L 36.8125 47.703125 
L 18.3125 47.703125 
L 18.3125 18.015625 
Q 18.3125 11.328125 20.140625 9.421875 
Q 21.96875 7.515625 27.59375 7.515625 
L 36.8125 7.515625 
L 36.8125 0 
L 27.59375 0 
Q 17.1875 0 13.234375 3.875 
Q 9.28125 7.765625 9.28125 18.015625 
L 9.28125 47.703125 
L 2.6875 47.703125 
L 2.6875 54.6875 
L 9.28125 54.6875 
L 9.28125 70.21875 
z
" id="DejaVuSans-116"/>
     <path d="M 9.8125 72.90625 
L 19.671875 72.90625 
L 19.671875 43.015625 
L 55.515625 43.015625 
L 55.515625 72.90625 
L 65.375 72.90625 
L 65.375 0 
L 55.515625 0 
L 55.515625 34.71875 
L 19.671875 34.71875 
L 19.671875 0 
L 9.8125 0 
z
" id="DejaVuSans-72"/>
     <path d="M 8.6875 72.90625 
L 18.609375 72.90625 
L 18.609375 28.609375 
Q 18.609375 16.890625 22.84375 11.734375 
Q 27.09375 6.59375 36.625 6.59375 
Q 46.09375 6.59375 50.34375 11.734375 
Q 54.59375 16.890625 54.59375 28.609375 
L 54.59375 72.90625 
L 64.5 72.90625 
L 64.5 27.390625 
Q 64.5 13.140625 57.4375 5.859375 
Q 50.390625 -1.421875 36.625 -1.421875 
Q 22.796875 -1.421875 15.734375 5.859375 
Q 8.6875 13.140625 8.6875 27.390625 
z
" id="DejaVuSans-85"/>
     <path d="M 52 44.1875 
Q 55.375 50.25 60.0625 53.125 
Q 64.75 56 71.09375 56 
Q 79.640625 56 84.28125 50.015625 
Q 88.921875 44.046875 88.921875 33.015625 
L 88.921875 0 
L 79.890625 0 
L 79.890625 32.71875 
Q 79.890625 40.578125 77.09375 44.375 
Q 74.3125 48.1875 68.609375 48.1875 
Q 61.625 48.1875 57.5625 43.546875 
Q 53.515625 38.921875 53.515625 30.90625 
L 53.515625 0 
L 44.484375 0 
L 44.484375 32.71875 
Q 44.484375 40.625 41.703125 44.40625 
Q 38.921875 48.1875 33.109375 48.1875 
Q 26.21875 48.1875 22.15625 43.53125 
Q 18.109375 38.875 18.109375 30.90625 
L 18.109375 0 
L 9.078125 0 
L 9.078125 54.6875 
L 18.109375 54.6875 
L 18.109375 46.1875 
Q 21.1875 51.21875 25.484375 53.609375 
Q 29.78125 56 35.6875 56 
Q 41.65625 56 45.828125 52.96875 
Q 50 49.953125 52 44.1875 
z
" id="DejaVuSans-109"/>
     <path d="M 18.109375 8.203125 
L 18.109375 -20.796875 
L 9.078125 -20.796875 
L 9.078125 54.6875 
L 18.109375 54.6875 
L 18.109375 46.390625 
Q 20.953125 51.265625 25.265625 53.625 
Q 29.59375 56 35.59375 56 
Q 45.5625 56 51.78125 48.09375 
Q 58.015625 40.1875 58.015625 27.296875 
Q 58.015625 14.40625 51.78125 6.484375 
Q 45.5625 -1.421875 35.59375 -1.421875 
Q 29.59375 -1.421875 25.265625 0.953125 
Q 20.953125 3.328125 18.109375 8.203125 
z
M 48.6875 27.296875 
Q 48.6875 37.203125 44.609375 42.84375 
Q 40.53125 48.484375 33.40625 48.484375 
Q 26.265625 48.484375 22.1875 42.84375 
Q 18.109375 37.203125 18.109375 27.296875 
Q 18.109375 17.390625 22.1875 11.75 
Q 26.265625 6.109375 33.40625 6.109375 
Q 40.53125 6.109375 44.609375 11.75 
Q 48.6875 17.390625 48.6875 27.296875 
z
" id="DejaVuSans-112"/>
     <path d="M 17.921875 72.90625 
L 17.921875 45.796875 
L 9.625 45.796875 
L 9.625 72.90625 
z
" id="DejaVuSans-39"/>
     <path d="M 44.28125 53.078125 
L 44.28125 44.578125 
Q 40.484375 46.53125 36.375 47.5 
Q 32.28125 48.484375 27.875 48.484375 
Q 21.1875 48.484375 17.84375 46.4375 
Q 14.5 44.390625 14.5 40.28125 
Q 14.5 37.15625 16.890625 35.375 
Q 19.28125 33.59375 26.515625 31.984375 
L 29.59375 31.296875 
Q 39.15625 29.25 43.1875 25.515625 
Q 47.21875 21.78125 47.21875 15.09375 
Q 47.21875 7.46875 41.1875 3.015625 
Q 35.15625 -1.421875 24.609375 -1.421875 
Q 20.21875 -1.421875 15.453125 -0.5625 
Q 10.6875 0.296875 5.421875 2 
L 5.421875 11.28125 
Q 10.40625 8.6875 15.234375 7.390625 
Q 20.0625 6.109375 24.8125 6.109375 
Q 31.15625 6.109375 34.5625 8.28125 
Q 37.984375 10.453125 37.984375 14.40625 
Q 37.984375 18.0625 35.515625 20.015625 
Q 33.0625 21.96875 24.703125 23.78125 
L 21.578125 24.515625 
Q 13.234375 26.265625 9.515625 29.90625 
Q 5.8125 33.546875 5.8125 39.890625 
Q 5.8125 47.609375 11.28125 51.796875 
Q 16.75 56 26.8125 56 
Q 31.78125 56 36.171875 55.265625 
Q 40.578125 54.546875 44.28125 53.078125 
z
" id="DejaVuSans-115"/>
     <path d="M 5.515625 54.6875 
L 48.1875 54.6875 
L 48.1875 46.484375 
L 14.40625 7.171875 
L 48.1875 7.171875 
L 48.1875 0 
L 4.296875 0 
L 4.296875 8.203125 
L 38.09375 47.515625 
L 5.515625 47.515625 
z
" id="DejaVuSans-122"/>
     <path d="M 30.609375 48.390625 
Q 23.390625 48.390625 19.1875 42.75 
Q 14.984375 37.109375 14.984375 27.296875 
Q 14.984375 17.484375 19.15625 11.84375 
Q 23.34375 6.203125 30.609375 6.203125 
Q 37.796875 6.203125 41.984375 11.859375 
Q 46.1875 17.53125 46.1875 27.296875 
Q 46.1875 37.015625 41.984375 42.703125 
Q 37.796875 48.390625 30.609375 48.390625 
z
M 30.609375 56 
Q 42.328125 56 49.015625 48.375 
Q 55.71875 40.765625 55.71875 27.296875 
Q 55.71875 13.875 49.015625 6.21875 
Q 42.328125 -1.421875 30.609375 -1.421875 
Q 18.84375 -1.421875 12.171875 6.21875 
Q 5.515625 13.875 5.515625 27.296875 
Q 5.515625 40.765625 12.171875 48.375 
Q 18.84375 56 30.609375 56 
z
" id="DejaVuSans-111"/>
    </defs>
    <g transform="translate(113.451172 80.4)scale(0.25 -0.25)">
     <use xlink:href="#DejaVuSans-83"/>
     <use x="63.476562" xlink:href="#DejaVuSans-105"/>
     <use x="91.259766" xlink:href="#DejaVuSans-110"/>
     <use x="154.638672" xlink:href="#DejaVuSans-107"/>
     <use x="212.501953" xlink:href="#DejaVuSans-101"/>
     <use x="274.025391" xlink:href="#DejaVuSans-114"/>
     <use x="315.138672" xlink:href="#DejaVuSans-44"/>
     <use x="346.925781" xlink:href="#DejaVuSans-32"/>
     <use x="378.712891" xlink:href="#DejaVuSans-76"/>
     <use x="434.410156" xlink:href="#DejaVuSans-101"/>
     <use x="495.933594" xlink:href="#DejaVuSans-102"/>
     <use x="531.123047" xlink:href="#DejaVuSans-116"/>
     <use x="570.332031" xlink:href="#DejaVuSans-105"/>
     <use x="598.115234" xlink:href="#DejaVuSans-101"/>
     <use x="659.638672" xlink:href="#DejaVuSans-32"/>
     <use x="691.425781" xlink:href="#DejaVuSans-72"/>
     <use x="766.621094" xlink:href="#DejaVuSans-105"/>
     <use x="794.404297" xlink:href="#DejaVuSans-116"/>
     <use x="833.613281" xlink:href="#DejaVuSans-116"/>
     <use x="872.822266" xlink:href="#DejaVuSans-101"/>
     <use x="934.345703" xlink:href="#DejaVuSans-114"/>
     <use x="975.458984" xlink:href="#DejaVuSans-44"/>
     <use x="1007.246094" xlink:href="#DejaVuSans-32"/>
     <use x="1039.033203" xlink:href="#DejaVuSans-85"/>
     <use x="1112.226562" xlink:href="#DejaVuSans-109"/>
     <use x="1209.638672" xlink:href="#DejaVuSans-112"/>
     <use x="1273.115234" xlink:href="#DejaVuSans-105"/>
     <use x="1300.898438" xlink:href="#DejaVuSans-114"/>
     <use x="1341.980469" xlink:href="#DejaVuSans-101"/>
     <use x="1403.503906" xlink:href="#DejaVuSans-39"/>
     <use x="1430.994141" xlink:href="#DejaVuSans-115"/>
     <use x="1483.09375" xlink:href="#DejaVuSans-32"/>
     <use x="1514.880859" xlink:href="#DejaVuSans-83"/>
     <use x="1578.357422" xlink:href="#DejaVuSans-116"/>
     <use x="1617.566406" xlink:href="#DejaVuSans-114"/>
     <use x="1658.679688" xlink:href="#DejaVuSans-105"/>
     <use x="1686.462891" xlink:href="#DejaVuSans-107"/>
     <use x="1744.326172" xlink:href="#DejaVuSans-101"/>
     <use x="1805.849609" xlink:href="#DejaVuSans-122"/>
     <use x="1858.339844" xlink:href="#DejaVuSans-111"/>
     <use x="1919.521484" xlink:href="#DejaVuSans-110"/>
     <use x="1982.900391" xlink:href="#DejaVuSans-101"/>
    </g>
   </g>
  </g>
 </g>
 <defs>
  <clipPath id="pee41135077">
   <rect height="543.6" width="558" x="90" y="86.4"/>
  </clipPath>
 </defs>
</svg>
