<?xml version="1.0" encoding="utf-8" standalone="no"?>
<!DOCTYPE svg PUBLIC "-//W3C//DTD SVG 1.1//EN"
  "http://www.w3.org/Graphics/SVG/1.1/DTD/svg11.dtd">
<!-- Created with matplotlib (https://matplotlib.org/) -->
<svg height="720pt" version="1.1" viewBox="0 0 720 720" width="720pt" xmlns="http://www.w3.org/2000/svg" xmlns:xlink="http://www.w3.org/1999/xlink">
 <defs>
  <style type="text/css">
*{stroke-linecap:butt;stroke-linejoin:round;}
  </style>
 </defs>
 <g id="figure_1">
  <g id="patch_1">
   <path d="M 0 720 
L 720 720 
L 720 0 
L 0 0 
z
" style="fill:#ffffff;"/>
  </g>
  <g id="axes_1">
   <g id="patch_2">
    <path d="M 90 630 
L 648 630 
L 648 86.4 
L 90 86.4 
z
" style="fill:#ffffff;"/>
   </g>
   <g id="matplotlib.axis_1"/>
   <g id="matplotlib.axis_2"/>
   <g id="patch_3">
    <path clip-path="url(#p7e941dac1c)" d="M 234.15 297.8604 
L 324.0438 297.8604 
L 324.0438 177.07248 
L 234.15 177.07248 
z
" style="fill:#f2c9b4;opacity:0.5;stroke:#000000;stroke-linejoin:miter;"/>
   </g>
   <g id="patch_4">
    <path clip-path="url(#p7e941dac1c)" d="M 324.049938 297.8604 
L 413.943738 297.8604 
L 413.943738 177.07248 
L 324.049938 177.07248 
z
" style="fill:#f29274;opacity:0.5;stroke:#000000;stroke-linejoin:miter;"/>
   </g>
   <g id="patch_5">
    <path clip-path="url(#p7e941dac1c)" d="M 413.950062 297.8604 
L 503.843862 297.8604 
L 503.843862 177.07248 
L 413.950062 177.07248 
z
" style="fill:#e6d7cf;opacity:0.5;stroke:#000000;stroke-linejoin:miter;"/>
   </g>
   <g id="patch_6">
    <path clip-path="url(#p7e941dac1c)" d="M 234.15 418.7208 
L 324.0438 418.7208 
L 324.0438 297.93288 
L 234.15 297.93288 
z
" style="fill:#c53334;opacity:0.5;stroke:#000000;stroke-linejoin:miter;"/>
   </g>
   <g id="patch_7">
    <path clip-path="url(#p7e941dac1c)" d="M 324.049938 418.7208 
L 413.943738 418.7208 
L 413.943738 297.93288 
L 324.049938 297.93288 
z
" style="fill:#b40426;opacity:0.5;stroke:#000000;stroke-linejoin:miter;"/>
   </g>
   <g id="patch_8">
    <path clip-path="url(#p7e941dac1c)" d="M 413.950062 418.7208 
L 503.843862 418.7208 
L 503.843862 297.93288 
L 413.950062 297.93288 
z
" style="fill:#c12b30;opacity:0.5;stroke:#000000;stroke-linejoin:miter;"/>
   </g>
   <g id="patch_9">
    <path clip-path="url(#p7e941dac1c)" d="M 234.15 539.4 
L 324.0438 539.4 
L 324.0438 418.61208 
L 234.15 418.61208 
z
" style="fill:#aac7fd;opacity:0.5;stroke:#000000;stroke-linejoin:miter;"/>
   </g>
   <g id="patch_10">
    <path clip-path="url(#p7e941dac1c)" d="M 324.049938 539.4 
L 413.943738 539.4 
L 413.943738 418.61208 
L 324.049938 418.61208 
z
" style="fill:#d9dce1;opacity:0.5;stroke:#000000;stroke-linejoin:miter;"/>
   </g>
   <g id="patch_11">
    <path clip-path="url(#p7e941dac1c)" d="M 413.950062 539.4 
L 503.843862 539.4 
L 503.843862 418.61208 
L 413.950062 418.61208 
z
" style="fill:#afcafc;opacity:0.5;stroke:#000000;stroke-linejoin:miter;"/>
   </g>
   <g id="LineCollection_1">
    <path clip-path="url(#p7e941dac1c)" d="M 321.090909 528.297261 
L 326.727273 528.913403 
L 332.363636 529.372745 
L 338 529.717209 
L 349.272727 530.038982 
L 360.545455 529.958268 
L 371.818182 529.563317 
L 383.090909 528.898092 
L 396.880382 527.84698 
L 411.272727 526.587016 
L 428.181818 524.833529 
L 433.818182 524.0945 
L 439.454545 523.245337 
L 445.090909 522.240352 
L 452.92317 520.550336 
L 456.363636 519.714804 
L 462 518.123663 
L 467.636364 516.270058 
L 475.376025 513.253691 
L 478.909091 511.692895 
L 484.545455 508.892808 
L 490.181818 505.678223 
L 495.818182 501.996057 
L 501.454545 497.772084 
L 507.090909 492.996846 
L 512.727273 487.581975 
L 519.227857 480.418792 
L 524 474.511468 
L 527.666616 469.473826 
L 530.187301 465.825503 
L 534.726188 458.528859 
L 536.800715 454.880537 
L 540.909091 446.985026 
L 543.945608 440.287248 
L 546.908919 432.990604 
L 549.412853 425.69396 
L 551.604673 418.397315 
L 553.446799 411.100671 
L 554.96475 403.804027 
L 556.212649 396.507383 
L 557.19816 389.210738 
L 557.942898 381.914094 
L 558.443654 374.61745 
L 558.723239 367.320805 
L 558.813258 360.024161 
L 558.704957 352.727517 
L 558.455319 345.430872 
L 558.043526 338.134228 
L 557.479442 330.837584 
L 556.378158 319.892617 
L 555.489431 312.595973 
L 554.433071 305.299329 
L 553.193165 298.002685 
L 551.68072 290.70604 
L 549.94506 283.409396 
L 547.923634 276.112752 
L 546.545455 271.826052 
L 544.191425 265.167785 
L 541.245574 257.871141 
L 539.556991 254.222819 
L 535.886435 246.926174 
L 533.814358 243.277852 
L 531.613718 239.62953 
L 529.238707 235.981208 
L 523.913302 228.684564 
L 518.363636 222.215028 
L 517.582922 221.387919 
L 512.727273 216.555745 
L 507.090909 211.594958 
L 505.633445 210.442953 
L 500.683877 206.794631 
L 495.106885 203.146309 
L 488.45416 199.497987 
L 484.545455 197.561438 
L 478.909091 195.15117 
L 473.272727 192.945853 
L 467.636364 191.107774 
L 462 189.551673 
L 456.363636 188.163699 
L 450.727273 187.010134 
L 445.090909 185.987361 
L 438.074702 184.904698 
L 433.818182 184.350719 
L 422.545455 183.17923 
L 411.272727 182.213957 
L 388.727273 180.573412 
L 377.454545 179.921261 
L 366.181818 179.446497 
L 354.909091 179.229283 
L 343.636364 179.335165 
L 332.363636 179.823439 
L 321.090909 180.737838 
L 315.454545 181.403224 
L 309.818182 182.190062 
L 304.181818 183.146688 
L 292.909091 185.512717 
L 287.272727 186.98101 
L 281.636364 188.653683 
L 276 190.491544 
L 270.363636 192.568739 
L 262.644354 195.849664 
L 259.090909 197.51862 
L 253.454545 200.397096 
L 247.818182 203.664991 
L 242.181818 207.281721 
L 236.545455 211.293158 
L 230.909091 215.880362 
L 225.272727 221.051061 
L 224.933631 221.387919 
L 219.636364 227.019423 
L 218.211774 228.684564 
L 214 233.986233 
L 212.513488 235.981208 
L 208.363636 242.113709 
L 205.453417 246.926174 
L 201.498113 254.222819 
L 198.082999 261.519463 
L 196.5463 265.167785 
L 195.127273 268.816107 
L 191.417517 279.761074 
L 189.402142 287.057718 
L 187.668228 294.354362 
L 186.176583 301.651007 
L 184.9251 308.947651 
L 183.856903 316.244295 
L 182.585559 327.189262 
L 181.894507 334.485906 
L 181.143321 345.430872 
L 180.857528 352.727517 
L 180.756224 360.024161 
L 180.843639 367.320805 
L 181.187659 374.61745 
L 181.713156 381.914094 
L 182.535786 389.210738 
L 183.594298 396.507383 
L 184.93245 403.804027 
L 186.604981 411.100671 
L 188.606326 418.397315 
L 189.717315 422.045638 
L 192.277597 429.342282 
L 193.687767 432.990604 
L 195.218074 436.638926 
L 198.580052 443.93557 
L 202.727273 451.878908 
L 206.678331 458.528859 
L 209.032307 462.177181 
L 214.159756 469.473826 
L 217.012743 473.122148 
L 220.05664 476.77047 
L 225.272727 482.643449 
L 230.380519 487.715436 
L 230.909091 488.21912 
L 236.545455 493.246574 
L 243.318049 498.660403 
L 248.398441 502.308725 
L 254.066322 505.957047 
L 260.400002 509.605369 
L 264.727273 511.897305 
L 270.363636 514.584098 
L 276 517.020506 
L 285.73231 520.550336 
L 287.272727 521.076066 
L 292.909091 522.747902 
L 298.545455 524.242638 
L 304.181818 525.519941 
L 309.818182 526.61826 
L 317.704359 527.84698 
L 321.090909 528.297261 
L 321.090909 528.297261 
" style="fill:none;stroke:#000000;stroke-width:3;"/>
   </g>
   <g id="LineCollection_2">
    <path clip-path="url(#p7e941dac1c)" d="M 343.636364 480.54802 
L 349.272727 480.683842 
L 360.545455 480.58774 
L 366.181818 480.363734 
L 388.727273 478.432395 
L 394.363636 477.849858 
L 403.556373 476.77047 
L 405.636364 476.536164 
L 428.181818 473.294883 
L 433.818182 472.205411 
L 439.454545 470.928163 
L 445.207841 469.473826 
L 450.727273 467.716902 
L 456.363636 465.731265 
L 464.207061 462.177181 
L 467.636364 460.36957 
L 473.272727 456.970428 
L 478.909091 452.949917 
L 485.151614 447.583893 
L 490.181818 442.384972 
L 495.818182 435.217296 
L 501.688812 425.69396 
L 505.064179 418.397315 
L 507.090909 413.802349 
L 509.131957 407.452349 
L 511.224985 400.155705 
L 512.727273 394.175691 
L 513.56925 389.210738 
L 514.492814 381.914094 
L 514.880707 378.265772 
L 515.072196 374.61745 
L 515.475494 370.969128 
L 515.65444 367.320805 
L 515.737022 356.375839 
L 515.260407 345.430872 
L 514.680686 338.134228 
L 513.397532 327.189262 
L 512.458212 319.892617 
L 510.25832 308.947651 
L 507.090909 296.100928 
L 506.518962 294.354362 
L 503.861262 287.057718 
L 500.909034 279.761074 
L 497.054271 272.46443 
L 495.818182 270.242409 
L 492.252338 265.167785 
L 489.454248 261.519463 
L 486.372734 257.871141 
L 484.545455 255.93961 
L 478.909091 250.569438 
L 473.272727 246.467232 
L 467.636364 243.048828 
L 461.323327 239.62953 
L 452.293348 235.981208 
L 450.727273 235.442072 
L 439.454545 232.261899 
L 428.181818 230.062499 
L 419.884899 228.684564 
L 411.272727 227.624232 
L 389.479848 225.036242 
L 383.090909 224.45049 
L 377.454545 224.092416 
L 371.818182 223.611878 
L 360.545455 223.070009 
L 349.272727 223.011868 
L 343.636364 223.124996 
L 332.363636 223.861686 
L 322.391672 225.036242 
L 321.090909 225.230786 
L 309.818182 227.605471 
L 304.181818 229.097058 
L 294.596063 232.332886 
L 292.909091 233.001044 
L 286.203375 235.981208 
L 279.516403 239.62953 
L 276 241.781465 
L 270.363636 245.701479 
L 268.80012 246.926174 
L 264.421425 250.574497 
L 259.090909 255.852165 
L 257.392603 257.871141 
L 253.454545 262.302279 
L 247.818182 270.453088 
L 244.640052 276.112752 
L 242.181818 280.877907 
L 241.095927 283.409396 
L 238.119531 290.70604 
L 234.627666 301.651007 
L 232.777074 308.947651 
L 231.929351 312.595973 
L 229.923024 323.54094 
L 228.117051 338.134228 
L 227.41433 345.430872 
L 227.054614 352.727517 
L 227.06157 367.320805 
L 227.19456 370.969128 
L 227.773757 378.265772 
L 229.343908 389.210738 
L 229.969699 392.85906 
L 230.909091 397.325577 
L 231.667674 400.155705 
L 233.991258 407.452349 
L 236.589022 414.748993 
L 238.266982 418.397315 
L 242.181818 426.170802 
L 244.109825 429.342282 
L 247.818182 434.953404 
L 251.905795 440.287248 
L 253.454545 442.190388 
L 259.090909 448.213332 
L 264.727273 453.242529 
L 271.593152 458.528859 
L 277.056172 462.177181 
L 283.545622 465.825503 
L 291.143234 469.473826 
L 292.909091 470.234885 
L 300.625588 473.122148 
L 304.181818 474.240428 
L 313.798172 476.77047 
L 315.454545 477.142067 
L 321.090909 478.161685 
L 326.727273 479.049746 
L 332.363636 479.718417 
L 343.636364 480.54802 
L 343.636364 480.54802 
" style="fill:none;stroke:#0000ff;stroke-width:3;"/>
   </g>
   <g id="line2d_1">
    <path clip-path="url(#p7e941dac1c)" d="M 234.15 539.4 
L 234.15 177 
" style="fill:none;stroke:#ff0000;stroke-linecap:square;stroke-width:1.5;"/>
   </g>
   <g id="line2d_2">
    <path clip-path="url(#p7e941dac1c)" d="M 503.85 539.4 
L 503.85 177 
" style="fill:none;stroke:#ff0000;stroke-linecap:square;stroke-width:1.5;"/>
   </g>
   <g id="line2d_3">
    <path clip-path="url(#p7e941dac1c)" d="M 234.15 539.4 
L 503.85 539.4 
" style="fill:none;stroke:#ff0000;stroke-linecap:square;stroke-width:1.5;"/>
   </g>
   <g id="line2d_4">
    <path clip-path="url(#p7e941dac1c)" d="M 234.15 177 
L 503.85 177 
" style="fill:none;stroke:#ff0000;stroke-linecap:square;stroke-width:1.5;"/>
   </g>
   <g id="text_1">
    <!-- Slider, Righty Hitter, Umpire's Strikezone -->
    <defs>
     <path d="M 53.515625 70.515625 
L 53.515625 60.890625 
Q 47.90625 63.578125 42.921875 64.890625 
Q 37.9375 66.21875 33.296875 66.21875 
Q 25.25 66.21875 20.875 63.09375 
Q 16.5 59.96875 16.5 54.203125 
Q 16.5 49.359375 19.40625 46.890625 
Q 22.3125 44.4375 30.421875 42.921875 
L 36.375 41.703125 
Q 47.40625 39.59375 52.65625 34.296875 
Q 57.90625 29 57.90625 20.125 
Q 57.90625 9.515625 50.796875 4.046875 
Q 43.703125 -1.421875 29.984375 -1.421875 
Q 24.8125 -1.421875 18.96875 -0.25 
Q 13.140625 0.921875 6.890625 3.21875 
L 6.890625 13.375 
Q 12.890625 10.015625 18.65625 8.296875 
Q 24.421875 6.59375 29.984375 6.59375 
Q 38.421875 6.59375 43.015625 9.90625 
Q 47.609375 13.234375 47.609375 19.390625 
Q 47.609375 24.75 44.3125 27.78125 
Q 41.015625 30.8125 33.5 32.328125 
L 27.484375 33.5 
Q 16.453125 35.6875 11.515625 40.375 
Q 6.59375 45.0625 6.59375 53.421875 
Q 6.59375 63.09375 13.40625 68.65625 
Q 20.21875 74.21875 32.171875 74.21875 
Q 37.3125 74.21875 42.625 73.28125 
Q 47.953125 72.359375 53.515625 70.515625 
z
" id="DejaVuSans-83"/>
     <path d="M 9.421875 75.984375 
L 18.40625 75.984375 
L 18.40625 0 
L 9.421875 0 
z
" id="DejaVuSans-108"/>
     <path d="M 9.421875 54.6875 
L 18.40625 54.6875 
L 18.40625 0 
L 9.421875 0 
z
M 9.421875 75.984375 
L 18.40625 75.984375 
L 18.40625 64.59375 
L 9.421875 64.59375 
z
" id="DejaVuSans-105"/>
     <path d="M 45.40625 46.390625 
L 45.40625 75.984375 
L 54.390625 75.984375 
L 54.390625 0 
L 45.40625 0 
L 45.40625 8.203125 
Q 42.578125 3.328125 38.25 0.953125 
Q 33.9375 -1.421875 27.875 -1.421875 
Q 17.96875 -1.421875 11.734375 6.484375 
Q 5.515625 14.40625 5.515625 27.296875 
Q 5.515625 40.1875 11.734375 48.09375 
Q 17.96875 56 27.875 56 
Q 33.9375 56 38.25 53.625 
Q 42.578125 51.265625 45.40625 46.390625 
z
M 14.796875 27.296875 
Q 14.796875 17.390625 18.875 11.75 
Q 22.953125 6.109375 30.078125 6.109375 
Q 37.203125 6.109375 41.296875 11.75 
Q 45.40625 17.390625 45.40625 27.296875 
Q 45.40625 37.203125 41.296875 42.84375 
Q 37.203125 48.484375 30.078125 48.484375 
Q 22.953125 48.484375 18.875 42.84375 
Q 14.796875 37.203125 14.796875 27.296875 
z
" id="DejaVuSans-100"/>
     <path d="M 56.203125 29.59375 
L 56.203125 25.203125 
L 14.890625 25.203125 
Q 15.484375 15.921875 20.484375 11.0625 
Q 25.484375 6.203125 34.421875 6.203125 
Q 39.59375 6.203125 44.453125 7.46875 
Q 49.3125 8.734375 54.109375 11.28125 
L 54.109375 2.78125 
Q 49.265625 0.734375 44.1875 -0.34375 
Q 39.109375 -1.421875 33.890625 -1.421875 
Q 20.796875 -1.421875 13.15625 6.1875 
Q 5.515625 13.8125 5.515625 26.8125 
Q 5.515625 40.234375 12.765625 48.109375 
Q 20.015625 56 32.328125 56 
Q 43.359375 56 49.78125 48.890625 
Q 56.203125 41.796875 56.203125 29.59375 
z
M 47.21875 32.234375 
Q 47.125 39.59375 43.09375 43.984375 
Q 39.0625 48.390625 32.421875 48.390625 
Q 24.90625 48.390625 20.390625 44.140625 
Q 15.875 39.890625 15.1875 32.171875 
z
" id="DejaVuSans-101"/>
     <path d="M 41.109375 46.296875 
Q 39.59375 47.171875 37.8125 47.578125 
Q 36.03125 48 33.890625 48 
Q 26.265625 48 22.1875 43.046875 
Q 18.109375 38.09375 18.109375 28.8125 
L 18.109375 0 
L 9.078125 0 
L 9.078125 54.6875 
L 18.109375 54.6875 
L 18.109375 46.1875 
Q 20.953125 51.171875 25.484375 53.578125 
Q 30.03125 56 36.53125 56 
Q 37.453125 56 38.578125 55.875 
Q 39.703125 55.765625 41.0625 55.515625 
z
" id="DejaVuSans-114"/>
     <path d="M 11.71875 12.40625 
L 22.015625 12.40625 
L 22.015625 4 
L 14.015625 -11.625 
L 7.71875 -11.625 
L 11.71875 4 
z
" id="DejaVuSans-44"/>
     <path id="DejaVuSans-32"/>
     <path d="M 44.390625 34.1875 
Q 47.5625 33.109375 50.5625 29.59375 
Q 53.5625 26.078125 56.59375 19.921875 
L 66.609375 0 
L 56 0 
L 46.6875 18.703125 
Q 43.0625 26.03125 39.671875 28.421875 
Q 36.28125 30.8125 30.421875 30.8125 
L 19.671875 30.8125 
L 19.671875 0 
L 9.8125 0 
L 9.8125 72.90625 
L 32.078125 72.90625 
Q 44.578125 72.90625 50.734375 67.671875 
Q 56.890625 62.453125 56.890625 51.90625 
Q 56.890625 45.015625 53.6875 40.46875 
Q 50.484375 35.9375 44.390625 34.1875 
z
M 19.671875 64.796875 
L 19.671875 38.921875 
L 32.078125 38.921875 
Q 39.203125 38.921875 42.84375 42.21875 
Q 46.484375 45.515625 46.484375 51.90625 
Q 46.484375 58.296875 42.84375 61.546875 
Q 39.203125 64.796875 32.078125 64.796875 
z
" id="DejaVuSans-82"/>
     <path d="M 45.40625 27.984375 
Q 45.40625 37.75 41.375 43.109375 
Q 37.359375 48.484375 30.078125 48.484375 
Q 22.859375 48.484375 18.828125 43.109375 
Q 14.796875 37.75 14.796875 27.984375 
Q 14.796875 18.265625 18.828125 12.890625 
Q 22.859375 7.515625 30.078125 7.515625 
Q 37.359375 7.515625 41.375 12.890625 
Q 45.40625 18.265625 45.40625 27.984375 
z
M 54.390625 6.78125 
Q 54.390625 -7.171875 48.1875 -13.984375 
Q 42 -20.796875 29.203125 -20.796875 
Q 24.46875 -20.796875 20.265625 -20.09375 
Q 16.0625 -19.390625 12.109375 -17.921875 
L 12.109375 -9.1875 
Q 16.0625 -11.328125 19.921875 -12.34375 
Q 23.78125 -13.375 27.78125 -13.375 
Q 36.625 -13.375 41.015625 -8.765625 
Q 45.40625 -4.15625 45.40625 5.171875 
L 45.40625 9.625 
Q 42.625 4.78125 38.28125 2.390625 
Q 33.9375 0 27.875 0 
Q 17.828125 0 11.671875 7.65625 
Q 5.515625 15.328125 5.515625 27.984375 
Q 5.515625 40.671875 11.671875 48.328125 
Q 17.828125 56 27.875 56 
Q 33.9375 56 38.28125 53.609375 
Q 42.625 51.21875 45.40625 46.390625 
L 45.40625 54.6875 
L 54.390625 54.6875 
z
" id="DejaVuSans-103"/>
     <path d="M 54.890625 33.015625 
L 54.890625 0 
L 45.90625 0 
L 45.90625 32.71875 
Q 45.90625 40.484375 42.875 44.328125 
Q 39.84375 48.1875 33.796875 48.1875 
Q 26.515625 48.1875 22.3125 43.546875 
Q 18.109375 38.921875 18.109375 30.90625 
L 18.109375 0 
L 9.078125 0 
L 9.078125 75.984375 
L 18.109375 75.984375 
L 18.109375 46.1875 
Q 21.34375 51.125 25.703125 53.5625 
Q 30.078125 56 35.796875 56 
Q 45.21875 56 50.046875 50.171875 
Q 54.890625 44.34375 54.890625 33.015625 
z
" id="DejaVuSans-104"/>
     <path d="M 18.3125 70.21875 
L 18.3125 54.6875 
L 36.8125 54.6875 
L 36.8125 47.703125 
L 18.3125 47.703125 
L 18.3125 18.015625 
Q 18.3125 11.328125 20.140625 9.421875 
Q 21.96875 7.515625 27.59375 7.515625 
L 36.8125 7.515625 
L 36.8125 0 
L 27.59375 0 
Q 17.1875 0 13.234375 3.875 
Q 9.28125 7.765625 9.28125 18.015625 
L 9.28125 47.703125 
L 2.6875 47.703125 
L 2.6875 54.6875 
L 9.28125 54.6875 
L 9.28125 70.21875 
z
" id="DejaVuSans-116"/>
     <path d="M 32.171875 -5.078125 
Q 28.375 -14.84375 24.75 -17.8125 
Q 21.140625 -20.796875 15.09375 -20.796875 
L 7.90625 -20.796875 
L 7.90625 -13.28125 
L 13.1875 -13.28125 
Q 16.890625 -13.28125 18.9375 -11.515625 
Q 21 -9.765625 23.484375 -3.21875 
L 25.09375 0.875 
L 2.984375 54.6875 
L 12.5 54.6875 
L 29.59375 11.921875 
L 46.6875 54.6875 
L 56.203125 54.6875 
z
" id="DejaVuSans-121"/>
     <path d="M 9.8125 72.90625 
L 19.671875 72.90625 
L 19.671875 43.015625 
L 55.515625 43.015625 
L 55.515625 72.90625 
L 65.375 72.90625 
L 65.375 0 
L 55.515625 0 
L 55.515625 34.71875 
L 19.671875 34.71875 
L 19.671875 0 
L 9.8125 0 
z
" id="DejaVuSans-72"/>
     <path d="M 8.6875 72.90625 
L 18.609375 72.90625 
L 18.609375 28.609375 
Q 18.609375 16.890625 22.84375 11.734375 
Q 27.09375 6.59375 36.625 6.59375 
Q 46.09375 6.59375 50.34375 11.734375 
Q 54.59375 16.890625 54.59375 28.609375 
L 54.59375 72.90625 
L 64.5 72.90625 
L 64.5 27.390625 
Q 64.5 13.140625 57.4375 5.859375 
Q 50.390625 -1.421875 36.625 -1.421875 
Q 22.796875 -1.421875 15.734375 5.859375 
Q 8.6875 13.140625 8.6875 27.390625 
z
" id="DejaVuSans-85"/>
     <path d="M 52 44.1875 
Q 55.375 50.25 60.0625 53.125 
Q 64.75 56 71.09375 56 
Q 79.640625 56 84.28125 50.015625 
Q 88.921875 44.046875 88.921875 33.015625 
L 88.921875 0 
L 79.890625 0 
L 79.890625 32.71875 
Q 79.890625 40.578125 77.09375 44.375 
Q 74.3125 48.1875 68.609375 48.1875 
Q 61.625 48.1875 57.5625 43.546875 
Q 53.515625 38.921875 53.515625 30.90625 
L 53.515625 0 
L 44.484375 0 
L 44.484375 32.71875 
Q 44.484375 40.625 41.703125 44.40625 
Q 38.921875 48.1875 33.109375 48.1875 
Q 26.21875 48.1875 22.15625 43.53125 
Q 18.109375 38.875 18.109375 30.90625 
L 18.109375 0 
L 9.078125 0 
L 9.078125 54.6875 
L 18.109375 54.6875 
L 18.109375 46.1875 
Q 21.1875 51.21875 25.484375 53.609375 
Q 29.78125 56 35.6875 56 
Q 41.65625 56 45.828125 52.96875 
Q 50 49.953125 52 44.1875 
z
" id="DejaVuSans-109"/>
     <path d="M 18.109375 8.203125 
L 18.109375 -20.796875 
L 9.078125 -20.796875 
L 9.078125 54.6875 
L 18.109375 54.6875 
L 18.109375 46.390625 
Q 20.953125 51.265625 25.265625 53.625 
Q 29.59375 56 35.59375 56 
Q 45.5625 56 51.78125 48.09375 
Q 58.015625 40.1875 58.015625 27.296875 
Q 58.015625 14.40625 51.78125 6.484375 
Q 45.5625 -1.421875 35.59375 -1.421875 
Q 29.59375 -1.421875 25.265625 0.953125 
Q 20.953125 3.328125 18.109375 8.203125 
z
M 48.6875 27.296875 
Q 48.6875 37.203125 44.609375 42.84375 
Q 40.53125 48.484375 33.40625 48.484375 
Q 26.265625 48.484375 22.1875 42.84375 
Q 18.109375 37.203125 18.109375 27.296875 
Q 18.109375 17.390625 22.1875 11.75 
Q 26.265625 6.109375 33.40625 6.109375 
Q 40.53125 6.109375 44.609375 11.75 
Q 48.6875 17.390625 48.6875 27.296875 
z
" id="DejaVuSans-112"/>
     <path d="M 17.921875 72.90625 
L 17.921875 45.796875 
L 9.625 45.796875 
L 9.625 72.90625 
z
" id="DejaVuSans-39"/>
     <path d="M 44.28125 53.078125 
L 44.28125 44.578125 
Q 40.484375 46.53125 36.375 47.5 
Q 32.28125 48.484375 27.875 48.484375 
Q 21.1875 48.484375 17.84375 46.4375 
Q 14.5 44.390625 14.5 40.28125 
Q 14.5 37.15625 16.890625 35.375 
Q 19.28125 33.59375 26.515625 31.984375 
L 29.59375 31.296875 
Q 39.15625 29.25 43.1875 25.515625 
Q 47.21875 21.78125 47.21875 15.09375 
Q 47.21875 7.46875 41.1875 3.015625 
Q 35.15625 -1.421875 24.609375 -1.421875 
Q 20.21875 -1.421875 15.453125 -0.5625 
Q 10.6875 0.296875 5.421875 2 
L 5.421875 11.28125 
Q 10.40625 8.6875 15.234375 7.390625 
Q 20.0625 6.109375 24.8125 6.109375 
Q 31.15625 6.109375 34.5625 8.28125 
Q 37.984375 10.453125 37.984375 14.40625 
Q 37.984375 18.0625 35.515625 20.015625 
Q 33.0625 21.96875 24.703125 23.78125 
L 21.578125 24.515625 
Q 13.234375 26.265625 9.515625 29.90625 
Q 5.8125 33.546875 5.8125 39.890625 
Q 5.8125 47.609375 11.28125 51.796875 
Q 16.75 56 26.8125 56 
Q 31.78125 56 36.171875 55.265625 
Q 40.578125 54.546875 44.28125 53.078125 
z
" id="DejaVuSans-115"/>
     <path d="M 9.078125 75.984375 
L 18.109375 75.984375 
L 18.109375 31.109375 
L 44.921875 54.6875 
L 56.390625 54.6875 
L 27.390625 29.109375 
L 57.625 0 
L 45.90625 0 
L 18.109375 26.703125 
L 18.109375 0 
L 9.078125 0 
z
" id="DejaVuSans-107"/>
     <path d="M 5.515625 54.6875 
L 48.1875 54.6875 
L 48.1875 46.484375 
L 14.40625 7.171875 
L 48.1875 7.171875 
L 48.1875 0 
L 4.296875 0 
L 4.296875 8.203125 
L 38.09375 47.515625 
L 5.515625 47.515625 
z
" id="DejaVuSans-122"/>
     <path d="M 30.609375 48.390625 
Q 23.390625 48.390625 19.1875 42.75 
Q 14.984375 37.109375 14.984375 27.296875 
Q 14.984375 17.484375 19.15625 11.84375 
Q 23.34375 6.203125 30.609375 6.203125 
Q 37.796875 6.203125 41.984375 11.859375 
Q 46.1875 17.53125 46.1875 27.296875 
Q 46.1875 37.015625 41.984375 42.703125 
Q 37.796875 48.390625 30.609375 48.390625 
z
M 30.609375 56 
Q 42.328125 56 49.015625 48.375 
Q 55.71875 40.765625 55.71875 27.296875 
Q 55.71875 13.875 49.015625 6.21875 
Q 42.328125 -1.421875 30.609375 -1.421875 
Q 18.84375 -1.421875 12.171875 6.21875 
Q 5.515625 13.875 5.515625 27.296875 
Q 5.515625 40.765625 12.171875 48.375 
Q 18.84375 56 30.609375 56 
z
" id="DejaVuSans-111"/>
     <path d="M 54.890625 33.015625 
L 54.890625 0 
L 45.90625 0 
L 45.90625 32.71875 
Q 45.90625 40.484375 42.875 44.328125 
Q 39.84375 48.1875 33.796875 48.1875 
Q 26.515625 48.1875 22.3125 43.546875 
Q 18.109375 38.921875 18.109375 30.90625 
L 18.109375 0 
L 9.078125 0 
L 9.078125 54.6875 
L 18.109375 54.6875 
L 18.109375 46.1875 
Q 21.34375 51.125 25.703125 53.5625 
Q 30.078125 56 35.796875 56 
Q 45.21875 56 50.046875 50.171875 
Q 54.890625 44.34375 54.890625 33.015625 
z
" id="DejaVuSans-110"/>
    </defs>
    <g transform="translate(112 80.4)scale(0.25 -0.25)">
     <use xlink:href="#DejaVuSans-83"/>
     <use x="63.476562" xlink:href="#DejaVuSans-108"/>
     <use x="91.259766" xlink:href="#DejaVuSans-105"/>
     <use x="119.042969" xlink:href="#DejaVuSans-100"/>
     <use x="182.519531" xlink:href="#DejaVuSans-101"/>
     <use x="244.042969" xlink:href="#DejaVuSans-114"/>
     <use x="285.15625" xlink:href="#DejaVuSans-44"/>
     <use x="316.943359" xlink:href="#DejaVuSans-32"/>
     <use x="348.730469" xlink:href="#DejaVuSans-82"/>
     <use x="418.212891" xlink:href="#DejaVuSans-105"/>
     <use x="445.996094" xlink:href="#DejaVuSans-103"/>
     <use x="509.472656" xlink:href="#DejaVuSans-104"/>
     <use x="572.851562" xlink:href="#DejaVuSans-116"/>
     <use x="612.060547" xlink:href="#DejaVuSans-121"/>
     <use x="671.240234" xlink:href="#DejaVuSans-32"/>
     <use x="703.027344" xlink:href="#DejaVuSans-72"/>
     <use x="778.222656" xlink:href="#DejaVuSans-105"/>
     <use x="806.005859" xlink:href="#DejaVuSans-116"/>
     <use x="845.214844" xlink:href="#DejaVuSans-116"/>
     <use x="884.423828" xlink:href="#DejaVuSans-101"/>
     <use x="945.947266" xlink:href="#DejaVuSans-114"/>
     <use x="987.060547" xlink:href="#DejaVuSans-44"/>
     <use x="1018.847656" xlink:href="#DejaVuSans-32"/>
     <use x="1050.634766" xlink:href="#DejaVuSans-85"/>
     <use x="1123.828125" xlink:href="#DejaVuSans-109"/>
     <use x="1221.240234" xlink:href="#DejaVuSans-112"/>
     <use x="1284.716797" xlink:href="#DejaVuSans-105"/>
     <use x="1312.5" xlink:href="#DejaVuSans-114"/>
     <use x="1353.582031" xlink:href="#DejaVuSans-101"/>
     <use x="1415.105469" xlink:href="#DejaVuSans-39"/>
     <use x="1442.595703" xlink:href="#DejaVuSans-115"/>
     <use x="1494.695312" xlink:href="#DejaVuSans-32"/>
     <use x="1526.482422" xlink:href="#DejaVuSans-83"/>
     <use x="1589.958984" xlink:href="#DejaVuSans-116"/>
     <use x="1629.167969" xlink:href="#DejaVuSans-114"/>
     <use x="1670.28125" xlink:href="#DejaVuSans-105"/>
     <use x="1698.064453" xlink:href="#DejaVuSans-107"/>
     <use x="1755.927734" xlink:href="#DejaVuSans-101"/>
     <use x="1817.451172" xlink:href="#DejaVuSans-122"/>
     <use x="1869.941406" xlink:href="#DejaVuSans-111"/>
     <use x="1931.123047" xlink:href="#DejaVuSans-110"/>
     <use x="1994.501953" xlink:href="#DejaVuSans-101"/>
    </g>
   </g>
  </g>
 </g>
 <defs>
  <clipPath id="p7e941dac1c">
   <rect height="543.6" width="558" x="90" y="86.4"/>
  </clipPath>
 </defs>
</svg>
