<?xml version="1.0" encoding="utf-8" standalone="no"?>
<!DOCTYPE svg PUBLIC "-//W3C//DTD SVG 1.1//EN"
  "http://www.w3.org/Graphics/SVG/1.1/DTD/svg11.dtd">
<!-- Created with matplotlib (https://matplotlib.org/) -->
<svg height="720pt" version="1.1" viewBox="0 0 720 720" width="720pt" xmlns="http://www.w3.org/2000/svg" xmlns:xlink="http://www.w3.org/1999/xlink">
 <defs>
  <style type="text/css">
*{stroke-linecap:butt;stroke-linejoin:round;}
  </style>
 </defs>
 <g id="figure_1">
  <g id="patch_1">
   <path d="M 0 720 
L 720 720 
L 720 0 
L 0 0 
z
" style="fill:#ffffff;"/>
  </g>
  <g id="axes_1">
   <g id="patch_2">
    <path d="M 90 630 
L 648 630 
L 648 86.4 
L 90 86.4 
z
" style="fill:#ffffff;"/>
   </g>
   <g id="matplotlib.axis_1"/>
   <g id="matplotlib.axis_2"/>
   <g id="patch_3">
    <path clip-path="url(#p8545c73200)" d="M 234.15 297.8604 
L 324.0438 297.8604 
L 324.0438 177.07248 
L 234.15 177.07248 
z
" style="fill:#f4c5ad;opacity:0.5;stroke:#000000;stroke-linejoin:miter;"/>
   </g>
   <g id="patch_4">
    <path clip-path="url(#p8545c73200)" d="M 324.049938 297.8604 
L 413.943738 297.8604 
L 413.943738 177.07248 
L 324.049938 177.07248 
z
" style="fill:#f7b194;opacity:0.5;stroke:#000000;stroke-linejoin:miter;"/>
   </g>
   <g id="patch_5">
    <path clip-path="url(#p8545c73200)" d="M 413.950062 297.8604 
L 503.843862 297.8604 
L 503.843862 177.07248 
L 413.950062 177.07248 
z
" style="fill:#b3cdfb;opacity:0.5;stroke:#000000;stroke-linejoin:miter;"/>
   </g>
   <g id="patch_6">
    <path clip-path="url(#p8545c73200)" d="M 234.15 418.7208 
L 324.0438 418.7208 
L 324.0438 297.93288 
L 234.15 297.93288 
z
" style="fill:#b8122a;opacity:0.5;stroke:#000000;stroke-linejoin:miter;"/>
   </g>
   <g id="patch_7">
    <path clip-path="url(#p8545c73200)" d="M 324.049938 418.7208 
L 413.943738 418.7208 
L 413.943738 297.93288 
L 324.049938 297.93288 
z
" style="fill:#b70d28;opacity:0.5;stroke:#000000;stroke-linejoin:miter;"/>
   </g>
   <g id="patch_8">
    <path clip-path="url(#p8545c73200)" d="M 413.950062 418.7208 
L 503.843862 418.7208 
L 503.843862 297.93288 
L 413.950062 297.93288 
z
" style="fill:#e97a5f;opacity:0.5;stroke:#000000;stroke-linejoin:miter;"/>
   </g>
   <g id="patch_9">
    <path clip-path="url(#p8545c73200)" d="M 234.15 539.4 
L 324.0438 539.4 
L 324.0438 418.61208 
L 234.15 418.61208 
z
" style="fill:#dcdddd;opacity:0.5;stroke:#000000;stroke-linejoin:miter;"/>
   </g>
   <g id="patch_10">
    <path clip-path="url(#p8545c73200)" d="M 324.049938 539.4 
L 413.943738 539.4 
L 413.943738 418.61208 
L 324.049938 418.61208 
z
" style="fill:#cfdaea;opacity:0.5;stroke:#000000;stroke-linejoin:miter;"/>
   </g>
   <g id="patch_11">
    <path clip-path="url(#p8545c73200)" d="M 413.950062 539.4 
L 503.843862 539.4 
L 503.843862 418.61208 
L 413.950062 418.61208 
z
" style="fill:#3b4cc0;opacity:0.5;stroke:#000000;stroke-linejoin:miter;"/>
   </g>
   <g id="LineCollection_1">
    <path clip-path="url(#p8545c73200)" d="M 292.909091 528.19999 
L 298.545455 528.545437 
L 304.181818 528.762665 
L 315.454545 528.91067 
L 326.727273 528.809774 
L 366.181818 528.028401 
L 377.454545 527.525786 
L 388.727273 526.694653 
L 394.363636 526.095602 
L 400 525.379481 
L 411.272727 523.492675 
L 416.909091 522.256829 
L 423.49042 520.550336 
L 428.181818 519.169536 
L 434.663521 516.902013 
L 439.454545 514.985394 
L 445.090909 512.525134 
L 450.862126 509.605369 
L 457.261247 505.957047 
L 463.003127 502.308725 
L 468.173847 498.660403 
L 473.272727 494.710974 
L 478.909091 489.83702 
L 481.205187 487.715436 
L 484.944681 484.067114 
L 490.181818 478.506308 
L 494.728583 473.122148 
L 497.514983 469.473826 
L 501.454545 464.163959 
L 502.775483 462.177181 
L 507.209899 454.880537 
L 509.311199 451.232215 
L 511.179679 447.583893 
L 514.483222 440.287248 
L 516.064215 436.638926 
L 518.363636 430.284538 
L 519.822926 425.69396 
L 521.777194 418.397315 
L 523.350676 411.100671 
L 524.530132 403.804027 
L 525.404 396.507383 
L 526.076176 389.210738 
L 526.441081 381.914094 
L 526.582905 374.61745 
L 526.526948 367.320805 
L 526.294739 360.024161 
L 525.402062 345.430872 
L 524.805621 338.134228 
L 522.88796 319.892617 
L 521.889148 312.595973 
L 520.68319 305.299329 
L 519.241418 298.002685 
L 517.585731 290.70604 
L 514.436313 279.761074 
L 512.727273 274.731484 
L 510.425065 268.816107 
L 507.090909 261.290407 
L 503.3596 254.222819 
L 501.328036 250.574497 
L 499.071157 246.926174 
L 495.818182 242.171985 
L 493.961726 239.62953 
L 490.181818 234.865519 
L 487.998966 232.332886 
L 484.545455 228.595197 
L 478.909091 223.010671 
L 472.878597 217.739597 
L 467.636364 213.668816 
L 462 209.636978 
L 456.363636 206.154756 
L 450.727273 202.872907 
L 444.031638 199.497987 
L 439.454545 197.469721 
L 433.818182 195.275461 
L 428.181818 193.322942 
L 422.545455 191.601559 
L 411.272727 188.896732 
L 405.636364 187.896278 
L 394.363636 186.298544 
L 388.727273 185.682107 
L 383.090909 185.181409 
L 371.818182 184.529605 
L 360.545455 184.180148 
L 349.272727 183.91733 
L 315.454545 183.43541 
L 304.181818 183.562328 
L 298.545455 183.7772 
L 287.272727 184.638008 
L 281.636364 185.328536 
L 276 186.186997 
L 270.363636 187.278372 
L 264.727273 188.644297 
L 259.090909 190.194891 
L 253.338683 192.201342 
L 247.818182 194.360505 
L 242.181818 196.922515 
L 236.545455 199.91702 
L 230.909091 203.329134 
L 225.272727 207.243586 
L 219.636364 211.581073 
L 214 216.48463 
L 212.665348 217.739597 
L 208.363636 221.975915 
L 205.459662 225.036242 
L 202.22026 228.684564 
L 197.090909 235.082052 
L 193.757734 239.62953 
L 191.293552 243.277852 
L 189.032978 246.926174 
L 185.818182 252.620687 
L 183.134063 257.871141 
L 179.781994 265.167785 
L 176.946393 272.46443 
L 174.477001 279.761074 
L 172.363078 287.057718 
L 170.571757 294.354362 
L 168.909091 302.284575 
L 167.725027 308.947651 
L 166.648281 316.244295 
L 165.720851 323.54094 
L 164.589419 334.485906 
L 163.654723 345.430872 
L 163.16489 352.727517 
L 162.634407 363.672483 
L 162.493616 370.969128 
L 162.523179 378.265772 
L 162.784129 385.562416 
L 163.272727 392.866714 
L 164.054426 400.155705 
L 165.091997 407.452349 
L 166.468468 414.748993 
L 168.203623 422.045638 
L 169.217966 425.69396 
L 171.556044 432.990604 
L 174.545455 440.841859 
L 177.613709 447.583893 
L 180.181818 452.738629 
L 183.391586 458.528859 
L 185.818182 462.567158 
L 190.412283 469.473826 
L 193.033821 473.122148 
L 197.090909 478.388457 
L 201.906602 484.067114 
L 205.262263 487.715436 
L 208.808485 491.363758 
L 214 496.242584 
L 219.636364 501.033297 
L 225.272727 505.384809 
L 230.909091 509.234613 
L 236.545455 512.626124 
L 242.181818 515.583207 
L 247.818182 518.153718 
L 254.07502 520.550336 
L 259.090909 522.207301 
L 266.477593 524.198658 
L 270.363636 525.099722 
L 276 526.156409 
L 281.636364 527.003293 
L 288.89251 527.84698 
L 292.909091 528.19999 
L 292.909091 528.19999 
" style="fill:none;stroke:#000000;stroke-width:3;"/>
   </g>
   <g id="LineCollection_2">
    <path clip-path="url(#p8545c73200)" d="M 281.636364 476.92298 
L 287.272727 477.867776 
L 292.909091 478.578692 
L 298.545455 479.104645 
L 304.181818 479.455603 
L 321.090909 479.642862 
L 360.545455 478.560331 
L 377.454545 477.595921 
L 385.428588 476.77047 
L 394.363636 475.501174 
L 405.636364 473.132454 
L 405.675511 473.122148 
L 411.272727 471.510792 
L 417.32633 469.473826 
L 422.545455 467.320794 
L 428.181818 464.501636 
L 433.818182 461.561153 
L 439.454545 457.799925 
L 447.221469 451.232215 
L 451.125881 447.583893 
L 457.123993 440.287248 
L 462 433.257161 
L 464.130334 429.342282 
L 467.874131 422.045638 
L 472.76401 407.452349 
L 473.560592 403.804027 
L 474.164298 400.155705 
L 474.595607 396.507383 
L 475.71797 389.210738 
L 476.370165 381.914094 
L 476.574853 378.265772 
L 476.509353 370.969128 
L 475.932985 356.375839 
L 475.244879 349.079195 
L 474.346074 341.78255 
L 473.015796 330.837584 
L 472.305063 327.189262 
L 471.735766 323.54094 
L 471.005242 319.892617 
L 467.39824 305.299329 
L 466.129325 301.651007 
L 465.037955 298.002685 
L 462 289.705502 
L 460.809583 287.057718 
L 456.363636 278.56415 
L 454.761275 276.112752 
L 446.489636 265.167785 
L 445.090909 263.551545 
L 439.190779 257.871141 
L 433.818182 253.808673 
L 428.181818 250.29195 
L 422.410966 246.926174 
L 411.272727 242.487966 
L 405.636364 240.729815 
L 400 239.30939 
L 388.727273 237.239515 
L 383.090909 236.421709 
L 377.454545 235.819044 
L 366.181818 235.065558 
L 354.909091 234.633727 
L 321.090909 233.716287 
L 315.454545 233.790063 
L 309.818182 233.707037 
L 298.545455 234.350482 
L 287.272727 235.603827 
L 281.636364 236.664452 
L 276 238.03167 
L 270.363636 239.676518 
L 264.727273 241.933351 
L 259.090909 244.633421 
L 253.454545 247.901853 
L 247.818182 252.047007 
L 242.181818 257.070834 
L 241.435416 257.871141 
L 236.545455 263.416766 
L 235.215993 265.167785 
L 230.909091 271.428475 
L 226.496303 279.761074 
L 224.73901 283.409396 
L 221.789169 290.70604 
L 219.266026 298.002685 
L 218.286158 301.651007 
L 217.475414 305.299329 
L 216.522448 308.947651 
L 214 320.750625 
L 212.639126 330.837584 
L 210.950553 345.430872 
L 210.667739 349.079195 
L 210.517531 352.727517 
L 209.714969 360.024161 
L 209.341364 374.61745 
L 209.406209 378.265772 
L 210.417947 392.85906 
L 211.440174 400.155705 
L 212.089755 403.804027 
L 214 412.677243 
L 214.640259 414.748993 
L 217.164567 422.045638 
L 220.076234 429.342282 
L 225.272727 438.984897 
L 226.129151 440.287248 
L 230.909091 446.942169 
L 236.545455 453.385684 
L 238.034319 454.880537 
L 242.181818 458.76803 
L 247.818182 463.057271 
L 253.454545 466.593456 
L 259.090909 469.610256 
L 264.727273 471.999334 
L 270.363636 473.969972 
L 276 475.61814 
L 281.636364 476.92298 
L 281.636364 476.92298 
" style="fill:none;stroke:#0000ff;stroke-width:3;"/>
   </g>
   <g id="line2d_1">
    <path clip-path="url(#p8545c73200)" d="M 234.15 539.4 
L 234.15 177 
" style="fill:none;stroke:#ff0000;stroke-linecap:square;stroke-width:1.5;"/>
   </g>
   <g id="line2d_2">
    <path clip-path="url(#p8545c73200)" d="M 503.85 539.4 
L 503.85 177 
" style="fill:none;stroke:#ff0000;stroke-linecap:square;stroke-width:1.5;"/>
   </g>
   <g id="line2d_3">
    <path clip-path="url(#p8545c73200)" d="M 234.15 539.4 
L 503.85 539.4 
" style="fill:none;stroke:#ff0000;stroke-linecap:square;stroke-width:1.5;"/>
   </g>
   <g id="line2d_4">
    <path clip-path="url(#p8545c73200)" d="M 234.15 177 
L 503.85 177 
" style="fill:none;stroke:#ff0000;stroke-linecap:square;stroke-width:1.5;"/>
   </g>
   <g id="text_1">
    <!-- Slider, Leftie Hitter, Umpire's Strikezone -->
    <defs>
     <path d="M 53.515625 70.515625 
L 53.515625 60.890625 
Q 47.90625 63.578125 42.921875 64.890625 
Q 37.9375 66.21875 33.296875 66.21875 
Q 25.25 66.21875 20.875 63.09375 
Q 16.5 59.96875 16.5 54.203125 
Q 16.5 49.359375 19.40625 46.890625 
Q 22.3125 44.4375 30.421875 42.921875 
L 36.375 41.703125 
Q 47.40625 39.59375 52.65625 34.296875 
Q 57.90625 29 57.90625 20.125 
Q 57.90625 9.515625 50.796875 4.046875 
Q 43.703125 -1.421875 29.984375 -1.421875 
Q 24.8125 -1.421875 18.96875 -0.25 
Q 13.140625 0.921875 6.890625 3.21875 
L 6.890625 13.375 
Q 12.890625 10.015625 18.65625 8.296875 
Q 24.421875 6.59375 29.984375 6.59375 
Q 38.421875 6.59375 43.015625 9.90625 
Q 47.609375 13.234375 47.609375 19.390625 
Q 47.609375 24.75 44.3125 27.78125 
Q 41.015625 30.8125 33.5 32.328125 
L 27.484375 33.5 
Q 16.453125 35.6875 11.515625 40.375 
Q 6.59375 45.0625 6.59375 53.421875 
Q 6.59375 63.09375 13.40625 68.65625 
Q 20.21875 74.21875 32.171875 74.21875 
Q 37.3125 74.21875 42.625 73.28125 
Q 47.953125 72.359375 53.515625 70.515625 
z
" id="DejaVuSans-83"/>
     <path d="M 9.421875 75.984375 
L 18.40625 75.984375 
L 18.40625 0 
L 9.421875 0 
z
" id="DejaVuSans-108"/>
     <path d="M 9.421875 54.6875 
L 18.40625 54.6875 
L 18.40625 0 
L 9.421875 0 
z
M 9.421875 75.984375 
L 18.40625 75.984375 
L 18.40625 64.59375 
L 9.421875 64.59375 
z
" id="DejaVuSans-105"/>
     <path d="M 45.40625 46.390625 
L 45.40625 75.984375 
L 54.390625 75.984375 
L 54.390625 0 
L 45.40625 0 
L 45.40625 8.203125 
Q 42.578125 3.328125 38.25 0.953125 
Q 33.9375 -1.421875 27.875 -1.421875 
Q 17.96875 -1.421875 11.734375 6.484375 
Q 5.515625 14.40625 5.515625 27.296875 
Q 5.515625 40.1875 11.734375 48.09375 
Q 17.96875 56 27.875 56 
Q 33.9375 56 38.25 53.625 
Q 42.578125 51.265625 45.40625 46.390625 
z
M 14.796875 27.296875 
Q 14.796875 17.390625 18.875 11.75 
Q 22.953125 6.109375 30.078125 6.109375 
Q 37.203125 6.109375 41.296875 11.75 
Q 45.40625 17.390625 45.40625 27.296875 
Q 45.40625 37.203125 41.296875 42.84375 
Q 37.203125 48.484375 30.078125 48.484375 
Q 22.953125 48.484375 18.875 42.84375 
Q 14.796875 37.203125 14.796875 27.296875 
z
" id="DejaVuSans-100"/>
     <path d="M 56.203125 29.59375 
L 56.203125 25.203125 
L 14.890625 25.203125 
Q 15.484375 15.921875 20.484375 11.0625 
Q 25.484375 6.203125 34.421875 6.203125 
Q 39.59375 6.203125 44.453125 7.46875 
Q 49.3125 8.734375 54.109375 11.28125 
L 54.109375 2.78125 
Q 49.265625 0.734375 44.1875 -0.34375 
Q 39.109375 -1.421875 33.890625 -1.421875 
Q 20.796875 -1.421875 13.15625 6.1875 
Q 5.515625 13.8125 5.515625 26.8125 
Q 5.515625 40.234375 12.765625 48.109375 
Q 20.015625 56 32.328125 56 
Q 43.359375 56 49.78125 48.890625 
Q 56.203125 41.796875 56.203125 29.59375 
z
M 47.21875 32.234375 
Q 47.125 39.59375 43.09375 43.984375 
Q 39.0625 48.390625 32.421875 48.390625 
Q 24.90625 48.390625 20.390625 44.140625 
Q 15.875 39.890625 15.1875 32.171875 
z
" id="DejaVuSans-101"/>
     <path d="M 41.109375 46.296875 
Q 39.59375 47.171875 37.8125 47.578125 
Q 36.03125 48 33.890625 48 
Q 26.265625 48 22.1875 43.046875 
Q 18.109375 38.09375 18.109375 28.8125 
L 18.109375 0 
L 9.078125 0 
L 9.078125 54.6875 
L 18.109375 54.6875 
L 18.109375 46.1875 
Q 20.953125 51.171875 25.484375 53.578125 
Q 30.03125 56 36.53125 56 
Q 37.453125 56 38.578125 55.875 
Q 39.703125 55.765625 41.0625 55.515625 
z
" id="DejaVuSans-114"/>
     <path d="M 11.71875 12.40625 
L 22.015625 12.40625 
L 22.015625 4 
L 14.015625 -11.625 
L 7.71875 -11.625 
L 11.71875 4 
z
" id="DejaVuSans-44"/>
     <path id="DejaVuSans-32"/>
     <path d="M 9.8125 72.90625 
L 19.671875 72.90625 
L 19.671875 8.296875 
L 55.171875 8.296875 
L 55.171875 0 
L 9.8125 0 
z
" id="DejaVuSans-76"/>
     <path d="M 37.109375 75.984375 
L 37.109375 68.5 
L 28.515625 68.5 
Q 23.6875 68.5 21.796875 66.546875 
Q 19.921875 64.59375 19.921875 59.515625 
L 19.921875 54.6875 
L 34.71875 54.6875 
L 34.71875 47.703125 
L 19.921875 47.703125 
L 19.921875 0 
L 10.890625 0 
L 10.890625 47.703125 
L 2.296875 47.703125 
L 2.296875 54.6875 
L 10.890625 54.6875 
L 10.890625 58.5 
Q 10.890625 67.625 15.140625 71.796875 
Q 19.390625 75.984375 28.609375 75.984375 
z
" id="DejaVuSans-102"/>
     <path d="M 18.3125 70.21875 
L 18.3125 54.6875 
L 36.8125 54.6875 
L 36.8125 47.703125 
L 18.3125 47.703125 
L 18.3125 18.015625 
Q 18.3125 11.328125 20.140625 9.421875 
Q 21.96875 7.515625 27.59375 7.515625 
L 36.8125 7.515625 
L 36.8125 0 
L 27.59375 0 
Q 17.1875 0 13.234375 3.875 
Q 9.28125 7.765625 9.28125 18.015625 
L 9.28125 47.703125 
L 2.6875 47.703125 
L 2.6875 54.6875 
L 9.28125 54.6875 
L 9.28125 70.21875 
z
" id="DejaVuSans-116"/>
     <path d="M 9.8125 72.90625 
L 19.671875 72.90625 
L 19.671875 43.015625 
L 55.515625 43.015625 
L 55.515625 72.90625 
L 65.375 72.90625 
L 65.375 0 
L 55.515625 0 
L 55.515625 34.71875 
L 19.671875 34.71875 
L 19.671875 0 
L 9.8125 0 
z
" id="DejaVuSans-72"/>
     <path d="M 8.6875 72.90625 
L 18.609375 72.90625 
L 18.609375 28.609375 
Q 18.609375 16.890625 22.84375 11.734375 
Q 27.09375 6.59375 36.625 6.59375 
Q 46.09375 6.59375 50.34375 11.734375 
Q 54.59375 16.890625 54.59375 28.609375 
L 54.59375 72.90625 
L 64.5 72.90625 
L 64.5 27.390625 
Q 64.5 13.140625 57.4375 5.859375 
Q 50.390625 -1.421875 36.625 -1.421875 
Q 22.796875 -1.421875 15.734375 5.859375 
Q 8.6875 13.140625 8.6875 27.390625 
z
" id="DejaVuSans-85"/>
     <path d="M 52 44.1875 
Q 55.375 50.25 60.0625 53.125 
Q 64.75 56 71.09375 56 
Q 79.640625 56 84.28125 50.015625 
Q 88.921875 44.046875 88.921875 33.015625 
L 88.921875 0 
L 79.890625 0 
L 79.890625 32.71875 
Q 79.890625 40.578125 77.09375 44.375 
Q 74.3125 48.1875 68.609375 48.1875 
Q 61.625 48.1875 57.5625 43.546875 
Q 53.515625 38.921875 53.515625 30.90625 
L 53.515625 0 
L 44.484375 0 
L 44.484375 32.71875 
Q 44.484375 40.625 41.703125 44.40625 
Q 38.921875 48.1875 33.109375 48.1875 
Q 26.21875 48.1875 22.15625 43.53125 
Q 18.109375 38.875 18.109375 30.90625 
L 18.109375 0 
L 9.078125 0 
L 9.078125 54.6875 
L 18.109375 54.6875 
L 18.109375 46.1875 
Q 21.1875 51.21875 25.484375 53.609375 
Q 29.78125 56 35.6875 56 
Q 41.65625 56 45.828125 52.96875 
Q 50 49.953125 52 44.1875 
z
" id="DejaVuSans-109"/>
     <path d="M 18.109375 8.203125 
L 18.109375 -20.796875 
L 9.078125 -20.796875 
L 9.078125 54.6875 
L 18.109375 54.6875 
L 18.109375 46.390625 
Q 20.953125 51.265625 25.265625 53.625 
Q 29.59375 56 35.59375 56 
Q 45.5625 56 51.78125 48.09375 
Q 58.015625 40.1875 58.015625 27.296875 
Q 58.015625 14.40625 51.78125 6.484375 
Q 45.5625 -1.421875 35.59375 -1.421875 
Q 29.59375 -1.421875 25.265625 0.953125 
Q 20.953125 3.328125 18.109375 8.203125 
z
M 48.6875 27.296875 
Q 48.6875 37.203125 44.609375 42.84375 
Q 40.53125 48.484375 33.40625 48.484375 
Q 26.265625 48.484375 22.1875 42.84375 
Q 18.109375 37.203125 18.109375 27.296875 
Q 18.109375 17.390625 22.1875 11.75 
Q 26.265625 6.109375 33.40625 6.109375 
Q 40.53125 6.109375 44.609375 11.75 
Q 48.6875 17.390625 48.6875 27.296875 
z
" id="DejaVuSans-112"/>
     <path d="M 17.921875 72.90625 
L 17.921875 45.796875 
L 9.625 45.796875 
L 9.625 72.90625 
z
" id="DejaVuSans-39"/>
     <path d="M 44.28125 53.078125 
L 44.28125 44.578125 
Q 40.484375 46.53125 36.375 47.5 
Q 32.28125 48.484375 27.875 48.484375 
Q 21.1875 48.484375 17.84375 46.4375 
Q 14.5 44.390625 14.5 40.28125 
Q 14.5 37.15625 16.890625 35.375 
Q 19.28125 33.59375 26.515625 31.984375 
L 29.59375 31.296875 
Q 39.15625 29.25 43.1875 25.515625 
Q 47.21875 21.78125 47.21875 15.09375 
Q 47.21875 7.46875 41.1875 3.015625 
Q 35.15625 -1.421875 24.609375 -1.421875 
Q 20.21875 -1.421875 15.453125 -0.5625 
Q 10.6875 0.296875 5.421875 2 
L 5.421875 11.28125 
Q 10.40625 8.6875 15.234375 7.390625 
Q 20.0625 6.109375 24.8125 6.109375 
Q 31.15625 6.109375 34.5625 8.28125 
Q 37.984375 10.453125 37.984375 14.40625 
Q 37.984375 18.0625 35.515625 20.015625 
Q 33.0625 21.96875 24.703125 23.78125 
L 21.578125 24.515625 
Q 13.234375 26.265625 9.515625 29.90625 
Q 5.8125 33.546875 5.8125 39.890625 
Q 5.8125 47.609375 11.28125 51.796875 
Q 16.75 56 26.8125 56 
Q 31.78125 56 36.171875 55.265625 
Q 40.578125 54.546875 44.28125 53.078125 
z
" id="DejaVuSans-115"/>
     <path d="M 9.078125 75.984375 
L 18.109375 75.984375 
L 18.109375 31.109375 
L 44.921875 54.6875 
L 56.390625 54.6875 
L 27.390625 29.109375 
L 57.625 0 
L 45.90625 0 
L 18.109375 26.703125 
L 18.109375 0 
L 9.078125 0 
z
" id="DejaVuSans-107"/>
     <path d="M 5.515625 54.6875 
L 48.1875 54.6875 
L 48.1875 46.484375 
L 14.40625 7.171875 
L 48.1875 7.171875 
L 48.1875 0 
L 4.296875 0 
L 4.296875 8.203125 
L 38.09375 47.515625 
L 5.515625 47.515625 
z
" id="DejaVuSans-122"/>
     <path d="M 30.609375 48.390625 
Q 23.390625 48.390625 19.1875 42.75 
Q 14.984375 37.109375 14.984375 27.296875 
Q 14.984375 17.484375 19.15625 11.84375 
Q 23.34375 6.203125 30.609375 6.203125 
Q 37.796875 6.203125 41.984375 11.859375 
Q 46.1875 17.53125 46.1875 27.296875 
Q 46.1875 37.015625 41.984375 42.703125 
Q 37.796875 48.390625 30.609375 48.390625 
z
M 30.609375 56 
Q 42.328125 56 49.015625 48.375 
Q 55.71875 40.765625 55.71875 27.296875 
Q 55.71875 13.875 49.015625 6.21875 
Q 42.328125 -1.421875 30.609375 -1.421875 
Q 18.84375 -1.421875 12.171875 6.21875 
Q 5.515625 13.875 5.515625 27.296875 
Q 5.515625 40.765625 12.171875 48.375 
Q 18.84375 56 30.609375 56 
z
" id="DejaVuSans-111"/>
     <path d="M 54.890625 33.015625 
L 54.890625 0 
L 45.90625 0 
L 45.90625 32.71875 
Q 45.90625 40.484375 42.875 44.328125 
Q 39.84375 48.1875 33.796875 48.1875 
Q 26.515625 48.1875 22.3125 43.546875 
Q 18.109375 38.921875 18.109375 30.90625 
L 18.109375 0 
L 9.078125 0 
L 9.078125 54.6875 
L 18.109375 54.6875 
L 18.109375 46.1875 
Q 21.34375 51.125 25.703125 53.5625 
Q 30.078125 56 35.796875 56 
Q 45.21875 56 50.046875 50.171875 
Q 54.890625 44.34375 54.890625 33.015625 
z
" id="DejaVuSans-110"/>
    </defs>
    <g transform="translate(117.197266 80.4)scale(0.25 -0.25)">
     <use xlink:href="#DejaVuSans-83"/>
     <use x="63.476562" xlink:href="#DejaVuSans-108"/>
     <use x="91.259766" xlink:href="#DejaVuSans-105"/>
     <use x="119.042969" xlink:href="#DejaVuSans-100"/>
     <use x="182.519531" xlink:href="#DejaVuSans-101"/>
     <use x="244.042969" xlink:href="#DejaVuSans-114"/>
     <use x="285.15625" xlink:href="#DejaVuSans-44"/>
     <use x="316.943359" xlink:href="#DejaVuSans-32"/>
     <use x="348.730469" xlink:href="#DejaVuSans-76"/>
     <use x="404.427734" xlink:href="#DejaVuSans-101"/>
     <use x="465.951172" xlink:href="#DejaVuSans-102"/>
     <use x="501.140625" xlink:href="#DejaVuSans-116"/>
     <use x="540.349609" xlink:href="#DejaVuSans-105"/>
     <use x="568.132812" xlink:href="#DejaVuSans-101"/>
     <use x="629.65625" xlink:href="#DejaVuSans-32"/>
     <use x="661.443359" xlink:href="#DejaVuSans-72"/>
     <use x="736.638672" xlink:href="#DejaVuSans-105"/>
     <use x="764.421875" xlink:href="#DejaVuSans-116"/>
     <use x="803.630859" xlink:href="#DejaVuSans-116"/>
     <use x="842.839844" xlink:href="#DejaVuSans-101"/>
     <use x="904.363281" xlink:href="#DejaVuSans-114"/>
     <use x="945.476562" xlink:href="#DejaVuSans-44"/>
     <use x="977.263672" xlink:href="#DejaVuSans-32"/>
     <use x="1009.050781" xlink:href="#DejaVuSans-85"/>
     <use x="1082.244141" xlink:href="#DejaVuSans-109"/>
     <use x="1179.65625" xlink:href="#DejaVuSans-112"/>
     <use x="1243.132812" xlink:href="#DejaVuSans-105"/>
     <use x="1270.916016" xlink:href="#DejaVuSans-114"/>
     <use x="1311.998047" xlink:href="#DejaVuSans-101"/>
     <use x="1373.521484" xlink:href="#DejaVuSans-39"/>
     <use x="1401.011719" xlink:href="#DejaVuSans-115"/>
     <use x="1453.111328" xlink:href="#DejaVuSans-32"/>
     <use x="1484.898438" xlink:href="#DejaVuSans-83"/>
     <use x="1548.375" xlink:href="#DejaVuSans-116"/>
     <use x="1587.583984" xlink:href="#DejaVuSans-114"/>
     <use x="1628.697266" xlink:href="#DejaVuSans-105"/>
     <use x="1656.480469" xlink:href="#DejaVuSans-107"/>
     <use x="1714.34375" xlink:href="#DejaVuSans-101"/>
     <use x="1775.867188" xlink:href="#DejaVuSans-122"/>
     <use x="1828.357422" xlink:href="#DejaVuSans-111"/>
     <use x="1889.539062" xlink:href="#DejaVuSans-110"/>
     <use x="1952.917969" xlink:href="#DejaVuSans-101"/>
    </g>
   </g>
  </g>
 </g>
 <defs>
  <clipPath id="p8545c73200">
   <rect height="543.6" width="558" x="90" y="86.4"/>
  </clipPath>
 </defs>
</svg>
