<?xml version="1.0" encoding="utf-8" standalone="no"?>
<!DOCTYPE svg PUBLIC "-//W3C//DTD SVG 1.1//EN"
  "http://www.w3.org/Graphics/SVG/1.1/DTD/svg11.dtd">
<!-- Created with matplotlib (https://matplotlib.org/) -->
<svg height="720pt" version="1.1" viewBox="0 0 720 720" width="720pt" xmlns="http://www.w3.org/2000/svg" xmlns:xlink="http://www.w3.org/1999/xlink">
 <defs>
  <style type="text/css">
*{stroke-linecap:butt;stroke-linejoin:round;}
  </style>
 </defs>
 <g id="figure_1">
  <g id="patch_1">
   <path d="M 0 720 
L 720 720 
L 720 0 
L 0 0 
z
" style="fill:#ffffff;"/>
  </g>
  <g id="axes_1">
   <g id="patch_2">
    <path d="M 90 630 
L 648 630 
L 648 86.4 
L 90 86.4 
z
" style="fill:#ffffff;"/>
   </g>
   <g id="matplotlib.axis_1"/>
   <g id="matplotlib.axis_2"/>
   <g id="LineCollection_1">
    <path clip-path="url(#p4c638d6ea2)" d="M 343.636364 487.990957 
L 349.272727 488.129597 
L 354.909091 488.152445 
L 363.531482 487.953769 
L 371.818182 487.544738 
L 383.090909 486.61875 
L 394.363636 485.317904 
L 405.636364 483.64304 
L 416.909091 481.623525 
L 425.531653 479.758794 
L 428.181818 479.127064 
L 435.819764 477.027136 
L 439.454545 475.906038 
L 445.090909 473.9398 
L 450.963791 471.563819 
L 456.75361 468.832161 
L 462 465.969807 
L 467.636364 462.352667 
L 473.272727 458.06769 
L 473.461903 457.905528 
L 478.909091 452.839848 
L 479.286562 452.442211 
L 484.026649 446.978894 
L 484.545455 446.329291 
L 487.904388 441.515578 
L 490.181818 437.896404 
L 492.585506 433.320603 
L 495.096289 427.857286 
L 496.198814 425.125628 
L 498.042738 419.662312 
L 499.605288 414.198995 
L 500.928752 408.735678 
L 501.991668 403.272362 
L 502.822389 397.809045 
L 503.772335 389.61407 
L 504.444752 381.419095 
L 505.048088 370.492462 
L 505.427518 359.565829 
L 505.523121 351.370854 
L 505.402386 343.175879 
L 505.01728 334.980905 
L 504.32035 326.78593 
L 503.658307 321.322613 
L 502.819119 315.859296 
L 501.454545 308.901541 
L 500.452609 304.932663 
L 498.870113 299.469347 
L 497.035616 294.00603 
L 495.818182 290.800263 
L 493.556913 285.811055 
L 490.768466 280.347739 
L 489.160923 277.61608 
L 485.562582 272.152764 
L 483.524547 269.421106 
L 478.909091 263.905508 
L 473.272727 258.317954 
L 467.636364 253.638277 
L 462.934854 250.299497 
L 462 249.664189 
L 456.363636 246.270889 
L 450.727273 243.353431 
L 445.090909 240.835808 
L 439.454545 238.652691 
L 433.442976 236.641206 
L 428.181818 235.10974 
L 422.545455 233.652152 
L 416.909091 232.374758 
L 411.092177 231.177889 
L 400 229.219444 
L 394.363636 228.354301 
L 383.090909 226.950294 
L 371.818182 225.950828 
L 366.181818 225.615596 
L 360.545455 225.399941 
L 354.909091 225.301515 
L 349.272727 225.324759 
L 343.636364 225.474352 
L 338 225.756398 
L 332.363636 226.184139 
L 326.727273 226.754855 
L 321.090909 227.473947 
L 314.913597 228.446231 
L 309.818182 229.406939 
L 302.072652 231.177889 
L 298.545455 232.095759 
L 292.480522 233.909548 
L 284.849267 236.641206 
L 281.636364 237.920527 
L 276 240.452722 
L 270.363636 243.344269 
L 264.727273 246.645404 
L 259.090909 250.418192 
L 253.454545 254.77562 
L 249.247657 258.494472 
L 246.413743 261.226131 
L 241.367464 266.689447 
L 236.545455 272.820669 
L 233.351178 277.61608 
L 230.909091 281.63603 
L 228.720286 285.811055 
L 226.174236 291.274372 
L 225.026777 294.00603 
L 223.075409 299.469347 
L 221.402944 304.932663 
L 219.973366 310.39598 
L 218.822062 315.859296 
L 217.906281 321.322613 
L 217.184739 326.78593 
L 216.638787 332.249246 
L 216.112859 340.444221 
L 215.891721 348.639196 
L 215.92309 356.834171 
L 216.154203 365.029146 
L 216.685976 375.955779 
L 217.265316 384.150754 
L 218.088975 392.345729 
L 218.818552 397.809045 
L 219.732105 403.272362 
L 220.901683 408.735678 
L 222.29711 414.198995 
L 223.953628 419.662312 
L 225.272727 423.403772 
L 227.130711 427.857286 
L 229.729493 433.320603 
L 231.20179 436.052261 
L 234.622872 441.515578 
L 236.545455 444.298321 
L 240.93874 449.710553 
L 243.45922 452.442211 
L 247.818182 456.671907 
L 252.575441 460.637186 
L 253.454545 461.320955 
L 259.090909 465.27218 
L 264.971204 468.832161 
L 270.363636 471.678842 
L 276.010787 474.295477 
L 282.874261 477.027136 
L 287.272727 478.582723 
L 292.909091 480.346685 
L 301.105321 482.490452 
L 304.181818 483.208122 
L 309.818182 484.347488 
L 315.454545 485.324864 
L 321.090909 486.134208 
L 326.727273 486.799981 
L 332.363636 487.32823 
L 342.837393 487.953769 
L 343.636364 487.990957 
L 343.636364 487.990957 
" style="fill:none;stroke:#000000;stroke-width:3;"/>
   </g>
   <g id="LineCollection_2">
    <path clip-path="url(#p4c638d6ea2)" d="M 338 453.013074 
L 343.636364 453.424736 
L 349.272727 453.646075 
L 354.909091 453.680565 
L 360.545455 453.53434 
L 366.181818 453.217266 
L 374.515879 452.442211 
L 377.454545 452.069244 
L 383.090909 451.197901 
L 391.193114 449.710553 
L 400 447.632518 
L 405.636364 446.06104 
L 411.519982 444.247236 
L 418.906124 441.515578 
L 425.110484 438.78392 
L 428.181818 437.250295 
L 433.818182 433.975452 
L 434.782299 433.320603 
L 439.454545 429.946564 
L 445.090909 424.831682 
L 449.443594 419.662312 
L 450.727273 418.027822 
L 453.074007 414.198995 
L 456.363636 408.270821 
L 458.282931 403.272362 
L 460.097806 397.809045 
L 461.636586 392.345729 
L 462.232879 389.61407 
L 463.110781 384.150754 
L 464.126151 375.955779 
L 464.881627 367.760804 
L 465.405604 359.565829 
L 465.577287 354.102513 
L 465.570049 348.639196 
L 465.355153 343.175879 
L 464.908035 337.712563 
L 464.210347 332.249246 
L 463.249546 326.78593 
L 462 321.233613 
L 460.090334 315.859296 
L 457.84194 310.39598 
L 456.363636 307.166119 
L 453.261041 302.201005 
L 450.727273 298.422261 
L 446.868471 294.00603 
L 444.242655 291.274372 
L 439.454545 287.142378 
L 433.706713 283.079397 
L 428.181818 279.915129 
L 422.545455 277.177156 
L 416.909091 274.810536 
L 409.355949 272.152764 
L 400 269.338155 
L 388.727273 266.658692 
L 383.090909 265.636035 
L 377.454545 264.740891 
L 371.436875 263.957789 
L 366.181818 263.492765 
L 360.545455 263.16038 
L 354.909091 263.007197 
L 349.272727 263.043442 
L 343.636364 263.275318 
L 335.857948 263.957789 
L 332.363636 264.386376 
L 326.727273 265.322672 
L 320.153181 266.689447 
L 315.454545 267.937921 
L 309.818182 269.669578 
L 303.355835 272.152764 
L 297.497512 274.884422 
L 292.5167 277.61608 
L 287.272727 281.075676 
L 281.367157 285.811055 
L 275.884722 291.274372 
L 270.363636 298.398839 
L 268.117661 302.201005 
L 264.727273 308.459968 
L 262.919656 313.127638 
L 261.069083 318.590955 
L 259.502739 324.054271 
L 258.893099 326.78593 
L 258.038167 332.249246 
L 257.417464 337.712563 
L 257.019752 343.175879 
L 256.828904 348.639196 
L 256.822503 354.102513 
L 257.10245 362.297487 
L 257.645076 370.492462 
L 258.383057 378.687437 
L 259.090909 384.69027 
L 260.010589 389.61407 
L 261.24701 395.077387 
L 262.723454 400.540704 
L 264.727273 406.773236 
L 266.913643 411.467337 
L 269.728022 416.930653 
L 270.363636 418.050645 
L 273.451157 422.39397 
L 276 425.765382 
L 281.636364 431.541622 
L 287.272727 436.12678 
L 292.909091 439.773756 
L 298.545455 442.77214 
L 304.181818 445.266188 
L 309.818182 447.340874 
L 318.126764 449.710553 
L 321.090909 450.399009 
L 326.727273 451.502262 
L 332.620822 452.442211 
L 338 453.013074 
L 338 453.013074 
" style="fill:none;stroke:#0000ff;stroke-width:3;"/>
   </g>
   <g id="line2d_1">
    <path clip-path="url(#p4c638d6ea2)" d="M 267.8625 494.1 
L 267.8625 222.3 
" style="fill:none;stroke:#ff0000;stroke-linecap:square;stroke-width:1.5;"/>
   </g>
   <g id="line2d_2">
    <path clip-path="url(#p4c638d6ea2)" d="M 470.1375 494.1 
L 470.1375 222.3 
" style="fill:none;stroke:#ff0000;stroke-linecap:square;stroke-width:1.5;"/>
   </g>
   <g id="line2d_3">
    <path clip-path="url(#p4c638d6ea2)" d="M 267.8625 494.1 
L 470.1375 494.1 
" style="fill:none;stroke:#ff0000;stroke-linecap:square;stroke-width:1.5;"/>
   </g>
   <g id="line2d_4">
    <path clip-path="url(#p4c638d6ea2)" d="M 267.8625 222.3 
L 470.1375 222.3 
" style="fill:none;stroke:#ff0000;stroke-linecap:square;stroke-width:1.5;"/>
   </g>
   <g id="text_1">
    <!-- True MLB Umpire Strikezone -->
    <defs>
     <path d="M -0.296875 72.90625 
L 61.375 72.90625 
L 61.375 64.59375 
L 35.5 64.59375 
L 35.5 0 
L 25.59375 0 
L 25.59375 64.59375 
L -0.296875 64.59375 
z
" id="DejaVuSans-84"/>
     <path d="M 41.109375 46.296875 
Q 39.59375 47.171875 37.8125 47.578125 
Q 36.03125 48 33.890625 48 
Q 26.265625 48 22.1875 43.046875 
Q 18.109375 38.09375 18.109375 28.8125 
L 18.109375 0 
L 9.078125 0 
L 9.078125 54.6875 
L 18.109375 54.6875 
L 18.109375 46.1875 
Q 20.953125 51.171875 25.484375 53.578125 
Q 30.03125 56 36.53125 56 
Q 37.453125 56 38.578125 55.875 
Q 39.703125 55.765625 41.0625 55.515625 
z
" id="DejaVuSans-114"/>
     <path d="M 8.5 21.578125 
L 8.5 54.6875 
L 17.484375 54.6875 
L 17.484375 21.921875 
Q 17.484375 14.15625 20.5 10.265625 
Q 23.53125 6.390625 29.59375 6.390625 
Q 36.859375 6.390625 41.078125 11.03125 
Q 45.3125 15.671875 45.3125 23.6875 
L 45.3125 54.6875 
L 54.296875 54.6875 
L 54.296875 0 
L 45.3125 0 
L 45.3125 8.40625 
Q 42.046875 3.421875 37.71875 1 
Q 33.40625 -1.421875 27.6875 -1.421875 
Q 18.265625 -1.421875 13.375 4.4375 
Q 8.5 10.296875 8.5 21.578125 
z
M 31.109375 56 
z
" id="DejaVuSans-117"/>
     <path d="M 56.203125 29.59375 
L 56.203125 25.203125 
L 14.890625 25.203125 
Q 15.484375 15.921875 20.484375 11.0625 
Q 25.484375 6.203125 34.421875 6.203125 
Q 39.59375 6.203125 44.453125 7.46875 
Q 49.3125 8.734375 54.109375 11.28125 
L 54.109375 2.78125 
Q 49.265625 0.734375 44.1875 -0.34375 
Q 39.109375 -1.421875 33.890625 -1.421875 
Q 20.796875 -1.421875 13.15625 6.1875 
Q 5.515625 13.8125 5.515625 26.8125 
Q 5.515625 40.234375 12.765625 48.109375 
Q 20.015625 56 32.328125 56 
Q 43.359375 56 49.78125 48.890625 
Q 56.203125 41.796875 56.203125 29.59375 
z
M 47.21875 32.234375 
Q 47.125 39.59375 43.09375 43.984375 
Q 39.0625 48.390625 32.421875 48.390625 
Q 24.90625 48.390625 20.390625 44.140625 
Q 15.875 39.890625 15.1875 32.171875 
z
" id="DejaVuSans-101"/>
     <path id="DejaVuSans-32"/>
     <path d="M 9.8125 72.90625 
L 24.515625 72.90625 
L 43.109375 23.296875 
L 61.8125 72.90625 
L 76.515625 72.90625 
L 76.515625 0 
L 66.890625 0 
L 66.890625 64.015625 
L 48.09375 14.015625 
L 38.1875 14.015625 
L 19.390625 64.015625 
L 19.390625 0 
L 9.8125 0 
z
" id="DejaVuSans-77"/>
     <path d="M 9.8125 72.90625 
L 19.671875 72.90625 
L 19.671875 8.296875 
L 55.171875 8.296875 
L 55.171875 0 
L 9.8125 0 
z
" id="DejaVuSans-76"/>
     <path d="M 19.671875 34.8125 
L 19.671875 8.109375 
L 35.5 8.109375 
Q 43.453125 8.109375 47.28125 11.40625 
Q 51.125 14.703125 51.125 21.484375 
Q 51.125 28.328125 47.28125 31.5625 
Q 43.453125 34.8125 35.5 34.8125 
z
M 19.671875 64.796875 
L 19.671875 42.828125 
L 34.28125 42.828125 
Q 41.5 42.828125 45.03125 45.53125 
Q 48.578125 48.25 48.578125 53.8125 
Q 48.578125 59.328125 45.03125 62.0625 
Q 41.5 64.796875 34.28125 64.796875 
z
M 9.8125 72.90625 
L 35.015625 72.90625 
Q 46.296875 72.90625 52.390625 68.21875 
Q 58.5 63.53125 58.5 54.890625 
Q 58.5 48.1875 55.375 44.234375 
Q 52.25 40.28125 46.1875 39.3125 
Q 53.46875 37.75 57.5 32.78125 
Q 61.53125 27.828125 61.53125 20.40625 
Q 61.53125 10.640625 54.890625 5.3125 
Q 48.25 0 35.984375 0 
L 9.8125 0 
z
" id="DejaVuSans-66"/>
     <path d="M 8.6875 72.90625 
L 18.609375 72.90625 
L 18.609375 28.609375 
Q 18.609375 16.890625 22.84375 11.734375 
Q 27.09375 6.59375 36.625 6.59375 
Q 46.09375 6.59375 50.34375 11.734375 
Q 54.59375 16.890625 54.59375 28.609375 
L 54.59375 72.90625 
L 64.5 72.90625 
L 64.5 27.390625 
Q 64.5 13.140625 57.4375 5.859375 
Q 50.390625 -1.421875 36.625 -1.421875 
Q 22.796875 -1.421875 15.734375 5.859375 
Q 8.6875 13.140625 8.6875 27.390625 
z
" id="DejaVuSans-85"/>
     <path d="M 52 44.1875 
Q 55.375 50.25 60.0625 53.125 
Q 64.75 56 71.09375 56 
Q 79.640625 56 84.28125 50.015625 
Q 88.921875 44.046875 88.921875 33.015625 
L 88.921875 0 
L 79.890625 0 
L 79.890625 32.71875 
Q 79.890625 40.578125 77.09375 44.375 
Q 74.3125 48.1875 68.609375 48.1875 
Q 61.625 48.1875 57.5625 43.546875 
Q 53.515625 38.921875 53.515625 30.90625 
L 53.515625 0 
L 44.484375 0 
L 44.484375 32.71875 
Q 44.484375 40.625 41.703125 44.40625 
Q 38.921875 48.1875 33.109375 48.1875 
Q 26.21875 48.1875 22.15625 43.53125 
Q 18.109375 38.875 18.109375 30.90625 
L 18.109375 0 
L 9.078125 0 
L 9.078125 54.6875 
L 18.109375 54.6875 
L 18.109375 46.1875 
Q 21.1875 51.21875 25.484375 53.609375 
Q 29.78125 56 35.6875 56 
Q 41.65625 56 45.828125 52.96875 
Q 50 49.953125 52 44.1875 
z
" id="DejaVuSans-109"/>
     <path d="M 18.109375 8.203125 
L 18.109375 -20.796875 
L 9.078125 -20.796875 
L 9.078125 54.6875 
L 18.109375 54.6875 
L 18.109375 46.390625 
Q 20.953125 51.265625 25.265625 53.625 
Q 29.59375 56 35.59375 56 
Q 45.5625 56 51.78125 48.09375 
Q 58.015625 40.1875 58.015625 27.296875 
Q 58.015625 14.40625 51.78125 6.484375 
Q 45.5625 -1.421875 35.59375 -1.421875 
Q 29.59375 -1.421875 25.265625 0.953125 
Q 20.953125 3.328125 18.109375 8.203125 
z
M 48.6875 27.296875 
Q 48.6875 37.203125 44.609375 42.84375 
Q 40.53125 48.484375 33.40625 48.484375 
Q 26.265625 48.484375 22.1875 42.84375 
Q 18.109375 37.203125 18.109375 27.296875 
Q 18.109375 17.390625 22.1875 11.75 
Q 26.265625 6.109375 33.40625 6.109375 
Q 40.53125 6.109375 44.609375 11.75 
Q 48.6875 17.390625 48.6875 27.296875 
z
" id="DejaVuSans-112"/>
     <path d="M 9.421875 54.6875 
L 18.40625 54.6875 
L 18.40625 0 
L 9.421875 0 
z
M 9.421875 75.984375 
L 18.40625 75.984375 
L 18.40625 64.59375 
L 9.421875 64.59375 
z
" id="DejaVuSans-105"/>
     <path d="M 53.515625 70.515625 
L 53.515625 60.890625 
Q 47.90625 63.578125 42.921875 64.890625 
Q 37.9375 66.21875 33.296875 66.21875 
Q 25.25 66.21875 20.875 63.09375 
Q 16.5 59.96875 16.5 54.203125 
Q 16.5 49.359375 19.40625 46.890625 
Q 22.3125 44.4375 30.421875 42.921875 
L 36.375 41.703125 
Q 47.40625 39.59375 52.65625 34.296875 
Q 57.90625 29 57.90625 20.125 
Q 57.90625 9.515625 50.796875 4.046875 
Q 43.703125 -1.421875 29.984375 -1.421875 
Q 24.8125 -1.421875 18.96875 -0.25 
Q 13.140625 0.921875 6.890625 3.21875 
L 6.890625 13.375 
Q 12.890625 10.015625 18.65625 8.296875 
Q 24.421875 6.59375 29.984375 6.59375 
Q 38.421875 6.59375 43.015625 9.90625 
Q 47.609375 13.234375 47.609375 19.390625 
Q 47.609375 24.75 44.3125 27.78125 
Q 41.015625 30.8125 33.5 32.328125 
L 27.484375 33.5 
Q 16.453125 35.6875 11.515625 40.375 
Q 6.59375 45.0625 6.59375 53.421875 
Q 6.59375 63.09375 13.40625 68.65625 
Q 20.21875 74.21875 32.171875 74.21875 
Q 37.3125 74.21875 42.625 73.28125 
Q 47.953125 72.359375 53.515625 70.515625 
z
" id="DejaVuSans-83"/>
     <path d="M 18.3125 70.21875 
L 18.3125 54.6875 
L 36.8125 54.6875 
L 36.8125 47.703125 
L 18.3125 47.703125 
L 18.3125 18.015625 
Q 18.3125 11.328125 20.140625 9.421875 
Q 21.96875 7.515625 27.59375 7.515625 
L 36.8125 7.515625 
L 36.8125 0 
L 27.59375 0 
Q 17.1875 0 13.234375 3.875 
Q 9.28125 7.765625 9.28125 18.015625 
L 9.28125 47.703125 
L 2.6875 47.703125 
L 2.6875 54.6875 
L 9.28125 54.6875 
L 9.28125 70.21875 
z
" id="DejaVuSans-116"/>
     <path d="M 9.078125 75.984375 
L 18.109375 75.984375 
L 18.109375 31.109375 
L 44.921875 54.6875 
L 56.390625 54.6875 
L 27.390625 29.109375 
L 57.625 0 
L 45.90625 0 
L 18.109375 26.703125 
L 18.109375 0 
L 9.078125 0 
z
" id="DejaVuSans-107"/>
     <path d="M 5.515625 54.6875 
L 48.1875 54.6875 
L 48.1875 46.484375 
L 14.40625 7.171875 
L 48.1875 7.171875 
L 48.1875 0 
L 4.296875 0 
L 4.296875 8.203125 
L 38.09375 47.515625 
L 5.515625 47.515625 
z
" id="DejaVuSans-122"/>
     <path d="M 30.609375 48.390625 
Q 23.390625 48.390625 19.1875 42.75 
Q 14.984375 37.109375 14.984375 27.296875 
Q 14.984375 17.484375 19.15625 11.84375 
Q 23.34375 6.203125 30.609375 6.203125 
Q 37.796875 6.203125 41.984375 11.859375 
Q 46.1875 17.53125 46.1875 27.296875 
Q 46.1875 37.015625 41.984375 42.703125 
Q 37.796875 48.390625 30.609375 48.390625 
z
M 30.609375 56 
Q 42.328125 56 49.015625 48.375 
Q 55.71875 40.765625 55.71875 27.296875 
Q 55.71875 13.875 49.015625 6.21875 
Q 42.328125 -1.421875 30.609375 -1.421875 
Q 18.84375 -1.421875 12.171875 6.21875 
Q 5.515625 13.875 5.515625 27.296875 
Q 5.515625 40.765625 12.171875 48.375 
Q 18.84375 56 30.609375 56 
z
" id="DejaVuSans-111"/>
     <path d="M 54.890625 33.015625 
L 54.890625 0 
L 45.90625 0 
L 45.90625 32.71875 
Q 45.90625 40.484375 42.875 44.328125 
Q 39.84375 48.1875 33.796875 48.1875 
Q 26.515625 48.1875 22.3125 43.546875 
Q 18.109375 38.921875 18.109375 30.90625 
L 18.109375 0 
L 9.078125 0 
L 9.078125 54.6875 
L 18.109375 54.6875 
L 18.109375 46.1875 
Q 21.34375 51.125 25.703125 53.5625 
Q 30.078125 56 35.796875 56 
Q 45.21875 56 50.046875 50.171875 
Q 54.890625 44.34375 54.890625 33.015625 
z
" id="DejaVuSans-110"/>
    </defs>
    <g transform="translate(197.77875 162.24525)scale(0.24 -0.24)">
     <use xlink:href="#DejaVuSans-84"/>
     <use x="60.865234" xlink:href="#DejaVuSans-114"/>
     <use x="101.978516" xlink:href="#DejaVuSans-117"/>
     <use x="165.357422" xlink:href="#DejaVuSans-101"/>
     <use x="226.880859" xlink:href="#DejaVuSans-32"/>
     <use x="258.667969" xlink:href="#DejaVuSans-77"/>
     <use x="344.947266" xlink:href="#DejaVuSans-76"/>
     <use x="400.660156" xlink:href="#DejaVuSans-66"/>
     <use x="469.263672" xlink:href="#DejaVuSans-32"/>
     <use x="501.050781" xlink:href="#DejaVuSans-85"/>
     <use x="574.244141" xlink:href="#DejaVuSans-109"/>
     <use x="671.65625" xlink:href="#DejaVuSans-112"/>
     <use x="735.132812" xlink:href="#DejaVuSans-105"/>
     <use x="762.916016" xlink:href="#DejaVuSans-114"/>
     <use x="803.998047" xlink:href="#DejaVuSans-101"/>
     <use x="865.521484" xlink:href="#DejaVuSans-32"/>
     <use x="897.308594" xlink:href="#DejaVuSans-83"/>
     <use x="960.785156" xlink:href="#DejaVuSans-116"/>
     <use x="999.994141" xlink:href="#DejaVuSans-114"/>
     <use x="1041.107422" xlink:href="#DejaVuSans-105"/>
     <use x="1068.890625" xlink:href="#DejaVuSans-107"/>
     <use x="1126.753906" xlink:href="#DejaVuSans-101"/>
     <use x="1188.277344" xlink:href="#DejaVuSans-122"/>
     <use x="1240.767578" xlink:href="#DejaVuSans-111"/>
     <use x="1301.949219" xlink:href="#DejaVuSans-110"/>
     <use x="1365.328125" xlink:href="#DejaVuSans-101"/>
    </g>
    <!--  2008-2021 -->
    <defs>
     <path d="M 19.1875 8.296875 
L 53.609375 8.296875 
L 53.609375 0 
L 7.328125 0 
L 7.328125 8.296875 
Q 12.9375 14.109375 22.625 23.890625 
Q 32.328125 33.6875 34.8125 36.53125 
Q 39.546875 41.84375 41.421875 45.53125 
Q 43.3125 49.21875 43.3125 52.78125 
Q 43.3125 58.59375 39.234375 62.25 
Q 35.15625 65.921875 28.609375 65.921875 
Q 23.96875 65.921875 18.8125 64.3125 
Q 13.671875 62.703125 7.8125 59.421875 
L 7.8125 69.390625 
Q 13.765625 71.78125 18.9375 73 
Q 24.125 74.21875 28.421875 74.21875 
Q 39.75 74.21875 46.484375 68.546875 
Q 53.21875 62.890625 53.21875 53.421875 
Q 53.21875 48.921875 51.53125 44.890625 
Q 49.859375 40.875 45.40625 35.40625 
Q 44.1875 33.984375 37.640625 27.21875 
Q 31.109375 20.453125 19.1875 8.296875 
z
" id="DejaVuSans-50"/>
     <path d="M 31.78125 66.40625 
Q 24.171875 66.40625 20.328125 58.90625 
Q 16.5 51.421875 16.5 36.375 
Q 16.5 21.390625 20.328125 13.890625 
Q 24.171875 6.390625 31.78125 6.390625 
Q 39.453125 6.390625 43.28125 13.890625 
Q 47.125 21.390625 47.125 36.375 
Q 47.125 51.421875 43.28125 58.90625 
Q 39.453125 66.40625 31.78125 66.40625 
z
M 31.78125 74.21875 
Q 44.046875 74.21875 50.515625 64.515625 
Q 56.984375 54.828125 56.984375 36.375 
Q 56.984375 17.96875 50.515625 8.265625 
Q 44.046875 -1.421875 31.78125 -1.421875 
Q 19.53125 -1.421875 13.0625 8.265625 
Q 6.59375 17.96875 6.59375 36.375 
Q 6.59375 54.828125 13.0625 64.515625 
Q 19.53125 74.21875 31.78125 74.21875 
z
" id="DejaVuSans-48"/>
     <path d="M 31.78125 34.625 
Q 24.75 34.625 20.71875 30.859375 
Q 16.703125 27.09375 16.703125 20.515625 
Q 16.703125 13.921875 20.71875 10.15625 
Q 24.75 6.390625 31.78125 6.390625 
Q 38.8125 6.390625 42.859375 10.171875 
Q 46.921875 13.96875 46.921875 20.515625 
Q 46.921875 27.09375 42.890625 30.859375 
Q 38.875 34.625 31.78125 34.625 
z
M 21.921875 38.8125 
Q 15.578125 40.375 12.03125 44.71875 
Q 8.5 49.078125 8.5 55.328125 
Q 8.5 64.0625 14.71875 69.140625 
Q 20.953125 74.21875 31.78125 74.21875 
Q 42.671875 74.21875 48.875 69.140625 
Q 55.078125 64.0625 55.078125 55.328125 
Q 55.078125 49.078125 51.53125 44.71875 
Q 48 40.375 41.703125 38.8125 
Q 48.828125 37.15625 52.796875 32.3125 
Q 56.78125 27.484375 56.78125 20.515625 
Q 56.78125 9.90625 50.3125 4.234375 
Q 43.84375 -1.421875 31.78125 -1.421875 
Q 19.734375 -1.421875 13.25 4.234375 
Q 6.78125 9.90625 6.78125 20.515625 
Q 6.78125 27.484375 10.78125 32.3125 
Q 14.796875 37.15625 21.921875 38.8125 
z
M 18.3125 54.390625 
Q 18.3125 48.734375 21.84375 45.5625 
Q 25.390625 42.390625 31.78125 42.390625 
Q 38.140625 42.390625 41.71875 45.5625 
Q 45.3125 48.734375 45.3125 54.390625 
Q 45.3125 60.0625 41.71875 63.234375 
Q 38.140625 66.40625 31.78125 66.40625 
Q 25.390625 66.40625 21.84375 63.234375 
Q 18.3125 60.0625 18.3125 54.390625 
z
" id="DejaVuSans-56"/>
     <path d="M 4.890625 31.390625 
L 31.203125 31.390625 
L 31.203125 23.390625 
L 4.890625 23.390625 
z
" id="DejaVuSans-45"/>
     <path d="M 12.40625 8.296875 
L 28.515625 8.296875 
L 28.515625 63.921875 
L 10.984375 60.40625 
L 10.984375 69.390625 
L 28.421875 72.90625 
L 38.28125 72.90625 
L 38.28125 8.296875 
L 54.390625 8.296875 
L 54.390625 0 
L 12.40625 0 
z
" id="DejaVuSans-49"/>
    </defs>
    <g transform="translate(299.776875 189.12)scale(0.24 -0.24)">
     <use xlink:href="#DejaVuSans-32"/>
     <use x="31.787109" xlink:href="#DejaVuSans-50"/>
     <use x="95.410156" xlink:href="#DejaVuSans-48"/>
     <use x="159.033203" xlink:href="#DejaVuSans-48"/>
     <use x="222.65625" xlink:href="#DejaVuSans-56"/>
     <use x="286.279297" xlink:href="#DejaVuSans-45"/>
     <use x="322.363281" xlink:href="#DejaVuSans-50"/>
     <use x="385.986328" xlink:href="#DejaVuSans-48"/>
     <use x="449.609375" xlink:href="#DejaVuSans-50"/>
     <use x="513.232422" xlink:href="#DejaVuSans-49"/>
    </g>
   </g>
  </g>
 </g>
 <defs>
  <clipPath id="p4c638d6ea2">
   <rect height="543.6" width="558" x="90" y="86.4"/>
  </clipPath>
 </defs>
</svg>
