<?xml version="1.0" encoding="utf-8" standalone="no"?>
<!DOCTYPE svg PUBLIC "-//W3C//DTD SVG 1.1//EN"
  "http://www.w3.org/Graphics/SVG/1.1/DTD/svg11.dtd">
<!-- Created with matplotlib (https://matplotlib.org/) -->
<svg height="720pt" version="1.1" viewBox="0 0 720 720" width="720pt" xmlns="http://www.w3.org/2000/svg" xmlns:xlink="http://www.w3.org/1999/xlink">
 <defs>
  <style type="text/css">
*{stroke-linecap:butt;stroke-linejoin:round;}
  </style>
 </defs>
 <g id="figure_1">
  <g id="patch_1">
   <path d="M 0 720 
L 720 720 
L 720 0 
L 0 0 
z
" style="fill:#ffffff;"/>
  </g>
  <g id="axes_1">
   <g id="patch_2">
    <path d="M 90 630 
L 648 630 
L 648 86.4 
L 90 86.4 
z
" style="fill:#ffffff;"/>
   </g>
   <g id="patch_3">
    <path clip-path="url(#p32c5f22349)" d="M 234.15 297.8604 
L 324.0438 297.8604 
L 324.0438 177.07248 
L 234.15 177.07248 
z
" style="fill:#96b7ff;opacity:0.5;stroke:#000000;stroke-linejoin:miter;"/>
   </g>
   <g id="patch_4">
    <path clip-path="url(#p32c5f22349)" d="M 324.049938 297.8604 
L 413.943738 297.8604 
L 413.943738 177.07248 
L 324.049938 177.07248 
z
" style="fill:#d2dbe8;opacity:0.5;stroke:#000000;stroke-linejoin:miter;"/>
   </g>
   <g id="patch_5">
    <path clip-path="url(#p32c5f22349)" d="M 413.950062 297.8604 
L 503.843862 297.8604 
L 503.843862 177.07248 
L 413.950062 177.07248 
z
" style="fill:#5d7ce6;opacity:0.5;stroke:#000000;stroke-linejoin:miter;"/>
   </g>
   <g id="patch_6">
    <path clip-path="url(#p32c5f22349)" d="M 234.15 418.7208 
L 324.0438 418.7208 
L 324.0438 297.93288 
L 234.15 297.93288 
z
" style="fill:#d1493f;opacity:0.5;stroke:#000000;stroke-linejoin:miter;"/>
   </g>
   <g id="patch_7">
    <path clip-path="url(#p32c5f22349)" d="M 324.049938 418.7208 
L 413.943738 418.7208 
L 413.943738 297.93288 
L 324.049938 297.93288 
z
" style="fill:#c53334;opacity:0.5;stroke:#000000;stroke-linejoin:miter;"/>
   </g>
   <g id="patch_8">
    <path clip-path="url(#p32c5f22349)" d="M 413.950062 418.7208 
L 503.843862 418.7208 
L 503.843862 297.93288 
L 413.950062 297.93288 
z
" style="fill:#e9785d;opacity:0.5;stroke:#000000;stroke-linejoin:miter;"/>
   </g>
   <g id="patch_9">
    <path clip-path="url(#p32c5f22349)" d="M 234.15 539.4 
L 324.0438 539.4 
L 324.0438 418.61208 
L 234.15 418.61208 
z
" style="fill:#506bda;opacity:0.5;stroke:#000000;stroke-linejoin:miter;"/>
   </g>
   <g id="patch_10">
    <path clip-path="url(#p32c5f22349)" d="M 324.049938 539.4 
L 413.943738 539.4 
L 413.943738 418.61208 
L 324.049938 418.61208 
z
" style="fill:#3f53c6;opacity:0.5;stroke:#000000;stroke-linejoin:miter;"/>
   </g>
   <g id="patch_11">
    <path clip-path="url(#p32c5f22349)" d="M 413.950062 539.4 
L 503.843862 539.4 
L 503.843862 418.61208 
L 413.950062 418.61208 
z
" style="fill:#3b4cc0;opacity:0.5;stroke:#000000;stroke-linejoin:miter;"/>
   </g>
   <g id="matplotlib.axis_1"/>
   <g id="matplotlib.axis_2"/>
   <g id="LineCollection_1">
    <path clip-path="url(#p32c5f22349)" d="M 304.181818 517.058472 
L 315.454545 518.416924 
L 326.727273 519.390788 
L 338 520.019914 
L 349.272727 520.299355 
L 360.545455 520.252317 
L 371.818182 519.875277 
L 383.090909 519.210817 
L 394.363636 518.229649 
L 406.540458 516.902013 
L 416.909091 515.480321 
L 430.560863 513.253691 
L 439.454545 511.516262 
L 447.833613 509.605369 
L 450.727273 508.875404 
L 456.363636 507.314478 
L 462 505.556796 
L 467.636364 503.566853 
L 473.272727 501.324478 
L 479.210854 498.660403 
L 486.133519 495.012081 
L 492.105713 491.363758 
L 497.295274 487.715436 
L 501.923552 484.067114 
L 507.090909 479.366853 
L 509.612012 476.77047 
L 512.944407 473.122148 
L 515.848957 469.473826 
L 518.579057 465.825503 
L 520.990607 462.177181 
L 524 457.226628 
L 525.262859 454.880537 
L 528.80519 447.583893 
L 530.345783 443.93557 
L 533.020582 436.638926 
L 535.303679 429.342282 
L 537.105193 422.045638 
L 538.60598 414.748993 
L 539.846407 407.452349 
L 540.909091 399.569531 
L 541.593072 392.85906 
L 542.164155 385.562416 
L 542.784779 374.61745 
L 543.147241 363.672483 
L 543.23103 356.375839 
L 543.185771 349.079195 
L 542.981746 341.78255 
L 542.601063 334.485906 
L 542.027817 327.189262 
L 541.253935 319.892617 
L 540.768716 316.244295 
L 539.565216 308.947651 
L 538.101778 301.651007 
L 536.360772 294.354362 
L 535.272727 290.33572 
L 533.030364 283.409396 
L 530.313774 276.112752 
L 528.746927 272.46443 
L 525.232073 265.167785 
L 523.271452 261.519463 
L 518.771062 254.222819 
L 518.363636 253.610584 
L 513.41696 246.926174 
L 512.727273 246.053568 
L 510.346366 243.277852 
L 507.027307 239.62953 
L 501.454545 234.178046 
L 495.818182 229.397438 
L 489.928475 225.036242 
L 484.273778 221.387919 
L 477.778827 217.739597 
L 473.272727 215.465887 
L 467.636364 212.955426 
L 461.361085 210.442953 
L 456.363636 208.699608 
L 450.36978 206.794631 
L 445.090909 205.324733 
L 436.245835 203.146309 
L 433.818182 202.600617 
L 422.545455 200.373403 
L 416.909091 199.378723 
L 405.636364 197.65757 
L 394.363636 196.22958 
L 383.090909 195.14174 
L 371.818182 194.384944 
L 360.545455 193.966361 
L 349.272727 193.916383 
L 343.636364 194.026353 
L 332.363636 194.530708 
L 326.727273 194.920477 
L 315.454545 196.040366 
L 309.818182 196.762053 
L 298.545455 198.557249 
L 292.909091 199.631333 
L 287.272727 200.851147 
L 278.223914 203.146309 
L 270.363636 205.475506 
L 264.727273 207.398131 
L 256.893433 210.442953 
L 253.454545 211.913017 
L 247.818182 214.574152 
L 241.791657 217.739597 
L 235.728418 221.387919 
L 230.15855 225.036242 
L 225.193881 228.684564 
L 219.636364 233.339314 
L 214 238.548871 
L 212.932382 239.62953 
L 208.363636 244.54988 
L 206.342287 246.926174 
L 202.727273 251.478021 
L 200.752336 254.222819 
L 197.090909 259.68195 
L 195.95122 261.519463 
L 191.870056 268.816107 
L 190.087188 272.46443 
L 186.882126 279.761074 
L 185.446675 283.409396 
L 182.97497 290.70604 
L 180.870128 298.002685 
L 179.926543 301.651007 
L 178.385662 308.947651 
L 177.108491 316.244295 
L 176.097714 323.54094 
L 175.331853 330.837584 
L 174.801625 338.134228 
L 174.469149 345.430872 
L 174.330296 352.727517 
L 174.356956 360.024161 
L 174.658254 370.969128 
L 175.530968 385.562416 
L 176.182195 392.85906 
L 177.03052 400.155705 
L 178.105403 407.452349 
L 179.39335 414.748993 
L 180.181818 418.49831 
L 182.022153 425.69396 
L 184.210889 432.990604 
L 185.818182 437.640247 
L 188.387598 443.93557 
L 191.454545 450.487994 
L 193.84358 454.880537 
L 197.090909 460.27059 
L 200.936846 465.825503 
L 203.749988 469.473826 
L 208.363636 474.791092 
L 210.273599 476.77047 
L 214 480.437078 
L 219.636364 485.270571 
L 225.272727 489.514985 
L 230.909091 493.236316 
L 236.545455 496.547478 
L 242.181818 499.489232 
L 248.227015 502.308725 
L 253.454545 504.468733 
L 259.090909 506.573724 
L 264.727273 508.451854 
L 270.363636 510.128758 
L 276 511.643176 
L 282.835497 513.253691 
L 287.272727 514.191437 
L 292.909091 515.260004 
L 304.181818 517.058472 
L 304.181818 517.058472 
" style="fill:none;stroke:#000000;stroke-width:3;"/>
   </g>
   <g id="LineCollection_2">
    <path clip-path="url(#p32c5f22349)" d="M 349.272727 458.723236 
L 354.909091 458.744698 
L 362.223639 458.528859 
L 366.181818 458.285278 
L 371.818182 457.756916 
L 383.090909 456.177781 
L 390.380054 454.880537 
L 394.363636 453.968954 
L 400 452.530067 
L 405.636364 450.89491 
L 415.344099 447.583893 
L 416.909091 446.963713 
L 423.904019 443.93557 
L 428.181818 441.902564 
L 433.818182 438.815178 
L 439.454545 435.267298 
L 442.592742 432.990604 
L 445.090909 431.026187 
L 446.971652 429.342282 
L 450.756103 425.69396 
L 454.035051 422.045638 
L 456.920054 418.397315 
L 459.279772 414.748993 
L 462 410.193687 
L 463.34753 407.452349 
L 466.393563 400.155705 
L 467.652914 396.507383 
L 468.696191 392.85906 
L 470.3335 385.562416 
L 471.076439 381.914094 
L 472.200553 374.61745 
L 473.272727 364.452072 
L 473.323238 363.672483 
L 473.552955 356.375839 
L 473.272727 346.634201 
L 473.201869 345.430872 
L 472.308208 338.134228 
L 471.654733 334.485906 
L 470.887511 330.837584 
L 469.934674 327.189262 
L 467.670299 319.892617 
L 467.636364 319.801401 
L 466.102953 316.244295 
L 464.333993 312.595973 
L 460.215951 305.299329 
L 456.363636 300.00847 
L 454.644585 298.002685 
L 450.727273 293.828718 
L 447.330639 290.70604 
L 445.090909 288.877812 
L 442.671536 287.057718 
L 437.282503 283.409396 
L 433.818182 281.24046 
L 428.181818 278.310969 
L 422.545455 275.621196 
L 414.910461 272.46443 
L 411.272727 271.178894 
L 403.86618 268.816107 
L 394.363636 266.159695 
L 388.727273 264.913975 
L 377.454545 263.033699 
L 371.818182 262.271875 
L 360.539252 261.519463 
L 354.909091 261.277281 
L 349.272727 261.321947 
L 343.636364 261.822693 
L 338 262.099088 
L 332.363636 262.653503 
L 317.992945 265.167785 
L 315.454545 265.786554 
L 305.015978 268.816107 
L 304.181818 269.082827 
L 295.992159 272.46443 
L 287.272727 276.733749 
L 281.636364 280.235882 
L 276 284.354715 
L 272.785323 287.057718 
L 270.363636 289.343747 
L 264.727273 295.437752 
L 262.746365 298.002685 
L 259.090909 303.226367 
L 255.93752 308.947651 
L 253.454545 314.169969 
L 251.256144 319.892617 
L 249.169146 327.189262 
L 247.818182 332.623951 
L 246.959887 338.134228 
L 246.237628 345.430872 
L 245.940991 352.727517 
L 246.149639 363.672483 
L 246.700259 370.969128 
L 247.037536 374.61745 
L 248.06353 381.914094 
L 248.686727 385.562416 
L 249.427808 389.210738 
L 250.331003 392.85906 
L 251.420417 396.507383 
L 252.391018 400.155705 
L 253.551568 403.804027 
L 255.08709 407.452349 
L 259.090909 415.597335 
L 260.780415 418.397315 
L 264.727273 424.037349 
L 266.061287 425.69396 
L 270.363636 430.544769 
L 272.949775 432.990604 
L 277.216822 436.638926 
L 282.430142 440.287248 
L 288.33843 443.93557 
L 292.909091 446.334376 
L 298.545455 448.774665 
L 304.863335 451.232215 
L 309.818182 452.799527 
L 317.558618 454.880537 
L 321.090909 455.639935 
L 326.727273 456.616048 
L 338 458.113003 
L 343.945608 458.528859 
L 349.272727 458.723236 
L 349.272727 458.723236 
" style="fill:none;stroke:#0000ff;stroke-width:3;"/>
   </g>
   <g id="line2d_1">
    <path clip-path="url(#p32c5f22349)" d="M 234.15 539.4 
L 234.15 177 
" style="fill:none;stroke:#ff0000;stroke-linecap:square;stroke-width:1.5;"/>
   </g>
   <g id="line2d_2">
    <path clip-path="url(#p32c5f22349)" d="M 503.85 539.4 
L 503.85 177 
" style="fill:none;stroke:#ff0000;stroke-linecap:square;stroke-width:1.5;"/>
   </g>
   <g id="line2d_3">
    <path clip-path="url(#p32c5f22349)" d="M 234.15 539.4 
L 503.85 539.4 
" style="fill:none;stroke:#ff0000;stroke-linecap:square;stroke-width:1.5;"/>
   </g>
   <g id="line2d_4">
    <path clip-path="url(#p32c5f22349)" d="M 234.15 177 
L 503.85 177 
" style="fill:none;stroke:#ff0000;stroke-linecap:square;stroke-width:1.5;"/>
   </g>
   <g id="text_1">
    <!-- 2 Strikes -->
    <defs>
     <path d="M 19.1875 8.296875 
L 53.609375 8.296875 
L 53.609375 0 
L 7.328125 0 
L 7.328125 8.296875 
Q 12.9375 14.109375 22.625 23.890625 
Q 32.328125 33.6875 34.8125 36.53125 
Q 39.546875 41.84375 41.421875 45.53125 
Q 43.3125 49.21875 43.3125 52.78125 
Q 43.3125 58.59375 39.234375 62.25 
Q 35.15625 65.921875 28.609375 65.921875 
Q 23.96875 65.921875 18.8125 64.3125 
Q 13.671875 62.703125 7.8125 59.421875 
L 7.8125 69.390625 
Q 13.765625 71.78125 18.9375 73 
Q 24.125 74.21875 28.421875 74.21875 
Q 39.75 74.21875 46.484375 68.546875 
Q 53.21875 62.890625 53.21875 53.421875 
Q 53.21875 48.921875 51.53125 44.890625 
Q 49.859375 40.875 45.40625 35.40625 
Q 44.1875 33.984375 37.640625 27.21875 
Q 31.109375 20.453125 19.1875 8.296875 
z
" id="DejaVuSans-50"/>
     <path id="DejaVuSans-32"/>
     <path d="M 53.515625 70.515625 
L 53.515625 60.890625 
Q 47.90625 63.578125 42.921875 64.890625 
Q 37.9375 66.21875 33.296875 66.21875 
Q 25.25 66.21875 20.875 63.09375 
Q 16.5 59.96875 16.5 54.203125 
Q 16.5 49.359375 19.40625 46.890625 
Q 22.3125 44.4375 30.421875 42.921875 
L 36.375 41.703125 
Q 47.40625 39.59375 52.65625 34.296875 
Q 57.90625 29 57.90625 20.125 
Q 57.90625 9.515625 50.796875 4.046875 
Q 43.703125 -1.421875 29.984375 -1.421875 
Q 24.8125 -1.421875 18.96875 -0.25 
Q 13.140625 0.921875 6.890625 3.21875 
L 6.890625 13.375 
Q 12.890625 10.015625 18.65625 8.296875 
Q 24.421875 6.59375 29.984375 6.59375 
Q 38.421875 6.59375 43.015625 9.90625 
Q 47.609375 13.234375 47.609375 19.390625 
Q 47.609375 24.75 44.3125 27.78125 
Q 41.015625 30.8125 33.5 32.328125 
L 27.484375 33.5 
Q 16.453125 35.6875 11.515625 40.375 
Q 6.59375 45.0625 6.59375 53.421875 
Q 6.59375 63.09375 13.40625 68.65625 
Q 20.21875 74.21875 32.171875 74.21875 
Q 37.3125 74.21875 42.625 73.28125 
Q 47.953125 72.359375 53.515625 70.515625 
z
" id="DejaVuSans-83"/>
     <path d="M 18.3125 70.21875 
L 18.3125 54.6875 
L 36.8125 54.6875 
L 36.8125 47.703125 
L 18.3125 47.703125 
L 18.3125 18.015625 
Q 18.3125 11.328125 20.140625 9.421875 
Q 21.96875 7.515625 27.59375 7.515625 
L 36.8125 7.515625 
L 36.8125 0 
L 27.59375 0 
Q 17.1875 0 13.234375 3.875 
Q 9.28125 7.765625 9.28125 18.015625 
L 9.28125 47.703125 
L 2.6875 47.703125 
L 2.6875 54.6875 
L 9.28125 54.6875 
L 9.28125 70.21875 
z
" id="DejaVuSans-116"/>
     <path d="M 41.109375 46.296875 
Q 39.59375 47.171875 37.8125 47.578125 
Q 36.03125 48 33.890625 48 
Q 26.265625 48 22.1875 43.046875 
Q 18.109375 38.09375 18.109375 28.8125 
L 18.109375 0 
L 9.078125 0 
L 9.078125 54.6875 
L 18.109375 54.6875 
L 18.109375 46.1875 
Q 20.953125 51.171875 25.484375 53.578125 
Q 30.03125 56 36.53125 56 
Q 37.453125 56 38.578125 55.875 
Q 39.703125 55.765625 41.0625 55.515625 
z
" id="DejaVuSans-114"/>
     <path d="M 9.421875 54.6875 
L 18.40625 54.6875 
L 18.40625 0 
L 9.421875 0 
z
M 9.421875 75.984375 
L 18.40625 75.984375 
L 18.40625 64.59375 
L 9.421875 64.59375 
z
" id="DejaVuSans-105"/>
     <path d="M 9.078125 75.984375 
L 18.109375 75.984375 
L 18.109375 31.109375 
L 44.921875 54.6875 
L 56.390625 54.6875 
L 27.390625 29.109375 
L 57.625 0 
L 45.90625 0 
L 18.109375 26.703125 
L 18.109375 0 
L 9.078125 0 
z
" id="DejaVuSans-107"/>
     <path d="M 56.203125 29.59375 
L 56.203125 25.203125 
L 14.890625 25.203125 
Q 15.484375 15.921875 20.484375 11.0625 
Q 25.484375 6.203125 34.421875 6.203125 
Q 39.59375 6.203125 44.453125 7.46875 
Q 49.3125 8.734375 54.109375 11.28125 
L 54.109375 2.78125 
Q 49.265625 0.734375 44.1875 -0.34375 
Q 39.109375 -1.421875 33.890625 -1.421875 
Q 20.796875 -1.421875 13.15625 6.1875 
Q 5.515625 13.8125 5.515625 26.8125 
Q 5.515625 40.234375 12.765625 48.109375 
Q 20.015625 56 32.328125 56 
Q 43.359375 56 49.78125 48.890625 
Q 56.203125 41.796875 56.203125 29.59375 
z
M 47.21875 32.234375 
Q 47.125 39.59375 43.09375 43.984375 
Q 39.0625 48.390625 32.421875 48.390625 
Q 24.90625 48.390625 20.390625 44.140625 
Q 15.875 39.890625 15.1875 32.171875 
z
" id="DejaVuSans-101"/>
     <path d="M 44.28125 53.078125 
L 44.28125 44.578125 
Q 40.484375 46.53125 36.375 47.5 
Q 32.28125 48.484375 27.875 48.484375 
Q 21.1875 48.484375 17.84375 46.4375 
Q 14.5 44.390625 14.5 40.28125 
Q 14.5 37.15625 16.890625 35.375 
Q 19.28125 33.59375 26.515625 31.984375 
L 29.59375 31.296875 
Q 39.15625 29.25 43.1875 25.515625 
Q 47.21875 21.78125 47.21875 15.09375 
Q 47.21875 7.46875 41.1875 3.015625 
Q 35.15625 -1.421875 24.609375 -1.421875 
Q 20.21875 -1.421875 15.453125 -0.5625 
Q 10.6875 0.296875 5.421875 2 
L 5.421875 11.28125 
Q 10.40625 8.6875 15.234375 7.390625 
Q 20.0625 6.109375 24.8125 6.109375 
Q 31.15625 6.109375 34.5625 8.28125 
Q 37.984375 10.453125 37.984375 14.40625 
Q 37.984375 18.0625 35.515625 20.015625 
Q 33.0625 21.96875 24.703125 23.78125 
L 21.578125 24.515625 
Q 13.234375 26.265625 9.515625 29.90625 
Q 5.8125 33.546875 5.8125 39.890625 
Q 5.8125 47.609375 11.28125 51.796875 
Q 16.75 56 26.8125 56 
Q 31.78125 56 36.171875 55.265625 
Q 40.578125 54.546875 44.28125 53.078125 
z
" id="DejaVuSans-115"/>
    </defs>
    <g transform="translate(316.38375 80.4)scale(0.24 -0.24)">
     <use xlink:href="#DejaVuSans-50"/>
     <use x="63.623047" xlink:href="#DejaVuSans-32"/>
     <use x="95.410156" xlink:href="#DejaVuSans-83"/>
     <use x="158.886719" xlink:href="#DejaVuSans-116"/>
     <use x="198.095703" xlink:href="#DejaVuSans-114"/>
     <use x="239.208984" xlink:href="#DejaVuSans-105"/>
     <use x="266.992188" xlink:href="#DejaVuSans-107"/>
     <use x="324.855469" xlink:href="#DejaVuSans-101"/>
     <use x="386.378906" xlink:href="#DejaVuSans-115"/>
    </g>
   </g>
  </g>
 </g>
 <defs>
  <clipPath id="p32c5f22349">
   <rect height="543.6" width="558" x="90" y="86.4"/>
  </clipPath>
 </defs>
</svg>
